<svg xmlns="http://www.w3.org/2000/svg" height="240" width="240"><g style="opacity:.8"><path d="M290 32.222c-113.405 0-207.262 84.222-222.981 193.333H0l96.667 96.667 96.667-96.667h-61.188C147.118 152.111 212.202 96.666 290 96.666c88.832 0 161.111 72.28 161.111 161.111 0 88.831-72.279 161.112-161.111 161.112-51.684 0-100.6-25.079-130.84-67.056l-52.298 37.635c42.323 58.78 110.78 93.866 183.138 93.866 124.373 0 225.556-101.198 225.556-225.556C515.556 133.42 414.373 32.222 290 32.222z" data-original="#000000" class="active-path" data-old_color="#000000" style="fill:#fff" transform="translate(20 20) scale(.38793)"/><path d="M257.778 161.111V292.14l96.195 57.711 33.166-55.256-64.917-38.956v-94.527z" data-original="#000000" class="active-path" data-old_color="#000000" style="fill:#fff" transform="translate(20 20) scale(.38793)"/></g></svg>