<svg xmlns:rdf="http://www.w3.org/1999/02/22-rdf-syntax-ns#" xmlns="http://www.w3.org/2000/svg" height="26" width="26" version="1.1" xmlns:cc="http://creativecommons.org/ns#" xmlns:xlink="http://www.w3.org/1999/xlink" xmlns:dc="http://purl.org/dc/elements/1.1/">
 <metadata>
  <rdf:RDF>
   <cc:Work rdf:about="">
    <dc:format>image/svg+xml</dc:format>
    <dc:type rdf:resource="http://purl.org/dc/dcmitype/StillImage"/>
    <dc:title/>
   </cc:Work>
  </rdf:RDF>
 </metadata>
 <path stroke-linejoin="round" d="M20.5,15.5,23,7,17.8,14.5,18,5,14.8,14,13,5,11.2,14,8,5,8.25,14.5,3,7,5.5,15.5z" fill-rule="evenodd" stroke="#000" stroke-linecap="butt" stroke-miterlimit="4" stroke-dasharray="none" stroke-width="0.8" fill="#000"/>
 <path stroke-linejoin="round" d="m20.5,15.5c0,1.16-0.422,0.844-1,2-0.578,0.867,0.211,1.06,0.5,2.5,0.867,0.578,0,1.5,0,1.5s1,0.5,0,1.5c-0.5,0.5-2,0.472-7,0.5-5,0.0275-6.5,0-7-0.5-1-1,0-1.5,0-1.5s-0.867-0.922,0-1.5c0.289-1.44,1.08-1.63,0.5-2.5-0.578-1.16-1-0.844-1-2,2.5-0.5,4.5-1,7.5-1,3-0.000001,5,0.5,7.5,1z" fill-rule="evenodd" stroke="#000" stroke-linecap="butt" stroke-miterlimit="4" stroke-dasharray="none" stroke-width="1" fill="#000"/>
 <path stroke-linejoin="round" d="m19,18c-1.87-0.311-4-0.5-6-0.5s-4.13,0.2-6,0.5m13,2c-1.87-0.311-5-0.5-7-0.5s-5.13,0.2-7,0.5" stroke="#FFF" stroke-linecap="round" stroke-dasharray="none" stroke-miterlimit="4" stroke-width="1" fill="none"/>
 <path id="path3804" stroke-linejoin="miter" d="M5,7a2,2,0,1,1,-4,0,2,2,0,1,1,4,0z" stroke-dashoffset="0" transform="matrix(0.75,0,0,0.75,0.75,0.75)" stroke="#000" stroke-linecap="butt" stroke-miterlimit="4" stroke-dasharray="none" stroke-width="1" fill="#000"/>
 <use xlink:href="#path3804" transform="translate(5,-2)" height="26" width="26" y="0" x="0" fill="#000000"/>
 <use xlink:href="#path3804" transform="translate(10,-2)" height="26" width="26" y="0" x="0" fill="#000000"/>
 <use xlink:href="#path3804" transform="matrix(-1,0,0,1,26,0)" height="26" width="26" y="0" x="0" fill="#000000"/>
 <use xlink:href="#path3804" transform="matrix(-1,0,0,1,21,-2)" height="26" width="26" y="0" x="0" fill="#000000"/>
 <path stroke-linejoin="round" d="m20,22c-1.87-0.311-5-0.5-7-0.5s-5.13,0.2-7,0.5" stroke="#FFF" stroke-linecap="round" stroke-miterlimit="4" stroke-dasharray="none" stroke-width="1" fill="none"/>
 <path stroke-linejoin="round" d="m20,15c-1.87-0.311-5-0.5-7-0.5s-5.13,0.2-7,0.5" stroke="#FFF" stroke-linecap="round" stroke-miterlimit="4" stroke-dasharray="none" stroke-width="1" fill="none"/>
</svg>
