<svg xmlns:rdf="http://www.w3.org/1999/02/22-rdf-syntax-ns#" xmlns="http://www.w3.org/2000/svg" height="26" width="26" version="1.1" xmlns:cc="http://creativecommons.org/ns#" xmlns:xlink="http://www.w3.org/1999/xlink" xmlns:dc="http://purl.org/dc/elements/1.1/">
 <metadata>
  <rdf:RDF>
   <cc:Work rdf:about="">
    <dc:format>image/svg+xml</dc:format>
    <dc:type rdf:resource="http://purl.org/dc/dcmitype/StillImage"/>
    <dc:title/>
   </cc:Work>
  </rdf:RDF>
 </metadata>
 <path stroke-linejoin="miter" d="M13,7,13,2" stroke="#000" stroke-linecap="butt" stroke-dasharray="none" stroke-miterlimit="4" stroke-width="1.20000005" fill="none"/>
 <path stroke-linejoin="miter" d="m10,4.54,6,0" stroke="#000" stroke-linecap="butt" stroke-dasharray="none" stroke-miterlimit="4" stroke-width="1" fill="none"/>
 <path stroke-linejoin="miter" d="m13,14s2.51-3,2-5c-0.6-2.17-1-2-2-2s-1.4-0.17-2,2c-0.5,2,2,5,2,5z" stroke="#000" stroke-linecap="butt" stroke-dasharray="none" stroke-miterlimit="4" stroke-width="1" fill="#000"/>
 <path stroke-linejoin="round" d="m20.5,22,0-4s3.01-2.59,3-6c0-4.97-7.1-5.32-10.5,2v2-2c-3.41-7.32-10.5-6.97-10.5-2-0.00673,3.41,3,6,3,6v4c2,1,4.5,1.5,7.5,1.5s5.5-0.5,7.5-1.5z" stroke="#000" stroke-linecap="round" stroke-dasharray="none" stroke-miterlimit="4" stroke-width="1" fill="#000"/>
 <path id="path3786" fill="none" stroke="#FFF" d="m5.5,22c2-1,4.53-1.5,7.5-1.5s5.5,0.5,7.5,1.5"/>
 <use xlink:href="#path3786" transform="translate(0,-2)" height="26" width="26" stroke="#ffffff" y="0" x="0"/>
 <use xlink:href="#path3786" transform="translate(0,-4)" height="26" width="26" stroke="#ffffff" y="0" x="0"/>
 <path stroke-linejoin="round" d="m19.5,18s3.01-2.59,3-6c0-4.0336-6.7028-3.0221-9.5,3v1-1c-2.816-6.0439-9.5-7.0886-9.5-3-0.00673,3.41,3,6,3,6" stroke="#FFF" stroke-linecap="round" stroke-miterlimit="4" stroke-dasharray="none" stroke-width="1" fill="none"/>
</svg>
