<svg xmlns:rdf="http://www.w3.org/1999/02/22-rdf-syntax-ns#" xmlns="http://www.w3.org/2000/svg" height="26" width="26" version="1.1" xmlns:cc="http://creativecommons.org/ns#" xmlns:dc="http://purl.org/dc/elements/1.1/">
 <metadata>
  <rdf:RDF>
   <cc:Work rdf:about="">
    <dc:format>image/svg+xml</dc:format>
    <dc:type rdf:resource="http://purl.org/dc/dcmitype/StillImage"/>
    <dc:title/>
   </cc:Work>
  </rdf:RDF>
 </metadata>
 <g stroke-linejoin="miter" stroke-dashoffset="0" transform="translate(-23,0)" stroke="#000" stroke-linecap="butt" stroke-dasharray="none" stroke-miterlimit="4" fill="#000">
  <path style="color:#000000;enable-background:accumulate;" d="m5.5,4.5,0,3,0.5,0,1.5,3,0,6-1,2-1,0,0,3-1,0,0,2,17,0,0-2-1,0,0-3-1,0-1-2,0-6,1.5-3,0.5,0,0-3-3,0,0,1-3,0,0-1-3,0,0,1-3,0,0-1z" transform="translate(23,0)"/>
  <path style="enable-background:accumulate;color:#000000;" d="m30,10.5,12,0" stroke="#FFF" stroke-miterlimit="4" stroke-dasharray="none" stroke-width="0.75"/>
  <path style="color:#000000;enable-background:accumulate;" d="m30,16.5,12,0" stroke="#FFF" stroke-dasharray="none" stroke-miterlimit="4" stroke-width="0.75"/>
  <path style="color:#000000;enable-background:accumulate;" d="m28.5,7.5,15,0" stroke="#FFF" stroke-miterlimit="4" stroke-dasharray="none" stroke-width="1"/>
  <path style="color:#000000;enable-background:accumulate;" d="m28,21.5,16,0" stroke="#FFF" stroke-miterlimit="4" stroke-dasharray="none" stroke-width="1"/>
  <path style="color:#000000;enable-background:accumulate;" d="m29,18.5,14,0" stroke="#FFF" stroke-miterlimit="4" stroke-dasharray="none" stroke-width="1"/>
 </g>
</svg>
