<svg xmlns:rdf="http://www.w3.org/1999/02/22-rdf-syntax-ns#" xmlns="http://www.w3.org/2000/svg" height="26" width="26" version="1.1" xmlns:cc="http://creativecommons.org/ns#" xmlns:dc="http://purl.org/dc/elements/1.1/">
 <metadata>
  <rdf:RDF>
   <cc:Work rdf:about="">
    <dc:format>image/svg+xml</dc:format>
    <dc:type rdf:resource="http://purl.org/dc/dcmitype/StillImage"/>
    <dc:title/>
   </cc:Work>
  </rdf:RDF>
 </metadata>
 <g stroke-linejoin="round" transform="scale(0.57777778,0.57777778)" stroke="#000" stroke-miterlimit="4" stroke-dasharray="none">
  <g stroke-width="1.00000001" stroke-linecap="butt" fill="#000">
   <path d="M13,20c-1.3,0.9-3.4,1.5-5,1.5-1.64,0-2.74,1-4,2.5,1,0,2.87-0.5,4.5-0.5,1.6,0,3.3,0,4.5-0.5,1.2,0.5,2.9,0.5,4.5,0.5s3.5,0.5,4.5,0.5c-1.3-1.5-2.4-2.5-4-2.5s-3.7-0.6-5-1.5z" transform="scale(1.7307692,1.7307692)"/>
   <path d="m13,5.5c-6.36,2.31-6.18,8.6-3,9.5,0,0-2,1.5-1,2.5,0,0-1,1,0,2,0.71,0.7,2,0.5,4,0.5s3.3,0.2,4-0.5c1-1,0-2,0-2,1-1-1-2.5-1-2.5,3.2-0.9,3.4-7.19-3-9.5z" transform="scale(1.7307692,1.7307692)"/>
  </g>
  <path stroke-linejoin="miter" d="m17.3,26,10.4,0m-12.1,4.33,13.8,0m-6.9-14.7v5.19m-2.5-2.6,5,0" stroke="#FFF" stroke-linecap="square" stroke-width="2.07692307" fill="none"/>
 </g>
 <path stroke-linejoin="miter" d="m15,4.5a1.5,1.5,0,1,1,-3,0,1.5,1.5,0,1,1,3,0z" transform="translate(-0.5,-0.5)" stroke-dashoffset="0" stroke="#000" stroke-linecap="butt" stroke-miterlimit="4" stroke-dasharray="none" stroke-width="1" fill="#000"/>
</svg>
