<svg xmlns:rdf="http://www.w3.org/1999/02/22-rdf-syntax-ns#" xmlns="http://www.w3.org/2000/svg" height="26" width="26" version="1.1" xmlns:cc="http://creativecommons.org/ns#" xmlns:dc="http://purl.org/dc/elements/1.1/">
 <metadata>
  <rdf:RDF>
   <cc:Work rdf:about="">
    <dc:format>image/svg+xml</dc:format>
    <dc:type rdf:resource="http://purl.org/dc/dcmitype/StillImage"/>
    <dc:title/>
   </cc:Work>
  </rdf:RDF>
 </metadata>
 <path stroke-linejoin="miter" d="m13,4.5c-2,0-2.5,1.53-2.5,2.5,0,1,1,2,1,2-2,1-2.5,3-2.5,3,0,1,0,2,1,3-2,1-3.5,1.95-3.5,7.5h13c0-5.5-1.5-6.5-3.5-7.5,1-1,1-2,1-3,0,0-0.5-2-2.5-3,0,0,1-1,1-2s-0.5-2.5-2.5-2.5z" fill-rule="nonzero" stroke="#000" stroke-linecap="round" stroke-miterlimit="4" stroke-dasharray="none" stroke-width="1" fill="#000"/>
</svg>
