<?xml version="1.0" encoding="UTF-8"?>
<!DOCTYPE svg PUBLIC "-//W3C//DTD SVG 1.0//EN" "http://www.w3.org/TR/2001/REC-SVG-20010904/DTD/svg10.dtd">
<svg
   xmlns:svg="http://www.w3.org/2000/svg"
   xmlns="http://www.w3.org/2000/svg"
   version="1.0"
   width="64"
   height="64"
   id="svg3153">
  <defs
     id="defs3156" />
  <g
     transform="matrix(1.0016115,0,0,1.0182672,-5.156805e-2,-2.1138493)"
     id="g4479">
    <path
       d="M 30.768259,10.924369 C 29.036791,10.924369 27.639723,12.318199 27.639728,14.034978 C 27.639728,15.751757 29.036791,17.136968 30.768259,17.136968 C 32.499728,17.136968 33.90548,15.751757 33.905484,14.034978 C 33.905484,12.318199 32.499724,10.924369 30.768259,10.924369 z M 30.768259,17.136968 C 16.966722,22.113135 16.09987,34.554956 23.000639,36.421019 C 23.000639,36.421019 20.371908,42.859987 20.371908,42.859987 C 23.273129,46.847593 38.021763,47.07119 41.283677,42.859987 C 41.283677,42.859987 38.544569,36.421019 38.544569,36.421019 C 45.445338,34.554956 44.569801,22.113135 30.768259,17.136968 z M 30.768259,46.278933 C 27.98553,48.26015 25.3277,51.42112 21.248719,49.001746 C 17.5456,46.805308 9.8482757,52.155898 9.0467381,52.91203 C 9.0467381,52.91203 11.887168,55.890865 11.887168,55.890865 C 17.815198,51.443893 24.776012,55.69915 30.768259,51.735765 C 36.265761,55.858148 44.633223,50.967288 51.477417,56.079359 C 51.477417,56.079359 54.953262,52.91203 54.953262,52.91203 C 54.953262,52.91203 44.505299,48.078674 41.030865,49.001746 C 35.00946,50.601489 33.429838,48.173892 30.768259,46.278933 z M 30.772114,23.892683 L 30.772114,30.11289 M 27.635406,27.002784 L 33.908831,27.002784"
       id="path4582"
       style="fill:#ffffff;fill-opacity:1;fill-rule:evenodd;stroke:#000000;stroke-width:2;stroke-linecap:round;stroke-linejoin:miter;stroke-miterlimit:4;stroke-dasharray:none;stroke-opacity:1;display:inline" />
    <path
       d="M 22.68221,36.572345 C 26.864494,34.461462 34.558038,34.900124 38.740323,36.572345"
       id="path4588"
       style="fill:none;fill-opacity:0.75;fill-rule:evenodd;stroke:#000000;stroke-width:2;stroke-linecap:butt;stroke-linejoin:miter;stroke-miterlimit:4;stroke-dasharray:none;stroke-opacity:1;display:inline" />
    <path
       d="M 21.030855,42.853497 C 27.073657,39.471968 33.653072,39.048245 40.28131,42.665764"
       id="path4590"
       style="fill:none;stroke:#000000;stroke-width:2;stroke-linecap:butt;stroke-linejoin:miter;stroke-miterlimit:4;stroke-dasharray:none;stroke-opacity:1;display:inline" />
  </g>
</svg>
