<?xml version="1.0" encoding="UTF-8"?>
<!DOCTYPE svg PUBLIC "-//W3C//DTD SVG 1.0//EN" "http://www.w3.org/TR/2001/REC-SVG-20010904/DTD/svg10.dtd">
<svg
   xmlns:svg="http://www.w3.org/2000/svg"
   xmlns="http://www.w3.org/2000/svg"
   version="1.0"
   width="64"
   height="64"
   id="svg2449">
  <defs
     id="defs2451" />
  <path
     d="M 14.89117,56.08699 C 11.46071,47.90636 16.65938,39.07576 23.26772,34.70099 L 24.28728,34.14673 L 23.68251,33.58519 C 19.26818,28.27655 20.68869,21.26738 26.73105,18.14756 C 25.62163,16.32124 25.2643,14.46735 25.67416,12.34281 C 26.53639,9.202264 29.18769,8.055069 32.04438,7.803115 C 34.97685,7.922921 37.25664,9.437134 38.27278,12.34281 C 38.92038,14.47122 38.13045,16.30259 37.21588,18.14756 C 43.91553,21.29693 43.91305,28.01263 40.26441,33.58519 L 39.65965,34.14673 C 46.6426,37.97985 52.86371,47.87263 49.02142,56.09327 C 48.66238,56.23548 15.23038,56.22933 14.89117,56.08699 z"
     id="path3321"
     style="fill:#ffffff;fill-opacity:1;stroke:#000000;stroke-width:2;stroke-miterlimit:4;stroke-dasharray:none;stroke-opacity:1" />
</svg>
