<?xml version="1.0" encoding="UTF-8" standalone="no"?>
<!DOCTYPE svg PUBLIC "-//W3C//DTD SVG 1.0//EN" "http://www.w3.org/TR/2001/REC-SVG-20010904/DTD/svg10.dtd">
<svg xmlns:svg="http://www.w3.org/2000/svg" xmlns="http://www.w3.org/2000/svg" version="1.0" width="64" height="64" viewBox="0 0 504 504">
<path 
 d="M 165,70 L 110,70 110,141 157,181 157,330 110,378 110,417 86,417 86,456 417,456 417,417 393,417 393,378 346,330 346,181 393,141 393,70 338,70 338,102 291,102 291,70 212,70 212,102 165,102 165,70 z"
 style="fill:#ffffff;stroke:#000000;stroke-width:16;stroke-linecap:round;stroke-linejoin:round;stroke-miterlimit:4;" />
<path d="M 110,141 L 393,141" style="stroke:#000000;stroke-width:16;" />
<path d="M 157,181 L 346,181" style="stroke:#000000;stroke-width:16;" />
<path d="M 157,330 L 346,330" style="stroke:#000000;stroke-width:16;" />
<path d="M 110,378 L 393,378" style="stroke:#000000;stroke-width:16;" />
<path d="M 110,417 L 393,417" style="stroke:#000000;stroke-width:16;" />
</svg>
