<svg xmlns="http://www.w3.org/2000/svg" height="512" viewBox="-21 0 512 512" width="512"><path d="M448 232.148c-11.777 0-21.332-9.554-21.332-21.332 0-59.84-23.297-116.074-65.602-158.402-8.34-8.34-8.34-21.82 0-30.164 8.34-8.34 21.825-8.34 30.164 0 50.372 50.367 78.102 117.336 78.102 188.566 0 11.778-9.555 21.332-21.332 21.332zm-426.668 0C9.559 232.148 0 222.594 0 210.816 0 139.586 27.734 72.617 78.102 22.25c8.34-8.34 21.824-8.34 30.164 0 8.343 8.344 8.343 21.824 0 30.164C65.96 94.72 42.668 150.977 42.668 210.816c0 11.778-9.559 21.332-21.336 21.332zm413.422 128.665C402.496 333.546 384 293.695 384 251.476V192c0-75.07-55.766-137.215-128-147.625V21.332C256 9.535 246.441 0 234.668 0c-11.777 0-21.336 9.535-21.336 21.332v23.043c-72.254 10.41-128 72.555-128 147.625v59.477c0 42.218-18.496 82.07-50.941 109.503a37.262 37.262 0 0 0-13.059 28.352c0 20.59 16.746 37.336 37.336 37.336h352c20.586 0 37.332-16.746 37.332-37.336 0-10.922-4.758-21.246-13.246-28.52zM234.668 512c38.633 0 70.953-27.543 78.379-64H156.289c7.422 36.457 39.742 64 78.379 64zm0 0" data-original="#000000" class="active-path" style="fill:#fff" data-old_color="#000000" transform="matrix(.755 0 0 .755 57.826 62.718)"/></svg>