<svg height="512pt" viewBox="-62 0 512 512" width="512pt" xmlns="http://www.w3.org/2000/svg"><path d="M58.941 283.277a277.038 277.038 0 0 1-18.187-114.492C45.964 77.86 116.938 0 212.714 0c94.99 0 172.141 70.09 172.141 156.336 0 44.668-27.19 83.066-52.613 125.707l-24.629 46.871c-21.273 48.64-29.574 105.758 7.77 183.086-4.153-1.676-8.301-3.355-12.45-5.121a590.965 590.965 0 0 1-129.94-73.004 351.851 351.851 0 0 1-91.188-102.574zm0 0" fill="#bdc3c7" fill-rule="evenodd"/><path d="M283.125 478.836a539.708 539.708 0 0 1-99.453-59.024A334.95 334.95 0 0 1 97.43 323.09l-22.23-46.7a257.861 257.861 0 0 1-16.77-106.538C63.266 84.48 131.05 17.656 212.715 17.656c85.187 0 154.484 62.207 154.484 138.68 0 34.226-18.828 65.156-40.605 100.969-3.16 5.183-6.34 10.41-9.492 15.695l-25.387 48.262-.258.574a211.577 211.577 0 0 0-8.332 157zm0 0" fill="#d1d4d1" fill-rule="evenodd"/><path d="M172.727 101.516c0 12.191-9.88 22.07-22.067 22.07-12.191 0-22.07-9.879-22.07-22.07 0-12.188 9.879-22.067 22.07-22.067 12.188 0 22.067 9.88 22.067 22.067zm114.757 0c0 12.191-9.879 22.07-22.066 22.07s-22.07-9.879-22.07-22.07c0-12.188 9.882-22.067 22.07-22.067s22.066 9.88 22.066 22.067zM128.59 158.898h158.894a8.823 8.823 0 0 1 8.829 8.825v17.656a79.446 79.446 0 0 1-79.445 79.45H199.21c-43.879 0-79.45-35.571-79.45-79.45v-17.656c0-4.875 3.954-8.825 8.829-8.825zm0 0" fill="#2c3e50"/><path d="m93.281 319.637-53.656 30.66c-12.7 7.254-28.875 2.844-36.133-9.852-7.254-12.699-2.844-28.875 9.852-36.132L67 273.656m228.723 45.981 53.652 30.66c12.691 7.23 28.84 2.824 36.098-9.852 7.257-12.699 2.843-28.875-9.852-36.132l-53.617-30.657" fill="#bdc3c7"/><path d="M259.504 252.379a79.106 79.106 0 0 1-42.637 12.45h-17.656a79.097 79.097 0 0 1-42.637-12.45c5.774-23.734 27.035-40.445 51.465-40.445 24.43 0 45.691 16.71 51.465 40.445zm0 0" fill="#ff5364"/></svg>