<svg height="512" viewBox="0 0 100 100" width="512" xmlns="http://www.w3.org/2000/svg"><path d="M7.467 34.862h76.292v46.982H7.467z" fill="#4388b9"/><path d="M7.467 81.844V34.862l38.146 23.49zm76.292-46.982v46.982L45.613 58.353z" fill="#509fd7"/><path d="m7.467 34.862 38.145 32.631L83.76 34.862z" fill="#7acaf1"/><path d="M73.848 42.582a904.085 904.085 0 0 0-9.758 7.9c-6.221 5.084-12.36 10.268-18.478 15.473-6.12-5.203-12.258-10.387-18.48-15.472a904.12 904.12 0 0 0-9.757-7.9c-3.305-2.571-6.558-5.204-9.908-7.723 3.007 2.92 6.111 5.727 9.164 8.593a900.718 900.718 0 0 0 9.315 8.417c6.236 5.58 12.561 11.057 18.904 16.514l.762.656.763-.656c6.344-5.454 12.67-10.931 18.906-16.512a907.04 907.04 0 0 0 9.315-8.416c3.052-2.868 6.157-5.674 9.163-8.596-3.352 2.518-6.606 5.15-9.911 7.721z" fill="#3a7ea7"/><circle cx="78.086" cy="32.603" fill="#cd5148" r="14.447"/><path d="M78.156 36.879c-1.1 0-1.864.855-1.864 1.955 0 1.162.763 1.956 1.864 1.956 1.1 0 1.925-.794 1.925-1.956 0-1.1-.825-1.955-1.925-1.955zm-.026-.711c.575 0 1.053-.436 1.104-1.01.382-4.307 1.245-8.95 1.245-9.356-.04-1.141-1.263-1.386-2.364-1.386-1.14 0-2.322.285-2.322 1.346 0 .406.853 5.146 1.232 9.397.05.573.53 1.009 1.104 1.009z" fill="#e6e7e8"/></svg>