<svg xmlns="http://www.w3.org/2000/svg" height="512pt" viewBox="0 -43 512 512" width="512pt"><path d="M85.332 42.668c0 23.562-19.102 42.664-42.664 42.664C19.102 85.332 0 66.23 0 42.668 0 19.102 19.102 0 42.668 0 66.23 0 85.332 19.102 85.332 42.668zm0 170.664C85.332 236.898 66.23 256 42.668 256 19.102 256 0 236.898 0 213.332c0-23.562 19.102-42.664 42.668-42.664 23.562 0 42.664 19.102 42.664 42.664zm0 170.668c0 23.563-19.102 42.668-42.664 42.668C19.102 426.668 0 407.562 0 384s19.102-42.668 42.668-42.668c23.562 0 42.664 19.106 42.664 42.668zm85.336-320h320C502.465 64 512 54.465 512 42.668s-9.535-21.336-21.332-21.336h-320c-11.797 0-21.336 9.54-21.336 21.336S158.872 64 170.668 64zm320 128h-320c-11.797 0-21.336 9.535-21.336 21.332s9.54 21.336 21.336 21.336h320c11.797 0 21.332-9.54 21.332-21.336S502.465 192 490.668 192zm0 170.668h-320c-11.797 0-21.336 9.535-21.336 21.332s9.54 21.332 21.336 21.332h320c11.797 0 21.332-9.535 21.332-21.332s-9.535-21.332-21.332-21.332zm0 0" style="fill:#fff;fill-opacity:1"/></svg>