<svg xmlns="http://www.w3.org/2000/svg" baseProfile="full" width="240" height="240" viewBox="0 0 24 24" xml:space="preserve"><path d="M12.002 2.998A18.986 18.986 0 0 0 .377 7.003c4.038 5.057 7.515 9.37 11.635 14.486 2.443-3.041 4.664-5.805 6.988-8.705V9.585l-3.394 4.224a8.665 8.665 0 0 0-3.603-.811 8.632 8.632 0 0 0-3.613.806L3.27 7.436A17.047 17.047 0 0 1 12.003 5c3.07.015 6.083.859 8.71 2.451l-.44.546h2.568c.245-.297.572-.707.806-.994a18.98 18.98 0 0 0-11.644-4.005zm9 7.002v7.997h1.995V10m-1.996 10v2.003h1.996V20"/></svg>