<svg xmlns="http://www.w3.org/2000/svg" baseProfile="full" width="240" height="240" viewBox="0 0 24 24" xml:space="preserve"><path d="M3.271 1.44 2.003 2.72l2.05 2.05A18.927 18.927 0 0 0 .376 7.003c3.828 4.793 7.759 9.667 11.635 14.486l3.898-4.858 3.32 3.32 1.268-1.27C14.87 13.042 3.271 1.44 3.271 1.44zm8.732 1.558a18.897 18.897 0 0 0-4.142.483L9.56 5.185A17.107 17.107 0 0 1 12.002 5a16.96 16.96 0 0 1 8.71 2.451l-3.954 4.932 1.42 1.42c1.9-2.372 3.838-4.78 5.47-6.8a18.98 18.98 0 0 0-11.646-4.005zm-6.437 3.29 8.922 8.917-2.486 3.096-8.73-10.865A16.59 16.59 0 0 1 5.565 6.29z"/></svg>