<svg xmlns="http://www.w3.org/2000/svg" baseProfile="full" width="240" height="240" viewBox="0 0 24 24" xml:space="preserve"><path d="M12 3A19 19 0 0 0 .375 7c4.04 5.062 7.517 9.37 11.635 14.49l3.49-4.345V14.5a5 5 0 0 1 3.191-4.656C17.186 8.959 14.84 8 12 8 8.989 8 6.68 9.007 5.203 9.842L3.271 7.437A17 17 0 0 1 12 5a17 17 0 0 1 8.715 2.45l-1.88 2.341A5 5 0 0 1 20.5 9.5c.351.002.702.04 1.045.115L23.646 7A18.999 18.999 0 0 0 12 3zm8.5 9c-1.4 0-2.5 1.1-2.5 2.5V16c-.5 0-1 .5-1 1v4c0 .5.5 1 1 1h5c.5 0 1-.5 1-1v-4c0-.5-.5-1-1-1v-1.5c0-1.4-1.1-2.5-2.5-2.5zm0 1c.8 0 1.5.7 1.5 1.5V16h-3v-1.5c0-.8.7-1.5 1.5-1.5z"/></svg>