<svg xmlns="http://www.w3.org/2000/svg" baseProfile="full" width="240" height="240" viewBox="0 0 24 24" xml:space="preserve"><path d="M12 3A19 19 0 0 0 .377 7c4.23 5.303 7.783 9.704 11.633 14.49 1.2-1.49 2.283-2.84 3.49-4.345V14.5a4.99 4.99 0 0 1 .043-.61l-3.54 4.409L3.27 7.436A17 17 0 0 1 12 5a17 17 0 0 1 8.715 2.45l-1.881 2.34A5 5 0 0 1 20.5 9.5c.352.002.703.041 1.047.117.666-.829 1.476-1.843 2.101-2.617A19 19 0 0 0 12 3zm8.5 9c-1.4 0-2.5 1.1-2.5 2.5V16c-.5 0-1 .5-1 1v4c0 .5.5 1 1 1h5c.5 0 1-.5 1-1v-4c0-.5-.5-1-1-1v-1.5c0-1.4-1.1-2.5-2.5-2.5zm0 1c.8 0 1.5.7 1.5 1.5V16h-3v-1.5c0-.8.7-1.5 1.5-1.5z"/></svg>