<svg xmlns="http://www.w3.org/2000/svg" baseProfile="full" width="240" height="240" viewBox="0 0 24 24" xml:space="preserve"><path d="M12 3a18.999 18.999 0 0 1 11.646 4l-2.101 2.615L20.5 9.5a5 5 0 0 0-1.666.291l1.88-2.342A17 17 0 0 0 12 5a17 17 0 0 0-8.729 2.438l5.12 6.367A8.6 8.6 0 0 1 12 13a8.599 8.599 0 0 1 3.555.79l-.055.71v2.645l-3.49 4.345L.375 7A19 19 0 0 1 12 3zm11 13c.5 0 1 .5 1 1v4c0 .5-.5 1-1 1h-5c-.5 0-1-.5-1-1v-4c0-.5.5-1 1-1v-1.5c0-1.4 1.1-2.5 2.5-2.5s2.5 1.1 2.5 2.5V16zm-1 0v-1.5c0-.8-.7-1.5-1.5-1.5s-1.5.7-1.5 1.5V16h3z"/></svg>