<svg xmlns="http://www.w3.org/2000/svg" viewBox="0 0 63.5 63.5" height="240" width="240"><g style="fill:#fff;fill-opacity:1"><path style="fill:#fff;fill-opacity:1" d="M394.668 0H117.332C52.652 0 0 52.629 0 117.332c0 64.707 52.652 117.336 117.332 117.336h277.336c64.68 0 117.332-52.629 117.332-117.336C512 52.629 459.348 0 394.668 0zM117.332 170.668C87.914 170.668 64 146.73 64 117.332 64 87.938 87.914 64 117.332 64c29.422 0 53.336 23.938 53.336 53.332 0 29.398-23.914 53.336-53.336 53.336zM394.668 277.332H117.332C52.652 277.332 0 329.961 0 394.668 0 459.371 52.652 512 117.332 512h277.336C459.348 512 512 459.371 512 394.668c0-64.707-52.652-117.336-117.332-117.336zm0 170.668c-29.422 0-53.336-23.938-53.336-53.332 0-29.398 23.914-53.336 53.336-53.336 29.418 0 53.332 23.938 53.332 53.336C448 424.062 424.086 448 394.668 448zm0 0" transform="matrix(.10335 0 0 .10335 5.292 5.292)"/></g></svg>