<svg xmlns="http://www.w3.org/2000/svg" xml:space="preserve" width="240" height="240"><path d="M384 64h-42.667V10.68c0-5.903-4.063-10.68-9.958-10.68H181.333c-5.896 0-10.667 4.777-10.667 10.68V64H128c-23.531 0-42.667 18.62-42.667 42.18v363.103C85.333 492.842 104.469 512 128 512h256c23.531 0 42.667-19.158 42.667-42.718V106.18C426.667 82.62 407.531 64 384 64zm-44.25 208.26-85.333 138.667a10.675 10.675 0 0 1-9.083 5.073c-.969 0-1.938-.135-2.906-.406a10.654 10.654 0 0 1-7.76-10.26V320h-53.333a10.683 10.683 0 0 1-9.313-5.458 10.669 10.669 0 0 1 .229-10.802l85.333-138.667c2.5-4.063 7.406-5.927 11.99-4.667a10.654 10.654 0 0 1 7.76 10.26V256h53.333c3.865 0 7.427 2.094 9.313 5.458a10.669 10.669 0 0 1-.23 10.802z" data-original="#000000" class="active-path" data-old_color="#000000" style="fill:#fff" transform="translate(20 20) scale(.39063)"/></svg>