<svg xmlns="http://www.w3.org/2000/svg" height="240" width="240"><path d="M427.412 122.118c0-33.723 27.337-61.059 61.059-61.059-33.721 0-61.059-27.337-61.059-61.059 0 33.721-27.337 61.059-61.059 61.059 33.721 0 61.059 27.335 61.059 61.059zm15.265 61.058c0 25.291-20.503 45.794-45.794 45.794 25.292 0 45.794 20.503 45.794 45.794 0-25.292 20.503-45.794 45.794-45.794-25.292.001-45.794-20.502-45.794-45.794zm-228.971 0c0-50.583 41.005-91.588 91.588-91.588-50.583 0-91.588-41.005-91.588-91.588 0 50.583-41.005 91.588-91.588 91.588 50.583 0 91.588 41.006 91.588 91.588zm122.118-91.588L0 427.412l61.059 61.059 335.824-335.824zm-52.115 97.909 43.17-43.17 15.265 15.265-43.17 43.17-15.265-15.265z" data-original="#000000" class="active-path" data-old_color="#000000" style="fill:#fff" transform="translate(20 20) scale(.40944)"/></svg>