<svg data-name="Layer 1" xmlns="http://www.w3.org/2000/svg" width="826" height="541"><path d="m803.637 539.805 1.225-.024a284.08 284.08 0 0 0-4.348-40.598c-5.297-28.713-14.105-47.57-26.178-56.047l-.704 1.002c28.205 19.803 29.991 94.91 30.005 95.667zm-15.311-.293 1.225-.024c-.027-1.356-.792-33.326-13.378-42.163l-.703 1.003c12.078 8.48 12.85 40.858 12.856 41.184z" fill="#f1f1f1"/><circle cx="766.664" cy="438.125" r="6.125" fill="#f1f1f1"/><circle cx="769.697" cy="490.796" r="6.125" fill="#f1f1f1"/><path d="M791.18 447.92a27.205 27.205 0 0 0 1.85 13.928 24.793 24.793 0 0 0 4.168-26.624 27.205 27.205 0 0 0-6.017 12.697zm-20.019 17.856a27.205 27.205 0 0 0 14.037.606 24.793 24.793 0 0 0-25.49-8.743 27.205 27.205 0 0 0 11.453 8.137zm-.226 46.646a19.069 19.069 0 0 0 9.839.425 17.378 17.378 0 0 0-17.867-6.129 19.068 19.068 0 0 0 8.028 5.704zm-488.909 27.383-1.778-.035a412.331 412.331 0 0 1 6.311-58.927c7.688-41.675 20.473-69.046 37.997-81.35l1.021 1.455c-40.938 28.743-43.53 137.759-43.551 138.857zm22.224-.425-1.778-.035c.038-1.969 1.15-48.372 19.418-61.198l1.02 1.455c-17.53 12.308-18.651 59.305-18.66 59.778z" fill="#f1f1f1"/><circle cx="335.692" cy="392.219" r="8.89" fill="#f1f1f1"/><circle cx="331.29" cy="468.67" r="8.89" fill="#f1f1f1"/><path d="M300.106 406.438a39.487 39.487 0 0 1-2.683 20.216 35.986 35.986 0 0 1-6.05-38.644 39.487 39.487 0 0 1 8.733 18.428zm29.058 25.917a39.487 39.487 0 0 1-20.374.88 35.986 35.986 0 0 1 36.999-12.691 39.487 39.487 0 0 1-16.625 11.81zm.328 67.705a27.678 27.678 0 0 1-14.28.616 25.223 25.223 0 0 1 25.933-8.895 27.677 27.677 0 0 1-11.653 8.278z" fill="#f1f1f1"/><path d="m144.679 161.234-4.278-26.168-12.077-3.02s-9.586-2.952-11.826 16.355c-2.24 19.308-.504 55.357-.504 55.357l-26.516 83.97a11.729 11.729 0 1 0 16.194 6.985l34.478-78.878zm73.443-20.593-6.34-25.746 9.922-7.52s7.656-6.478 17.297 10.4c9.642 16.877 22.198 50.712 22.198 50.712l57.358 66.816a11.729 11.729 0 1 1-12.151 12.782l-62.68-59.006zm49.567 385.452 14.383-.001 6.843-55.478-21.229.001.003 55.478z" fill="#ffb7b7"/><path d="m264.02 521.397 28.326-.001a18.052 18.052 0 0 1 18.052 18.05v.587l-46.377.002z" fill="#2f2e41"/><path fill="#ffb7b7" d="m87.016 526.093 14.383-.001 6.843-55.478-21.229.001.003 55.478z"/><path d="m83.347 521.397 28.326-.001a18.052 18.052 0 0 1 18.052 18.05v.587l-46.377.002z" fill="#2f2e41"/><circle cx="175.23" cy="52.431" r="38.902" fill="#2f2e41"/><ellipse cx="323.328" cy="202.419" rx="16.097" ry="12.073" transform="rotate(-45 13.153 338.398)" fill="#2f2e41"/><ellipse cx="387.973" cy="192.279" rx="12.073" ry="16.097" transform="rotate(-66.87 158.54 244.142)" fill="#2f2e41"/><circle cx="363.464" cy="241.218" r="33.016" transform="rotate(-61.337 118.618 309.138)" fill="#ffb7b7"/><path d="M141.772 40.951a44.904 44.904 0 0 0 25.662 7.93 27.517 27.517 0 0 1-10.906 4.488 90.545 90.545 0 0 0 36.985.208 23.937 23.937 0 0 0 7.742-2.66 9.798 9.798 0 0 0 4.78-6.39c.81-4.636-2.801-8.848-6.555-11.686a48.348 48.348 0 0 0-40.629-8.119c-4.538 1.173-9.085 3.155-12.032 6.8s-3.822 9.264-1.013 13.017zm18.146 63.7-32.678 26.687 28.552 68.08.545 10.892s-29.64 27.328-47.98 103.668-55.38 177.778-55.38 177.778l74.102 18.128 51.52-172.69 65.677 135.48 9.343 40.072 57.28-15.901-22.107-107.537-54.22-166.922 4.453-46.114s9.922-23.018-7.315-47.387l-5.406-22.898-27.987-4.77z" fill="#2f2e41"/><path d="M709.415 346.93H482.543a6.841 6.841 0 0 1-6.833-6.834V263.56a6.841 6.841 0 0 1 6.833-6.834h226.872a6.841 6.841 0 0 1 6.833 6.834v76.535a6.841 6.841 0 0 1-6.833 6.833z" fill="#e5e5e5"/><path fill="#fff" d="M511.244 277.228h60.135v6.833h-60.135z"/><circle cx="650.647" cy="281.328" r="4.1" fill="#00b0ff"/><circle cx="664.314" cy="281.328" r="4.1" fill="#00b0ff"/><circle cx="677.981" cy="281.328" r="4.1" fill="#00b0ff"/><path d="M709.415 443.965H482.543a6.841 6.841 0 0 1-6.833-6.834v-76.535a6.841 6.841 0 0 1 6.833-6.833h226.872a6.841 6.841 0 0 1 6.833 6.833v76.535a6.841 6.841 0 0 1-6.833 6.834z" fill="#e5e5e5"/><path fill="#fff" d="M511.244 374.263h60.135v6.833h-60.135z"/><circle cx="650.647" cy="378.363" r="4.1" fill="#00b0ff"/><circle cx="664.314" cy="378.363" r="4.1" fill="#00b0ff"/><circle cx="677.981" cy="378.363" r="4.1" fill="#00b0ff"/><path d="M709.415 541H482.543a6.841 6.841 0 0 1-6.833-6.833v-76.535a6.841 6.841 0 0 1 6.833-6.834h226.872a6.841 6.841 0 0 1 6.833 6.834v76.535a6.841 6.841 0 0 1-6.833 6.833z" fill="#e5e5e5"/><path fill="#fff" d="M511.244 471.299h60.135v6.833h-60.135z"/><circle cx="650.647" cy="475.399" r="4.1" fill="#00b0ff"/><circle cx="664.314" cy="475.399" r="4.1" fill="#00b0ff"/><circle cx="677.981" cy="475.399" r="4.1" fill="#00b0ff"/><path d="M437.17 375.975a51.658 51.658 0 0 1-12.806-1.656l-.825-.229-.764-.383c-27.648-13.862-50.972-32.171-69.326-54.42a206.016 206.016 0 0 1-35.004-62.156 239.23 239.23 0 0 1-13.528-84.274c.011-.602.021-1.067.021-1.387 0-13.939 7.738-26.17 19.712-31.159 9.165-3.819 92.375-37.996 98.387-40.466 11.322-5.673 23.402-.938 25.335-.11 4.335 1.773 81.258 33.235 97.881 41.15 17.132 8.159 21.703 22.814 21.703 30.187 0 33.382-5.782 64.58-17.184 92.727a214.708 214.708 0 0 1-38.585 62.183c-31.498 35.447-63.004 48.013-63.309 48.124a34.427 34.427 0 0 1-11.708 1.87zm-7.41-18.353c2.732.612 9.02 1.531 13.12.036 5.207-1.9 31.577-15.574 56.22-43.305 34.047-38.315 51.322-86.48 51.348-143.157-.061-1.149-.877-9.338-11.722-14.503-16.3-7.762-96.255-40.455-97.061-40.785l-.221-.094c-1.676-.702-7.008-2.18-10.684-.254l-.736.343c-.891.366-89.22 36.644-98.64 40.57-6.59 2.745-8.938 9.547-8.938 14.997 0 .399-.01.978-.025 1.727-.752 38.78 8.222 134.208 107.34 184.425z" fill="#3f3d56"/><path d="M426.698 107.805s-89.131 36.608-98.68 40.587-14.326 13.528-14.326 23.078-7.162 134.162 113.006 194.412c0 0 10.907 3.017 19.181 0s113.323-53.95 113.323-194.81c0 0 0-14.324-16.713-22.283s-97.512-40.984-97.512-40.984-9.923-4.377-18.279 0z" fill="#00b0ff"/><path d="M436.248 136.454v195.289s89.927-43.288 89.131-157.09z" opacity=".2"/><path d="M825 541H1a1 1 0 0 1 0-2h824a1 1 0 0 1 0 2z" fill="#cbcbcb"/></svg>