<?xml version="1.0" encoding="UTF-8" standalone="no"?><svg   xmlns:dc="http://purl.org/dc/elements/1.1/"   xmlns:cc="http://creativecommons.org/ns#"   xmlns:rdf="http://www.w3.org/1999/02/22-rdf-syntax-ns#"   xmlns:svg="http://www.w3.org/2000/svg"   xmlns="http://www.w3.org/2000/svg"   xmlns:sodipodi="http://sodipodi.sourceforge.net/DTD/sodipodi-0.dtd"   xmlns:inkscape="http://www.inkscape.org/namespaces/inkscape"   width="210mm"   height="210mm"   viewBox="0 0 210 210"   version="1.1"   id="svg8"   inkscape:version="1.0.1 (3bc2e813f5, 2020-09-07, custom)"   sodipodi:docname="lan_dark.svg">  <defs     id="defs2" />  <sodipodi:namedview     id="base"     pagecolor="#626262"     bordercolor="#666666"     borderopacity="1.0"     inkscape:pageopacity="0"     inkscape:pageshadow="2"     inkscape:zoom="0.5"     inkscape:cx="352.64728"     inkscape:cy="356.30461"     inkscape:document-units="px"     inkscape:current-layer="layer1"     inkscape:document-rotation="0"     showgrid="false"     showborder="true"     inkscape:snap-global="false"     inkscape:window-width="948"     inkscape:window-height="990"     inkscape:window-x="8"     inkscape:window-y="35"     inkscape:window-maximized="0" />  <metadata     id="metadata5">    <rdf:RDF>      <cc:Work         rdf:about="">        <dc:format>image/svg+xml</dc:format>        <dc:type           rdf:resource="http://purl.org/dc/dcmitype/StillImage" />        <dc:title />      </cc:Work>    </rdf:RDF>  </metadata>  <g     inkscape:label="Layer 1"     inkscape:groupmode="layer"     id="layer1">    <path       id="rect940-5"       style="opacity:1;fill:#000000;fill-opacity:1;stroke:#000000;stroke-width:7.93749982;stroke-linecap:butt;stroke-linejoin:round;stroke-miterlimit:4;stroke-dasharray:none;paint-order:stroke markers fill"       d="m 18.614498,8.1233919 c -5.811416,0 -10.4910929,4.6782921 -10.4910929,10.4897601 V 191.38685 c 0,5.81148 4.6796769,10.48975 10.4910929,10.48975 H 191.38683 c 5.81143,0 10.48976,-4.67827 10.48976,-10.48975 V 18.613152 c 0,-5.811468 -4.67833,-10.4897601 -10.48976,-10.4897601 z m 7.391312,8.2886521 h 157.9897 c 5.31428,0 9.59246,4.278156 9.59246,9.592391 V 183.99556 c 0,5.31426 -4.27818,9.5924 -9.59246,9.5924 H 26.00581 c -5.314191,0 -9.592408,-4.27814 -9.592408,-9.5924 V 26.004435 c 0,-5.314235 4.278217,-9.592391 9.592408,-9.592391 z" />    <path       id="rect955-3"       style="opacity:1;fill:#000000;fill-opacity:1;stroke:#000000;stroke-width:5.29167;stroke-linecap:butt;stroke-linejoin:round;stroke-miterlimit:4;stroke-dasharray:none;paint-order:stroke markers fill"       d="m 52.629947,50.910051 c -3.523041,0 -6.359818,2.344475 -6.359818,5.256142 v 0.958928 7.797305 37.434854 7.79579 0.96126 c 0,2.91167 2.836777,5.25614 6.359818,5.25614 h 8.496518 v 19.44759 c 0,2.4399 2.209552,4.40279 4.952706,4.40279 h 14.053057 v 16.05774 c 0,1.55796 1.260928,2.81135 2.826787,2.81135 H 127.0392 c 1.56582,0 2.82679,-1.25339 2.82679,-2.81135 v -16.05774 h 14.05485 c 2.74319,0 4.95091,-1.96289 4.95091,-4.40279 v -19.44759 h 8.49829 c 3.52305,0 6.35983,-2.34447 6.35983,-5.25614 V 102.89822 64.382416 56.16631 c 0,-2.911667 -2.83678,-5.256143 -6.35983,-5.256143 z m 1.611962,7.022927 H 155.7581 v 6.989797 h 0.0263 v 37.434845 h -0.0263 v 6.98817 h -15.43317 v 10.18366 h -0.004 v 9.54041 c 0,1.96441 -1.77737,3.54792 -3.98593,3.54792 h -10.20885 v 2.84926 h -0.26784 v 18.47886 c 0,1.30692 -1.05871,2.35777 -2.37216,2.35777 H 86.512224 c -1.313445,0 -2.370311,-1.05109 -2.370311,-2.35777 v -18.47886 h -0.289325 v -2.84926 H 73.665032 c -2.208553,0 -3.987696,-1.58351 -3.987696,-3.54792 v -9.54041 h -0.002 V 109.34579 H 54.242325 v -6.98817 h -0.02718 V 64.922775 h 0.02718 z m 16.969981,1.896054 0,23.8254 c 0,0.788613 0.03814,-23.8254 0.03814,-23.8254 0,-0.788608 -0.03814,-0.788608 -0.03814,0 z m 16.429444,0 0,23.8254 z m 16.687836,0 0,23.8254 c 0,0.788613 0.0482,-23.8254 0.0482,-23.8254 0,-0.788608 -0.0482,-0.788608 -0.0482,0 z m 16.17555,0 0,23.8254 c 0,0.788613 0.009,-23.8254 0.009,-23.8254 0,-0.788608 -0.009,-0.788608 -0.009,0 z m 17.01517,0 0,23.8254 c 0,0.788613 0.009,-23.8254 0.009,-23.8254 0,-0.788608 -0.009,-0.788608 -0.009,0 z"       sodipodi:nodetypes="ssccccsscsscsssscsscssccsssccccccccccsscccsssscccsscccccccccsssssssssssssssssss" />  </g></svg>