<svg xmlns="http://www.w3.org/2000/svg" width="210mm" height="210mm" viewBox="0 0 210 210"><path style="opacity:1;fill:#000;fill-opacity:1;stroke:#000;stroke-width:7.93749982;stroke-linecap:butt;stroke-linejoin:round;stroke-miterlimit:4;stroke-dasharray:none;paint-order:stroke markers fill" d="M18.614 8.123a10.468 10.468 0 0 0-10.49 10.49v172.774c0 5.811 4.68 10.49 10.49 10.49h172.773c5.811 0 10.49-4.679 10.49-10.49V18.613c0-5.811-4.679-10.49-10.49-10.49zm7.392 8.289h157.99a9.571 9.571 0 0 1 9.592 9.592v157.992a9.571 9.571 0 0 1-9.592 9.592H26.006a9.571 9.571 0 0 1-9.593-9.592V26.004a9.571 9.571 0 0 1 9.593-9.592z"/><path style="opacity:1;fill:#000;fill-opacity:1;stroke:#000;stroke-width:5.29167;stroke-linecap:butt;stroke-linejoin:round;stroke-miterlimit:4;stroke-dasharray:none;paint-order:stroke markers fill" d="M52.63 50.91c-3.523 0-6.36 2.345-6.36 5.256v54.948c0 2.912 2.837 5.256 6.36 5.256h8.496v19.448c0 2.44 2.21 4.403 4.953 4.403h14.053v16.058a2.813 2.813 0 0 0 2.827 2.81h44.08a2.813 2.813 0 0 0 2.827-2.81V140.22h14.055c2.743 0 4.95-1.963 4.95-4.403V116.37h8.499c3.523 0 6.36-2.344 6.36-5.256V56.166c0-2.911-2.837-5.256-6.36-5.256zm1.612 7.023h101.516v6.99h.026v37.435h-.026v6.988h-15.433v10.183h-.004v9.54c0 1.965-1.777 3.549-3.986 3.549h-10.209v2.849h-.268v18.479a2.36 2.36 0 0 1-2.372 2.358H86.512a2.358 2.358 0 0 1-2.37-2.358v-18.479h-.29v-2.85H73.666c-2.209 0-3.988-1.583-3.988-3.547v-9.54h-.002v-10.184H54.242v-6.988h-.027V64.923h.027zm16.97 1.896v23.825c0 .789.038-23.825.038-23.825 0-.789-.038-.789-.038 0zm16.43 0v23.825zm16.687 0v23.825c0 .789.048-23.825.048-23.825 0-.789-.048-.789-.048 0zm16.176 0v23.825l.009-23.825c0-.789-.01-.789-.01 0zm17.015 0v23.825l.009-23.825c0-.789-.01-.789-.01 0z"/></svg>