<?xml version="1.0" encoding="UTF-8" standalone="no"?><svg   xmlns:dc="http://purl.org/dc/elements/1.1/"   xmlns:cc="http://creativecommons.org/ns#"   xmlns:rdf="http://www.w3.org/1999/02/22-rdf-syntax-ns#"   xmlns:svg="http://www.w3.org/2000/svg"   xmlns="http://www.w3.org/2000/svg"   xmlns:sodipodi="http://sodipodi.sourceforge.net/DTD/sodipodi-0.dtd"   xmlns:inkscape="http://www.inkscape.org/namespaces/inkscape"   width="210mm"   height="210mm"   viewBox="0 0 210 210"   version="1.1"   id="svg8"   inkscape:version="1.0.1 (3bc2e813f5, 2020-09-07, custom)"   sodipodi:docname="Lan.svg">  <defs     id="defs2" />  <sodipodi:namedview     id="base"     pagecolor="#000000"     bordercolor="#666666"     borderopacity="1.0"     inkscape:pageopacity="0"     inkscape:pageshadow="2"     inkscape:zoom="0.35355339"     inkscape:cx="577.34895"     inkscape:cy="398.15462"     inkscape:document-units="px"     inkscape:current-layer="layer1"     inkscape:document-rotation="0"     showgrid="false"     showborder="true"     inkscape:snap-global="false"     inkscape:window-width="948"     inkscape:window-height="990"     inkscape:window-x="964"     inkscape:window-y="35"     inkscape:window-maximized="0" />  <metadata     id="metadata5">    <rdf:RDF>      <cc:Work         rdf:about="">        <dc:format>image/svg+xml</dc:format>        <dc:type           rdf:resource="http://purl.org/dc/dcmitype/StillImage" />        <dc:title />      </cc:Work>    </rdf:RDF>  </metadata>  <g     inkscape:label="Layer 1"     inkscape:groupmode="layer"     id="layer1">    <path       id="rect940-5"       style="opacity:1;fill:#ffffff;fill-opacity:1;stroke:#ffffff;stroke-width:7.93749982;stroke-linecap:butt;stroke-linejoin:round;stroke-miterlimit:4;stroke-dasharray:none;paint-order:stroke markers fill"       d="m 21.77812,8.8308784 c -5.811421,0 -10.491091,4.6782896 -10.491091,10.4897626 V 192.09433 c 0,5.81147 4.67967,10.48976 10.491091,10.48976 h 172.77233 c 5.81143,0 10.48976,-4.67829 10.48976,-10.48976 V 19.320641 c 0,-5.811473 -4.67833,-10.4897626 -10.48976,-10.4897626 z m 7.391309,8.2886486 H 187.15913 c 5.31428,0 9.59246,4.278164 9.59246,9.592393 v 157.9911 c 0,5.31427 -4.27818,9.59241 -9.59246,9.59241 H 29.169429 c -5.314189,0 -9.592409,-4.27814 -9.592409,-9.59241 V 26.71192 c 0,-5.314229 4.27822,-9.592393 9.592409,-9.592393 z" />    <path       id="rect955-3"       style="opacity:1;fill:#ffffff;fill-opacity:1;stroke:#ffffff;stroke-width:5.29166654;stroke-linecap:butt;stroke-linejoin:round;stroke-miterlimit:4;stroke-dasharray:none;paint-order:stroke markers fill"       d="m 55.793569,51.61754 c -3.52304,0 -6.359819,2.344469 -6.359819,5.256141 v 0.95893 7.797298 37.434841 7.7958 0.96126 c 0,2.9117 2.836779,5.25614 6.359819,5.25614 h 8.49652 v 19.44759 c 0,2.43993 2.20955,4.40282 4.952699,4.40282 H 83.29585 v 16.05771 c 0,1.55797 1.260931,2.81136 2.826785,2.81136 h 44.080185 c 1.56582,0 2.82679,-1.25339 2.82679,-2.81136 v -16.05771 h 14.05485 c 2.74319,0 4.95091,-1.96289 4.95091,-4.40282 v -19.44759 h 8.49829 c 3.52305,0 6.35983,-2.34444 6.35983,-5.25614 V 103.6057 65.089898 56.873799 c 0,-2.911667 -2.83678,-5.256149 -6.35983,-5.256149 z m 1.611961,7.022921 h 101.51619 v 6.989798 h 0.0263 V 103.0651 h -0.0263 v 6.98819 h -15.43317 v 10.18365 h -0.004 v 9.54042 c 0,1.96438 -1.77737,3.54791 -3.98593,3.54791 h -10.20884 v 2.84927 h -0.26784 v 18.47883 c 0,1.30692 -1.05871,2.35778 -2.37216,2.35778 H 89.675842 c -1.313441,0 -2.370316,-1.05108 -2.370316,-2.35778 v -18.47883 h -0.289321 v -2.84927 H 76.828648 c -2.20855,0 -3.987689,-1.58353 -3.987689,-3.54791 v -9.54042 h -0.002 V 110.05329 H 57.40605 v -6.98819 h -0.0272 V 65.630259 h 0.0272 z m 16.969979,1.896061 v 23.825387 c 0,0.788628 0.0381,-23.825387 0.0381,-23.825387 0,-0.788611 -0.0381,-0.788611 -0.0381,0 z m 16.429439,0 v 23.825387 z m 16.687842,0 v 23.825387 c 0,0.788628 0.0482,-23.825387 0.0482,-23.825387 0,-0.788611 -0.0482,-0.788611 -0.0482,0 z m 16.17555,0 v 23.825387 c 0,0.788628 0.009,-23.825387 0.009,-23.825387 0,-0.788611 -0.009,-0.788611 -0.009,0 z m 17.01517,0 v 23.825387 c 0,0.788628 0.009,-23.825387 0.009,-23.825387 0,-0.788611 -0.009,-0.788611 -0.009,0 z"       sodipodi:nodetypes="ssccccsscsscsssscsscssccsssccccccccccsscccsssscccsscccccccccsssssssssssssssssss" /> </g></svg>
