<svg xmlns="http://www.w3.org/2000/svg" width="210mm" height="210mm" viewBox="0 0 210 210"><path style="opacity:1;fill:#fff;fill-opacity:1;stroke:#fff;stroke-width:7.93749982;stroke-linecap:butt;stroke-linejoin:round;stroke-miterlimit:4;stroke-dasharray:none;paint-order:stroke markers fill" d="M21.778 8.83a10.468 10.468 0 0 0-10.491 10.49v172.774c0 5.812 4.68 10.49 10.491 10.49H194.55c5.812 0 10.49-4.678 10.49-10.49V19.321c0-5.812-4.678-10.49-10.49-10.49zm7.391 8.29h157.99a9.571 9.571 0 0 1 9.593 9.592v157.991a9.571 9.571 0 0 1-9.593 9.592H29.17a9.571 9.571 0 0 1-9.592-9.592V26.712a9.571 9.571 0 0 1 9.592-9.592z"/><path style="opacity:1;fill:#fff;fill-opacity:1;stroke:#fff;stroke-width:5.29166654;stroke-linecap:butt;stroke-linejoin:round;stroke-miterlimit:4;stroke-dasharray:none;paint-order:stroke markers fill" d="M55.794 51.618c-3.523 0-6.36 2.344-6.36 5.256v54.947c0 2.913 2.837 5.257 6.36 5.257h8.496v19.448c0 2.44 2.21 4.402 4.953 4.402h14.053v16.058a2.813 2.813 0 0 0 2.827 2.811h44.08a2.813 2.813 0 0 0 2.827-2.81v-16.059h14.054c2.744 0 4.951-1.963 4.951-4.402v-19.448h8.499c3.523 0 6.36-2.344 6.36-5.256V56.874c0-2.912-2.837-5.256-6.36-5.256zm1.612 7.022h101.516v6.99h.026v37.435h-.026v6.988h-15.433v10.184h-.004v9.54c0 1.965-1.778 3.548-3.986 3.548h-10.21v2.85h-.267v18.478a2.36 2.36 0 0 1-2.372 2.358H89.676a2.358 2.358 0 0 1-2.37-2.358v-18.478h-.29v-2.85H76.83c-2.209 0-3.988-1.583-3.988-3.548v-9.54h-.002v-10.184H57.406v-6.988h-.027V65.63h.027zm16.97 1.897v23.825c0 .789.038-23.825.038-23.825 0-.79-.038-.79-.038 0zm16.429 0v23.825zm16.688 0v23.825c0 .789.048-23.825.048-23.825 0-.79-.048-.79-.048 0zm16.175 0v23.825l.01-23.825c0-.79-.01-.79-.01 0zm17.016 0v23.825l.009-23.825c0-.79-.01-.79-.01 0z"/></svg>