<?xml version="1.0" encoding="UTF-8" standalone="no"?><svg   xmlns:dc="http://purl.org/dc/elements/1.1/"   xmlns:cc="http://creativecommons.org/ns#"   xmlns:rdf="http://www.w3.org/1999/02/22-rdf-syntax-ns#"   xmlns:svg="http://www.w3.org/2000/svg"   xmlns="http://www.w3.org/2000/svg"   xmlns:sodipodi="http://sodipodi.sourceforge.net/DTD/sodipodi-0.dtd"   xmlns:inkscape="http://www.inkscape.org/namespaces/inkscape"   width="210mm"   height="210mm"   viewBox="0 0 210 210"   version="1.1"   id="svg8"   sodipodi:docname="ethernet_Black.svg"   inkscape:version="1.0.1 (3bc2e813f5, 2020-09-07)">  <defs     id="defs2">    <clipPath       clipPathUnits="userSpaceOnUse"       id="clipPath4370">      <path         id="path4372"         style="fill:#ff0000;fill-opacity:1;fill-rule:nonzero;stroke:none;stroke-width:0.264583"         d="m 27.01644,72.640529 v 70.817381 h 20.249409 c 0.0016,-0.007 0.0024,-0.0119 0.0031,-0.0145 7.94e-4,-0.004 0.0074,-0.0349 0.0083,-0.0367 0.0042,-0.0189 -5.29e-4,0.005 0.0062,-0.0274 0.0016,-0.004 0.003,-0.008 0.0047,-0.0114 5.29e-4,-0.003 0.0031,-0.0125 0.0041,-0.0171 -0.0033,-0.0246 -0.0097,-0.0476 -0.0078,-0.0754 -8e-6,-0.0152 -5.8e-5,-0.0302 0,-0.0455 -0.0076,-0.0408 -0.01352,-0.082 -0.01963,-0.12299 -0.0013,-0.009 0.0011,-0.0189 0,-0.0279 -4e-5,-0.0158 5e-6,-0.0312 0,-0.047 -2.6e-5,-0.0129 -5e-6,-0.0258 0,-0.0388 -1.6e-5,-0.0139 -2.6e-5,-0.028 0,-0.0419 1.6e-5,-0.0216 -5e-6,-0.043 0,-0.0646 -2.9e-5,-0.0237 -5.3e-5,-0.0471 0,-0.0708 -1.3e-5,-0.0248 6.1e-5,-0.0496 0,-0.0744 -1.03e-4,-0.0177 -5e-6,-0.0355 0,-0.0532 -2.1e-5,-0.0146 -3e-6,-0.0293 0,-0.0439 -1.3e-5,-0.014 5e-6,-0.0279 0,-0.0419 -2.6e-5,-0.0138 1.1e-5,-0.0275 0,-0.0413 -2.9e-5,-0.0121 5e-6,-0.0245 0,-0.0367 -2.4e-5,-0.0105 -3e-6,-0.021 0,-0.0315 -1.3e-5,-0.0115 -2.6e-5,-0.0231 0,-0.0346 2.4e-5,-0.0201 -1.3e-5,-0.0404 0,-0.0605 -2.6e-5,-0.022 -8e-6,-0.0436 0,-0.0656 -5e-5,-0.0178 6.4e-5,-0.0354 0,-0.0532 -8.7e-5,-0.0258 5.29e-4,-0.0517 0.0021,-0.0775 -0.0087,-0.0387 -0.01431,-0.078 -0.01704,-0.11782 -0.0016,-0.0297 -0.0016,-0.0597 -0.0016,-0.0894 2.7e-5,-0.0217 -3.2e-5,-0.0429 0,-0.0646 -3e-6,-0.0166 -1.8e-5,-0.0335 0,-0.0501 -3e-6,-0.0147 -1.6e-5,-0.0292 0,-0.0439 -3e-6,-0.0133 -1.8e-5,-0.0265 0,-0.0398 3e-6,-0.0128 -1.6e-5,-0.0259 0,-0.0388 0,-0.0142 -2.4e-5,-0.0286 0,-0.0429 0,-0.0164 -2.6e-5,-0.0326 0,-0.0491 0,-0.017 3e-6,-0.0343 0,-0.0512 -2.4e-5,-0.0128 -3.2e-5,-0.0255 0,-0.0383 -0.0019,-0.0619 0.0122,-0.11596 0.0217,-0.18086 0.0065,-0.0203 0.0024,-0.007 0.0057,-0.0165 0.0039,-0.0291 0.0054,-0.0436 0.0098,-0.0651 0.0019,-0.01 0.03293,-0.10272 0.0088,-0.0295 -0.0053,0.0126 0.0037,-0.0132 0.01188,-0.0367 2.65e-4,-0.004 7.94e-4,-0.008 0.0011,-0.0124 -0.0011,-0.004 -0.0016,-0.006 -0.0031,-0.0109 -1.74e-4,-5.3e-4 -2.38e-4,-0.001 -5.29e-4,-0.002 -0.0168,-0.05 -0.02965,-0.1015 -0.03514,-0.15451 -0.0024,-0.0274 -0.0021,-0.0547 -0.0021,-0.0822 4.5e-5,-0.0117 -4.2e-5,-0.0234 0,-0.0351 1.9e-5,-0.0114 -1.8e-5,-0.0227 0,-0.0341 3e-6,-0.0115 -1e-5,-0.0227 0,-0.0341 -5e-6,-0.0106 -2.1e-5,-0.0209 0,-0.0315 6e-6,-0.0127 -3.4e-5,-0.025 0,-0.0377 v -0.003 c -0.0071,-0.0304 -0.01074,-0.0659 -0.0093,-0.11369 -1.8e-5,-0.013 1.9e-5,-0.0263 0,-0.0393 -5e-5,-0.0154 -1.3e-5,-0.0311 0,-0.0465 9.3e-5,-0.039 0.0011,-0.0781 0.0067,-0.11679 0.0045,-0.0238 0.01352,-0.0436 0.01913,-0.0646 0.0024,-0.0143 0.0063,-0.0283 0.0098,-0.0424 7.94e-4,-0.009 0.0038,-0.03 0.0047,-0.0408 -0.0013,-0.007 -0.003,-0.0145 -0.0041,-0.0222 -0.0049,-0.0476 -0.0055,-0.0953 -0.0057,-0.14315 -7.4e-5,-0.0227 -5.5e-5,-0.0454 0,-0.0682 1.6e-5,-0.0161 -2.1e-5,-0.0325 0,-0.0486 0,-0.0157 -1.8e-5,-0.0313 0,-0.047 -7e-6,-0.0176 -1.03e-4,-0.0351 0,-0.0527 5.6e-5,-0.0246 -1.5e-5,-0.0493 0,-0.0739 -5.8e-5,-0.0236 -2.9e-5,-0.0467 0,-0.0703 -0.0038,-0.0727 0.01201,-0.14404 0.02997,-0.21394 0.0013,-0.005 -0.0035,0.0115 -0.0052,0.0165 -7.94e-4,7.9e-4 -0.0035,0.0136 -0.0041,0.0196 -2.65e-4,-0.006 -5.3e-4,-0.0116 -5.3e-4,-0.0176 -4.5e-5,-0.0155 3e-6,-0.031 0,-0.0465 -2.6e-5,-0.0157 -2.9e-5,-0.0313 0,-0.047 -2.3e-5,-0.0202 -3.7e-5,-0.0403 0,-0.0605 5.9e-5,-0.0278 0,-0.0554 0,-0.0832 -7.1e-5,-0.025 -2.6e-5,-0.0499 0,-0.0749 -1.5e-5,-0.0231 -5e-6,-0.0467 0,-0.0698 -1.8e-5,-0.0199 -1.03e-4,-0.0395 0,-0.0594 -0.0016,-0.0435 0.0032,-0.0865 0.0072,-0.12971 -0.01434,-0.0429 -0.02368,-0.0884 -0.01963,-0.15503 -2.1e-5,-0.0146 0,-0.0293 0,-0.0439 -2.3e-5,-0.015 0,-0.03 0,-0.045 -3.1e-5,-0.0148 -7e-6,-0.0297 0,-0.0445 -2.3e-5,-0.0145 -1.5e-5,-0.0289 0,-0.0434 -1.5e-5,-0.0181 1.4e-5,-0.0362 0,-0.0543 -6.8e-5,-0.0243 -9.7e-5,-0.0491 0,-0.0734 5.3e-5,-0.0137 7.94e-4,-0.0272 0.0011,-0.0408 3.2e-5,-2.4e-4 -0.0011,-0.007 -0.0011,-0.007 -0.0066,-0.0254 -0.01416,-0.0509 -0.01654,-0.077 -0.0071,-0.0471 -0.02125,-0.0932 -0.02273,-0.14108 -0.0054,-0.0584 -0.01445,-0.11633 -0.02429,-0.17415 -0.13452,-0.0337 -0.237993,-0.10343 -0.232027,-0.21652 4.3e-5,-0.0156 5e-5,-0.0314 0,-0.047 -0.0208,-0.0479 -0.03665,-0.0968 -0.03152,-0.16123 4.5e-5,-0.0215 5.29e-4,-0.0431 5.29e-4,-0.0646 -1.3e-5,-0.006 -2.65e-4,-0.01 0.0011,-0.007 0.0037,0.0122 -0.03294,-0.11652 -0.02894,-0.10232 -0.0098,-0.078 -0.01722,-0.15354 -0.01344,-0.23203 -1.77e-4,-0.0468 -7.93e-4,-0.0938 0,-0.14056 0.0013,-0.0753 0.0041,-0.15081 0.01654,-0.22531 0.0095,-0.0568 0.02524,-0.1093 0.02479,-0.15451 -5.8e-5,-0.0747 -5.29e-4,-0.14906 -5.29e-4,-0.22376 -1e-4,-0.0747 1.3e-4,-0.14958 0,-0.22428 -1e-4,-0.0847 -5.29e-4,-0.16955 0.0016,-0.25424 0.0035,-0.1217 0.01024,-0.24324 0.02326,-0.36432 0.01114,-0.10908 0.02313,-0.21712 0.01654,-0.32711 -2.57e-4,-0.0636 -1.32e-4,-0.12761 -5.29e-4,-0.19121 9e-5,-0.056 0.0013,-0.11163 0.0057,-0.16743 0.0075,-0.0919 0.01916,-0.18347 0.04031,-0.27337 0.02355,-0.11252 0.01654,-0.23187 0.05013,-0.34313 0.02535,-0.13508 0.0391,-0.27262 0.05788,-0.40876 0.01865,-0.14741 0.04228,-0.29381 0.04547,-0.44287 0.01003,-0.26961 -0.01365,-0.53993 -0.02326,-0.80925 -0.02294,-0.41062 -0.04536,-0.82083 -0.05788,-1.23197 -0.0095,-0.29498 -0.0052,-0.59011 -0.0078,-0.88521 -0.003,-0.25532 -0.0073,-0.51078 -0.02894,-0.76533 -0.02275,-0.26576 -0.04772,-0.53168 -0.07596,-0.79685 h -5.3e-4 c -0.03445,-0.3234 0.208413,-0.49653 0.437698,-0.48369 0.178337,0.01 0.348583,0.13282 0.374139,0.38447 0.02794,0.27522 0.05437,0.55067 0.07803,0.82631 0.02349,0.27473 0.02914,0.55071 0.03204,0.8263 0.0031,0.28967 -0.0019,0.57912 0.0067,0.86868 0.01058,0.37634 0.03222,0.75223 0.05323,1.1281 0.235384,0.0314 0.49842,0.0901 0.464572,-0.063 0.01503,0.0396 0.02508,0.0809 0.02222,0.13332 7.93e-4,0.0357 0.0046,0.0716 0.0093,0.10697 0.02275,0.19635 0.03916,0.39326 0.03256,0.59118 -0.0037,0.6414 -0.01429,1.28288 -0.03928,1.92391 -0.01021,0.23802 -0.02556,0.47582 -0.03979,0.71365 0.06027,0.0608 0.105447,0.14562 0.122472,0.25735 2.65e-4,0.003 5.3e-4,0.005 0.0011,0.008 0.02979,-0.0174 0.05904,-0.0359 0.0894,-0.0522 0.464796,-0.24416 0.965599,-0.3999 1.467609,-0.54622 0.494239,-0.13957 0.994746,-0.25735 1.496552,-0.36638 0.649142,-0.14624 1.308042,-0.23933 1.967839,-0.32143 0.74835,-0.0965 1.50242,-0.13619 2.256192,-0.1571 0.54692,-0.0134 1.094203,-0.0123 1.641242,-0.0114 0.746231,0.008 1.49188,0.032 2.238108,0.0444 0.848961,0.0129 1.697728,0.0472 2.546614,0.0651 0.199904,0.002 0.399667,0.0105 0.599446,0.016 0.02731,-0.0291 0.03333,-0.0367 0.06356,-0.0687 0.128217,-0.1358 0.249743,-0.27896 0.390673,-0.40153 0.09759,-0.0849 0.476303,-0.36148 0.654741,-0.35449 0.16714,0.007 0.321165,0.0944 0.481624,0.14159 0.07168,0.0992 0.172275,0.18345 0.214974,0.29817 0.04586,0.1232 0.07143,0.29434 0.08837,0.46922 0.738391,0.0462 1.476827,0.0983 2.2133,0.16898 0.569913,0.0608 1.139656,0.1237 1.707391,0.20258 0.54397,0.0765 1.082593,0.18741 1.617472,0.3116 0.149299,0.0341 0.297357,0.0726 0.444934,0.11318 0.233071,-0.2454 0.456298,-0.3759 0.614431,-0.24133 0.208304,0.17726 0.391396,0.3783 0.559657,0.59273 0.32561,0.0979 0.649836,0.20014 0.974101,0.3023 0.01148,-0.0377 0.02259,-0.0755 0.0341,-0.11317 0.03956,-0.12956 -0.01556,-0.39009 0.11989,-0.38809 0.0097,1.6e-4 0.0177,-1.4e-4 0.02739,0 0.06971,-0.40995 0.125037,-0.61418 0.32298,-0.60358 0.114326,0.006 0.310028,0.10074 0.557072,0.23668 -0.351361,-0.61002 -0.706085,-1.21785 -1.06712,-1.82211 -0.293817,-0.49179 0.403715,-0.90711 0.696082,-0.41445 0.501393,0.84484 0.994463,1.69458 1.478981,2.5492 1.43174,-0.0974 1.391296,-0.20596 1.204061,0.76895 -0.03661,0.29151 -0.05973,0.58441 -0.07803,0.87798 0.01839,0.008 0.03723,0.0163 0.05529,0.0253 0.843883,-0.55021 1.713537,-1.05794 2.5585,-1.60869 v 5.3e-4 c 1.360379,-0.88669 2.659163,0.17458 2.648418,1.33015 0.24738,-0.0298 0.494758,-0.0593 0.743625,-0.076 0.631645,-0.0664 1.263986,-0.13188 1.898592,-0.16278 0.654814,-0.016 1.309595,-0.0422 1.964737,-0.0362 0.475076,5e-5 0.950156,-5.3e-4 1.425234,-0.001 0.363077,1.5e-4 0.72626,-8e-4 1.089337,-0.001 0.285229,0 0.570016,-7.9e-4 0.855247,-0.001 0.223065,0 0.446149,-7.9e-4 0.669208,0.003 0.26202,0.006 0.524571,0.0133 0.785482,0.0398 0.23259,0.0254 0.46577,0.0397 0.698667,0.062 0.265533,0.0191 0.531937,0.0397 0.79375,0.0899 0.105214,0.0245 0.129876,0.0293 0.251148,0.0439 0.0503,0.01 0.200511,0.0411 0.14986,0.0331 -0.0159,-0.002 -0.06341,-0.0117 -0.04754,-0.008 0.130752,0.0225 0.04397,0.005 0.226341,0.0517 0.0092,0.003 0.01826,0.007 0.02739,0.0103 0.007,0.002 0.01418,0.003 0.02119,0.004 0.04816,0.0121 0.05129,0.0128 0.09405,0.0248 -0.02294,-0.005 -0.04639,-0.009 -0.06925,-0.0134 0.02027,0.002 0.28471,0.0579 0.163814,0.0367 0.127865,0.0444 0.247095,0.10408 0.355016,0.17983 0.0021,-0.0486 0.0026,-0.0973 0.0083,-0.14572 0.0021,-0.027 0.0075,-0.0534 0.01138,-0.0801 -0.0083,-0.10107 -0.01603,-0.20218 -0.02326,-0.30334 -0.01675,-0.21396 -0.02714,-0.42832 -0.03204,-0.64286 -0.0024,-0.10688 -0.0029,-0.21349 -0.0031,-0.32039 -0.0021,-0.0629 0.0021,-0.12571 0.0093,-0.1881 0.0027,-0.0208 0.0037,-0.0411 0.0047,-0.062 0.01167,-0.25547 0.199544,-0.37348 0.380855,-0.36381 0.181308,0.01 0.356288,0.14677 0.341579,0.40205 -0.0021,0.0357 -0.0049,0.072 -0.0093,0.10748 -7.94e-4,0.008 -0.0016,0.0142 -0.0026,0.0222 -1.96e-4,0.001 5.29e-4,0.003 -5.29e-4,0.004 -5.3e-4,0.001 -0.0011,-0.003 -0.0011,-0.002 -0.0011,0.027 5.29e-4,0.0541 -5.29e-4,0.0811 -2.65e-4,0.1 -2.65e-4,0.1998 0.0016,0.29973 0.0078,-1.2e-4 0.0155,-5.3e-4 0.02326,-0.001 0.119489,0.005 0.220816,0.0523 0.312643,0.12144 0.04514,0.0502 0.09676,0.095 0.139525,0.14728 0.02469,0.0302 0.05354,0.10421 0.07286,0.14883 0.0019,0.005 0.0034,0.0111 0.0052,0.0165 0.02148,0.0605 0.0348,0.11076 0.04702,0.17415 0.004,0.039 0.0127,0.071 0.0217,0.12816 0.0084,0.059 0.0096,0.11878 0.01035,0.17828 2.65e-4,0.0316 5.3e-4,0.0635 5.3e-4,0.0951 -1.56e-4,0.0335 -5.3e-4,0.0667 -5.3e-4,0.10025 2.4e-5,0.0338 1.49e-4,0.0679 0,0.1018 -2.3e-5,0.041 1.51e-4,0.082 0,0.12299 -2.3e-5,0.0442 -5e-5,0.0885 0,0.13281 3.8e-5,0.0324 5.3e-4,0.0651 5.3e-4,0.0971 -3.7e-5,0.0219 -5.3e-4,0.0437 -5.3e-4,0.0656 0.0011,0.005 0.0024,0.009 0.0036,0.0139 0.01291,0.0566 0.01569,0.1148 0.01654,0.1726 5.29e-4,0.0384 1.29e-4,0.0768 0,0.11524 0.0011,0.0502 -0.0011,0.0987 -0.0078,0.14883 -0.0028,0.0208 -0.009,0.0409 -0.01241,0.0615 -0.0055,0.0429 0.01767,-0.13172 -0.0093,0.0718 -0.01283,0.0618 -0.0095,0.0568 -0.0217,0.12971 -7.94e-4,0.004 -0.0026,0.008 -0.0036,0.0124 1.3e-5,0.0207 3.7e-5,0.0408 0,0.0615 2.6e-5,0.0357 0,0.0713 0,0.10697 2.1e-5,0.0394 -5.29e-4,0.0789 -5.29e-4,0.11834 5.5e-5,0.042 1.8e-5,0.0841 0,0.12609 6.6e-5,0.0345 -1.09e-4,0.0689 5.29e-4,0.10335 5.29e-4,0.0214 7.94e-4,0.0434 0.0036,0.0646 0.0049,0.0434 0.01336,0.0868 0.01085,0.13075 6.3e-5,0.0225 -1.9e-5,0.0447 0,0.0672 5.5e-5,0.0251 4.2e-5,0.0499 0,0.0749 -3.2e-5,0.0306 5.8e-5,0.0614 0,0.092 0,0.0409 -4e-5,0.0821 0,0.12299 9e-5,0.0377 3.1e-5,0.0755 0,0.11317 1.45e-4,0.0299 8e-6,0.06 0,0.0899 3.7e-5,0.0327 -4.8e-5,0.0655 0,0.0982 1.58e-4,0.0287 -5.1e-5,0.0575 0,0.0863 7.9e-5,0.0311 2.64e-4,0.0619 -5.29e-4,0.093 -0.0013,0.0541 -0.0037,0.10841 -0.01394,0.16175 v 5.3e-4 c 0,0.0266 8.2e-5,0.0535 0,0.0801 5e-5,0.0289 -8e-6,0.0579 0,0.0868 6.1e-5,0.0344 8.2e-5,0.069 0,0.10336 -9.8e-5,0.0509 4e-5,0.10154 -0.0021,0.15244 -0.0019,0.0427 -0.006,0.0855 -0.01241,0.12764 0,0.0188 -8e-6,0.0371 0,0.0558 1.04e-4,0.0224 -9.2e-5,0.0448 0,0.0672 7.2e-5,0.0135 8e-6,0.0273 0,0.0408 8e-6,0.0148 1.4e-5,0.0291 0,0.0439 0,0.0193 -1.6e-5,0.0386 0,0.0579 -2e-6,0.0201 -3.1e-5,0.0408 0,0.061 1.4e-5,0.017 5.1e-5,0.0332 0,0.0501 -2e-6,0.0175 -3.1e-5,0.0352 0,0.0527 8e-6,0.0184 3.5e-5,0.0369 0,0.0553 -1.6e-5,0.0258 0,0.0517 0,0.0775 4.5e-5,0.0264 -4.5e-5,0.0527 0,0.0791 5.3e-5,0.0253 0,0.0512 0,0.0765 1.4e-5,0.02 7.4e-5,0.0394 0,0.0594 -8e-6,0.0217 -8e-6,0.0434 0,0.0651 0,0.0224 6e-6,0.0452 0,0.0677 8e-6,0.0201 5.9e-5,0.0399 0,0.0599 0,0.0225 3.5e-5,0.0452 0,0.0677 -2.3e-5,0.0246 -4.5e-5,0.0493 0,0.0739 -8e-6,0.0255 5.9e-5,0.0511 0,0.0765 3.5e-5,0.0324 -6.8e-5,0.0654 0,0.0977 1.25e-4,0.0258 -3.7e-5,0.0512 0,0.077 0,0.03 -5.29e-4,0.06 -0.0031,0.0899 -0.0011,0.009 -0.0069,0.0529 -0.01241,0.0744 -7.94e-4,0.02 -0.0021,0.04 -0.0041,0.06 -7.93e-4,0.008 -0.0016,0.0158 -0.0026,0.0238 -0.0056,0.0382 -0.01439,0.0766 -0.0186,0.10438 -0.0013,0.008 -0.0016,0.009 -0.0021,0.0119 0.0075,0.0614 0.01193,0.12321 0.01188,0.185 -1.03e-4,0.0172 -5.29e-4,0.0345 -5.29e-4,0.0517 -7.4e-5,0.019 2.9e-5,0.0378 0,0.0568 7.94e-4,0.0131 -0.0024,0.0212 -0.0021,0.0336 0.0024,0.021 0.0052,0.0419 0.0072,0.063 0.0049,0.0627 0.01087,0.12531 0.01447,0.1881 0.0016,0.0292 0.0024,0.0582 0.0026,0.0873 H 115.07864 V 72.640529 Z m 22.046197,47.764521 c 0.177713,-0.0153 0.363263,0.0822 0.424265,0.32763 0.106278,0.42764 0.174863,0.86416 0.243912,1.29915 0.09183,0.68684 0.232285,1.36494 0.371038,2.04328 0.0615,0.29771 0.113469,0.59774 0.188619,0.89245 0.0263,0.1034 0.06578,0.20252 0.0956,0.30489 0.03556,0.10441 0.0557,0.21075 0.07234,0.31988 0.02323,0.2187 0.04784,0.43693 0.06408,0.65629 0.0019,0.0275 0.0039,0.0552 0.0057,0.0827 0.03754,0.5769 -0.780452,0.62836 -0.815973,0.0517 -0.0016,-0.0249 -0.0029,-0.05 -0.0047,-0.0749 -0.01461,-0.20347 -0.03784,-0.40595 -0.05943,-0.60875 -0.0043,-0.0707 -0.03023,-0.13529 -0.04909,-0.20309 -0.02959,-0.11075 -0.07779,-0.21607 -0.101288,-0.32866 -0.07694,-0.30734 -0.131715,-0.61962 -0.193786,-0.93018 -0.139533,-0.68961 -0.281633,-1.37869 -0.376719,-2.07635 -0.06609,-0.40653 -0.129294,-0.81525 -0.229444,-1.21492 -0.07904,-0.31544 0.136348,-0.52135 0.364834,-0.54105 z m -0.652671,12.06593 c -0.0028,-0.006 0.007,0.0105 0.01035,0.016 0.02397,0.0387 0.03465,0.0674 0.04031,0.093 -0.01376,-0.0358 -0.03202,-0.0697 -0.05064,-0.10903 z m 15.784565,2.46807 c -0.02429,0.002 -0.05659,0.007 -0.07131,0.0134 -0.0069,0.003 -0.01331,0.007 -0.02016,0.0103 0.03898,-0.007 0.07835,-0.0126 0.116787,-0.0217 0.01572,-0.004 -0.0011,-0.004 -0.02532,-0.002 z m -6.7076,0.73639 c -0.283093,0 -0.566057,4e-5 -0.849045,0.001 0.0051,0.0811 0.01077,0.16222 0.01497,0.2434 0.02151,0.39049 0.04337,0.78098 0.0646,1.1715 0.505595,-0.001 1.011153,-0.002 1.516705,-0.002 0.943816,0 1.88758,5.3e-4 2.831351,0.001 0.0039,-0.005 0.0074,-0.0105 0.01138,-0.0155 0.234345,-0.30012 0.482238,-0.58905 0.723469,-0.88367 0.17153,-0.19772 0.253159,-0.29159 0.357084,-0.41186 -0.814961,-0.0178 -1.629201,-0.0502 -2.444294,-0.0625 -0.742009,-0.012 -1.484183,-0.0343 -2.22622,-0.0413 z m -1.753899,0.016 c -0.682106,0.0207 -1.364573,0.056 -2.041737,0.14366 -0.635455,0.08 -1.269672,0.17055 -1.894975,0.31161 -0.483335,0.10572 -0.965932,0.21781 -1.442288,0.35192 -0.448765,0.13076 -0.897411,0.26703 -1.313098,0.48524 -0.120055,0.0627 -0.236316,0.13311 -0.350367,0.2067 0.01548,0.10671 0.02212,0.21426 0.03256,0.32143 0.101478,-0.0549 0.207238,-0.10256 0.31006,-0.15503 0.270515,-0.0765 0.539184,-0.0169 0.803569,0.045 1.61e-4,4e-5 2.64e-4,-4e-5 5.29e-4,0 0.101751,-0.0132 0.202994,-0.0298 0.306956,-0.0496 1.276049,-0.18082 2.566083,-0.20966 3.852479,-0.23926 0.571976,-0.01 1.144101,-0.0132 1.716175,-0.0165 5.29e-4,-0.0605 -1.4e-4,-0.0393 5.29e-4,-0.11214 1.43e-4,-0.0158 0.008,-1.03285 0.01963,-1.29294 z m 7.477064,0.11731 c -0.233275,0.25318 -0.407733,0.45202 -0.790133,0.88986 -0.107437,0.13067 -0.213699,0.26225 -0.321945,0.39223 0.144351,5e-5 0.288695,-4e-5 0.433049,0 0.01603,-0.24583 0.192979,-0.27052 0.754475,-0.39946 0.253857,-0.0424 0.508873,-0.0753 0.764294,-0.10335 -0.0056,-0.0922 -0.0046,-0.072 -0.01447,-0.22893 -0.01082,-0.1719 -0.02217,-0.34381 -0.03307,-0.51573 -0.264014,-0.0137 -0.528034,-0.0247 -0.792199,-0.0346 z m 1.607654,0.078 v 5.3e-4 5.3e-4 c 0.0118,0.20145 0.0241,0.3981 0.03824,0.63355 0.72467,-0.0477 1.452001,-0.0646 2.177129,-0.0816 0.830845,-0.0147 1.661483,-0.02 2.492354,-0.0222 -0.315262,-0.065 -0.63141,-0.12483 -0.950331,-0.1695 -0.556535,-0.0769 -1.115237,-0.14029 -1.673799,-0.2005 -0.693444,-0.0667 -1.388435,-0.11565 -2.083593,-0.16071 z m 29.764071,0.68781 c 0.007,0.005 0.01431,0.01 0.02119,0.0155 0.0172,0.0143 0.06539,0.06 0.04651,0.0481 -0.02048,-0.0129 -0.03444,-0.0342 -0.05168,-0.0512 -0.0053,-0.004 -0.0093,-0.007 -0.01601,-0.0124 z m -21.94026,0.7183 c 0.0047,0.008 0.0097,0.0151 0.01447,0.0227 0.0016,-0.006 0.0034,-0.0114 0.0052,-0.0171 -0.0065,-0.002 -0.01312,-0.004 -0.01963,-0.006 z m 20.370847,0.12558 c -0.0044,-0.001 0.01349,0.003 0.01344,0.003 -0.0011,-2.6e-4 -0.0016,-7.9e-4 -0.0026,-10e-4 -0.0035,-7.9e-4 -0.0073,-0.001 -0.01085,-0.002 z m -46.001323,0.49661 c 0.0013,0.005 0.0019,0.009 0.0031,0.0114 0.0061,0.0137 0.01016,0.0264 0.01757,0.0382 0.0034,0.006 0.01291,0.0225 0.0098,0.0165 -0.01143,-0.0237 -0.02016,-0.0445 -0.03049,-0.0661 z m 46.422487,1.53892 c -0.0087,0.005 -0.0079,0.003 -0.01447,0.007 -0.01222,0.006 -0.02262,0.0147 -0.03514,0.0212 -0.0044,0.002 0.009,-0.005 0.01344,-0.007 0.01204,-0.007 0.04827,-0.0256 0.03617,-0.0196 z m -0.158131,0.0755 c -0.0113,0.004 -0.02236,0.009 -0.03359,0.0134 -0.0097,0.004 -0.0016,0.001 -0.01344,0.006 -0.0075,0.003 0.121216,-0.0483 0.04702,-0.0196 z m -0.876432,0.33745 c -0.0035,0.001 -0.0068,0.002 -0.01035,0.004 0.006,0.0219 0.0131,0.0434 0.01963,0.0651 -0.0021,-0.0145 -0.0055,-0.0368 -0.0067,-0.045 -7.93e-4,-0.008 -0.0016,-0.0158 -0.0026,-0.0238 z m -0.08062,0.0284 c -0.01386,0.006 -0.02685,0.0131 -0.04031,0.0196 -1.32e-4,7.9e-4 0.0016,-0.002 -0.0011,0.004 0.02326,0.002 0.03451,-0.009 0.04134,-0.0238 z m -0.04547,0.0222 c -0.0019,8e-4 -0.0034,0.002 -0.0052,0.003 -5.29e-4,0.005 -0.01495,0.0175 -0.01035,0.0139 0.0078,-0.006 0.01151,-0.0114 0.0155,-0.0165 z m -0.0217,0.0114 c -0.01556,0.008 -0.03161,0.0155 -0.04651,0.0253 0.01998,0.0289 0.03275,-0.006 0.04651,-0.0253 z m -1.513086,1.44332 c -0.0068,-0.006 0.01344,0.0194 0.0083,0.0264 -0.0011,0.002 -0.0024,-0.002 -0.0036,-0.003 0.004,0.005 0.0083,0.01 0.01241,0.0145 -0.0064,-0.0164 -0.01127,-0.0325 -0.01704,-0.0377 z m -43.467112,0.0367 c -2.49e-4,0.001 -7.94e-4,0.003 -0.0011,0.004 -0.0019,0.013 -2.3e-4,2.4e-4 -0.0021,0.016 -7.94e-4,0.007 0.0029,-0.0184 0.0031,-0.0196 z m 0.02326,1.96216 c -5.3e-4,0.002 -0.0013,0.005 -0.0021,0.006 2.64e-4,-5.3e-4 0.0013,-0.003 0.0021,-0.004 -1.22e-4,-5.3e-4 1.19e-4,-0.001 0,-0.002 z" />    </clipPath>    <clipPath       clipPathUnits="userSpaceOnUse"       id="clipPath4392">      <path         id="path4394"         style="fill:#ff0000;fill-opacity:1;fill-rule:nonzero;stroke:none;stroke-width:0.264583"         d="M 6.6972656,60.07127 V 188.77194 H 135.39793 V 60.07127 Z m 42.3653714,60.33378 c 0.177713,-0.0153 0.363263,0.0822 0.424265,0.32763 0.106278,0.42764 0.174863,0.86416 0.243912,1.29915 0.09183,0.68684 0.232285,1.36494 0.371038,2.04328 0.0615,0.29771 0.113469,0.59774 0.188619,0.89245 0.0263,0.1034 0.06578,0.20252 0.0956,0.30489 0.03556,0.10441 0.0557,0.21075 0.07234,0.31988 0.02323,0.2187 0.04784,0.43693 0.06408,0.65629 0.0019,0.0275 0.0039,0.0552 0.0057,0.0827 0.03754,0.5769 -0.780452,0.62806 -0.815973,0.0517 -0.0016,-0.0249 -0.0029,-0.05 -0.0047,-0.0749 -0.01461,-0.20347 -0.03784,-0.40595 -0.05943,-0.60875 -0.0043,-0.0707 -0.03023,-0.13529 -0.04909,-0.20309 -0.02959,-0.11075 -0.07779,-0.21607 -0.101288,-0.32866 -0.07694,-0.30734 -0.131715,-0.61962 -0.193786,-0.93018 -0.139533,-0.68961 -0.281633,-1.37869 -0.376719,-2.07635 -0.06609,-0.40653 -0.129294,-0.81525 -0.229444,-1.21492 -0.07904,-0.31544 0.136348,-0.52135 0.364834,-0.54105 z m -1.616953,8.1995 h 5.29e-4 5.29e-4 l 5.3e-4,0.001 h 5.29e-4 5.29e-4 l 5.29e-4,0.003 5.29e-4,5.3e-4 0.0011,5.3e-4 5.29e-4,5.3e-4 h 5.29e-4 5.29e-4 5.29e-4 c 0.178149,0.0102 0.348086,0.13305 0.373621,0.38447 0.02794,0.27521 0.05437,0.55067 0.07803,0.82631 0.02349,0.27473 0.02914,0.55072 0.03204,0.82631 0.0031,0.28967 -0.0019,0.57912 0.0067,0.86868 0.01058,0.37633 0.03222,0.75222 0.05323,1.12809 0.235384,0.0314 0.498422,0.0903 0.464571,-0.063 -0.01381,-0.0361 -0.03187,-0.0705 -0.05064,-0.11007 -0.0028,-0.006 0.007,0.011 0.01035,0.0165 0.02397,0.0387 0.03465,0.0679 0.04031,0.0935 0.01524,0.0398 0.02511,0.0814 0.02222,0.13436 7.94e-4,0.0357 0.0046,0.0716 0.0093,0.10697 0.02275,0.19631 0.03916,0.39328 0.03256,0.59117 -0.0037,0.64141 -0.01429,1.28294 -0.03927,1.92392 -0.01021,0.23805 -0.02556,0.47583 -0.03979,0.71365 0.06027,0.0608 0.105449,0.14561 0.122473,0.25735 2.64e-4,0.003 0.0011,0.005 0.0016,0.008 0.02978,-0.0174 0.05852,-0.0359 0.08888,-0.0522 0.464797,-0.24416 0.965608,-0.39994 1.46761,-0.54622 0.494239,-0.13961 0.99527,-0.25738 1.497068,-0.36639 0.649142,-0.14626 1.308015,-0.23933 1.967838,-0.32143 0.748337,-0.0965 1.502421,-0.13622 2.256192,-0.15709 0.546921,-0.0134 1.093687,-0.0123 1.640727,-0.0114 0.74623,0.008 1.492395,0.032 2.238623,0.0444 0.848961,0.0129 1.697212,0.0472 2.546099,0.0651 0.199903,0.002 0.399669,0.0105 0.599445,0.016 0.02731,-0.0291 0.03333,-0.0367 0.06356,-0.0687 0.128217,-0.13582 0.249743,-0.27897 0.390673,-0.40153 0.09759,-0.0849 0.476303,-0.3615 0.65474,-0.3545 0.16714,0.006 0.321165,0.0944 0.481624,0.1416 0.07167,0.0992 0.172276,0.18345 0.214974,0.29817 0.04586,0.1232 0.07143,0.29432 0.08837,0.46922 0.738392,0.0462 1.47683,0.0983 2.213301,0.16898 0.569912,0.0608 1.139655,0.12366 1.70739,0.20258 0.54397,0.0765 1.082593,0.18739 1.617472,0.3116 0.148807,0.034 0.296807,0.0727 0.4439,0.11317 0.233458,-0.24612 0.457091,-0.37714 0.615466,-0.24236 0.208774,0.17767 0.392115,0.37931 0.560689,0.59428 0.325091,0.0977 0.648808,0.19979 0.97255,0.30179 0.01159,-0.038 0.02302,-0.0762 0.03462,-0.1142 0.03956,-0.12956 -0.01556,-0.39009 0.119891,-0.38809 0.0097,1.5e-4 0.0177,-1.5e-4 0.02739,0 0.06971,-0.40995 0.125037,-0.61418 0.322979,-0.60358 0.114245,0.006 0.309793,0.10039 0.556554,0.23616 -0.351015,-0.60939 -0.705935,-1.21692 -1.066601,-1.82056 -0.293818,-0.49179 0.403714,-0.9071 0.696081,-0.41445 0.501195,0.84451 0.99413,1.69388 1.478463,2.54817 1.432229,-0.0974 1.391835,-0.20608 1.204579,0.76894 -0.03665,0.29186 -0.05972,0.58511 -0.07803,0.87902 0.01805,0.008 0.03654,0.016 0.05426,0.0248 0.844185,-0.55046 1.714249,-1.05825 2.559534,-1.6092 v 5.2e-4 c 1.360784,-0.88694 2.660465,0.17521 2.648935,1.33119 0.247374,-0.0298 0.494747,-0.0593 0.743624,-0.076 0.631624,-0.0664 1.263986,-0.13189 1.898592,-0.16278 0.654812,-0.016 1.309595,-0.0422 1.964738,-0.0362 0.475078,5e-5 0.94964,-5.3e-4 1.424717,-0.001 0.363078,1.7e-4 0.726258,-7.9e-4 1.089338,-0.001 0.285226,0 0.570021,-1.5e-4 0.855247,-5.3e-4 0.223073,0 0.446148,-8e-4 0.669208,0.003 0.262019,0.006 0.524571,0.0133 0.785482,0.0398 0.232587,0.0254 0.465769,0.0397 0.698666,0.062 0.265533,0.0191 0.531934,0.0397 0.79375,0.0899 0.105214,0.0245 0.129876,0.0293 0.251148,0.0439 0.0503,0.01 0.200512,0.0411 0.14986,0.0331 -0.0159,-0.002 -0.06341,-0.011 -0.04754,-0.008 0.130744,0.0225 0.04397,0.006 0.22634,0.0522 0.0092,0.003 0.01826,0.007 0.02739,0.0103 0.007,0.002 0.01468,0.003 0.0217,0.004 0.04816,0.0121 0.05129,0.0133 0.09405,0.0253 -0.02294,-0.005 -0.0469,-0.009 -0.06976,-0.0129 0.02027,0.002 0.284711,0.0579 0.163815,0.0367 0.127867,0.0444 0.247102,0.10408 0.355015,0.17983 0.0021,-0.0486 0.0036,-0.0973 0.0093,-0.14572 0.0021,-0.027 0.008,-0.0534 0.01188,-0.0801 -0.0083,-0.10106 -0.01704,-0.20219 -0.02429,-0.30334 -0.01675,-0.21397 -0.02714,-0.42832 -0.03204,-0.64286 -0.0024,-0.10689 -0.0029,-0.21348 -0.0031,-0.32039 -0.0021,-0.0629 0.0021,-0.1257 0.0093,-0.1881 0.0027,-0.0208 0.0047,-0.0416 0.0057,-0.0625 0.01167,-0.25549 0.200062,-0.37296 0.381373,-0.36329 0.181309,0.01 0.356291,0.14727 0.341583,0.40256 -0.0021,0.0357 -0.0049,0.0715 -0.0093,0.10697 -7.93e-4,0.008 -0.0021,0.0137 -0.0031,0.0217 -1.96e-4,0.001 -2.28e-4,0.003 -0.0016,0.004 -5.29e-4,10e-4 -0.0016,-0.003 -0.0016,-0.002 -0.0011,0.027 5.29e-4,0.0541 -5.29e-4,0.0811 -2.65e-4,0.0999 -2.65e-4,0.1998 0.0016,0.29972 0.0078,-1.3e-4 0.01551,-5.3e-4 0.02326,-0.001 0.119489,0.005 0.220816,0.0523 0.312642,0.12143 0.04514,0.0502 0.09676,0.0945 0.139526,0.14677 0.02468,0.0302 0.05354,0.10473 0.07286,0.14934 0.0019,0.005 0.0039,0.0106 0.0057,0.016 0.02148,0.0605 0.03482,0.11074 0.04702,0.17415 0.004,0.039 0.0127,0.071 0.0217,0.12816 0.0084,0.059 0.0096,0.11878 0.01035,0.17829 2.62e-4,0.0316 0.0021,0.0635 0.0021,0.0951 -1.59e-4,0.0335 -0.0021,0.0668 -0.0021,0.10025 2.1e-5,0.0338 1.48e-4,0.0679 0,0.1018 -2.1e-5,0.041 1.48e-4,0.082 0,0.12299 -2.1e-5,0.0442 -5.3e-5,0.0885 0,0.13281 3.7e-5,0.0324 0.0021,0.0639 0.0021,0.0961 -4e-5,0.0219 -0.0021,0.0432 -0.0021,0.0651 0.0011,0.005 0.0019,0.009 0.0031,0.0134 0.01291,0.0566 0.01619,0.11481 0.01704,0.1726 5.29e-4,0.0384 1.27e-4,0.0768 0,0.11524 0.0011,0.0502 -0.0016,0.0987 -0.0083,0.14883 -0.0028,0.0208 -0.009,0.0409 -0.01241,0.0615 -0.0055,0.0429 0.01767,-0.13214 -0.0093,0.0713 -0.01283,0.0618 -0.0095,0.0563 -0.0217,0.12919 -7.93e-4,0.004 -0.0026,0.008 -0.0036,0.0124 1.5e-5,0.0207 3.7e-5,0.0413 0,0.062 3.7e-5,0.0357 0,0.0713 0,0.10697 2.9e-5,0.0394 -5.3e-4,0.0789 -5.3e-4,0.11833 5.6e-5,0.042 1.9e-5,0.0841 0,0.1261 6.7e-5,0.0345 -2.32e-4,0.0689 5.3e-4,0.10335 5.29e-4,0.0214 7.93e-4,0.0434 0.0036,0.0646 0.0049,0.0434 0.01336,0.0868 0.01085,0.13075 6.4e-5,0.0225 -1.8e-5,0.0452 0,0.0677 5.6e-5,0.0251 4.3e-5,0.0494 0,0.0744 -3.1e-5,0.0306 5.9e-5,0.0614 0,0.092 0,0.0409 -3.9e-5,0.0821 0,0.12299 9e-5,0.0377 3.2e-5,0.0755 0,0.11317 1.46e-4,0.0299 8e-6,0.06 0,0.0899 4e-5,0.0327 -4.7e-5,0.0655 0,0.0982 1.59e-4,0.0287 -5e-5,0.0575 0,0.0863 8e-5,0.0311 2.65e-4,0.0619 -5.29e-4,0.093 -0.0013,0.0541 -0.0037,0.10841 -0.01394,0.16175 v 5.3e-4 c 0,0.0266 8.2e-5,0.0535 0,0.0801 5.3e-5,0.0289 -8e-6,0.0579 0,0.0868 6e-5,0.0344 8.2e-5,0.069 0,0.10335 -9e-5,0.0509 2.64e-4,0.10155 -0.0021,0.15245 -0.0019,0.0427 -0.006,0.0855 -0.01241,0.12764 0,0.0188 -8e-6,0.0366 0,0.0553 1.03e-4,0.0224 -9.3e-5,0.0453 0,0.0677 7.1e-5,0.0135 5e-6,0.0268 0,0.0403 5e-6,0.0148 1.3e-5,0.0298 0,0.0444 0,0.0193 -1.6e-5,0.0386 0,0.0579 -3e-6,0.0201 -3.2e-5,0.0408 0,0.061 1.3e-5,0.017 5e-5,0.0332 0,0.0501 -3e-6,0.0175 -3.2e-5,0.0352 0,0.0527 5e-6,0.0184 3.4e-5,0.0369 0,0.0553 -1.6e-5,0.0258 0,0.0517 0,0.0775 4.2e-5,0.0264 -4.5e-5,0.0527 0,0.0791 5e-5,0.0253 0,0.0512 0,0.0765 1.3e-5,0.02 7.4e-5,0.041 0,0.061 -8e-6,0.0217 -8e-6,0.0434 0,0.0651 0,0.0224 5e-6,0.0452 0,0.0677 5e-6,0.0201 5.8e-5,0.0389 0,0.0589 0,0.0225 3.4e-5,0.0457 0,0.0682 -2.4e-5,0.0246 -4.5e-5,0.0493 0,0.0739 -8e-6,0.0255 5.8e-5,0.0516 0,0.077 3.4e-5,0.0324 -6.9e-5,0.0633 0,0.0956 1.24e-4,0.0258 -4e-5,0.0517 0,0.0775 0,0.03 -5.29e-4,0.06 -0.0031,0.0899 -0.0011,0.009 -0.0069,0.0534 -0.01241,0.0749 -7.93e-4,0.02 -0.0021,0.0391 -0.0041,0.0589 -7.94e-4,0.008 -0.0016,0.0163 -0.0026,0.0243 -0.0056,0.0382 -0.01439,0.0766 -0.0186,0.10438 -0.0013,0.008 -0.0016,0.01 -0.0021,0.0124 0.0075,0.0612 0.01193,0.12285 0.01188,0.18449 -1.03e-4,0.0172 -5.29e-4,0.0345 -5.29e-4,0.0517 -7.7e-5,0.019 2.9e-5,0.0374 0,0.0563 7.94e-4,0.0135 -0.0024,0.0214 -0.0021,0.0341 0.0024,0.021 0.0053,0.0424 0.0073,0.0636 0.0049,0.0627 0.01087,0.12532 0.01447,0.1881 0.0021,0.0383 0.0021,0.0764 0.0026,0.11472 0.0016,0.10682 0.0013,0.21373 -0.0052,0.3204 v 5.3e-4 c -0.0048,0.0794 -0.02746,0.14339 -0.06046,0.19585 0.0065,0.0696 0.01262,0.13919 0.0186,0.20877 0.01712,0.2115 -0.100489,0.33759 -0.244431,0.38189 -0.0024,0.0439 -0.01265,0.0852 -0.02429,0.12713 0.01291,-0.0528 0.01482,-0.0915 0.01188,-0.12403 -0.03617,0.01 -0.07194,0.0157 -0.109554,0.0139 -1.8e-4,0.0663 -5.29e-4,0.13226 0,0.19843 0.0013,0.71973 -1.026551,0.71817 -1.022159,-0.003 5.29e-4,-0.0753 1.77e-4,-0.15054 0,-0.22583 -1.86e-4,-0.0448 5.8e-5,-0.0897 0,-0.13436 -1.4e-5,-0.004 1e-5,10e-4 0,-0.002 -0.003,-0.0193 -0.0096,-0.0378 -0.01138,-0.0574 -0.0013,-0.0195 -0.0011,-0.0389 -0.0011,-0.0584 -0.101854,0.0121 -0.204348,0.0164 -0.306956,0.0181 -0.06397,7.9e-4 -0.128273,5.3e-4 -0.192236,5.3e-4 -0.06522,-1.1e-4 -0.130106,-9e-5 -0.195339,-5.3e-4 -0.0615,-5e-5 -0.122984,5.3e-4 -0.184483,5.3e-4 -0.32784,0.0218 -0.656434,0.0268 -0.984954,0.0284 -0.607732,0.001 -1.215927,2.6e-4 -1.823662,-5.3e-4 -0.90075,-0.001 -1.801408,-5.3e-4 -2.70216,-0.002 -0.929087,0.008 -1.85751,2.2e-4 -2.785872,-0.0393 -0.740561,-0.0353 -1.480127,-0.091 -2.221053,-0.11885 -0.61772,-0.0225 -1.235528,-0.0418 -1.853118,-0.0677 -0.239273,-0.0111 -0.478195,-0.0261 -0.71727,-0.0408 -0.06963,0.001 -0.13916,0.005 -0.208772,0.007 -0.339574,1.11026 -0.781664,2.18665 -1.393198,3.18172 -0.772983,1.25084 -1.657575,2.72814 -3.284034,2.8484 -0.285899,-0.0679 -0.579266,-0.10861 -0.857314,-0.20361 -0.258606,-0.0884 -0.47688,-0.25347 -0.665591,-0.45526 0.220393,0.41449 0.393806,0.88842 0.500226,1.43195 0.07082,0.36171 0.135959,0.72453 0.202055,1.08727 0.261734,-0.0188 0.523354,-0.0401 0.785482,-0.0517 0.436194,-0.0186 0.872466,-0.0345 1.30793,-0.0672 0.260268,-0.0195 0.519999,-0.0438 0.780315,-0.0625 0.290102,-0.0209 0.580548,-0.0359 0.870749,-0.0553 0.533162,-0.0344 1.067445,-0.0749 1.601967,-0.0739 0.331666,-5.2e-4 0.663271,0.002 0.994773,0.0129 0.134194,0.005 0.268417,0.0105 0.402558,0.0165 0.08867,0.004 0.167934,0.007 0.256834,0.017 0.03104,0.004 0.06171,0.011 0.0925,0.016 0.0466,0.0129 0.0936,0.0235 0.139525,0.0387 0.08068,0.0267 0.153339,0.071 0.222726,0.12041 0.174392,-0.10663 0.281303,-0.19453 0.398942,-0.20619 0.0067,-7.9e-4 0.01484,0.003 0.02169,0.003 1.4e-5,-0.0141 3.5e-5,-0.0283 0,-0.0424 -7.93e-4,-0.36177 0.255712,-0.54235 0.512115,-0.54208 l 0.0011,-0.001 c 0.256408,2.6e-4 0.512784,0.18141 0.51108,0.54312 -1.27e-4,0.0278 -5.29e-4,0.0555 -5.29e-4,0.0832 1.3e-5,0.0449 -2.46e-4,0.09 5.29e-4,0.13488 7.94e-4,0.0456 0.0019,0.091 0.0067,0.13642 9e-5,0.0227 -2.64e-4,-0.022 0.0078,0.0553 0.0049,0.0468 0.0063,0.0931 0.0062,0.14005 0.0013,0.0537 0.0032,0.10722 0.0083,0.16071 0.008,0.0934 0.01384,0.1868 0.01138,0.2806 5.29e-4,0.058 2.64e-4,0.11624 0.0041,0.17415 0.0053,0.0738 0.01902,0.14688 0.01654,0.22118 1.14e-4,0.0551 5.3e-5,0.11025 0,0.16536 0,0.063 -5.29e-4,0.12614 -5.29e-4,0.18914 1.48e-4,0.0707 5.29e-4,0.1417 5.29e-4,0.21239 9.2e-5,0.0639 1.8e-5,0.12782 0,0.19172 1.21e-4,0.0594 2e-6,0.1189 0,0.17828 4.5e-5,0.0641 2.64e-4,0.12814 -0.0011,0.19224 -0.0016,0.0727 -0.0047,0.14536 -0.01344,0.21756 -0.0013,0.0119 -0.0026,0.0239 -0.0041,0.0357 -2.41e-4,0.002 -0.0011,0.008 -0.0016,0.006 -0.0011,-0.005 -1.56e-4,-0.02 -5.3e-4,-0.015 -0.0013,0.027 0.0011,0.054 0,0.0811 1.86e-4,0.0496 -1.72e-4,0.0992 0,0.14883 5.1e-5,0.0458 3.5e-5,0.0917 0,0.13746 4.3e-5,0.0526 -8.7e-5,0.10502 0,0.15761 2.54e-4,0.0464 2.12e-4,0.0926 0,0.13901 -5.29e-4,0.059 -0.0019,0.11813 -0.0088,0.17673 -0.0033,0.0263 -0.0066,0.0534 -0.01138,0.0796 5.3e-5,0.0413 2.65e-4,0.0827 -0.0011,0.12403 -0.0019,0.0665 -0.0058,0.13295 -0.01447,0.19895 -0.0037,0.0291 -0.0069,0.0646 -0.0052,0.0103 2.06e-4,-0.006 5e-6,0.0127 0,0.0196 6.3e-5,0.0279 1.8e-5,0.0134 0,0.0403 1.11e-4,0.0444 2.64e-4,0.0889 0,0.13332 -5.29e-4,0.066 -0.0016,0.13253 -0.01188,0.19793 -0.0029,0.0157 -0.0057,0.0313 -0.0088,0.047 -2.65e-4,0.0398 -1.56e-4,0.0797 -0.0026,0.11937 -0.0034,0.0469 -0.0083,0.0932 -0.01707,0.13953 -2e-6,5.3e-4 0,5.3e-4 0,0.002 -7.1e-5,0.0245 -0.0019,0.0494 -0.0026,0.0739 -0.0013,0.0402 -0.0075,0.0794 -0.01188,0.11937 0.0092,0.0415 0.008,0.0319 0.01757,0.11628 1.32e-4,0.007 7.94e-4,0.0214 0.0011,0.0284 0.01244,0.0591 0.02276,0.11855 0.02016,0.17932 -1.6e-5,0.0299 -3.7e-5,0.06 0,0.0899 -3.7e-5,0.0242 0,0.0485 0,0.0729 -4.5e-5,0.0221 2.9e-5,0.0446 0,0.0667 -3.7e-5,0.0233 -1.6e-5,0.0464 0,0.0698 -2.9e-5,0.0183 3.7e-5,0.037 0,0.0553 -5.3e-5,0.0152 -3.7e-5,0.0304 0,0.0455 0.0031,0.0223 0.0024,0.0207 0.0155,0.0956 -2.4e-5,0.0127 -8e-6,0.0255 0,0.0382 -2.4e-5,0.0119 6.4e-5,0.0244 0,0.0362 -5.5e-5,0.01 -5.29e-4,0.0194 -5.29e-4,0.0294 0.0033,0.0219 0.0033,0.0268 0.01913,0.11317 -1.3e-5,0.0136 -2e-6,0.0267 0,0.0403 -1.5e-5,0.0117 1.6e-5,0.0231 0,0.0346 -2.9e-5,0.0127 -2.6e-5,0.025 0,0.0377 -5e-6,0.01 -7e-6,0.0184 0,0.0284 8e-6,0.0116 5.3e-4,0.023 5.3e-4,0.0346 -9.8e-5,0.0341 -0.0016,0.0684 -0.0057,0.10231 -0.0063,0.0465 -0.02045,0.0904 -0.03566,0.13385 -0.0021,0.009 -0.0042,0.0167 -0.0067,0.0253 -5.29e-4,0.002 -0.0013,0.004 -0.0021,0.005 v 5.2e-4 l -5.29e-4,5.3e-4 c -0.0013,0.005 -0.0036,0.009 -0.0052,0.0134 0.0019,-0.005 0.0039,-0.008 0.0057,-0.0129 0.0086,4e-5 -0.0035,0.0233 -0.02119,0.0532 0.0058,-0.0133 0.01085,-0.0268 0.0155,-0.0403 -0.01077,0.0245 -0.02244,0.0485 -0.03669,0.0713 0.0026,-0.005 0.0016,-0.0102 0.0036,-0.015 -5.29e-4,7.9e-4 -0.0024,0.003 -0.0031,0.004 0.0016,-0.005 0.0035,-0.01 0.0052,-0.0145 0.0021,-0.008 0.0069,-0.0151 0.0041,-0.0243 -0.0035,0.0167 -0.01,0.0321 -0.01447,0.0481 0.0011,-0.002 0.0045,-0.006 0.0057,-0.008 -0.0019,0.005 -0.0034,0.01 -0.0052,0.015 7.93e-4,-0.001 0.0021,-0.002 0.0031,-0.004 -7.93e-4,0.002 -0.0021,0.004 -0.0031,0.006 -5.3e-4,7.9e-4 -0.0013,7.9e-4 -0.0021,0.002 8.2e-5,5.3e-4 -7.9e-5,5.3e-4 0,0.002 v 5.3e-4 c 1.64e-4,0.001 1.88e-4,0.002 5.29e-4,0.003 0.0085,-0.0137 0.01336,-0.0234 0.02273,-0.0393 -0.0011,0.003 -0.0013,0.006 -0.0026,0.008 -0.0066,0.0125 -0.0131,0.022 -0.01963,0.032 0.0053,0.0345 0.009,0.0691 0.01344,0.10387 0.0011,0.008 -7.94e-4,0.0173 0,0.0253 2.9e-5,0.0165 -3e-6,0.0331 0,0.0496 2.9e-5,0.0162 -3e-6,0.0324 0,0.0486 2.9e-5,0.0144 -3.2e-5,0.0285 0,0.0429 5.8e-5,0.0166 3.7e-5,0.033 0,0.0496 -2.01e-4,0.0392 -0.0013,0.0788 -0.0057,0.11782 -0.0083,0.0606 -0.0208,0.1038 -0.03928,0.15658 -0.0011,0.005 -0.0019,0.01 -0.0031,0.0145 -0.0013,0.009 -0.0033,0.0356 -0.0026,0.0217 -0.0019,0.009 -0.0072,0.0154 -0.0093,0.0238 -0.0056,0.0229 -0.01463,0.0445 -0.0217,0.0656 -0.0016,0.006 -0.0016,0.007 -0.0026,0.0103 -0.0058,0.0223 -0.01283,0.0464 -0.02119,0.0687 -0.006,0.0267 -0.01468,0.0602 -0.01344,0.0713 -0.01288,0.084 -0.03038,0.16683 -0.04444,0.25064 v -0.003 c -0.119663,0.71298 -1.12164,0.55566 -1.010274,-0.15865 0.01265,-0.0811 0.03253,-0.16106 0.04392,-0.24236 0.0087,-0.0677 0.02405,-0.13428 0.04031,-0.2005 0.0052,-0.0172 0.01114,-0.0346 0.01654,-0.0517 2.64e-4,-7.9e-4 0.0016,-0.001 0.0021,-0.003 -0.01479,-0.0621 -0.02172,-0.13008 -0.01394,-0.2067 0.0046,-0.0455 0.0045,-0.0912 0.0067,-0.13695 -0.01146,-0.0493 -0.02069,-0.0991 -0.03256,-0.1483 6e-6,-0.001 0,-0.002 0,-0.003 -0.07874,0.0454 -0.167346,0.0681 -0.256315,0.0682 -0.03413,0.10915 -0.101219,0.18939 -0.20619,0.28939 -0.02146,0.0204 -0.0479,0.0344 -0.07493,0.0465 -0.05256,0.0236 -0.108664,0.0396 -0.162782,0.0594 -0.155749,0.0366 -0.315092,0.0446 -0.474387,0.0486 -0.371396,0.0115 -0.742609,-0.002 -1.113629,-0.0181 -0.603223,-0.029 -1.205706,-0.0754 -1.807125,-0.13023 -0.674452,-0.0683 -1.351725,-0.10229 -2.028299,-0.14159 -0.138226,-0.009 -0.276637,-0.013 -0.414961,-0.0191 -0.05183,0.2539 -0.115446,0.52407 -0.181902,0.84129 -0.485089,2.31551 -1.661308,1.29421 -2.958994,-0.32866 -0.104171,0.0318 -0.222416,0.0465 -0.355534,0.0382 -0.39054,-0.0246 -0.78197,-0.0332 -1.173054,-0.0434 -0.388196,0.0498 -0.778634,0.0784 -1.169437,0.10025 -0.07531,0.0127 -0.150812,0.0254 -0.226343,0.0362 -0.438486,0.11394 -0.891685,0.16238 -1.326017,0.29094 -0.01596,0.007 -0.03211,0.0137 -0.04806,0.0207 -5.3e-4,0.002 -0.0016,0.004 -0.0021,0.005 -0.0384,0.12491 -0.09099,0.20877 -0.151929,0.2589 v 5.3e-4 c 0.05047,0.0924 0.02013,0.0377 -5.29e-4,5.3e-4 -0.217176,0.17729 -0.543872,-0.0753 -0.749827,-0.44338 -0.05175,0.0374 -0.104089,0.0734 -0.161747,0.10025 -0.0729,0.0341 -0.157266,0.0436 -0.23771,0.0434 -0.100087,-2e-4 -0.202536,-0.0103 -0.296624,-0.0444 -0.06499,-0.0236 -0.116377,-0.0763 -0.166397,-0.12403 -0.111837,-0.10668 -0.154829,-0.17058 -0.192238,-0.24546 -0.08164,0.17344 -0.171948,0.36169 -0.224793,0.45475 -0.03974,0.07 -0.09018,0.13339 -0.13539,0.19999 -0.140205,-0.0103 -0.289258,0.019 -0.420648,-0.031 -0.0444,-0.0169 -0.0227,-0.0923 -0.02791,-0.13952 -0.0081,-0.0737 -0.01204,-0.14811 -0.01188,-0.22221 2.2e-4,-0.11336 0.0086,-0.22626 0.01344,-0.33952 0.01151,-0.27404 0.0191,-0.42362 0.0279,-0.60099 -0.220501,0.004 -0.440965,0.009 -0.661458,0.0139 -0.01161,0.0642 -0.025,0.14212 -0.03514,0.19224 -0.01802,0.0891 -0.03521,0.17833 -0.06046,0.26562 -0.06405,0.22139 -0.07921,0.43561 -0.415478,0.36431 -0.06945,-0.0147 -0.08001,-0.11751 -0.119888,-0.17621 -0.0011,-0.0148 -5.29e-4,-0.0292 -0.0016,-0.0439 -0.02982,0.12291 -0.09928,0.44331 -0.276987,0.45165 -0.107651,0.005 -0.206447,-0.0825 -0.280085,-0.16122 -0.0384,-0.041 -0.01754,-0.1109 -0.02635,-0.1664 -0.0065,-0.0862 -0.01643,-0.17199 -0.01963,-0.25839 -0.0013,-0.0366 -0.0019,-0.21761 -0.0031,-0.41754 -0.05482,0.003 -0.109535,0.009 -0.16433,0.0129 -0.02357,0.0916 -0.04566,0.18353 -0.06976,0.27492 -0.03395,0.1108 -0.135409,0.45243 -0.181901,0.56431 -0.02331,0.0561 -0.02761,0.14617 -0.08681,0.15968 -0.45461,0.1034 -0.404654,-0.0603 -0.430464,-0.33073 -0.0028,-0.13179 -0.0034,-0.26352 -0.0057,-0.39533 -0.04224,-0.0122 -0.08455,-0.0248 -0.127124,-0.0351 -5.29e-4,-0.0537 5.29e-4,-0.10749 5.29e-4,-0.16123 -0.041,0.004 -0.08199,0.008 -0.122991,0.0104 -0.169186,0.0114 -0.339257,0.009 -0.508495,0.001 -0.0085,-8e-4 -0.01678,-0.003 -0.02532,-0.004 -0.0085,0.0512 -0.01831,0.1019 -0.03307,0.15193 -0.03369,0.14324 -0.06464,0.2868 -0.09405,0.43099 -0.02458,0.12374 -0.05011,0.24783 -0.06201,0.37362 -0.06808,0.71946 -1.094389,0.59054 -1.013892,-0.12764 0.0043,-0.0386 0.01241,-0.0765 0.01913,-0.11473 -0.137695,-0.0609 -0.253828,-0.18524 -0.299207,-0.38757 -0.02716,-0.1211 -0.04416,-0.24391 -0.0553,-0.36742 -0.0077,-0.0917 -0.0089,-0.18404 -0.0093,-0.27595 -2.15e-4,-0.0588 -1.4e-4,-0.1174 0,-0.17622 1.6e-5,-0.0442 3.9e-5,-0.0886 0,-0.13281 -2.7e-5,-0.0317 1.6e-5,-0.0639 0,-0.0956 8e-6,-0.0268 0,-0.0533 0,-0.0801 2e-6,-0.01 8e-6,-0.0188 0,-0.0284 -0.0049,-0.0116 -0.01894,-0.0429 -0.01447,-0.032 0.0098,0.0238 0.01722,0.049 -0.0186,-0.0548 -0.0093,-0.0649 -0.02228,-0.11959 -0.02016,-0.1819 -7.7e-5,-0.0227 -2.65e-4,-0.0456 0,-0.0682 0.0011,-0.0461 0.0034,-0.092 0.01035,-0.13746 0.0038,-0.0248 0.0088,-0.0498 0.01394,-0.0744 8.8e-5,-0.001 -7.4e-5,-0.003 0,-0.004 0.0054,-0.0673 0.01431,-0.13477 0.03049,-0.2005 -5.29e-4,0.003 0.0013,-0.007 0.0016,-0.0103 0.0033,-0.0185 0.0059,-0.0299 0.0083,-0.0429 0.0028,-0.0561 0.01037,-0.11154 0.02429,-0.16588 0.0016,-0.0115 0.0061,-0.0223 0.0083,-0.0336 -6.1e-5,1.1e-4 5.29e-4,-0.003 5.29e-4,-0.004 0.0049,-0.0251 0.01,-0.0501 0.01757,-0.0744 0,-0.0102 -3e-6,-0.0203 0,-0.0305 -0.0021,-0.0578 0.0069,-0.11504 0.02016,-0.17105 -2.1e-5,-7.9e-4 -5e-6,-2.2e-4 0,-0.002 -0.0011,-0.0637 0.0067,-0.12702 0.01757,-0.18965 0.004,-0.0278 0.0021,-0.005 0.0031,-0.0429 2.64e-4,-0.0157 5e-6,-0.0313 0,-0.047 -0.0019,-0.0438 0.0062,-0.0859 0.01241,-0.12868 -0.0027,-0.007 -0.0055,-0.0131 -0.0083,-0.0196 -0.0016,-0.004 0.0071,0.0154 0.0057,0.0114 -0.006,-0.0169 -0.01241,-0.0337 -0.0186,-0.0506 -0.01381,-0.0626 -0.0114,-0.0493 -0.01447,-0.0615 -0.01071,-0.0284 -0.02363,-0.0589 -0.02997,-0.0811 -0.04928,-0.19 0.0362,0.12365 -0.01963,-0.0651 -0.04084,-0.23444 -0.02352,-0.12722 -0.01344,-0.0739 -0.0055,-0.0171 -0.01132,-0.0341 -0.01447,-0.0517 -0.0071,-0.0397 -0.0097,-0.0803 -0.01394,-0.12041 -2.62e-4,-0.004 -8e-6,-0.007 0,-0.0108 2.4e-5,-0.0312 -5e-6,-0.0623 0,-0.0935 -5.8e-5,-0.0334 -5e-5,-0.0668 0,-0.10025 8e-6,-0.0121 5.3e-5,-0.0241 0,-0.0362 -0.0062,-0.014 -0.01236,-0.028 -0.0186,-0.0419 -0.0039,-0.009 0.01638,0.0351 0.01241,0.0263 -0.0095,-0.0208 -0.0093,-0.0273 -0.01138,-0.032 0.0036,0.007 0.0081,0.0175 0.0062,0.0129 -0.0093,-0.022 -0.01558,-0.0389 -0.02376,-0.0579 0.003,0.009 0.01318,0.0366 0.01654,0.0439 -0.0026,-0.005 -0.0038,-0.006 -0.0052,-0.009 -0.0077,-0.0189 -0.01469,-0.0379 -0.02222,-0.0568 -0.0011,-0.004 -0.0016,-0.005 -0.0031,-0.0104 -0.02143,-0.0529 -0.03815,-0.10581 -0.03462,-0.18241 -5.8e-5,-0.0169 5e-5,-0.0331 0,-0.0501 -1.01e-4,-0.0293 2.64e-4,-0.0592 0.0021,-0.0884 0.0037,-0.0626 0.01117,-0.12473 0.02739,-0.18551 0.0032,-0.0109 0.0061,-0.0221 0.0093,-0.0331 2.65e-4,-0.001 0.0019,-0.002 0.0021,-0.004 2.64e-4,-0.001 1.45e-4,-0.002 5.29e-4,-0.004 0.0021,-0.008 0.0024,-0.006 0.0041,-0.0119 0.0159,-0.0586 0.01712,-0.0648 0.03824,-0.11317 0.0058,-0.011 0.01172,-0.0221 0.01757,-0.0331 -0.0057,0.0121 -0.01289,0.0277 -0.0098,0.0207 0.008,-0.0188 0.02048,-0.0348 0.03049,-0.0527 v -0.0114 c 5.3e-5,-0.0291 -2.01e-4,-0.0577 0,-0.0868 10e-6,-0.007 -8e-6,-0.0147 0,-0.0217 10e-6,-0.004 7.6e-5,-0.006 0,-0.0129 -5.29e-4,-0.003 -0.0021,-0.006 -0.0026,-0.0104 -0.0091,-0.049 -0.01458,-0.0985 -0.01757,-0.14831 -0.0019,-0.0331 -0.0016,-0.0661 -0.0016,-0.0992 2.9e-5,-0.0219 -4.5e-5,-0.0437 0,-0.0656 1.6e-5,-0.0197 -9.8e-5,-0.0397 0,-0.0594 7.4e-5,-0.0373 5.29e-4,-0.0742 5.29e-4,-0.11162 -0.0026,-0.0661 0.0024,-0.13057 0.0083,-0.19638 -0.0028,-0.0111 0.008,-0.0431 0.01241,-0.0651 -0.0013,0.0117 -5.29e-4,-0.0171 -5.29e-4,-0.0181 0,-0.0221 2.1e-5,-0.0445 0,-0.0667 -0.004,-0.0567 0.01019,-0.11096 0.02222,-0.16536 0.0013,-0.006 -0.0028,0.0121 -0.0047,0.0181 0.0011,-0.008 0.0016,-0.009 0,-0.003 0.0019,-0.051 0.0046,-0.10155 0.0088,-0.15244 0.0035,-0.0274 0.0086,-0.0548 0.01241,-0.0822 1.01e-4,-1.1e-4 0.0038,-0.0276 0.0016,-0.0134 0.0011,-0.0274 0.0016,-0.0552 0.0016,-0.0827 -5e-6,-0.0278 3.5e-5,-0.0554 0,-0.0832 -3.9e-5,-0.031 -7.9e-5,-0.062 0,-0.093 5.1e-5,-0.0356 3.2e-5,-0.0713 0,-0.10697 -4.7e-5,-0.0237 -1.08e-4,-0.0476 0,-0.0713 5.6e-5,-0.0374 -7.4e-5,-0.0747 0,-0.11214 0,-0.0352 3.5e-5,-0.0707 0,-0.10594 -6.3e-5,-0.0164 4.5e-5,-0.0323 0,-0.0486 -7.93e-4,-0.24201 0.114565,-0.40136 0.267169,-0.48163 0.11176,-0.15626 0.270086,-0.22089 0.42478,-0.21446 2.2e-5,-0.0264 4.5e-5,-0.0527 0,-0.0791 -8.2e-5,-0.0187 -5.29e-4,-0.0371 -5.29e-4,-0.0558 -0.0016,-0.36141 0.254741,-0.54237 0.51108,-0.5426 l 5.29e-4,0.002 h 5.29e-4 c 0.256337,2.5e-4 0.512628,0.18119 0.51108,0.54261 -8.2e-5,0.0188 8.2e-5,0.0371 0,0.0558 -1.06e-4,0.0603 -5.29e-4,0.12057 -5.29e-4,0.18086 1.77e-4,0.076 3.7e-5,0.15188 0,0.2279 2.1e-5,0.0948 -5.29e-4,0.18983 -0.0016,0.28473 0.02692,-0.004 0.04983,-0.0108 0.08268,-0.0108 0.01773,-6e-5 0.03551,-9e-5 0.05323,0 0.03826,0.001 0.07654,7.9e-4 0.114721,0.004 0.04446,0.003 0.0883,0.009 0.132291,0.0155 0.01865,2.6e-4 0.04256,5.3e-4 0.05374,5.3e-4 0.03636,5.3e-4 0.0724,0.005 0.108519,0.008 0.0506,-0.27235 0.106942,-0.54371 0.177252,-0.81235 0.437068,-1.53658 0.993566,-3.03105 2.2009,-4.13722 1.300591,0.59599 2.131158,0.85702 2.703192,1.0356 0.706644,-0.50613 1.573234,-0.77944 2.447396,-0.78497 v 5.3e-4 l 5.29e-4,5.3e-4 c 1.139595,-0.007 2.287384,0.43763 3.100067,1.39423 -0.105714,-0.21292 -0.194188,-0.42894 -0.264064,-0.62838 -0.229309,-0.92706 -0.269349,-1.86675 -0.231511,-2.81379 -0.439227,-0.12251 -1.062794,-0.40269 -2.008148,-0.85524 -0.48352,0.0204 -0.967168,0.0368 -1.451072,0.0455 -0.47402,0.007 -0.948063,0.007 -1.422136,0.008 -0.300358,5.3e-4 -0.600879,10e-4 -0.901237,10e-4 -0.298384,0 -0.596649,-5.3e-4 -0.895038,-0.002 -0.4782,-0.002 -0.956442,0.003 -1.434536,-0.008 -0.485286,-0.0187 -0.970653,-0.0328 -1.456243,-0.0398 -0.461682,-0.005 -0.92374,-0.005 -1.385443,-0.006 -0.392843,0 -0.785389,0.002 -1.178224,0.002 -0.211003,5.3e-4 -0.422021,1.3e-4 -0.633037,0 -0.551238,0.81099 -1.099045,1.62449 -1.671733,2.42052 -0.04268,0.0575 -0.06869,0.1327 -0.128156,0.1726 -0.293978,0.19732 -0.543586,0.28717 -0.799952,-0.0915 -0.09649,-0.14251 -0.07655,-0.33644 -0.09973,-0.50694 -0.01966,-0.14423 -0.01963,-0.29036 -0.02842,-0.43564 -0.01561,-0.25731 -0.02992,-0.51518 -0.04496,-0.77256 -0.01598,-0.26331 -0.03426,-0.52594 -0.05219,-0.7891 -0.08613,-1.8e-4 -0.172276,-2.1e-4 -0.258382,-5.3e-4 -0.677706,-10e-4 -1.355338,0.004 -2.032952,-0.007 -0.608378,-0.009 -1.215951,-0.0333 -1.823662,-0.0615 -0.363778,-0.0124 -0.726374,-0.0459 -1.089856,-0.0641 -0.223435,-0.0108 -0.447122,-0.0109 -0.670758,-0.0129 -0.21299,-10e-4 -0.426252,2.6e-4 -0.639239,0.001 -0.107976,5.3e-4 -0.216029,0.001 -0.324011,0.001 -0.03343,5e-5 -0.06682,5.3e-4 -0.100251,5.3e-4 -0.07879,0.0169 -0.158787,0.0293 -0.239263,0.0357 -0.2859,0.0213 -0.469497,-0.056 -0.712102,-0.2005 -0.03263,-0.0194 -0.066,-0.041 -0.08888,-0.0713 -0.0066,-0.009 -0.01252,-0.0178 -0.0186,-0.0269 -6.7e-5,0.009 -5.3e-4,0.0175 0,0.0264 1.82e-4,0.004 -7.94e-4,-0.008 0.0011,-0.0114 0.0013,-0.003 7.94e-4,0.005 0.0011,0.007 0.0016,0.0139 0.0033,0.0259 0.0047,0.0398 0.0086,0.0715 0.01736,0.14348 0.02635,0.21497 0.0163,0.0962 0.01736,0.19353 0.02635,0.29042 0.0056,0.0718 0.01561,0.14314 0.02532,0.21446 0.0084,0.0588 0.01265,0.11792 0.0155,0.17725 0.0016,0.007 0.0053,0.0142 0.0067,0.0217 5.3e-4,0.0563 0.0026,0.11269 0.0011,0.16899 -5.29e-4,0.0159 0.0065,0.0425 -0.0088,0.0465 -0.300556,0.0819 -0.601676,0.17284 -0.911572,0.20463 -0.03887,0.004 -0.0971,-0.21484 -0.101804,-0.25114 -5.29e-4,-0.006 -5.29e-4,-0.0124 -0.0011,-0.0186 -0.01005,-0.0328 -0.01574,-0.0665 -0.02119,-0.10025 0.0029,0.0142 0.01537,0.0504 0.01138,0.0377 -0.0062,-0.0194 -0.0096,-0.039 -0.01447,-0.0579 0.0016,0.0129 7.94e-4,0.007 0.0026,0.0155 -0.0016,-0.0103 -0.005,-0.0201 -0.0062,-0.0305 -0.0016,-0.007 -0.003,-0.0139 -0.0047,-0.0207 0.0016,0.006 0.0028,0.009 0.0036,0.0119 -0.0034,-0.0111 -0.0057,-0.0227 -0.0088,-0.0336 7.94e-4,0.004 0.0016,0.008 0.0026,0.0124 -0.0019,-0.008 -0.0046,-0.0162 -0.0062,-0.0248 -2.14e-4,-0.001 -5.5e-5,-0.002 -5.29e-4,-0.004 -0.0058,-0.0214 -0.01236,-0.0428 -0.01706,-0.0651 -2.65e-4,-0.001 -7.94e-4,-0.003 -0.0011,-0.004 -9e-5,-2.5e-4 -5.29e-4,-5.3e-4 -5.29e-4,-0.001 -5.29e-4,-0.003 -5.29e-4,-0.004 -0.0016,-0.009 -0.0057,-0.0237 -0.01029,-0.047 -0.01498,-0.0708 0.0024,0.009 0.007,0.0241 0.0052,0.0181 -0.0034,-0.0112 -0.0053,-0.0225 -0.0083,-0.0336 -7.94e-4,-0.005 -0.0024,-0.009 -0.0031,-0.0129 -2.62e-4,-0.002 -0.0016,-0.003 -0.0021,-0.006 -0.0059,-0.0229 -0.0123,-0.0453 -0.01704,-0.0692 -0.0045,-0.0244 -0.0041,-0.0493 -0.0062,-0.0739 -0.0028,-0.0112 -0.0051,-0.0177 -0.01241,-0.047 -0.0056,-0.0343 -0.0063,-0.0378 -0.0093,-0.0656 v -5.2e-4 c -7.94e-4,-0.003 -5.3e-4,-2.7e-4 -0.0031,-0.0114 v -5.3e-4 c -0.0013,-0.005 -5.29e-4,0.003 -0.0026,-0.005 -2.62e-4,-0.001 3.4e-5,-0.002 -5.29e-4,-0.004 -0.0096,-0.033 -0.01913,-0.0652 -0.02635,-0.0992 -2.64e-4,-0.002 -0.0011,-0.005 -0.0016,-0.007 -0.0066,-0.0238 -0.01315,-0.0477 -0.0186,-0.0718 -0.01066,-0.0483 -0.01598,-0.0975 -0.01757,-0.14675 -2.51e-4,-0.0115 -1.3e-5,-0.0226 0,-0.0341 -0.01019,-0.0443 -0.01672,-0.0894 -0.0186,-0.13488 -0.0057,-0.0261 -0.01,-0.0529 -0.01241,-0.0796 -0.0093,-0.0401 -0.01569,-0.0807 -0.0186,-0.12195 -0.0013,-0.0264 -0.0026,-0.0532 -0.0026,-0.0796 2.9e-5,-0.0157 -5e-5,-0.0309 0,-0.0465 -0.0019,-0.0517 0.0069,-0.10046 0.01291,-0.15296 0.01699,-0.057 0.01347,-0.0452 0.01447,-0.0486 -0.0016,0.007 0.0066,-0.0307 0.0083,-0.0372 7.93e-4,-0.004 0.0084,-0.0349 0.0093,-0.0367 0.0042,-0.0189 -5.29e-4,0.005 0.0062,-0.0274 0.0016,-0.004 0.0044,-0.008 0.0062,-0.0114 5.29e-4,-0.003 0.0021,-0.0132 0.0031,-0.0176 -0.0033,-0.0248 -0.01111,-0.0479 -0.0093,-0.076 -8e-6,-0.0152 -5.5e-5,-0.0302 0,-0.0455 -0.0076,-0.0408 -0.01302,-0.082 -0.01913,-0.12299 -0.0013,-0.009 0.0011,-0.0189 0,-0.0279 -4.5e-5,-0.0158 0,-0.0312 0,-0.047 -2.9e-5,-0.0129 -8e-6,-0.0263 0,-0.0393 -1.6e-5,-0.0139 -2.9e-5,-0.0285 0,-0.0424 1.3e-5,-0.0216 -8e-6,-0.043 0,-0.0646 -3.2e-5,-0.0237 -5.3e-5,-0.0471 0,-0.0708 -1.6e-5,-0.0248 5.8e-5,-0.0496 0,-0.0744 -1.06e-4,-0.0177 -8e-6,-0.035 0,-0.0527 -2.4e-5,-0.0146 -8e-6,-0.0288 0,-0.0434 -1.6e-5,-0.014 0,-0.0286 0,-0.0424 -2.9e-5,-0.0138 8e-6,-0.0271 0,-0.0408 -3.2e-5,-0.0121 0,-0.025 0,-0.0372 -2.9e-5,-0.0105 -8e-6,-0.0205 0,-0.031 -1.6e-5,-0.0115 -2.9e-5,-0.0231 0,-0.0346 2.1e-5,-0.0201 -1.6e-5,-0.0404 0,-0.0605 -2.9e-5,-0.022 -8e-6,-0.0436 0,-0.0656 -5.3e-5,-0.0178 6.6e-5,-0.0354 0,-0.0532 -9e-5,-0.0256 0.0013,-0.0514 0.0031,-0.077 -0.0087,-0.0385 -0.01426,-0.0777 -0.01704,-0.11731 -0.0016,-0.0297 -0.0031,-0.0597 -0.0031,-0.0894 2.1e-5,-0.0217 -3.7e-5,-0.0429 0,-0.0646 -8e-6,-0.0166 -2.4e-5,-0.0335 0,-0.0501 -8e-6,-0.0147 -1.6e-5,-0.0287 0,-0.0434 -8e-6,-0.0133 -2.4e-5,-0.027 0,-0.0403 0,-0.0128 -1.6e-5,-0.0259 0,-0.0388 0,-0.0142 -2.9e-5,-0.0286 0,-0.0429 0,-0.0164 -2.9e-5,-0.0326 0,-0.0491 v -0.0517 c -2.9e-5,-0.0128 -3.7e-5,-0.0249 0,-0.0377 -0.0019,-0.0619 0.0122,-0.11598 0.0217,-0.18087 0.0065,-0.0203 0.0029,-0.007 0.0062,-0.016 0.0039,-0.0291 0.0049,-0.0436 0.0093,-0.0651 0.0019,-0.009 0.03338,-0.10318 0.0093,-0.03 -0.0053,0.0125 0.0037,-0.0132 0.01188,-0.0367 2.62e-4,-0.004 0.0024,-0.009 0.0026,-0.0129 -0.0011,-0.004 -0.0016,-0.006 -0.0031,-0.01 -1.75e-4,-5.3e-4 -1.22e-4,-5.3e-4 -5.29e-4,-0.002 -0.0168,-0.05 -0.02965,-0.10153 -0.03514,-0.15451 -0.0024,-0.0274 -0.0031,-0.0552 -0.0031,-0.0827 4.8e-5,-0.0117 -4.2e-5,-0.0229 0,-0.0346 1.6e-5,-0.0114 -1.6e-5,-0.0227 0,-0.0341 3e-6,-0.0115 -8e-6,-0.0227 0,-0.0341 -5e-6,-0.0106 -2.1e-5,-0.0214 0,-0.032 8e-6,-0.0127 -3.4e-5,-0.0245 0,-0.0372 v -0.003 c -0.0071,-0.0304 -0.01093,-0.0664 -0.0093,-0.11421 -1.6e-5,-0.013 1.6e-5,-0.0243 0,-0.0372 -5e-5,-0.0154 -1.3e-5,-0.0311 0,-0.0465 9.8e-5,-0.039 5.29e-4,-0.0781 0.0062,-0.11679 0.0045,-0.0238 0.01402,-0.0437 0.01963,-0.0646 0.0027,-0.0159 0.0064,-0.0317 0.01035,-0.0475 7.94e-4,-0.008 0.0024,-0.0267 0.0031,-0.0357 -0.0013,-0.007 -0.0021,-0.0145 -0.0031,-0.0222 -0.0049,-0.0476 -0.006,-0.0953 -0.0062,-0.14314 -7.4e-5,-0.0227 -6.1e-5,-0.0454 0,-0.0682 1.6e-5,-0.0161 -2.4e-5,-0.0325 0,-0.0486 0,-0.0157 -2.4e-5,-0.0313 0,-0.047 -8e-6,-0.0176 -1.06e-4,-0.0351 0,-0.0527 5.3e-5,-0.0246 -1.6e-5,-0.0493 0,-0.0739 -6.1e-5,-0.0236 -2.9e-5,-0.0467 0,-0.0703 -0.0038,-0.0727 0.01201,-0.14405 0.02997,-0.21395 0.0013,-0.005 -0.004,0.011 -0.0057,0.016 -7.94e-4,7.9e-4 -0.003,0.0131 -0.0036,0.0191 -2.65e-4,-0.006 -0.0016,-0.0116 -0.0016,-0.0176 -5.3e-5,-0.0155 0,-0.031 0,-0.0465 -2.9e-5,-0.0157 -3.7e-5,-0.0313 0,-0.047 -2.9e-5,-0.0202 -3.7e-5,-0.0403 0,-0.0605 5.3e-5,-0.0278 0,-0.0554 0,-0.0832 -7.4e-5,-0.025 -2.9e-5,-0.0499 0,-0.0749 -2.1e-5,-0.0231 -8e-6,-0.0467 0,-0.0698 -2.1e-5,-0.0199 -1.11e-4,-0.0395 0,-0.0594 -0.0016,-0.0435 0.0032,-0.0865 0.0072,-0.1297 -0.01434,-0.0428 -0.02371,-0.0884 -0.01963,-0.15503 -2.1e-5,-0.0146 -2e-6,-0.0293 0,-0.0439 -2.6e-5,-0.015 -2e-6,-0.0299 0,-0.045 -3.4e-5,-0.0148 -1e-5,-0.0297 0,-0.0444 -2.6e-5,-0.0145 -1.8e-5,-0.0289 0,-0.0434 -1.8e-5,-0.0181 1.1e-5,-0.0362 0,-0.0543 -7.1e-5,-0.0243 -1e-4,-0.0491 0,-0.0734 5.6e-5,-0.014 0.0013,-0.029 0.0016,-0.0429 3.2e-5,-2.1e-4 -0.0016,-0.006 -0.0016,-0.006 -0.0066,-0.0254 -0.01416,-0.0509 -0.01654,-0.077 -0.0071,-0.0471 -0.02127,-0.0932 -0.02273,-0.14108 -0.0054,-0.0582 -0.01397,-0.11601 -0.02376,-0.17363 -0.135255,-0.0336 -0.239049,-0.104 -0.233061,-0.21756 3.7e-5,-0.0156 5.3e-5,-0.0314 0,-0.047 -0.0208,-0.0479 -0.03715,-0.0968 -0.03204,-0.16123 5.3e-5,-0.0215 0.0021,-0.0431 0.0021,-0.0646 -1.6e-5,-0.006 0.0016,-0.0116 0.0026,-0.007 0.0037,0.0122 -0.03294,-0.11652 -0.02894,-0.10232 -0.0098,-0.078 -0.01725,-0.15351 -0.01344,-0.23203 -1.77e-4,-0.0468 -7.94e-4,-0.0938 0,-0.14056 0.0013,-0.0753 0.0051,-0.15082 0.01757,-0.2253 0.0095,-0.0568 0.02477,-0.10931 0.02429,-0.15452 -4.5e-5,-0.0747 -0.0026,-0.14905 -0.0026,-0.22376 -1.06e-4,-0.0747 1.27e-4,-0.14958 0,-0.22427 -1.06e-4,-0.0847 7.94e-4,-0.16954 0.0031,-0.25425 0.0035,-0.12171 0.01024,-0.24325 0.02326,-0.36432 0.01114,-0.10909 0.02312,-0.21711 0.01654,-0.32711 -2.59e-4,-0.0636 -3e-6,-0.12759 -5.29e-4,-0.1912 9e-5,-0.056 0.0013,-0.11164 0.0057,-0.16743 0.0075,-0.0919 0.01916,-0.18347 0.04031,-0.27337 0.02355,-0.11252 0.01654,-0.23185 0.05013,-0.34313 0.02535,-0.13509 0.03962,-0.27268 0.0584,-0.40876 0.01865,-0.14743 0.04233,-0.29382 0.04547,-0.44287 0.01003,-0.26961 -0.01365,-0.53996 -0.02326,-0.80925 -0.02294,-0.41065 -0.04588,-0.82084 -0.05839,-1.23197 -0.0095,-0.29499 -0.0062,-0.59013 -0.0088,-0.88522 -0.003,-0.25532 -0.0073,-0.51078 -0.02894,-0.76533 -0.02275,-0.26577 -0.04773,-0.53167 -0.07596,-0.79685 h -0.0016 c -0.03442,-0.32317 0.208058,-0.49625 0.437184,-0.48369 z m 16.748847,6.3345 c -0.02429,0.002 -0.05659,0.007 -0.07131,0.0134 -0.0069,0.003 -0.01331,0.007 -0.02016,0.0103 0.03898,-0.007 0.07835,-0.0126 0.116787,-0.0217 0.01572,-0.004 -0.0011,-0.004 -0.02532,-0.002 z m -6.7076,0.73639 c -0.283093,0 -0.566057,2.6e-4 -0.849045,0.001 0.0051,0.0811 0.01095,0.16222 0.01497,0.2434 0.02151,0.39049 0.04337,0.78098 0.0646,1.1715 0.505595,-0.001 1.011153,-0.002 1.516705,-0.002 0.943814,0 1.88758,5.3e-4 2.831351,0.001 0.0039,-0.005 0.0074,-0.0105 0.01138,-0.0155 0.234345,-0.30012 0.482238,-0.58904 0.723469,-0.88367 0.17153,-0.19772 0.253159,-0.29159 0.357084,-0.41186 -0.814961,-0.0178 -1.629201,-0.0502 -2.444294,-0.0625 -0.742009,-0.012 -1.484183,-0.0343 -2.22622,-0.0413 z m -1.753899,0.016 c -0.682106,0.0207 -1.364573,0.056 -2.041737,0.14366 -0.635455,0.08 -1.269672,0.17055 -1.894975,0.31161 -0.483325,0.10571 -0.965932,0.21781 -1.442288,0.35192 -0.448765,0.13076 -0.897411,0.26703 -1.313098,0.48524 -0.12005,0.0627 -0.236321,0.1326 -0.350367,0.20619 0.0155,0.10687 0.02212,0.2146 0.03256,0.32194 0.101478,-0.0549 0.207238,-0.10256 0.31006,-0.15503 0.270513,-0.0765 0.539181,-0.0169 0.803569,0.045 0,0 5.29e-4,0 5.29e-4,0 0.101751,-0.0132 0.202996,-0.0298 0.306956,-0.0496 1.276051,-0.18082 2.566083,-0.20966 3.852479,-0.23926 0.571976,-0.01 1.144101,-0.0132 1.716175,-0.0165 5.29e-4,-0.0605 -1.53e-4,-0.0393 5.29e-4,-0.11214 1.43e-4,-0.0158 0.008,-1.03285 0.01963,-1.29294 z m 7.47758,0.11679 c -0.23355,0.25346 -0.408006,0.45226 -0.790649,0.89038 -0.107437,0.13067 -0.213699,0.26225 -0.321945,0.39223 0.144351,5e-5 0.288695,-4e-5 0.433049,0 0.01603,-0.24583 0.192979,-0.27052 0.754475,-0.39946 0.253857,-0.0424 0.508873,-0.0753 0.764294,-0.10335 -0.0056,-0.0922 -0.0046,-0.072 -0.01447,-0.22893 -0.01082,-0.1719 -0.02217,-0.34381 -0.03307,-0.51573 -0.263847,-0.0137 -0.527679,-0.0252 -0.791683,-0.0351 z m 1.607138,0.0791 v 5.3e-4 c 0.0118,0.20145 0.0241,0.39812 0.03824,0.63355 0.72467,-0.0476 1.451999,-0.0646 2.177129,-0.0816 0.829985,-0.0146 1.65976,-0.0199 2.489769,-0.0222 -0.314407,-0.0648 -0.629695,-0.12444 -0.947746,-0.16898 -0.556535,-0.0769 -1.115237,-0.14032 -1.673799,-0.20051 -0.693444,-0.0667 -1.388435,-0.11565 -2.083593,-0.16071 z m 29.764071,0.6873 c 0.007,0.005 0.01431,0.01 0.02119,0.0155 0.0172,0.0143 0.06539,0.06 0.04651,0.0481 -0.02048,-0.0129 -0.03444,-0.0342 -0.05168,-0.0512 -0.0053,-0.004 -0.0093,-0.007 -0.01601,-0.0124 z m -21.94026,0.71779 v 5.2e-4 c 0.0047,0.008 0.0097,0.0151 0.01447,0.0227 0.0016,-0.006 0.0034,-0.0114 0.0052,-0.0171 -0.0065,-0.002 -0.01312,-0.004 -0.01963,-0.006 z m 20.370847,0.12609 c -0.0044,-0.001 0.01349,0.003 0.01344,0.003 -0.0011,-2.6e-4 -0.0016,-7.9e-4 -0.0026,-0.001 -0.0035,-7.9e-4 -0.0073,-0.001 -0.01085,-0.002 z m -46.001323,0.49661 c 0.0013,0.005 0.0019,0.009 0.0031,0.0114 0.0061,0.0137 0.01016,0.0264 0.01757,0.0382 0.0034,0.006 0.01318,0.0225 0.0098,0.0165 -0.01143,-0.0237 -0.02016,-0.0445 -0.03049,-0.0661 z m 46.422487,1.53892 c -0.0087,0.005 -0.0079,0.003 -0.01447,0.007 -0.01222,0.006 -0.02262,0.0137 -0.03514,0.0202 -0.0044,0.002 0.009,-0.005 0.01344,-0.007 0.01204,-0.007 0.04827,-0.0256 0.03617,-0.0196 z m -0.158131,0.0755 c -0.0113,0.004 -0.02236,0.009 -0.03359,0.0134 -0.0097,0.004 -0.0016,0.001 -0.01344,0.006 -0.0075,0.003 0.121258,-0.0483 0.04702,-0.0196 z m -0.876432,0.33745 c -0.0035,0.001 -0.0068,0.002 -0.01035,0.004 0.006,0.0219 0.0131,0.0434 0.01963,0.0651 -0.0021,-0.0145 -0.0055,-0.0368 -0.0067,-0.045 -7.93e-4,-0.008 -0.0016,-0.0158 -0.0026,-0.0238 z m -0.08062,0.0284 c -0.01386,0.006 -0.02685,0.0131 -0.04031,0.0196 -1.32e-4,7.9e-4 0.0016,-0.002 -0.0011,0.004 0.02326,0.002 0.03451,-0.009 0.04134,-0.0238 z m -0.04547,0.0222 c -0.0019,8e-4 -0.0034,0.002 -0.0052,0.003 -5.29e-4,0.005 -0.01495,0.0175 -0.01035,0.0139 0.0078,-0.006 0.01151,-0.0114 0.0155,-0.0165 z m -0.0217,0.0114 c -0.01556,0.008 -0.03161,0.0155 -0.04651,0.0253 0.01998,0.0289 0.03275,-0.006 0.04651,-0.0253 z m -1.51257,1.44487 c -0.0035,-0.002 0.01201,0.0182 0.0078,0.0248 -0.0011,0.002 -0.0024,-0.002 -0.0036,-0.003 0.004,0.005 0.0083,0.01 0.01241,0.0145 -0.0061,-0.0157 -0.01103,-0.0303 -0.01654,-0.0362 z m -43.467628,0.0403 c -2.65e-4,10e-4 -7.94e-4,0.003 -0.0011,0.004 -0.0019,0.013 1.14e-4,2.6e-4 -0.0021,0.016 -7.94e-4,0.007 0.0029,-0.0186 0.0031,-0.0196 z m 0.02326,1.95699 c -5.3e-4,0.002 -0.0013,0.005 -0.0021,0.006 2.64e-4,-5.3e-4 0.0013,-0.003 0.0021,-0.004 -1.22e-4,-5.3e-4 1.19e-4,-0.001 0,-0.002 z m -0.03462,0.11989 c -0.0055,0.021 -0.01172,0.0424 -0.01394,0.0568 0.003,-0.0161 -0.006,0.0424 -0.0021,0.0238 0.01434,-0.0678 0.01206,-0.0582 0.01601,-0.0806 z m 9.942029,0.94309 c 0.01709,0.24614 0.03492,0.49226 0.05064,0.73846 0.01392,0.21236 0.02743,0.42433 0.04134,0.63665 0.320981,-0.45448 0.633687,-0.91485 0.947229,-1.37459 -0.200832,6e-5 -0.401661,2.6e-4 -0.602549,0 -0.145526,0 -0.291102,-5e-5 -0.436665,-5.3e-4 z m 18.212326,2.9099 c 0.006,0.0132 0.01035,0.0272 0.01913,0.0388 0.02265,0.03 0.0127,0.003 -0.0062,-0.0382 -0.0041,2e-5 -0.0088,-5.3e-4 -0.01291,-5.3e-4 z m -13.704073,4.68344 c 0.0083,0.001 0.01656,0.002 0.02479,0.003 0.0046,0.001 -0.0088,-0.001 -0.01344,-0.002 -0.01516,-8e-4 -0.0028,-5.3e-4 -0.01138,-0.001 z m -2.168861,2.15749 c -0.0021,0.004 -0.0041,0.008 -0.0062,0.0114 0.0011,-0.002 0.0016,-0.004 0.0026,-0.006 0.0011,-0.002 0.0024,-0.004 0.0036,-0.006 z m -0.07855,0.71313 c -0.0016,-0.004 0.0016,0.006 0.0036,0.0124 0.0038,0.01 0.0081,0.0198 0.01241,0.0295 -0.0024,-0.008 2.1e-5,0.003 -0.01603,-0.0419 z m 0.03566,0.0377 c 0.0026,0.029 0.0088,0.0575 0.01704,0.0853 -8e-6,-10e-4 1.1e-5,-0.002 0,-0.004 -0.0061,-0.0371 -0.01889,-0.10767 -0.01704,-0.0811 z m 0.05529,0.216 c 0.0045,0.0101 0.0076,0.0208 0.01291,0.0305 0.01016,0.0161 0.03889,0.0658 0.03049,0.0486 -0.0132,-0.027 -0.02912,-0.0527 -0.04341,-0.0791 z m 0.0646,0.54777 c 0.0016,0.004 0.0021,0.01 0.0036,0.0129 0.0016,0.004 0.0068,0.0154 0.0052,0.0114 -0.0037,-0.008 -0.0053,-0.0157 -0.0088,-0.0243 z m 22.897311,1.43144 c 2.65e-4,0.001 7.94e-4,0.002 0.0011,0.003 0.0132,0.0289 0.01741,0.0385 0.02273,0.0481 -0.0031,-0.007 -0.0038,-0.0156 -0.0078,-0.0227 -0.005,-0.01 -0.01093,-0.0193 -0.01601,-0.0284 z m -22.998078,0.31058 c -0.0036,-0.009 0.004,0.0179 0.0072,0.0269 0.0019,0.005 0.0021,0.004 0.0036,0.008 -2e-6,-0.002 3e-6,-0.004 0,-0.006 -0.004,-0.0106 -5.29e-4,-0.004 -0.01085,-0.0289 z m 23.027534,0.62063 c -0.0038,0.003 -0.005,0.002 -0.01035,0.007 -0.0039,0.0149 -0.0093,0.0293 -0.01394,0.0439 -5.29e-4,0.003 4.7e-5,0.007 -0.0016,0.0103 0.0039,-0.008 0.02281,-0.0487 0.02585,-0.0615 z m -16.131315,0.0398 c -0.195847,0.009 -0.391612,0.0205 -0.58756,0.0269 -0.0081,2.6e-4 -0.01619,2.2e-4 -0.02429,5.3e-4 -0.03006,0.0649 -0.06008,0.12983 -0.08992,0.19482 0.01651,0.0696 0.04433,0.1369 0.06615,0.20516 0.08357,0.16695 0.05928,0.16874 0.189651,0.27337 0.03224,0.0259 0.06342,0.0607 0.10387,0.0687 0.02638,0.005 0.04863,-0.0235 0.07441,-0.0315 0.179004,-0.0548 0.165259,-0.0467 0.235127,-0.11472 -0.05645,-0.21918 -0.05724,-0.4421 0.03256,-0.62322 z m -4.662249,0.29611 c -0.0026,-0.001 -0.0013,0.009 -5.29e-4,0.007 5.29e-4,-0.002 0.0013,-0.004 0.0021,-0.007 -5.29e-4,-1e-5 -0.0011,1e-5 -0.0016,0 z m 18.72134,0.0155 v 5.3e-4 c 5.29e-4,1.1e-4 0.0011,-9e-5 0.0016,0 -7.93e-4,-2.5e-4 -0.0029,-0.001 -0.0016,-5.3e-4 z m 0.0016,5.3e-4 v 5.3e-4 c 2.62e-4,8e-5 7.94e-4,-7e-5 0.0011,0 -5.29e-4,-2.6e-4 -5.29e-4,-2.2e-4 -0.0011,-5.3e-4 z m 0.0026,0.003 c 5.29e-4,5.3e-4 0.0011,0.002 5.29e-4,0.002 0.0033,2.3e-4 0.01312,0.001 0.0098,5.3e-4 -0.0034,-7.9e-4 -0.0069,-0.001 -0.01035,-0.002 z m -15.253848,0.006 c -0.01013,0.01 -0.02096,0.0185 -0.03049,0.0284 -0.03364,-0.005 -0.06829,-0.007 -0.102835,-0.009 -0.0035,0.081 -0.0086,0.16543 -0.01344,0.28629 0.04899,-0.10185 0.09945,-0.20273 0.146762,-0.30541 z" />    </clipPath>    <clipPath       clipPathUnits="userSpaceOnUse"       id="clipPath4402">      <path         id="path4404"         style="fill:#ff0000;fill-opacity:1;fill-rule:nonzero;stroke:none;stroke-width:0.264583"         d="m 47.295305,138.57345 -4.705656,0.002 v 18.33945 h 16.911629 c 0.0057,-0.0651 0.01299,-0.13046 0.02946,-0.19379 -2.64e-4,0.003 -0.0016,0.0128 -0.0011,0.0104 0.0057,-0.0318 0.0063,-0.0371 0.0093,-0.0532 0.0028,-0.0561 0.01037,-0.11154 0.02429,-0.16588 0.0016,-0.0115 0.0056,-0.0223 0.0078,-0.0336 -5.29e-4,0.001 0.0049,-0.0357 0.0041,-0.031 -0.0016,0.009 -0.0028,0.0206 -0.0031,0.0274 0.0049,-0.025 0.01,-0.0501 0.01757,-0.0744 0,-0.0103 -5e-6,-0.0206 0,-0.031 -0.0021,-0.0578 0.0069,-0.11504 0.02016,-0.17105 -2.1e-5,-7.9e-4 -8e-6,-0.001 0,-0.002 -0.0011,-0.0637 0.0067,-0.12703 0.01757,-0.18966 0.004,-0.0278 0.0021,-0.005 0.0031,-0.0429 2.64e-4,-0.0157 5e-6,-0.0313 0,-0.047 -0.0019,-0.0436 0.0062,-0.0855 0.01241,-0.12816 -0.0027,-0.007 -0.0055,-0.0131 -0.0083,-0.0196 -0.0016,-0.004 0.0066,0.0154 0.0052,0.0114 -0.006,-0.0169 -0.01241,-0.0337 -0.0186,-0.0506 -0.01381,-0.0626 -0.0114,-0.0493 -0.01447,-0.0615 -0.01072,-0.0285 -0.02363,-0.0589 -0.02997,-0.0811 -0.04928,-0.19005 0.0362,0.12422 -0.01963,-0.0646 -0.04084,-0.23444 -0.02352,-0.12724 -0.01344,-0.0739 -0.0055,-0.0171 -0.01132,-0.0346 -0.01447,-0.0522 -0.0071,-0.0397 -0.0097,-0.0803 -0.01394,-0.12041 -2.59e-4,-0.004 -5e-6,-0.007 0,-0.0109 1.9e-5,-0.0312 -5e-6,-0.0623 0,-0.0935 -5.8e-5,-0.0334 -5e-5,-0.0669 0,-0.10025 3e-6,-0.0121 4.8e-5,-0.0241 0,-0.0362 -0.0062,-0.014 -0.01236,-0.0279 -0.0186,-0.0419 -0.0039,-0.009 0.0164,0.0354 0.01241,0.0264 -0.0098,-0.0215 -0.01016,-0.0284 -0.01241,-0.0331 -0.0026,-0.005 -0.0038,-0.006 -0.0052,-0.009 -0.0077,-0.0189 -0.01468,-0.0378 -0.02223,-0.0568 -0.0011,-0.004 -0.0016,-0.005 -0.0031,-0.0104 0.0039,0.01 0.0086,0.0201 0.01291,0.03 -0.0026,-0.009 -9.8e-5,0.003 -0.01654,-0.0429 -0.0016,-0.004 0.0016,0.006 0.0036,0.0124 -0.02135,-0.0528 -0.03761,-0.10552 -0.03411,-0.1819 -5.8e-5,-0.0169 5e-5,-0.0337 0,-0.0506 -1.01e-4,-0.0293 -2.01e-4,-0.0587 0.0016,-0.0879 0.0037,-0.0626 0.01117,-0.12472 0.02739,-0.18552 0.0032,-0.0109 0.0061,-0.0222 0.0093,-0.0331 2.65e-4,-10e-4 7.94e-4,-0.002 0.0011,-0.004 2.64e-4,-0.001 1.32e-4,-0.002 5.29e-4,-0.004 0.0021,-0.008 0.0024,-0.006 0.0041,-0.0124 0.0159,-0.0586 0.01712,-0.0643 0.03824,-0.11265 0.0058,-0.011 0.01172,-0.0221 0.01757,-0.0331 -0.0057,0.0121 -0.01291,0.0276 -0.0098,0.0207 0.008,-0.0188 0.02048,-0.0353 0.03049,-0.0532 -2e-6,-0.004 -5e-6,-0.008 0,-0.0114 4.5e-5,-0.0291 -2.03e-4,-0.0582 0,-0.0873 8e-6,-0.007 -1.3e-5,-0.0147 0,-0.0217 8e-6,-0.004 7.5e-5,-0.006 0,-0.0129 -5.29e-4,-0.003 -0.0011,-0.006 -0.0016,-0.01 -0.0091,-0.049 -0.01458,-0.0985 -0.01757,-0.14831 -0.0019,-0.0331 -0.0031,-0.0661 -0.0031,-0.0992 3.2e-5,-0.0219 -4.5e-5,-0.0437 0,-0.0656 1.6e-5,-0.0197 -9.8e-5,-0.0397 0,-0.0594 7.7e-5,-0.0373 0.0011,-0.0742 0.0011,-0.11162 -0.0026,-0.0661 0.0029,-0.13107 0.0088,-0.19689 -0.0028,-0.0111 0.0085,-0.0431 0.01291,-0.0651 -0.0013,0.0117 -0.0021,-0.0166 -0.0021,-0.0176 -2e-6,-0.0221 2.2e-5,-0.0445 0,-0.0667 -0.004,-0.0567 0.01019,-0.11096 0.02223,-0.16536 0.0013,-0.006 -0.0028,0.0121 -0.0047,0.0181 0.0011,-0.008 0.0016,-0.009 0,-0.003 0.0019,-0.051 0.0046,-0.10156 0.0088,-0.15245 0.0035,-0.0274 0.0086,-0.0548 0.01241,-0.0822 1e-4,-1e-4 0.0043,-0.0276 0.0016,-0.0134 0.0011,-0.0274 0.0021,-0.0552 0.0021,-0.0827 -1.3e-5,-0.0278 3.2e-5,-0.0554 0,-0.0832 -5e-5,-0.031 -8.2e-5,-0.062 0,-0.093 4.5e-5,-0.0356 2.4e-5,-0.0713 0,-0.10697 -5.5e-5,-0.0237 -1.11e-4,-0.0476 0,-0.0713 5.3e-5,-0.0374 -7.4e-5,-0.0747 0,-0.11214 0,-0.0352 2.7e-5,-0.0707 0,-0.10594 -7.1e-5,-0.0164 4.5e-5,-0.0323 0,-0.0486 -7.94e-4,-0.24199 0.114565,-0.40138 0.267166,-0.48163 0.111754,-0.15614 0.269629,-0.22089 0.424264,-0.21446 2.2e-5,-0.0264 4.5e-5,-0.0527 0,-0.0791 -8.2e-5,-0.0187 -5.29e-4,-0.0371 -5.29e-4,-0.0558 -0.0016,-0.36166 0.255088,-0.54263 0.511599,-0.5426 0.256508,0 0.513146,0.18095 0.511595,0.5426 -8.2e-5,0.0188 8.2e-5,0.0371 0,0.0558 -1.06e-4,0.0603 -5.29e-4,0.12056 -5.29e-4,0.18087 1.8e-4,0.076 3.7e-5,0.15188 0,0.22789 2.1e-5,0.095 -7.94e-4,0.19018 -0.0016,0.28525 0.02705,-0.004 0.05015,-0.0111 0.0832,-0.0108 0.01773,-8e-5 0.03551,-9e-5 0.05323,0 0.03826,10e-4 0.07654,7.9e-4 0.114723,0.004 0.04446,0.003 0.0883,0.009 0.132292,0.0155 0.01865,2.6e-4 0.04255,0.001 0.05374,0.001 0.03619,5.3e-4 0.07205,0.005 0.108003,0.008 0.05064,-0.27269 0.106857,-0.54441 0.177252,-0.81338 0.437068,-1.53658 0.993566,-3.03105 2.2009,-4.13722 1.302081,0.59667 2.133237,0.85754 2.705261,1.03611 0.706425,-0.50561 1.572139,-0.77893 2.445846,-0.78444 1.139597,-0.007 2.287383,0.43762 3.100067,1.39422 -0.105714,-0.21291 -0.194191,-0.42894 -0.264065,-0.62838 -0.229309,-0.92706 -0.269348,-1.86675 -0.23151,-2.81378 -0.438454,-0.12232 -1.060945,-0.40203 -2.003497,-0.85318 -0.485833,0.0205 -0.972087,0.0369 -1.458309,0.0455 -0.474019,0.007 -0.948065,0.007 -1.422135,0.008 -0.300355,5.3e-4 -0.600877,5.3e-4 -0.901237,5.3e-4 -0.298379,0 -0.596646,1e-4 -0.895035,-0.002 -0.478208,-0.002 -0.95644,0.003 -1.434539,-0.008 -0.485278,-0.0187 -0.970656,-0.0312 -1.456241,-0.0382 -0.461684,-0.005 -0.923739,-0.005 -1.385445,-0.006 -0.39284,0 -0.785387,0.002 -1.178224,0.002 -0.211172,5.2e-4 -0.422365,1.3e-4 -0.633553,0 -0.551267,0.81103 -1.099024,1.62446 -1.671733,2.42052 -0.04268,0.0575 -0.06869,0.1327 -0.128156,0.1726 -0.293976,0.19733 -0.543589,0.28783 -0.799952,-0.0904 -0.09649,-0.14252 -0.07654,-0.33588 -0.09974,-0.50642 -0.01966,-0.14421 -0.01963,-0.29037 -0.02842,-0.43564 -0.01561,-0.25736 -0.02992,-0.51519 -0.04496,-0.77256 -0.01598,-0.2633 -0.03425,-0.52646 -0.05219,-0.78962 -0.08595,-1.5e-4 -0.171932,-9e-5 -0.257866,-5.2e-4 -0.677693,-0.001 -1.355336,0.004 -2.03295,-0.007 -0.60838,-0.009 -1.215953,-0.0333 -1.823662,-0.0615 -0.363783,-0.0124 -0.726374,-0.0459 -1.089855,-0.0641 -0.223438,-0.0108 -0.447122,-0.0109 -0.670762,-0.0129 -0.212986,-0.001 -0.426249,-2.7e-4 -0.639236,5.3e-4 -0.107979,5.3e-4 -0.216032,0.001 -0.324011,0.001 -0.03343,4e-5 -0.06682,5.3e-4 -0.100253,5.3e-4 -0.07879,0.0169 -0.158787,0.0299 -0.239263,0.0362 -0.285903,0.0213 -0.469498,-0.056 -0.712099,-0.20051 -0.03263,-0.0194 -0.06601,-0.041 -0.08888,-0.0713 -0.0066,-0.009 -0.01244,-0.0184 -0.0186,-0.0274 -2.9e-5,0.008 -2.64e-4,0.0164 0,0.0243 1.8e-4,0.004 1.67e-4,-0.008 0.0021,-0.0119 0.0013,-0.003 0.0019,0.005 0.0021,0.007 0.0016,0.0139 0.0033,0.0269 0.0047,0.0408 0.0086,0.0715 0.01736,0.14348 0.02635,0.21497 0.0163,0.0962 0.01736,0.19351 0.02635,0.29042 0.0056,0.0718 0.01561,0.14316 0.02532,0.21446 0.0084,0.0588 0.01265,0.11791 0.0155,0.17725 0.0016,0.007 0.0053,0.0142 0.0067,0.0217 5.29e-4,0.0563 0.0026,0.11267 0.0011,0.16898 -5.29e-4,0.0159 0.0065,0.042 -0.0088,0.046 -0.300556,0.0819 -0.601676,0.17286 -0.911572,0.20464 -0.03887,0.004 -0.0971,-0.21486 -0.101803,-0.25115 -5.3e-4,-0.006 -5.3e-4,-0.0124 -0.0011,-0.0186 -0.01005,-0.0328 -0.01574,-0.065 -0.02119,-0.0987 0.0029,0.0142 0.01535,0.0499 0.01138,0.0372 -0.0062,-0.0194 -0.0096,-0.039 -0.01447,-0.0579 0.0016,0.0129 7.93e-4,0.007 0.0026,0.016 -0.0016,-0.0103 -0.005,-0.0201 -0.0062,-0.0305 -0.0016,-0.007 -0.0035,-0.0134 -0.0052,-0.0202 0.0016,0.006 0.0028,0.009 0.0036,0.0114 -0.0034,-0.0111 -0.0062,-0.0222 -0.0093,-0.0331 -0.0011,-0.004 -0.0024,-0.008 -0.0031,-0.0124 -2.15e-4,-0.001 -4.3e-5,-0.002 -5.3e-4,-0.004 -0.0058,-0.0214 -0.01233,-0.0428 -0.01704,-0.0651 -2.64e-4,-0.001 -0.0019,-0.003 -0.0021,-0.004 l -5.3e-4,-5.3e-4 c -5.29e-4,-0.003 -0.0016,-0.004 -0.0026,-0.009 -0.008,-0.0332 -0.01548,-0.0655 -0.02119,-0.0992 -2.64e-4,-0.002 -0.0011,-0.003 -0.0016,-0.006 -0.0059,-0.0229 -0.01228,-0.0461 -0.01707,-0.0698 -0.0045,-0.0244 -0.0046,-0.0493 -0.0067,-0.0739 -0.0028,-0.0112 -0.0051,-0.0177 -0.01241,-0.047 -0.0056,-0.0343 -0.0063,-0.0373 -0.0093,-0.0651 v -5.3e-4 c -7.94e-4,-0.003 -5.3e-4,-2.1e-4 -0.0031,-0.0108 v -5.3e-4 c -0.0013,-0.005 -5.29e-4,0.003 -0.0026,-0.005 -2.62e-4,-0.001 -5.29e-4,-0.002 -0.0011,-0.004 -0.0096,-0.033 -0.01863,-0.0647 -0.02585,-0.0987 -2.62e-4,-0.002 -5.29e-4,-0.005 -0.0011,-0.007 -0.0066,-0.0238 -0.01265,-0.0477 -0.0181,-0.0718 -0.01066,-0.0483 -0.01595,-0.0975 -0.01757,-0.14676 -2.51e-4,-0.0115 -1.6e-5,-0.0226 0,-0.0341 -0.01019,-0.0443 -0.01622,-0.0894 -0.0181,-0.13488 -0.0057,-0.0261 -0.0105,-0.0529 -0.01291,-0.0796 -0.0093,-0.0401 -0.01519,-0.0807 -0.0181,-0.12196 -0.0013,-0.0264 -0.0021,-0.0527 -0.0021,-0.0791 2.9e-5,-0.0157 -4.5e-5,-0.0314 0,-0.047 -0.0019,-0.0517 0.0069,-0.10046 0.01291,-0.15296 0.01699,-0.057 0.01347,-0.0447 0.01447,-0.0481 -0.0016,0.007 0.0066,-0.0307 0.0083,-0.0372 7.94e-4,-0.004 0.0079,-0.0349 0.0088,-0.0367 0.0042,-0.0189 -5.29e-4,0.005 0.0062,-0.0274 0.0016,-0.004 0.0034,-0.008 0.0052,-0.0119 5.29e-4,-0.003 0.0026,-0.0122 0.0036,-0.0165 -0.0033,-0.0246 -0.01,-0.0477 -0.0083,-0.0754 -8e-6,-0.0152 -5.9e-5,-0.0302 0,-0.0455 -0.0076,-0.0407 -0.01352,-0.082 -0.01963,-0.12299 -0.0013,-0.009 0.0011,-0.0189 0,-0.0279 -3.9e-5,-0.0158 6e-6,-0.0312 0,-0.047 -2.9e-5,-0.0129 -8e-6,-0.0255 0,-0.0382 -1e-5,-0.0139 -2.9e-5,-0.028 0,-0.0418 1.6e-5,-0.0216 -8e-6,-0.0435 0,-0.0651 -2.9e-5,-0.0237 -4.7e-5,-0.0471 0,-0.0708 -1e-5,-0.0248 6.1e-5,-0.0491 0,-0.0739 -1e-4,-0.0177 -8e-6,-0.0355 0,-0.0532 -1.8e-5,-0.0146 -8e-6,-0.0283 0,-0.0429 -1e-5,-0.014 6e-6,-0.0289 0,-0.0429 -2.9e-5,-0.0138 1.4e-5,-0.0265 0,-0.0403 -2.9e-5,-0.0121 6e-6,-0.025 0,-0.0372 -2.3e-5,-0.0105 -8e-6,-0.0205 0,-0.031 -1e-5,-0.0115 -2.9e-5,-0.0231 0,-0.0346 2.7e-5,-0.0201 -1e-5,-0.0404 0,-0.0605 -2.9e-5,-0.022 -8e-6,-0.0436 0,-0.0656 -4.7e-5,-0.0178 6.1e-5,-0.0354 0,-0.0532 -9e-5,-0.0258 0.0011,-0.0518 0.0026,-0.0775 -0.0087,-0.0387 -0.01482,-0.078 -0.01757,-0.11782 -0.0016,-0.0297 -0.0016,-0.0597 -0.0016,-0.0894 2.7e-5,-0.0217 -3.1e-5,-0.0429 0,-0.0646 -8e-6,-0.0166 -1.8e-5,-0.0335 0,-0.0501 -8e-6,-0.0147 -1.5e-5,-0.0287 0,-0.0434 -8e-6,-0.0133 -1.8e-5,-0.027 0,-0.0403 6e-6,-0.0128 -1.5e-5,-0.025 0,-0.0377 0,-0.0142 -2.3e-5,-0.0291 0,-0.0434 0,-0.0164 -2.9e-5,-0.0326 0,-0.0491 0,-0.017 6e-6,-0.0348 0,-0.0517 -2.3e-5,-0.0128 -3.1e-5,-0.025 0,-0.0377 -0.0019,-0.0619 0.0122,-0.11597 0.0217,-0.18087 0.0065,-0.0203 0.0024,-0.007 0.0057,-0.016 0.0039,-0.0291 0.0054,-0.0436 0.0098,-0.0651 0.0019,-0.01 0.03278,-0.10294 0.0088,-0.03 -0.0053,0.0126 0.0042,-0.0131 0.01241,-0.0367 2.62e-4,-0.004 1.3e-4,-0.008 5.29e-4,-0.0119 -0.0011,-0.004 -0.0016,-0.006 -0.0031,-0.0119 -1.72e-4,-5.3e-4 -1.12e-4,6e-5 -5.3e-4,-0.002 -0.0168,-0.05 -0.02965,-0.10204 -0.03514,-0.15503 -0.0024,-0.0274 -0.0021,-0.0547 -0.0021,-0.0822 4.3e-5,-0.0117 -3.9e-5,-0.0229 0,-0.0346 1.6e-5,-0.0114 -1.6e-5,-0.0227 0,-0.0341 6e-6,-0.0115 -1e-5,-0.0227 0,-0.0341 -2e-6,-0.0106 -2.3e-5,-0.0209 0,-0.0315 6e-6,-0.0127 -3.7e-5,-0.0245 0,-0.0372 v -0.003 c -0.0071,-0.0304 -0.01154,-0.0664 -0.0098,-0.11421 -1.6e-5,-0.013 1.6e-5,-0.0255 0,-0.0382 -5.3e-5,-0.0154 -1.6e-5,-0.0311 0,-0.0465 9.6e-5,-0.039 0.0011,-0.0781 0.0067,-0.11678 0.0045,-0.0238 0.01352,-0.0436 0.01913,-0.0646 0.0027,-0.0159 0.0069,-0.0314 0.01085,-0.047 7.94e-4,-0.008 0.0035,-0.0271 0.0041,-0.0362 -0.0013,-0.007 -0.003,-0.0145 -0.0041,-0.0222 -0.0049,-0.0476 -0.0055,-0.0953 -0.0057,-0.14315 -7.6e-5,-0.0227 -6e-5,-0.0454 0,-0.0682 1.4e-5,-0.0161 -2.3e-5,-0.0325 0,-0.0486 0,-0.0157 -1.8e-5,-0.0313 0,-0.047 -7e-6,-0.0176 -10e-5,-0.0346 0,-0.0522 5.1e-5,-0.0246 -1.5e-5,-0.0493 0,-0.0739 -6e-5,-0.0236 -3.1e-5,-0.0472 0,-0.0708 -0.0038,-0.0727 0.01201,-0.14404 0.02997,-0.21394 0.0013,-0.005 -0.0035,0.0115 -0.0052,0.0165 -7.94e-4,7.9e-4 -0.0035,0.0132 -0.0041,0.0191 -2.65e-4,-0.006 -5.3e-4,-0.0121 -5.3e-4,-0.0181 -4.5e-5,-0.0155 0,-0.031 0,-0.0465 -2.9e-5,-0.0157 -3.7e-5,-0.0308 0,-0.0465 -2.9e-5,-0.0202 -3.7e-5,-0.0408 0,-0.061 5.3e-5,-0.0278 0,-0.0554 0,-0.0832 -7.4e-5,-0.025 -2.9e-5,-0.0494 0,-0.0744 -1.5e-5,-0.0231 -5e-6,-0.0472 0,-0.0703 -2.1e-5,-0.0199 -1.03e-4,-0.039 0,-0.0589 -0.0016,-0.0432 0.0032,-0.0858 0.0072,-0.12867 -0.01461,-0.0433 -0.02371,-0.0891 -0.01963,-0.15658 -2.6e-5,-0.0146 0,-0.0288 0,-0.0434 -2.6e-5,-0.015 0,-0.031 0,-0.046 -3.4e-5,-0.0148 -1e-5,-0.0286 0,-0.0434 -2.6e-5,-0.0145 -1.8e-5,-0.0289 0,-0.0434 -1.8e-5,-0.0181 1.1e-5,-0.0372 0,-0.0553 -7.1e-5,-0.0243 -1e-4,-0.0491 0,-0.0734 1.9e-5,-0.007 5.3e-4,-0.0126 5.3e-4,-0.0191 z m 12.183751,16.36748 c 0.0028,0.009 0.01445,0.0394 0.01757,0.046 0.0036,0.007 0.0086,0.0175 0.0067,0.0129 -0.0095,-0.0224 -0.01585,-0.0396 -0.02429,-0.0589 z M 94.870694,138.575 c -0.0011,0.004 -0.0019,0.009 -0.0026,0.0129 -0.0055,0.0429 0.01767,-0.13142 -0.0093,0.0718 -0.01283,0.0618 -0.0095,0.0568 -0.02169,0.12971 -0.0011,0.004 -0.0026,0.009 -0.0036,0.0129 1.6e-5,0.0207 3.7e-5,0.0413 0,0.062 2.6e-5,0.0357 0,0.0713 0,0.10697 2.6e-5,0.0394 -5.29e-4,0.0789 -5.29e-4,0.11834 5.5e-5,0.042 1.8e-5,0.0841 0,0.12609 6.6e-5,0.0345 -2.36e-4,0.0688 5.29e-4,0.10336 5.29e-4,0.0214 7.94e-4,0.0429 0.0036,0.0641 0.0049,0.0434 0.01336,0.0868 0.01085,0.13075 6.4e-5,0.0225 -1.8e-5,0.0447 0,0.0672 5.6e-5,0.0251 4.3e-5,0.0499 0,0.0749 -3.1e-5,0.0306 5.9e-5,0.0614 0,0.092 0,0.0409 -3.9e-5,0.0821 0,0.12299 9e-5,0.0377 3.2e-5,0.0755 0,0.11317 1.46e-4,0.0299 8e-6,0.06 0,0.0899 3.8e-5,0.0327 -4.7e-5,0.0655 0,0.0982 1.59e-4,0.0287 -5e-5,0.0575 0,0.0863 8e-5,0.0311 2.65e-4,0.0619 -5.29e-4,0.093 -0.0013,0.0541 -0.0037,0.10842 -0.01394,0.16175 v 5.3e-4 c 0,0.0266 8.2e-5,0.0535 0,0.0801 5.3e-5,0.0289 -8e-6,0.0579 0,0.0868 6.1e-5,0.0344 8.2e-5,0.069 0,0.10336 -9.3e-5,0.0509 2.64e-4,0.10154 -0.0021,0.15244 -0.0019,0.0427 -0.006,0.0855 -0.01241,0.12764 0,0.0188 -8e-6,0.0371 0,0.0558 1.03e-4,0.0224 -9e-5,0.0448 0,0.0672 7.4e-5,0.0135 5e-6,0.0273 0,0.0408 5e-6,0.0148 1.3e-5,0.0292 0,0.0439 0,0.0193 -1.6e-5,0.0391 0,0.0584 0,0.0201 -3.2e-5,0.0403 0,0.0605 1.3e-5,0.017 5e-5,0.0336 0,0.0506 0,0.0175 -3.2e-5,0.0347 0,0.0522 5e-6,0.0184 3.7e-5,0.0374 0,0.0558 -1.6e-5,0.0258 0,0.0512 0,0.077 4.5e-5,0.0264 -4.5e-5,0.0532 0,0.0796 5e-5,0.0253 0,0.0507 0,0.076 1.3e-5,0.02 7.4e-5,0.0401 0,0.0599 -8e-6,0.0217 -8e-6,0.0434 0,0.0651 0,0.0224 5e-6,0.0452 0,0.0677 5e-6,0.0201 5.8e-5,0.0393 0,0.0594 0,0.0225 3.7e-5,0.0452 0,0.0677 -2.4e-5,0.0246 -4.5e-5,0.0493 0,0.0739 -8e-6,0.0255 5.8e-5,0.0511 0,0.0765 3.7e-5,0.0324 -6.9e-5,0.0655 0,0.0972 1.27e-4,0.0258 -3.7e-5,0.0517 0,0.0775 0,0.03 -5.29e-4,0.06 -0.0031,0.0899 -0.0011,0.009 -0.0069,0.0529 -0.01241,0.0744 -7.94e-4,0.02 -0.0021,0.04 -0.0041,0.06 -7.94e-4,0.008 -0.0016,0.0158 -0.0026,0.0238 -0.0056,0.0382 -0.01439,0.0766 -0.0186,0.10438 -0.0013,0.008 -0.0021,0.01 -0.0026,0.0124 0.0075,0.0612 0.01193,0.12287 0.01188,0.18448 -1.03e-4,0.0172 -0.0011,0.035 -0.0011,0.0522 -7.4e-5,0.019 2.9e-5,0.0368 0,0.0558 7.93e-4,0.0135 -0.0029,0.0219 -0.0026,0.0346 0.0024,0.021 0.0048,0.0424 0.0067,0.0636 0.0049,0.0627 0.0114,0.12532 0.01498,0.18811 0.0021,0.0383 0.0021,0.0764 0.0026,0.11472 0.0016,0.10682 7.94e-4,0.21372 -0.0057,0.32039 v 5.3e-4 c -0.0048,0.0794 -0.02746,0.14392 -0.06046,0.19637 0.0065,0.0696 0.01262,0.13868 0.0186,0.20826 0.01714,0.21174 -0.100782,0.33773 -0.244946,0.38189 -0.0024,0.0437 -0.01201,0.0854 -0.02376,0.12712 0.01281,-0.0523 0.01519,-0.0916 0.01241,-0.12402 -0.03649,0.01 -0.07264,0.0149 -0.110588,0.0134 -1.8e-4,0.0661 -5.29e-4,0.13242 0,0.19844 l 0.0021,-0.003 c 0.0044,0.72303 -1.027075,0.72303 -1.022675,0 5.29e-4,-0.0753 1.8e-4,-0.15054 0,-0.22583 -1.85e-4,-0.0448 5.8e-5,-0.0897 0,-0.13435 -1.3e-5,-0.004 8e-6,5.3e-4 0,-0.002 -0.003,-0.0193 -0.0096,-0.0378 -0.01138,-0.0574 -0.0013,-0.0193 -0.0021,-0.0386 -0.0021,-0.0579 -0.101695,0.012 -0.204004,0.0164 -0.30644,0.0181 -0.06397,7.9e-4 -0.128789,5.3e-4 -0.192754,5.3e-4 -0.06522,-1.1e-4 -0.130109,-8e-5 -0.195337,-5.3e-4 -0.06374,-8e-5 -0.126947,7.9e-4 -0.190685,5.3e-4 -7.94e-4,3e-5 -0.0019,-2e-5 -0.0026,0 -0.325104,0.0212 -0.650923,0.0262 -0.976686,0.0279 -0.607732,0.001 -1.215929,2.7e-4 -1.823659,-5.3e-4 -0.900755,-0.001 -1.801405,-0.001 -2.702163,-0.002 -0.929092,0.008 -1.85751,10e-4 -2.785872,-0.0382 -0.740558,-0.0353 -1.480119,-0.0911 -2.221053,-0.11886 -0.61772,-0.0225 -1.235522,-0.0418 -1.853118,-0.0677 -0.237032,-0.011 -0.473717,-0.0261 -0.710551,-0.0408 -0.071,0.001 -0.141918,0.005 -0.212905,0.007 -0.339495,1.10953 -0.781521,2.18519 -1.392682,3.17965 -0.772983,1.25085 -1.657575,2.72815 -3.284035,2.84841 -0.285898,-0.0679 -0.579266,-0.10861 -0.857314,-0.2036 -0.258836,-0.0885 -0.477287,-0.25375 -0.666109,-0.45579 0.220604,0.41468 0.394255,0.88857 0.500745,1.43247 0.07079,0.36154 0.135988,0.72419 0.202054,1.08675 0.261734,-0.0188 0.523354,-0.0394 0.785482,-0.0512 0.436195,-0.0186 0.872466,-0.0345 1.307931,-0.0672 0.260268,-0.0195 0.519999,-0.0438 0.780314,-0.0625 0.290103,-0.0209 0.580546,-0.0364 0.870749,-0.0558 0.533159,-0.0344 1.067446,-0.0744 1.601968,-0.0734 0.331665,-5.3e-4 0.66327,0.002 0.994772,0.0129 0.134194,0.005 0.268417,0.01 0.402558,0.016 0.08867,0.004 0.167934,0.007 0.256834,0.0176 0.03104,0.004 0.06171,0.0105 0.0925,0.0155 0.04659,0.0129 0.0936,0.0241 0.139525,0.0393 0.08091,0.0267 0.153686,0.0714 0.223243,0.12092 0.174005,-0.10643 0.280929,-0.19403 0.398425,-0.20567 0.0069,-7.9e-4 0.01521,0.003 0.02222,0.003 1.6e-5,-0.0145 3.7e-5,-0.0289 0,-0.0434 -7.94e-4,-0.36177 0.255715,-0.54235 0.512114,-0.54208 0.256405,2.5e-4 0.512781,0.18142 0.51108,0.54311 -1.27e-4,0.0278 -5.29e-4,0.0555 -5.29e-4,0.0832 1.3e-5,0.0449 -2.54e-4,0.09 5.29e-4,0.13488 7.94e-4,0.0456 0.0019,0.091 0.0067,0.13643 9.3e-5,0.0227 -2.64e-4,-0.022 0.0078,0.0553 0.0049,0.0468 0.0063,0.0931 0.0062,0.14004 0.0013,0.0537 0.0032,0.1072 0.0083,0.16072 0.008,0.0934 0.01384,0.1868 0.01138,0.2806 5.29e-4,0.058 2.65e-4,0.11624 0.0041,0.17415 0.0053,0.0738 0.01902,0.14687 0.01654,0.22117 1.11e-4,0.0551 5.3e-5,0.11026 0,0.16537 0,0.063 -5.29e-4,0.12613 -5.29e-4,0.18913 1.48e-4,0.0707 5.29e-4,0.14169 5.29e-4,0.21239 9.3e-5,0.0639 1.9e-5,0.12782 0,0.19172 1.22e-4,0.0594 3e-6,0.11891 0,0.17829 4.5e-5,0.0641 2.65e-4,0.12813 -0.0011,0.19223 -0.0016,0.0727 -0.0047,0.14536 -0.01344,0.21756 -0.0013,0.0119 -0.0026,0.0244 -0.0041,0.0362 -2.4e-4,0.002 -0.0011,0.008 -0.0016,0.006 -0.0011,-0.005 -0.0013,-0.02 -0.0016,-0.015 -0.0013,0.027 0.0011,0.054 0,0.0811 1.86e-4,0.0496 -1.74e-4,0.0992 0,0.14883 5.1e-5,0.0458 3.5e-5,0.0917 0,0.13746 4.3e-5,0.0526 -8.7e-5,0.105 0,0.15761 2.52e-4,0.0464 2.12e-4,0.0926 0,0.13901 -5.29e-4,0.059 -0.0019,0.11814 -0.0088,0.17673 -0.0033,0.0263 -0.0066,0.0534 -0.01138,0.0796 5.6e-5,0.0413 2.65e-4,0.0827 -0.0011,0.12402 -0.0019,0.0665 -0.0058,0.13295 -0.01447,0.19895 -0.0037,0.0291 -0.0069,0.0645 -0.0052,0.0103 2.09e-4,-0.006 1.8e-5,0.0127 0,0.0196 6.6e-5,0.0279 2.1e-5,0.0134 0,0.0403 1.11e-4,0.0444 2.64e-4,0.0889 0,0.13332 -5.29e-4,0.066 -0.0016,0.13252 -0.01188,0.19792 -0.0029,0.0157 -0.0057,0.0313 -0.0088,0.047 -2.65e-4,0.0398 -7.94e-4,0.0797 -0.0031,0.11937 -0.0034,0.0469 -0.0088,0.0932 -0.01757,0.13953 v 0.002 c -7.2e-5,0.0245 -0.0011,0.0494 -0.0021,0.0739 -0.0013,0.0402 -0.0075,0.0799 -0.01188,0.11989 0.0092,0.0415 0.008,0.0315 0.01757,0.11576 2.64e-4,0.013 0.0036,0.0611 -0.0041,0.008 0.01442,0.066 0.02719,0.13251 0.02429,0.2005 0,0.006 8e-6,0.0118 0,0.0176 H 99.501549 V 138.5758 Z m -1.437122,0.87902 c -0.0087,0.005 -0.0079,0.003 -0.01447,0.007 -0.01222,0.006 -0.02262,0.0134 -0.03514,0.0202 -0.0044,0.002 0.009,-0.005 0.01344,-0.007 0.01204,-0.007 0.04827,-0.0256 0.03617,-0.0196 z m -1.034563,0.41289 c -0.0035,0.001 -0.0068,0.002 -0.01035,0.004 0.006,0.0219 0.0131,0.0434 0.01963,0.0651 -0.0021,-0.0145 -0.0055,-0.0367 -0.0067,-0.045 -7.93e-4,-0.008 -0.0016,-0.0164 -0.0026,-0.0243 z m -0.08113,0.0289 c -0.01363,0.006 -0.02654,0.0127 -0.03979,0.0191 -1.32e-4,7.9e-4 0.0016,-0.002 -0.0011,0.004 0.0227,0.002 0.03395,-0.009 0.04082,-0.0233 z m -0.04496,0.0217 c -0.0019,7.9e-4 -0.0034,0.002 -0.0052,0.003 -5.29e-4,0.005 -0.01495,0.0175 -0.01035,0.0139 0.0078,-0.006 0.01151,-0.0115 0.0155,-0.0165 z m -0.0217,0.0114 c -0.01556,0.008 -0.03161,0.0155 -0.04651,0.0253 0.01998,0.0289 0.03275,-0.006 0.04651,-0.0253 z m -1.513086,1.44333 c -0.0068,-0.006 0.01318,0.0194 0.0083,0.0263 -0.0011,0.002 -0.0024,-0.002 -0.0036,-0.003 0.004,0.005 0.0083,0.01 0.01241,0.0145 -0.0063,-0.0162 -0.0114,-0.0323 -0.01704,-0.0377 z m -43.467112,0.0419 c -2.65e-4,0.001 -7.94e-4,0.003 -0.0011,0.004 -0.0019,0.013 1.14e-4,2.7e-4 -0.0021,0.016 -7.94e-4,0.007 0.0029,-0.0184 0.0031,-0.0196 z m 0.02326,1.95698 c -5.3e-4,0.002 -0.0013,0.005 -0.0021,0.006 2.64e-4,-5.3e-4 0.0013,-0.003 0.0021,-0.004 -1.22e-4,-5.3e-4 1.19e-4,-0.001 0,-0.002 z m -0.03462,0.11989 c -0.0055,0.021 -0.01172,0.0424 -0.01394,0.0568 0.003,-0.0161 -0.006,0.0424 -0.0021,0.0238 0.01434,-0.0678 0.01206,-0.0582 0.01601,-0.0806 z m 9.942029,0.9431 c 0.01712,0.2463 0.0349,0.49258 0.05064,0.73897 0.01392,0.21233 0.02743,0.42433 0.04134,0.63665 0.321063,-0.45463 0.633608,-0.91526 0.947229,-1.37511 -0.200832,5e-5 -0.401661,2.6e-4 -0.602549,0 -0.145526,0 -0.291102,0 -0.436665,-5.3e-4 z m -9.800953,0.36173 c 7.94e-4,0.004 0.0013,0.008 0.0021,0.0119 0.0016,0.007 0.0084,0.0287 0.0062,0.0217 -0.0034,-0.0112 -0.0053,-0.0225 -0.0083,-0.0336 z m 28.013279,2.54816 c 0.006,0.0132 0.01035,0.0272 0.01913,0.0388 0.02265,0.0299 0.0127,0.003 -0.0062,-0.0382 -0.0041,2e-5 -0.0088,-5.3e-4 -0.01291,-5.3e-4 z m -13.704073,4.68344 c 0.0083,10e-4 0.01656,0.002 0.02479,0.003 0.0046,0.001 -0.0088,-0.001 -0.01344,-0.002 -0.01516,-7.9e-4 -0.0028,-5.3e-4 -0.01138,-10e-4 z m -2.166276,2.15542 c -0.0026,0.005 -0.0051,0.01 -0.0078,0.015 7.94e-4,-0.002 0.0016,-0.004 0.0026,-0.006 0.0016,-0.003 0.0068,-0.0107 0.0052,-0.009 z m -0.04548,0.75293 c 0.0026,0.029 0.0088,0.0575 0.01704,0.0853 -8e-6,-10e-4 1.1e-5,-0.002 0,-0.004 -0.0061,-0.0371 -0.01889,-0.10766 -0.01704,-0.0811 z m 0.05529,0.21601 c 0.0045,0.0101 0.0076,0.0208 0.01291,0.0305 0.01016,0.0161 0.03889,0.0658 0.03049,0.0486 -0.0132,-0.027 -0.02912,-0.0527 -0.04341,-0.0791 z m 0.0646,0.54777 c 0.0016,0.004 0.0021,0.01 0.0036,0.0129 0.0016,0.004 0.0068,0.0154 0.0052,0.0114 -0.0037,-0.008 -0.0053,-0.0157 -0.0088,-0.0243 z" />    </clipPath>    <clipPath       clipPathUnits="userSpaceOnUse"       id="clipPath4412">      <path         id="path4414"         style="fill:#ff0000;fill-opacity:1;fill-rule:nonzero;stroke:none;stroke-width:0.264583"         d="m 59.591713,152.64701 -5.313889,5.3e-4 v 15.78095 H 87.81686 v -15.78095 h -5.18831 c -8.2e-5,0.004 5.29e-4,0.008 5.29e-4,0.0114 5.29e-4,0.058 2.64e-4,0.11624 0.0041,0.17415 0.0053,0.0738 0.01902,0.14687 0.01654,0.22117 1.11e-4,0.0551 5.3e-5,0.11026 0,0.16537 0,0.063 -5.29e-4,0.12613 -5.29e-4,0.18913 1.48e-4,0.0707 5.29e-4,0.14169 5.29e-4,0.21239 9.2e-5,0.0639 1.8e-5,0.12782 0,0.19172 1.22e-4,0.0594 2e-6,0.11888 0,0.17828 4.5e-5,0.0641 2.64e-4,0.12814 -0.0011,0.19224 -0.0016,0.0727 -0.0047,0.14536 -0.01344,0.21756 -0.0013,0.0119 -0.0026,0.0239 -0.0041,0.0357 -2.41e-4,0.002 -0.0011,0.008 -0.0016,0.006 -0.0011,-0.005 -1.75e-4,-0.02 -5.29e-4,-0.015 -0.0013,0.027 0.0011,0.054 0,0.0811 1.85e-4,0.0496 -1.72e-4,0.0992 0,0.14883 5e-5,0.0458 3.4e-5,0.0917 0,0.13746 4.2e-5,0.0526 -8.8e-5,0.10501 0,0.15762 2.54e-4,0.0464 2.11e-4,0.0926 0,0.139 -5.3e-4,0.059 -0.0019,0.11814 -0.0088,0.17674 -0.0033,0.0263 -0.0066,0.0534 -0.01138,0.0796 5.6e-5,0.0413 2.65e-4,0.0827 -0.0011,0.12402 -0.0019,0.0665 -0.0058,0.13296 -0.01447,0.19896 -0.0037,0.0291 -0.0069,0.0635 -0.0052,0.01 2.06e-4,-0.007 5e-6,0.0127 0,0.0196 6.3e-5,0.0279 1.8e-5,0.0139 0,0.0408 1.11e-4,0.0444 2.64e-4,0.0889 0,0.13332 -5.29e-4,0.066 -0.0016,0.13253 -0.01188,0.19793 -0.0029,0.0157 -0.0057,0.0313 -0.0088,0.047 -2.65e-4,0.0398 -7.94e-4,0.0797 -0.0031,0.11937 -0.0034,0.047 -0.0083,0.0932 -0.01706,0.13953 v 0.002 c -6.9e-5,0.0245 -0.0021,0.0489 -0.0031,0.0734 -0.0013,0.0402 -0.0075,0.0799 -0.01188,0.11989 0.0092,0.0415 0.008,0.0314 0.01757,0.11575 1.29e-4,0.007 7.93e-4,0.0215 0.0011,0.0284 0.01249,0.0592 0.02275,0.1189 0.02016,0.17984 -2.6e-5,0.0299 -4e-5,0.06 0,0.0899 -4.2e-5,0.0242 -5e-6,0.0482 0,0.0724 -4.5e-5,0.0221 2.9e-5,0.0446 0,0.0667 -4e-5,0.0233 -1.8e-5,0.0469 0,0.0703 -2.9e-5,0.0183 3.5e-5,0.0375 0,0.0558 -5.8e-5,0.0152 -3.7e-5,0.0309 0,0.046 0.0031,0.0223 0.0029,0.0208 0.01601,0.0956 -1.5e-5,0.0127 -8e-6,0.0245 0,0.0372 -2.3e-5,0.0119 6.7e-5,0.0248 0,0.0367 -5.5e-5,0.01 -0.0026,0.0181 -0.0026,0.0279 0.0033,0.0219 0.0033,0.0268 0.01913,0.11317 -1.3e-5,0.0136 -3e-6,0.0267 0,0.0403 -1.6e-5,0.0117 1.8e-5,0.0236 0,0.0351 -2.6e-5,0.0127 -2.6e-5,0.0255 0,0.0382 -5e-6,0.01 -8e-6,0.0179 0,0.0279 1.1e-5,0.0116 0.0026,0.023 0.0026,0.0346 -9.8e-5,0.0341 -0.0021,0.0684 -0.0062,0.10232 -0.0063,0.0465 -0.02045,0.0904 -0.03566,0.13384 -0.0021,0.009 -0.0037,0.0173 -0.0062,0.0258 -5.29e-4,0.002 -0.0021,0.004 -0.0031,0.005 v 5.3e-4 l -5.29e-4,5.3e-4 c -0.0013,0.005 -0.0036,0.009 -0.0052,0.0134 0.0019,-0.005 0.0039,-0.008 0.0057,-0.0129 0.0086,5e-5 -0.0035,0.0233 -0.02119,0.0532 0.0058,-0.0133 0.01085,-0.0267 0.0155,-0.0403 -0.01077,0.0245 -0.02244,0.0485 -0.03669,0.0713 0.0026,-0.005 0.0021,-0.0102 0.0041,-0.015 -5.3e-4,7.9e-4 -0.0024,0.003 -0.0031,0.004 0.0016,-0.005 0.0029,-0.011 0.0047,-0.0155 0.0021,-0.008 0.0069,-0.0151 0.0041,-0.0243 -0.0035,0.0167 -0.01,0.0331 -0.01447,0.0491 0.0011,-0.002 0.0045,-0.006 0.0057,-0.008 -0.0019,0.005 -0.0029,0.01 -0.0047,0.015 7.94e-4,-0.001 0.0021,-0.002 0.0031,-0.004 -7.94e-4,0.001 -0.0019,0.004 -0.0026,0.005 -5.29e-4,5.3e-4 -0.0011,8e-4 -0.0016,0.002 8.2e-5,5.3e-4 -8e-5,0.001 0,0.002 -1.7e-4,5.2e-4 -2.07e-4,0.001 -5.3e-4,0.002 1.62e-4,0.001 2.04e-4,0.002 5.3e-4,0.003 0.0084,-0.0135 0.01312,-0.0223 0.02223,-0.0377 -7.94e-4,0.003 -0.0013,0.005 -0.0026,0.008 -0.0066,0.0125 -0.0131,0.022 -0.01963,0.032 0.0053,0.0345 0.0095,0.0691 0.01394,0.10387 0.0011,0.008 -7.94e-4,0.0173 0,0.0253 2.9e-5,0.0165 -8e-6,0.0331 0,0.0496 2.9e-5,0.0162 -8e-6,0.0324 0,0.0486 2.9e-5,0.0144 -2.9e-5,0.0285 0,0.0429 6.1e-5,0.0166 3.7e-5,0.033 0,0.0496 -2.01e-4,0.0392 -0.0013,0.0788 -0.0057,0.11782 -0.0083,0.0606 -0.0208,0.1038 -0.03928,0.15658 -0.0011,0.005 -0.0024,0.01 -0.0036,0.0145 -0.0013,0.009 -0.0028,0.0356 -0.0021,0.0217 -0.0019,0.009 -0.0062,0.0154 -0.0083,0.0238 -0.0056,0.0229 -0.01463,0.0445 -0.0217,0.0656 -0.0016,0.006 -0.0016,0.007 -0.0026,0.0104 -0.0058,0.0223 -0.01283,0.0468 -0.02119,0.0692 -0.006,0.0267 -0.01469,0.0602 -0.01344,0.0713 -0.01288,0.084 -0.03038,0.16683 -0.04444,0.25063 v -0.003 c -0.119661,0.71298 -1.121638,0.55567 -1.010275,-0.15865 0.01265,-0.0811 0.03254,-0.16105 0.04393,-0.24236 0.0087,-0.0677 0.02405,-0.13429 0.04031,-0.2005 0.0052,-0.0172 0.01114,-0.0346 0.01654,-0.0517 2.64e-4,-7.9e-4 5.29e-4,-0.001 0.0011,-0.003 -0.01479,-0.0621 -0.02172,-0.13009 -0.01394,-0.20671 0.0046,-0.0455 0.0049,-0.0912 0.0073,-0.13694 -0.01146,-0.0493 -0.02069,-0.0991 -0.03256,-0.14831 3e-6,-10e-4 0,-0.002 0,-0.003 -0.07874,0.0454 -0.167346,0.0681 -0.256315,0.0682 -0.03413,0.10917 -0.101219,0.18939 -0.20619,0.28939 -0.02146,0.0204 -0.0479,0.0348 -0.07493,0.047 -0.05256,0.0236 -0.108664,0.0396 -0.162782,0.0594 -0.15575,0.0366 -0.315092,0.0446 -0.474387,0.0486 -0.371396,0.0115 -0.742609,-0.002 -1.113629,-0.0181 -0.603226,-0.029 -1.205701,-0.0754 -1.807125,-0.13022 -0.67445,-0.0683 -1.351725,-0.10228 -2.028299,-0.14159 -0.138398,-0.009 -0.276984,-0.013 -0.415478,-0.0191 -0.05178,0.25349 -0.115056,0.52313 -0.181385,0.83974 -0.485248,2.31628 -1.661813,1.29356 -2.960026,-0.33021 -0.103949,0.0316 -0.221784,0.0466 -0.354502,0.0382 -0.390543,-0.0246 -0.781971,-0.0332 -1.173054,-0.0434 -0.388197,0.0498 -0.778637,0.0784 -1.169437,0.10025 -0.07531,0.0126 -0.150813,0.0248 -0.226343,0.0357 -0.438489,0.11395 -0.891686,0.16237 -1.326018,0.29094 -0.01595,0.007 -0.03211,0.0137 -0.04806,0.0207 -5.29e-4,0.002 -0.0011,0.004 -0.0016,0.005 -0.03858,0.12549 -0.09114,0.20988 -0.152445,0.25993 0.05088,0.0932 0.02035,0.0388 -0.0011,5.3e-4 -0.21686,0.17551 -0.542054,-0.0757 -0.747757,-0.44235 -0.05205,0.0377 -0.105291,0.0732 -0.163298,0.10025 -0.0729,0.0341 -0.157269,0.0436 -0.23771,0.0434 -0.100086,-2.1e-4 -0.202538,-0.0103 -0.296624,-0.0444 -0.06499,-0.0236 -0.11638,-0.0763 -0.166397,-0.12402 -0.111836,-0.10668 -0.154829,-0.17059 -0.192238,-0.24547 -0.08165,0.17343 -0.171947,0.3617 -0.224793,0.45476 -0.03974,0.07 -0.09018,0.13339 -0.13539,0.19998 -0.140205,-0.0103 -0.289261,0.019 -0.420647,-0.031 -0.0444,-0.0169 -0.0227,-0.0923 -0.02791,-0.13953 -0.0081,-0.0737 -0.01204,-0.14811 -0.01188,-0.22221 2.23e-4,-0.11336 0.0086,-0.22625 0.01344,-0.33951 0.01148,-0.27332 0.01913,-0.42262 0.02791,-0.59945 -0.220668,0.004 -0.441312,0.009 -0.661975,0.0134 -0.01153,0.0638 -0.02453,0.14137 -0.03462,0.19121 -0.01802,0.0891 -0.03521,0.17831 -0.06046,0.26561 -0.06405,0.22138 -0.07921,0.43562 -0.415477,0.36432 -0.06945,-0.0147 -0.08001,-0.11752 -0.119888,-0.17621 -0.0011,-0.0148 5e-6,-0.0292 -0.0011,-0.0439 -0.02982,0.1229 -0.09927,0.44331 -0.276987,0.45165 -0.107651,0.005 -0.206446,-0.0825 -0.280085,-0.16123 -0.0384,-0.041 -0.01754,-0.11092 -0.02635,-0.16639 -0.0065,-0.0862 -0.01643,-0.17199 -0.01963,-0.25839 -0.0013,-0.0365 -0.0019,-0.21709 -0.0031,-0.41651 -0.05503,0.003 -0.109845,0.01 -0.164846,0.0134 -0.02344,0.091 -0.04527,0.18251 -0.06925,0.27337 -0.03395,0.1108 -0.135411,0.4524 -0.181901,0.5643 -0.02331,0.0561 -0.0276,0.14618 -0.08682,0.15968 -0.454607,0.1034 -0.404653,-0.0603 -0.430464,-0.33072 -0.0028,-0.1318 -0.0034,-0.26354 -0.0057,-0.39533 -0.04224,-0.0122 -0.08455,-0.0248 -0.127124,-0.0351 -5.3e-4,-0.0534 5.29e-4,-0.10681 5.29e-4,-0.1602 -0.04101,0.004 -0.08199,0.008 -0.122989,0.0103 -0.169185,0.0114 -0.33926,0.009 -0.508498,0.001 -0.0085,-8e-4 -0.01677,-0.003 -0.02532,-0.004 -0.0085,0.0514 -0.01826,0.10227 -0.03307,0.15244 -0.03369,0.14326 -0.06464,0.28677 -0.09405,0.43099 -0.02458,0.12374 -0.05011,0.24783 -0.06201,0.37362 -0.06808,0.71946 -1.094388,0.59054 -1.013891,-0.12765 0.0043,-0.0386 0.01241,-0.0765 0.01913,-0.11472 -0.137694,-0.0609 -0.253828,-0.18523 -0.299206,-0.38757 -0.02716,-0.12109 -0.04418,-0.24391 -0.0553,-0.36742 -0.0077,-0.0917 -0.0089,-0.18404 -0.0093,-0.27595 -2.14e-4,-0.0588 -1.4e-4,-0.11742 0,-0.17622 1.6e-5,-0.0442 4e-5,-0.0886 0,-0.13281 -2.6e-5,-0.0317 1.6e-5,-0.0634 0,-0.0951 8e-6,-0.0268 -3e-6,-0.0533 0,-0.0801 3e-6,-0.01 8e-6,-0.0191 0,-0.0289 -0.0049,-0.0116 -0.01894,-0.0429 -0.01447,-0.032 0.0098,0.0238 0.01722,0.049 -0.0186,-0.0548 -0.0093,-0.0649 -0.02278,-0.1196 -0.02066,-0.1819 -7.6e-5,-0.0227 -2.62e-4,-0.0456 0,-0.0682 0.0011,-0.0461 0.0039,-0.092 0.01085,-0.13746 0.0038,-0.0249 0.0083,-0.0498 0.01344,-0.0744 8.7e-5,-10e-4 -7.4e-5,-0.003 0,-0.004 0.0057,-0.0708 0.01413,-0.14194 0.03204,-0.21084 -2.62e-4,0.003 -0.0016,0.0132 -0.0011,0.0104 0.0057,-0.0318 0.0063,-0.0371 0.0093,-0.0532 0.0028,-0.0561 0.01037,-0.11153 0.02429,-0.16588 0.0016,-0.0115 0.0056,-0.0223 0.0078,-0.0336 -5.29e-4,10e-4 0.0049,-0.0357 0.0041,-0.031 -0.0016,0.009 -0.0028,0.0206 -0.0031,0.0274 0.0049,-0.025 0.01,-0.0501 0.01757,-0.0744 0,-0.0102 -8e-6,-0.0203 0,-0.0305 -0.0021,-0.0578 0.0069,-0.11504 0.02016,-0.17105 -1.3e-5,-7.9e-4 0,-5.3e-4 0,-0.002 -0.0011,-0.0637 0.0067,-0.12703 0.01757,-0.18965 0.004,-0.0278 0.0021,-0.005 0.0031,-0.0429 2.62e-4,-0.0157 6e-6,-0.0313 0,-0.047 -0.0019,-0.0438 0.0062,-0.0859 0.01241,-0.12867 -0.0027,-0.007 -0.0055,-0.0131 -0.0083,-0.0196 -0.0016,-0.004 0.0066,0.0154 0.0052,0.0114 -0.006,-0.0169 -0.01241,-0.0337 -0.0186,-0.0506 -0.01381,-0.0626 -0.0114,-0.0493 -0.01447,-0.0615 -0.01072,-0.0284 -0.02363,-0.0589 -0.02997,-0.0811 -0.04928,-0.18999 0.03621,0.12424 -0.01963,-0.0646 -0.04084,-0.23445 -0.02352,-0.12778 -0.01344,-0.0744 -0.0055,-0.0171 -0.01132,-0.0341 -0.01447,-0.0517 -0.0071,-0.0397 -0.0097,-0.0803 -0.01394,-0.12041 -2.62e-4,-0.004 -8e-6,-0.007 0,-0.0109 1.6e-5,-0.0312 -6e-6,-0.0623 0,-0.0935 -6.7e-5,-0.0334 -5.1e-5,-0.0668 0,-0.10025 5e-6,-0.0121 5e-5,-0.0241 0,-0.0362 -0.0062,-0.014 -0.01236,-0.028 -0.0186,-0.0418 -0.0039,-0.009 0.01638,0.0352 0.01241,0.0263 -0.0098,-0.0215 -0.01016,-0.0284 -0.01241,-0.0331 -0.0026,-0.005 -0.0038,-0.006 -0.0052,-0.009 -0.0077,-0.0189 -0.01468,-0.0378 -0.02223,-0.0568 -0.0011,-0.004 -0.0016,-0.005 -0.0031,-0.0104 -0.02143,-0.0529 -0.03763,-0.10583 -0.0341,-0.18242 -5.9e-5,-0.0169 5e-5,-0.0337 0,-0.0506 -1.01e-4,-0.0293 -1.46e-4,-0.0587 0.0016,-0.0879 0.0037,-0.0626 0.01117,-0.12473 0.02739,-0.18552 0.0032,-0.0109 0.0061,-0.0221 0.0093,-0.0331 2.65e-4,-0.001 7.94e-4,-0.002 0.0011,-0.004 2.64e-4,-0.001 0.0013,-0.002 0.0016,-0.004 0.0021,-0.008 0.0013,-0.007 0.0031,-0.0124 0.0159,-0.0586 0.01712,-0.0648 0.03824,-0.11317 0.0058,-0.011 0.01172,-0.0221 0.01757,-0.0331 -0.0057,0.0121 -0.0123,0.0277 -0.0093,0.0207 0.0079,-0.0186 0.01958,-0.0345 0.02946,-0.0522 -5e-6,-0.004 -5e-6,-0.008 0,-0.0124 4.5e-5,-0.0291 -2.06e-4,-0.0572 0,-0.0863 8e-6,-0.007 -1.3e-5,-0.0147 0,-0.0217 8e-6,-0.004 7.4e-5,-0.006 0,-0.0134 -5.29e-4,-0.003 -0.0016,-0.006 -0.0021,-0.0103 -0.0091,-0.049 -0.01458,-0.0985 -0.01757,-0.14832 -0.0019,-0.0331 -0.0016,-0.0661 -0.0016,-0.0992 3.4e-5,-0.0219 -4.5e-5,-0.0437 0,-0.0656 1.6e-5,-0.0197 -9.8e-5,-0.0397 0,-0.0594 7.9e-5,-0.0373 5.29e-4,-0.0742 5.29e-4,-0.11162 -0.0026,-0.0661 0.0024,-0.13108 0.0083,-0.19689 -0.0028,-0.0111 0.0085,-0.0426 0.01291,-0.0646 -0.0013,0.0117 -0.0011,-0.0171 -0.0011,-0.0181 -5e-6,-0.0221 1.9e-5,-0.0445 0,-0.0667 -0.004,-0.0567 0.01019,-0.11095 0.02222,-0.16536 0.0013,-0.006 -0.0028,0.0121 -0.0047,0.0181 0.0011,-0.008 0.0016,-0.009 0,-0.003 0.0019,-0.051 0.0046,-0.10156 0.0088,-0.15245 0.0035,-0.0274 0.0086,-0.0553 0.01241,-0.0827 1.03e-4,-1e-4 0.0042,-0.0271 0.0016,-0.0129 0.0011,-0.0274 0.0011,-0.0552 0.0011,-0.0827 -8e-6,-0.0236 5e-6,-0.0472 0,-0.0708 z m -0.04858,1.53634 c -0.0026,0.005 -0.0051,0.01 -0.0078,0.015 7.94e-4,-0.002 0.0016,-0.004 0.0026,-0.006 0.0016,-0.003 0.0068,-0.0109 0.0052,-0.009 z m -0.08062,0.71469 c -0.0016,-0.004 0.0016,0.006 0.0036,0.0124 0.0039,0.01 0.0085,0.0205 0.01291,0.0305 -0.0026,-0.009 -1.03e-4,0.003 -0.01654,-0.0429 z m 0.01654,0.0429 c 0.0028,0.009 0.01445,0.0394 0.01757,0.046 0.0036,0.007 0.0086,0.0175 0.0067,0.0129 -0.0095,-0.0224 -0.01585,-0.0396 -0.02429,-0.0589 z m 0.02119,0.006 c 0.003,0.0252 0.0078,0.0501 0.01498,0.0744 -8e-6,-0.001 1.1e-5,-0.002 0,-0.004 -0.0053,-0.0322 -0.01357,-0.073 -0.01498,-0.0703 z m 0.05323,0.20516 c 0.0045,0.0101 0.0076,0.0208 0.01291,0.0305 0.01016,0.0161 0.03889,0.0658 0.03049,0.0486 -0.0132,-0.027 -0.02912,-0.0527 -0.04341,-0.0791 z m 0.0646,0.54777 c 0.0016,0.004 0.0021,0.01 0.0036,0.0129 0.0016,0.004 0.0068,0.0154 0.0052,0.0114 -0.0037,-0.008 -0.0053,-0.0157 -0.0088,-0.0243 z m 22.898346,1.43402 c 0.0132,0.0289 0.01741,0.039 0.02273,0.0486 -0.0031,-0.007 -0.0038,-0.0151 -0.0078,-0.0222 -0.0047,-0.009 -0.01016,-0.0179 -0.01497,-0.0263 z m -22.999113,0.30799 c -0.0036,-0.009 0.004,0.0179 0.0072,0.0269 0.0019,0.005 0.0021,0.004 0.0036,0.008 -3e-6,-0.002 3e-6,-0.004 0,-0.006 -0.004,-0.0106 -5.29e-4,-0.004 -0.01085,-0.0289 z m 23.027018,0.62063 c -0.0035,0.003 -0.0047,0.002 -0.0098,0.007 -0.0039,0.0149 -0.0093,0.0298 -0.01394,0.0444 -5.29e-4,0.003 -3e-6,0.007 -0.0016,0.01 0.0039,-0.008 0.02199,-0.0478 0.02532,-0.061 z m -16.131833,0.0408 c -0.195501,0.009 -0.390917,0.0205 -0.586526,0.0269 -0.0083,2.6e-4 -0.01656,2.3e-4 -0.02479,5.3e-4 -0.0299,0.0646 -0.05973,0.12913 -0.0894,0.19378 0.01651,0.0696 0.04433,0.1369 0.06615,0.20516 0.08357,0.16695 0.05928,0.16875 0.189651,0.27337 0.03223,0.0259 0.06342,0.0607 0.10387,0.0687 0.02638,0.006 0.04863,-0.0235 0.07441,-0.0315 0.17902,-0.0548 0.165748,-0.0467 0.235643,-0.11473 -0.05643,-0.2187 -0.05804,-0.44119 0.03101,-0.62218 z m -4.661215,0.29507 c -0.0026,-0.001 -0.0013,0.009 -5.3e-4,0.007 5.3e-4,-0.002 0.0013,-0.004 0.0021,-0.007 -5.29e-4,-1e-5 -0.0011,1e-5 -0.0016,0 z m 18.72134,0.0155 v 5.3e-4 c 5.29e-4,1e-4 0.0011,-9e-5 0.0016,0 -7.94e-4,-2.6e-4 -0.0029,-0.001 -0.0016,-5.3e-4 z m 0.0016,5.3e-4 v 5.2e-4 c 2.65e-4,8e-5 7.94e-4,-7e-5 0.0011,0 -5.29e-4,-2.6e-4 -5.29e-4,-2.4e-4 -0.0011,-5.2e-4 z m 0.0021,0.002 c 7.94e-4,5.3e-4 0.0016,10e-4 0.0011,10e-4 0.0033,2.4e-4 0.01312,0.001 0.0098,5.3e-4 -0.0036,-7.9e-4 -0.0072,-5.3e-4 -0.01085,-0.002 z m -15.253333,0.004 c -0.01013,0.01 -0.02096,0.0185 -0.03049,0.0284 -0.03364,-0.005 -0.06829,-0.007 -0.102836,-0.009 -0.0035,0.081 -0.0086,0.16543 -0.01344,0.28629 0.04898,-0.10184 0.09945,-0.20275 0.146762,-0.30541 z" />    </clipPath>  </defs>  <sodipodi:namedview     id="base"     pagecolor="#ffffff"     bordercolor="#666666"     borderopacity="1.0"     inkscape:pageopacity="0"     inkscape:pageshadow="2"     inkscape:zoom="0.80781381"     inkscape:cx="130.31632"     inkscape:cy="264.07664"     inkscape:document-units="px"     inkscape:current-layer="layer1"     inkscape:document-rotation="0"     showgrid="false"     showborder="true"     inkscape:snap-smooth-nodes="true"     inkscape:window-width="2560"     inkscape:window-height="1502"     inkscape:window-x="0"     inkscape:window-y="36"     inkscape:window-maximized="0" />  <metadata     id="metadata5">    <rdf:RDF>      <cc:Work         rdf:about="">        <dc:format>image/svg+xml</dc:format>        <dc:type           rdf:resource="http://purl.org/dc/dcmitype/StillImage" />        <dc:title></dc:title>      </cc:Work>    </rdf:RDF>  </metadata>  <g     inkscape:label="Layer 1"     inkscape:groupmode="layer"     id="layer1">    <rect       style="fill:none;stroke:#000000;stroke-width:5.29167;stroke-miterlimit:4;stroke-dasharray:none"       id="rect12"       width="123.40915"       height="123.40915"       x="9.3429909"       y="62.716927"       ry="11.221586"       clip-path="url(#clipPath4392)"       transform="matrix(-1.4457126,0,0,1.3896413,209.30413,-68.454835)" />    <rect       style="fill:none;stroke:#000000;stroke-width:5.29167;stroke-miterlimit:4;stroke-dasharray:none"       id="rect16"       width="82.770432"       height="65.525742"       x="29.662348"       y="75.2864"       ry="5.9582515"       clip-path="url(#clipPath4370)"       transform="matrix(-1.4457126,0,0,1.3896413,209.30413,-68.454835)" />    <rect       style="fill:none;stroke:#000000;stroke-width:4.66962;stroke-miterlimit:4;stroke-dasharray:none"       id="rect841"       width="52.246277"       height="13.669642"       x="44.924427"       y="140.90976"       ry="1.2429796"       clip-path="url(#clipPath4402)"       transform="matrix(-1.4457126,0,0,1.3896413,209.30413,-68.454835)" />    <rect       style="fill:none;stroke:#000000;stroke-width:5.29167;stroke-miterlimit:4;stroke-dasharray:none"       id="rect843"       width="28.247299"       height="10.48933"       x="56.923916"       y="155.29321"       ry="0.95379406"       clip-path="url(#clipPath4412)"       transform="matrix(-1.4457126,0,0,1.3896413,209.30413,-68.454835)" />    <rect       style="fill:none;stroke:#000000;stroke-width:0.37674;stroke-miterlimit:4;stroke-dasharray:none"       id="rect4248"       width="2.49263"       height="15.057422"       x="-125.76083"       y="143.29631"       ry="0"       transform="scale(-1,1)" />    <rect       style="fill:none;stroke:#000000;stroke-width:0.37674;stroke-miterlimit:4;stroke-dasharray:none"       id="rect4250"       width="2.49263"       height="15.057422"       x="-89.863342"       y="143.29605"       ry="0"       transform="scale(-1,1)" />    <rect       style="fill:none;stroke:#000000;stroke-width:0.421603;stroke-miterlimit:4;stroke-dasharray:none"       id="rect4252"       width="2.4468668"       height="19.210119"       x="-72.089615"       y="123.75373"       ry="0"       transform="scale(-1,1)" />    <rect       style="fill:none;stroke:#000000;stroke-width:0.421603;stroke-miterlimit:4;stroke-dasharray:none"       id="rect4254"       width="2.4468668"       height="19.210119"       x="-143.46881"       y="123.75848"       ry="0"       transform="scale(-1,1)" />    <path       id="rect4420"       style="fill:none;stroke:#000000;stroke-width:3.42535;stroke-miterlimit:4;stroke-dasharray:none"       d="M 67.660474,38.330023 V 76.211577 H 65.207617 V 38.330023 Z M 107.72083,38.5369 v 37.481924 h -3.30501 V 38.5369 Z M 94.214877,38.62918 V 75.910183 H 91.12572 V 38.629184 Z M 80.799473,38.746937 V 75.940838 H 77.750045 V 38.74694 Z m 67.172187,0.130461 v 37.053285 h -3.04711 V 38.8774 Z m -26.90279,0.01347 v 37.044336 h -3.04711 V 38.888258 Z m 13.45023,0.424176 v 36.620142 h -3.04942 V 39.315045 Z" />  </g></svg>