<?xml version="1.0" encoding="UTF-8" standalone="no"?><svg   xmlns:dc="http://purl.org/dc/elements/1.1/"   xmlns:cc="http://creativecommons.org/ns#"   xmlns:rdf="http://www.w3.org/1999/02/22-rdf-syntax-ns#"   xmlns:svg="http://www.w3.org/2000/svg"   xmlns="http://www.w3.org/2000/svg"   xmlns:sodipodi="http://sodipodi.sourceforge.net/DTD/sodipodi-0.dtd"   xmlns:inkscape="http://www.inkscape.org/namespaces/inkscape"   width="210mm"   height="210mm"   viewBox="0 0 210 210"   version="1.1"   id="svg8"   inkscape:version="1.0.1 (3bc2e813f5, 2020-09-07, custom)"   sodipodi:docname="Lan.svg">  <defs     id="defs2" />  <sodipodi:namedview     id="base"     pagecolor="#000000"     bordercolor="#666666"     borderopacity="1.0"     inkscape:pageopacity="0"     inkscape:pageshadow="2"     inkscape:zoom="0.5"     inkscape:cx="664.96673"     inkscape:cy="378.239"     inkscape:document-units="px"     inkscape:current-layer="layer1"     inkscape:document-rotation="0"     showgrid="false"     showborder="true"     inkscape:snap-global="false"     inkscape:window-width="1920"     inkscape:window-height="1006"     inkscape:window-x="0"     inkscape:window-y="27"     inkscape:window-maximized="0" />  <metadata     id="metadata5">    <rdf:RDF>      <cc:Work         rdf:about="">        <dc:format>image/svg+xml</dc:format>        <dc:type           rdf:resource="http://purl.org/dc/dcmitype/StillImage" />        <dc:title></dc:title>      </cc:Work>    </rdf:RDF>  </metadata>  <g     inkscape:label="Layer 1"     inkscape:groupmode="layer"     id="layer1">    <path       id="rect940"       style="opacity:1;fill:#ffffff;fill-opacity:1;stroke:#ffffff;stroke-width:12.5068;stroke-linecap:butt;stroke-linejoin:round;stroke-miterlimit:4;stroke-dasharray:none;paint-order:stroke markers fill"       d="m 28.688131,19.420422 c -5.133723,0 -9.267697,4.132744 -9.267697,9.266521 V 181.31305 c 0,5.13379 4.133974,9.26652 9.267697,9.26652 H 181.31303 c 5.13375,0 9.26653,-4.13273 9.26653,-9.26652 V 28.686943 c 0,-5.133777 -4.13278,-9.266521 -9.26653,-9.266521 z m 6.52939,7.32209 H 174.78363 c 4.69454,0 8.47384,3.779269 8.47384,8.473797 V 174.78369 c 0,4.69454 -3.7793,8.47379 -8.47384,8.47379 H 35.217521 c -4.694483,0 -8.473807,-3.77925 -8.473807,-8.47379 V 35.216309 c 0,-4.694528 3.779324,-8.473797 8.473807,-8.473797 z" />    <path       id="rect955"       style="opacity:1;fill:#ffffff;fill-opacity:1;stroke:#ffffff;stroke-width:7.9632;stroke-linecap:butt;stroke-linejoin:round;stroke-miterlimit:4;stroke-dasharray:none;paint-order:stroke markers fill"       d="m 54.124493,45.246702 c -3.422541,0 -6.178387,2.590026 -6.178387,5.806548 v 1.059684 8.613787 41.354519 8.61203 1.06144 c 0,3.21651 2.755846,5.80653 6.178387,5.80653 h 8.254139 v 21.48381 c 0,2.69548 2.146518,4.86382 4.811425,4.86382 h 13.652158 v 17.73906 c 0,1.72119 1.22495,3.1058 2.746148,3.1058 h 42.822727 c 1.52115,0 2.74615,-1.38461 2.74615,-3.1058 v -17.73906 h 13.6539 c 2.66496,0 4.80967,-2.16837 4.80967,-4.86382 v -21.48381 h 8.25589 c 3.42252,0 6.17838,-2.59002 6.17838,-5.80653 v -9.07643 -42.54863 -9.0764 c 0,-3.216522 -2.75586,-5.806548 -6.17838,-5.806548 z m 1.56598,7.758346 h 98.620257 v 7.721673 h 0.0262 v 41.354519 h -0.0262 v 7.71993 h -14.99294 v 11.24992 h -0.004 v 10.53941 c 0,2.17009 -1.72665,3.91932 -3.87219,3.91932 h -9.91765 v 3.14768 h -0.26012 v 20.41364 c 0,1.44376 -1.02849,2.60473 -2.30446,2.60473 H 87.039723 c -1.27598,0 -2.302718,-1.16097 -2.302718,-2.60473 V 138.6575 h -0.281072 v -3.14768 h -9.896936 c -2.145552,0 -3.873936,-1.74923 -3.873936,-3.91932 v -10.53941 h -0.0018 V 109.80117 H 55.690473 v -7.71993 h -0.02619 V 60.726721 h 0.02619 z m 16.441947,2.491248 c -0.871638,0 -1.572962,0.701325 -1.572962,1.572971 v 24.350417 c 0,0.871646 0.701324,1.574718 1.572962,1.574718 0.871636,0 1.572969,-0.703072 1.572969,-1.574718 V 57.069267 c 0,-0.871646 -0.701333,-1.572971 -1.572969,-1.572971 z m 16.092789,0 c -0.871638,0 -1.572971,0.701325 -1.572971,1.572971 v 24.350417 c 0,0.871646 0.701333,1.574718 1.572971,1.574718 0.871638,0 1.57296,-0.703072 1.57296,-1.574718 V 57.069267 c 0,-0.871646 -0.701322,-1.572971 -1.57296,-1.572971 z m 15.993271,0 c -0.87164,0 -1.57297,0.701325 -1.57297,1.572971 v 24.350417 c 0,0.871646 0.70133,1.574718 1.57297,1.574718 0.87164,0 1.5747,-0.703072 1.5747,-1.574718 V 57.069267 c 0,-0.871646 -0.70306,-1.572971 -1.5747,-1.572971 z m 15.8379,0 c -0.87165,0 -1.5747,0.701325 -1.5747,1.572971 v 24.350417 c 0,0.871646 0.70305,1.574718 1.5747,1.574718 0.87165,0 1.57296,-0.703072 1.57296,-1.574718 V 57.069267 c 0,-0.871646 -0.70131,-1.572971 -1.57296,-1.572971 z m 16.52051,0 c -0.87166,0 -1.57297,0.701325 -1.57297,1.572971 v 24.350417 c 0,0.871646 0.70131,1.574718 1.57297,1.574718 0.87164,0 1.57296,-0.703072 1.57296,-1.574718 V 57.069267 c 0,-0.871646 -0.70132,-1.572971 -1.57296,-1.572971 z" />  </g></svg>
