<svg xmlns="http://www.w3.org/2000/svg" width="210mm" height="210mm" viewBox="0 0 210 210"><path style="opacity:1;fill:#fff;fill-opacity:1;stroke:#fff;stroke-width:4.7303;stroke-linecap:butt;stroke-linejoin:round;stroke-miterlimit:4;stroke-dasharray:none;paint-order:stroke markers fill" d="m68.012 50.44 7.24 6.935h74.556v6.903h.024v36.967h-.024v6.901h-13.402v7.82l7.422 7.112v-7.995h7.38c3.06 0 5.523-2.315 5.523-5.19V55.63c0-2.876-2.463-5.19-5.523-5.19zm22.765 10.57v9.852l-.085-11.742c-.006-.779.085-9.698.085 1.89zm14.354 0v21.767l-.013-23.657c-.003-.779.013 1.11.013 1.89zm14.17 0 .012 21.767V59.119c0-.779-.013 1.11-.013 1.89zm14.67-1.89v23.657zM54.727 72.271v37.622c0 2.875 2.464 5.19 5.523 5.19h7.379v19.205c0 2.41 1.919 4.348 4.301 4.348h12.204v15.857c0 1.539 1.095 2.776 2.455 2.776h38.28c1.36 0 2.455-1.237 2.455-2.776v-12.67l-3.481-3.334v13.7c0 1.29-.92 2.329-2.06 2.329h-32.11c-1.14 0-2.058-1.038-2.058-2.329v-18.247h-.25v-2.814h-8.848c-1.918 0-3.463-1.564-3.463-3.504v-9.421h-.002v-10.057H61.65v-6.9h-.023V78.88z"/><path style="opacity:1;fill:#fff;fill-opacity:1;stroke:#fff;stroke-width:7.9375;stroke-linecap:butt;stroke-linejoin:round;stroke-miterlimit:4;stroke-dasharray:none;paint-order:stroke markers fill" d="m40.371 18.275 7.667 7.322h127.474a8.455 8.455 0 0 1 8.474 8.474v121.355l7.322 6.992V27.542a9.246 9.246 0 0 0-9.266-9.267zM20.15 32.843v147.324a9.247 9.247 0 0 0 9.268 9.267h152.625a9.3 9.3 0 0 0 1.88-.19l-7.517-7.179c-.293.031-.59.047-.893.047H35.946a8.455 8.455 0 0 1-8.474-8.474V39.836z"/><path style="opacity:1;fill:#fff;fill-opacity:1;stroke:#fff;stroke-width:2.82649;stroke-linecap:butt;stroke-linejoin:miter;stroke-miterlimit:4;stroke-dasharray:none;paint-order:stroke markers fill" d="M1.742 4.06v16.49l191.795 187.34h14.718l-.004-1.572z"/></svg>