<?xml version="1.0" encoding="UTF-8" standalone="no"?><svg   xmlns:dc="http://purl.org/dc/elements/1.1/"   xmlns:cc="http://creativecommons.org/ns#"   xmlns:rdf="http://www.w3.org/1999/02/22-rdf-syntax-ns#"   xmlns:svg="http://www.w3.org/2000/svg"   xmlns="http://www.w3.org/2000/svg"   xmlns:sodipodi="http://sodipodi.sourceforge.net/DTD/sodipodi-0.dtd"   xmlns:inkscape="http://www.inkscape.org/namespaces/inkscape"   width="210mm"   height="210mm"   viewBox="0 0 210 210"   version="1.1"   id="svg8"   inkscape:version="1.0.1 (3bc2e813f5, 2020-09-07, custom)"   sodipodi:docname="Lan_off.svg">  <defs     id="defs2" />  <sodipodi:namedview     id="base"     pagecolor="#888888"     bordercolor="#666666"     borderopacity="1.0"     inkscape:pageopacity="0"     inkscape:pageshadow="2"     inkscape:zoom="0.5"     inkscape:cx="327.42595"     inkscape:cy="270.21729"     inkscape:document-units="px"     inkscape:current-layer="layer1"     inkscape:document-rotation="0"     showgrid="false"     showborder="true"     inkscape:snap-global="false"     inkscape:window-width="884"     inkscape:window-height="990"     inkscape:window-x="486"     inkscape:window-y="35"     inkscape:window-maximized="0" />  <metadata     id="metadata5">    <rdf:RDF>      <cc:Work         rdf:about="">        <dc:format>image/svg+xml</dc:format>        <dc:type           rdf:resource="http://purl.org/dc/dcmitype/StillImage" />        <dc:title />      </cc:Work>    </rdf:RDF>  </metadata>  <g     inkscape:label="Layer 1"     inkscape:groupmode="layer"     id="layer1">    <path       id="rect955"       style="opacity:1;fill:#ffffff;fill-opacity:1;stroke:#ffffff;stroke-width:4.7303;stroke-linecap:butt;stroke-linejoin:round;stroke-miterlimit:4;stroke-dasharray:none;paint-order:stroke markers fill"       d="m 68.012443,50.440268 7.23865,6.93515 h 74.557177 v 6.90236 h 0.0236 v 36.967472 h -0.0236 v 6.90097 h -13.40236 v 7.82024 l 7.42251,7.11115 v -7.99439 h 7.37999 c 3.05945,0 5.523,-2.31511 5.523,-5.19039 v -8.11357 -38.035022 -8.11358 c 0,-2.87529 -2.46355,-5.19039 -5.523,-5.19039 z m 22.76476,10.56834 v 9.85278 l -0.0853,-11.74223 c -0.006,-0.77916 0.0854,-9.69831 0.0854,1.88945 z m 14.354037,0 v 21.76723 c 0,0.3897 -0.0133,-23.65668 -0.0133,-23.65668 -0.003,-0.77917 0.0133,1.11027 0.0133,1.88945 z m 14.16897,0 c 0,0 0.0123,22.5464 0.0123,21.76723 v -23.65668 c 0,-0.77918 -0.0123,1.11027 -0.0123,1.88945 z m 14.67121,-1.88945 v 23.65668 z m -79.243997,13.15162 v 28.974472 7.69875 0.94883 c 0,2.87528 2.46353,5.19039 5.52299,5.19039 h 7.37862 v 19.20483 c 0,2.40953 1.91896,4.34781 4.30115,4.34781 h 12.20362 v 15.85713 c 0,1.53859 1.09494,2.77628 2.45477,2.77628 h 38.279847 c 1.35978,0 2.45523,-1.23769 2.45523,-2.77628 v -12.66972 l -3.48075,-3.33477 v 13.70078 c 0,1.29059 -0.91919,2.32865 -2.05981,2.32865 H 89.673883 c -1.14061,0 -2.05842,-1.03806 -2.05842,-2.32865 v -18.24769 h -0.25129 v -2.81369 h -8.84714 c -1.91794,0 -3.46272,-1.56397 -3.46272,-3.50384 v -9.42134 h -0.002 v -10.0565 h -13.40189 v -6.90097 h -0.0236 V 78.880728 Z"       sodipodi:nodetypes="ccccccccccccssccsscscsssssscsscssscsscsscssssccsssscccsscccccccccc" />    <path       id="rect940"       style="opacity:1;fill:#ffffff;fill-opacity:1;stroke:#ffffff;stroke-width:7.9375;stroke-linecap:butt;stroke-linejoin:round;stroke-miterlimit:4;stroke-dasharray:none;paint-order:stroke markers fill"       d="m 40.371393,18.274978 7.66672,7.32203 H 175.51249 c 4.69454,0 8.4739,3.77938 8.4739,8.4739 V 155.42578 l 7.32204,6.99234 V 27.541598 c 0,-5.13378 -4.13287,-9.26662 -9.26662,-9.26662 z m -20.22202,14.56758 V 180.16742 c 0,5.13379 4.13393,9.26662 9.26765,9.26662 H 182.04181 c 0.64486,0 1.27396,-0.0654 1.88102,-0.18965 l -7.51737,-7.17889 c -0.29346,0.0305 -0.59118,0.0465 -0.89297,0.0465 H 35.946343 c -4.69448,0 -8.4739,-3.77936 -8.4739,-8.4739 V 39.835938 Z" />    <path       id="rect1211"       style="opacity:1;fill:#ffffff;fill-opacity:1;stroke:#ffffff;stroke-width:2.82649;stroke-linecap:butt;stroke-linejoin:miter;stroke-miterlimit:4;stroke-dasharray:none;paint-order:stroke markers fill"       d="M 1.7417132,4.0598289 V 20.549778 L 193.53723,207.88924 h 14.71745 l -0.004,-1.57147 z" /> </g></svg>
