<?xml version="1.0" encoding="UTF-8" standalone="no"?><svg   xmlns:dc="http://purl.org/dc/elements/1.1/"   xmlns:cc="http://creativecommons.org/ns#"   xmlns:rdf="http://www.w3.org/1999/02/22-rdf-syntax-ns#"   xmlns:svg="http://www.w3.org/2000/svg"   xmlns="http://www.w3.org/2000/svg"   xmlns:sodipodi="http://sodipodi.sourceforge.net/DTD/sodipodi-0.dtd"   xmlns:inkscape="http://www.inkscape.org/namespaces/inkscape"   width="210mm"   height="210mm"   viewBox="0 0 210 210"   version="1.1"   id="svg8"   inkscape:version="1.0.1 (3bc2e813f5, 2020-09-07, custom)"   sodipodi:docname="Lan_off.svg">  <defs     id="defs2" />  <sodipodi:namedview     id="base"     pagecolor="#000000"     bordercolor="#666666"     borderopacity="1.0"     inkscape:pageopacity="0"     inkscape:pageshadow="2"     inkscape:zoom="0.5"     inkscape:cx="745.26701"     inkscape:cy="494.56489"     inkscape:document-units="px"     inkscape:current-layer="layer1"     inkscape:document-rotation="0"     showgrid="false"     showborder="true"     inkscape:snap-global="false"     inkscape:window-width="1920"     inkscape:window-height="1006"     inkscape:window-x="0"     inkscape:window-y="27"     inkscape:window-maximized="0" />  <metadata     id="metadata5">    <rdf:RDF>      <cc:Work         rdf:about="">        <dc:format>image/svg+xml</dc:format>        <dc:type           rdf:resource="http://purl.org/dc/dcmitype/StillImage" />        <dc:title></dc:title>      </cc:Work>    </rdf:RDF>  </metadata>  <g     inkscape:label="Layer 1"     inkscape:groupmode="layer"     id="layer1">    <path       id="rect940"       style="opacity:1;fill:#ffffff;fill-opacity:1;stroke:#ffffff;stroke-width:47.2698;stroke-linecap:butt;stroke-linejoin:round;stroke-miterlimit:4;stroke-dasharray:none;paint-order:stroke markers fill"       d="M 149.83008 73.400391 L 178.80664 101.07422 L 660.59961 101.07422 C 678.34275 101.07422 692.62695 115.35846 692.62695 133.10156 L 692.62695 591.76562 L 720.30078 618.19336 L 720.30078 108.42383 C 720.30078 89.020576 704.68049 73.400391 685.27734 73.400391 L 149.83008 73.400391 z M 73.400391 128.45898 L 73.400391 685.27734 C 73.400391 704.68064 89.024686 720.30078 108.42773 720.30078 L 685.27734 720.30078 C 687.71461 720.30078 690.0923 720.05343 692.38672 719.58398 L 663.97461 692.45117 C 662.86546 692.56635 661.74023 692.62695 660.59961 692.62695 L 133.10547 692.62695 C 115.36254 692.62695 101.07813 678.34275 101.07812 660.59961 L 101.07812 154.89062 L 73.400391 128.45898 z "       transform="scale(0.26458333)" />    <path       id="rect955"       style="opacity:1;fill:#ffffff;fill-opacity:1;stroke:#ffffff;stroke-width:30.0971;stroke-linecap:butt;stroke-linejoin:round;stroke-miterlimit:4;stroke-dasharray:none;paint-order:stroke markers fill"       d="M 237.38281 171.01172 L 267.98828 200.33398 L 583.2207 200.33398 L 583.2207 229.51758 L 583.32031 229.51758 L 583.32031 385.81836 L 583.2207 385.81836 L 583.2207 414.99609 L 526.55469 414.99609 L 526.55469 448.06055 L 557.9375 478.12695 L 557.9375 444.32617 L 589.14062 444.32617 C 602.07613 444.32617 612.49219 434.53775 612.49219 422.38086 L 612.49219 388.07617 L 612.49219 227.26172 L 612.49219 192.95703 C 612.49219 180.8001 602.07613 171.01172 589.14062 171.01172 L 237.38281 171.01172 z M 333.44922 209.75 C 330.15484 209.75 327.50391 212.4009 327.50391 215.69531 L 327.50391 257.35352 L 339.39453 268.74609 L 339.39453 215.69531 C 339.39453 212.4009 336.7436 209.75 333.44922 209.75 z M 393.89648 209.75 C 390.6021 209.75 387.95117 212.4009 387.95117 215.69531 L 387.95117 307.72852 C 387.95117 311.02293 390.6021 313.67969 393.89648 313.67969 C 397.19087 313.67969 399.84766 311.02293 399.84766 307.72852 L 399.84766 215.69531 C 399.84766 212.4009 397.19087 209.75 393.89648 209.75 z M 453.75586 209.75 C 450.46143 209.75 447.80469 212.4009 447.80469 215.69531 L 447.80469 307.72852 C 447.80469 311.02293 450.46143 313.67969 453.75586 313.67969 C 457.05028 313.67969 459.70117 311.02293 459.70117 307.72852 L 459.70117 215.69531 C 459.70117 212.4009 457.05028 209.75 453.75586 209.75 z M 516.19531 209.75 C 512.90085 209.75 510.25195 212.4009 510.25195 215.69531 L 510.25195 307.72852 C 510.25195 311.02293 512.90085 313.67969 516.19531 313.67969 C 519.4897 313.67969 522.14062 311.02293 522.14062 307.72852 L 522.14062 215.69531 C 522.14062 212.4009 519.4897 209.75 516.19531 209.75 z M 181.21289 263.3125 L 181.21289 385.81836 L 181.21289 418.36914 L 181.21289 422.38086 C 181.21289 434.53775 191.62886 444.32617 204.56445 444.32617 L 235.76172 444.32617 L 235.76172 525.52539 C 235.76172 535.71303 243.87518 543.9082 253.94727 543.9082 L 305.54492 543.9082 L 305.54492 610.95312 C 305.54492 617.45841 310.17442 622.69141 315.92383 622.69141 L 477.77344 622.69141 C 483.52267 622.69141 488.1543 617.45841 488.1543 610.95312 L 488.1543 557.38477 L 473.4375 543.28516 L 473.4375 601.21289 C 473.4375 606.66962 469.55108 611.05859 464.72852 611.05859 L 328.96875 611.05859 C 324.14615 611.05859 320.26562 606.66962 320.26562 601.21289 L 320.26562 524.06055 L 319.20312 524.06055 L 319.20312 512.16406 L 281.79688 512.16406 C 273.6877 512.16406 267.15625 505.55152 267.15625 497.34961 L 267.15625 457.51562 L 267.14844 457.51562 L 267.14844 414.99609 L 210.48438 414.99609 L 210.48438 385.81836 L 210.38477 385.81836 L 210.38477 291.25977 L 181.21289 263.3125 z "       transform="scale(0.26458333)" />    <path       id="rect1211"       style="opacity:1;fill:#ffffff;fill-opacity:1;stroke:#ffffff;stroke-width:10.6828;stroke-linecap:butt;stroke-linejoin:miter;stroke-miterlimit:4;stroke-dasharray:none;paint-order:stroke markers fill"       d="M 5.8574219 7.3085938 L 5.8574219 69.632812 L 747.39062 793.9375 L 785.19531 794.05469 C 791.07835 785.25217 790.04713 773.27687 782.19922 765.61133 L 5.8574219 7.3085938 z "       transform="scale(0.26458333)" />  </g></svg>
