<svg xmlns="http://www.w3.org/2000/svg" width="210mm" height="210mm" viewBox="0 0 210 210"><path style="opacity:1;fill:#000;fill-opacity:1;stroke:#000;stroke-width:4.7303;stroke-linecap:butt;stroke-linejoin:round;stroke-miterlimit:4;stroke-dasharray:none;paint-order:stroke markers fill" d="m67.284 51.586 7.238 6.935h74.557v6.902h.024v36.968h-.024v6.9h-13.402v7.821l7.423 7.111v-7.994h7.38c3.059 0 5.523-2.315 5.523-5.19V56.775c0-2.875-2.464-5.19-5.523-5.19zm22.764 10.568v9.853l-.085-11.742c-.006-.78.085-9.699.085 1.89zm14.354 0v21.767l-.013-23.656c-.003-.78.013 1.11.013 1.89zm14.17 0 .012 21.767V60.265c0-.78-.013 1.11-.013 1.89zm14.67-1.89v23.657zM54 73.417v37.622c0 2.876 2.463 5.19 5.523 5.19H66.9v19.206c0 2.41 1.92 4.347 4.301 4.347h12.204v15.858c0 1.538 1.095 2.776 2.455 2.776h38.28c1.36 0 2.455-1.238 2.455-2.776v-12.67l-3.48-3.335v13.7c0 1.291-.92 2.33-2.06 2.33h-32.11c-1.14 0-2.058-1.039-2.058-2.33v-18.247h-.252v-2.814h-8.847c-1.918 0-3.463-1.564-3.463-3.503v-9.422h-.001v-10.056H60.922v-6.901h-.024V80.026z"/><path style="opacity:1;fill:#000;fill-opacity:1;stroke:#000;stroke-width:29.99999969;stroke-linecap:butt;stroke-linejoin:round;stroke-miterlimit:4;stroke-dasharray:none;paint-order:stroke markers fill" d="m149.83 73.4 28.977 27.674H660.6c17.743 0 32.027 14.284 32.027 32.028v458.664l27.674 26.427v-509.77c0-19.402-15.62-35.023-35.024-35.023H149.83zM73.4 128.46v556.818c0 19.404 15.625 35.024 35.028 35.024h576.85a35.44 35.44 0 0 0 7.109-.717l-28.412-27.133c-1.11.115-2.235.176-3.375.176H133.105c-17.742 0-32.027-14.284-32.027-32.027V154.89L73.4 128.46z" transform="scale(.26458)"/><path style="opacity:1;fill:#000;fill-opacity:1;stroke:#000;stroke-width:10.6828;stroke-linecap:butt;stroke-linejoin:miter;stroke-miterlimit:4;stroke-dasharray:none;paint-order:stroke markers fill" d="M3.828 19.674v62.324l724.897 708.055h55.625l-.016-5.94L3.828 19.673z" transform="scale(.26458)"/></svg>