<?xml version="1.0" encoding="UTF-8" standalone="no"?><svg   xmlns:dc="http://purl.org/dc/elements/1.1/"   xmlns:cc="http://creativecommons.org/ns#"   xmlns:rdf="http://www.w3.org/1999/02/22-rdf-syntax-ns#"   xmlns:svg="http://www.w3.org/2000/svg"   xmlns="http://www.w3.org/2000/svg"   xmlns:sodipodi="http://sodipodi.sourceforge.net/DTD/sodipodi-0.dtd"   xmlns:inkscape="http://www.inkscape.org/namespaces/inkscape"   width="210mm"   height="210mm"   viewBox="0 0 210 210"   version="1.1"   id="svg8"   inkscape:version="1.0.1 (3bc2e813f5, 2020-09-07, custom)"   sodipodi:docname="lan_dark_off.svg">  <defs     id="defs2" />  <sodipodi:namedview     id="base"     pagecolor="#838383"     bordercolor="#666666"     borderopacity="1.0"     inkscape:pageopacity="0"     inkscape:pageshadow="2"     inkscape:zoom="0.63209243"     inkscape:cx="56.960355"     inkscape:cy="302.15087"     inkscape:document-units="px"     inkscape:current-layer="layer1"     inkscape:document-rotation="0"     showgrid="false"     showborder="true"     inkscape:snap-global="false"     inkscape:window-width="1920"     inkscape:window-height="1006"     inkscape:window-x="0"     inkscape:window-y="27"     inkscape:window-maximized="0" />  <metadata     id="metadata5">    <rdf:RDF>      <cc:Work         rdf:about="">        <dc:format>image/svg+xml</dc:format>        <dc:type           rdf:resource="http://purl.org/dc/dcmitype/StillImage" />        <dc:title />      </cc:Work>    </rdf:RDF>  </metadata>  <g     inkscape:label="Layer 1"     inkscape:groupmode="layer"     id="layer1">    <path       id="rect955"       style="opacity:1;fill:#000000;fill-opacity:1;stroke:#000000;stroke-width:4.7303;stroke-linecap:butt;stroke-linejoin:round;stroke-miterlimit:4;stroke-dasharray:none;paint-order:stroke markers fill"       d="m 67.283592,51.58581 7.238651,6.935153 h 74.557177 v 6.902357 h 0.0236 v 36.96747 h -0.0236 v 6.90097 h -13.40236 v 7.82024 l 7.42251,7.11115 v -7.99439 h 7.38 c 3.05944,0 5.523,-2.31511 5.523,-5.19039 V 102.9248 64.889776 56.776204 c 0,-2.875296 -2.46356,-5.190394 -5.523,-5.190394 z m 22.764762,10.568337 v 9.852789 L 89.963008,60.2647 c -0.0057,-0.779156 0.08535,-9.698314 0.08535,1.889447 z m 14.354036,0 v 21.76723 c 0,0.3897 -0.0133,-23.656677 -0.0133,-23.656677 -0.003,-0.779173 0.0133,1.11027 0.0133,1.889447 z m 14.16897,0 c 0,0 0.0123,22.546407 0.0123,21.76723 V 60.2647 c 0,-0.779177 -0.0123,1.11027 -0.0123,1.889447 z M 133.24257,60.2647 V 83.921377 Z M 53.998567,73.416324 v 28.974466 7.69875 0.94883 c 0,2.87528 2.463532,5.19039 5.522993,5.19039 h 7.37862 v 19.20483 c 0,2.40953 1.918955,4.34781 4.301154,4.34781 H 83.40495 v 15.85713 c 0,1.53859 1.094946,2.77628 2.454767,2.77628 h 38.279853 c 1.35978,0 2.45523,-1.23769 2.45523,-2.77628 v -12.66972 l -3.48075,-3.33477 v 13.70078 c 0,1.29059 -0.91919,2.32865 -2.0598,2.32865 H 88.945036 c -1.140617,0 -2.058421,-1.03806 -2.058421,-2.32865 v -18.24769 h -0.251297 v -2.81369 h -8.847135 c -1.917942,0 -3.462727,-1.56397 -3.462727,-3.50384 v -9.42134 h -0.0019 v -10.0565 H 60.921667 v -6.90097 H 60.89811 V 80.026271 Z"       sodipodi:nodetypes="ccccccccccccssccsscscsssssscsscssscsscsscssssccsssscccsscccccccccc" />    <path       id="rect940"       style="opacity:1;fill:#000000;fill-opacity:1;stroke:#000000;stroke-width:29.99999969;stroke-linecap:butt;stroke-linejoin:round;stroke-miterlimit:4;stroke-dasharray:none;paint-order:stroke markers fill"       d="M 149.83008 73.400391 L 178.80664 101.07422 L 660.59961 101.07422 C 678.34275 101.07422 692.62695 115.35846 692.62695 133.10156 L 692.62695 591.76562 L 720.30078 618.19336 L 720.30078 108.42383 C 720.30078 89.020576 704.68049 73.400391 685.27734 73.400391 L 149.83008 73.400391 z M 73.400391 128.45898 L 73.400391 685.27734 C 73.400391 704.68064 89.024686 720.30078 108.42773 720.30078 L 685.27734 720.30078 C 687.71461 720.30078 690.0923 720.05343 692.38672 719.58398 L 663.97461 692.45117 C 662.86546 692.56635 661.74023 692.62695 660.59961 692.62695 L 133.10547 692.62695 C 115.36254 692.62695 101.07813 678.34275 101.07812 660.59961 L 101.07812 154.89062 L 73.400391 128.45898 z "       transform="scale(0.26458333)" />    <path       id="rect1211"       style="opacity:1;fill:#000000;fill-opacity:1;stroke:#000000;stroke-width:10.6828;stroke-linecap:butt;stroke-linejoin:miter;stroke-miterlimit:4;stroke-dasharray:none;paint-order:stroke markers fill"       d="M 3.828125 19.673828 L 3.828125 81.998047 L 728.72461 790.05273 L 784.34961 790.05273 L 784.33398 784.11328 L 3.828125 19.673828 z "       transform="scale(0.26458333)" /> </g></svg>
