<?xml version="1.0" encoding="UTF-8"?>
<svg data-name="Layer 1" version="1.1" viewBox="0 0 862.84 574" xmlns="http://www.w3.org/2000/svg" xmlns:cc="http://creativecommons.org/ns#" xmlns:dc="http://purl.org/dc/elements/1.1/" xmlns:rdf="http://www.w3.org/1999/02/22-rdf-syntax-ns#" xmlns:xlink="http://www.w3.org/1999/xlink">
<defs>
<linearGradient id="b" x1="491.81" x2="491.81" y1="649.09" y2="275.78" gradientUnits="userSpaceOnUse">
<stop stop-color="gray" stop-opacity=".25" offset="0"/>
<stop stop-color="gray" stop-opacity=".12" offset=".53514"/>
<stop stop-color="gray" stop-opacity=".1" offset="1"/>
</linearGradient>
<linearGradient id="f" x1="743.56" x2="743.56" y1="708.81" y2="647.8" xlink:href="#b"/>
<linearGradient id="e" x1="322.8" x2="322.8" y1="543.16" y2="385.06" xlink:href="#b"/>
<linearGradient id="c" x1="674.92" x2="674.92" y1="262.9" y2="202.96" xlink:href="#b"/>
<linearGradient id="a" x1="637.96" x2="637.96" y1="255.27" y2="180.97" xlink:href="#b"/>
<linearGradient id="d" x1="491.81" x2="491.81" y1="649.09" y2="275.78" gradientTransform="translate(-229.56 -161.89)" gradientUnits="userSpaceOnUse" xlink:href="#b"/>
</defs>
<title>Organizing projects</title>
<path transform="translate(-168.58 -163)" d="m274 668.62c0 18.88-11.224 25.473-25.069 25.473-0.32233 0-0.64293-0.00349-0.96178-0.0122-0.64119-0.01394-1.2772-0.04181-1.9044-0.08712-12.496-0.88338-22.205-7.8162-22.205-25.374 0-18.169 23.215-41.097 24.966-42.799l0.00349-0.00175c0.06621-0.0662 0.101-0.0993 0.101-0.0993s25.069 24.018 25.069 42.9z" fill="#3f3d56"/>
<path transform="translate(-168.58 -163)" d="m248.02 691.21 9.1701-12.812-9.1927 14.218-0.02439 1.4706c-0.64119-0.01394-1.2772-0.04181-1.9044-0.08712l0.98792-18.889-7e-3 -0.14637 0.01743-0.02787 0.09234-1.7842-9.2154-14.254 9.2432 12.916 0.02265 0.37811 0.74748-14.272-7.8894-14.728 7.9852 12.221 0.7771-29.587 0.00349-0.101v0.0993l-0.12894 23.332 7.8528-9.2502-7.886 11.259-0.20733 12.779 7.3336-12.263-7.365 14.145-0.115 7.1036 10.646-17.07-10.686 19.549z" fill="#f2f2f2"/>
<path d="m362.95 397.56c-6.6983-24.313-43.889-42.233-72.908-46.858v-11.679q0.80456-0.29971 1.6002-0.61741a25.804 25.804 0 0 0-1.3939-6.844 70.433 70.433 0 0 0 30.858-24.407 79.358 79.358 0 0 0-15.669-122.34 15.57 15.57 0 0 0-6.9621-28.683 30.391 30.391 0 0 0-47.312-35.306 30.382 30.382 0 0 1 44.653 26.83c0 0.26671-0.0158 0.52952-0.0226 0.7946a30.386 30.386 0 1 0-58.904 11.367 15.194 15.194 0 0 0-10.057 22.256 79.361 79.361 0 0 0-19.353 126.22 70.445 70.445 0 0 0 28.622 22.681v19.467c-29.326 4.1897-67.946 22.442-74.694 47.355-5.8806 21.71-12.158 45.552-15.281 59.55 26.771 18.811 82.945 29.856 118.15 29.856 33.448 0 88.118-9.9692 114.1-27.098-2.8143-15.381-9.2896-40.27-15.426-62.543zm-53.627-224.58c0 0.27668-0.0114 0.55056-0.026 0.82359a15.197 15.197 0 0 0-12.619-14.113q0.44136-0.74742 0.84172-1.5208a15.197 15.197 0 0 1 11.803 14.81z" fill="url(#d)"/>
<path d="m264.22 481.88c32.495 0 85.608-9.6852 110.85-26.326-2.7342-14.943-9.025-39.123-14.987-60.762-7.5924-27.559-55.511-46.665-84.097-46.665h-27.546c-28.674 0-76.662 19.216-84.159 46.893-5.713 21.091-11.811 44.254-14.846 57.854 26.008 18.275 80.582 29.006 114.78 29.006z" fill="#00b0ff"/>
<circle cx="263.7" cy="253.71" r="77.092" fill="#974900"/>
<path d="m242.88 307.29h40.335a6.035 6.035 0 0 1 6.035 6.035v41.242a24.78 24.78 0 0 1-24.78 24.78h-2.8451a24.78 24.78 0 0 1-24.78-24.78v-41.242a6.035 6.035 0 0 1 6.035-6.035z" fill="#fda57d"/>
<path d="m265.47 342.21a67.981 67.981 0 0 0 25.336-4.882 25.109 25.109 0 0 0-25.045-23.484h-2.1478a25.122 25.122 0 0 0-25.014 22.86 67.968 67.968 0 0 0 26.871 5.5059z" opacity=".05"/>
<circle cx="263.83" cy="267.46" r="68.203" fill="#fda57d"/>
<circle cx="240.73" cy="178.25" r="14.762" fill="#974900"/>
<circle cx="293.22" cy="178.25" r="14.762" fill="#974900"/>
<circle cx="265.34" cy="153.65" r="29.525" fill="#974900"/>
<path d="m296.5 160.21a14.693 14.693 0 0 0-8.2383 2.5118 14.755 14.755 0 0 1 13.196 26.141 14.754 14.754 0 0 0-4.9578-28.653z" fill="#974900"/>
<path d="m270.26 119.21a29.403 29.403 0 0 0-18.777 6.7395 29.522 29.522 0 0 1 32.633 48.851 29.521 29.521 0 0 0-13.856-55.59z" fill="#974900"/>
<path d="m214.49 206.14s8.2013 54.128 111.54 24.604l-50.848-44.287z" fill="#974900"/>
<rect x="45.227" y="515.01" width="71.055" height="30.236" rx="14.297" fill="#00b0ff"/>
<g transform="translate(17.888 .53489)" opacity=".7">
<path transform="translate(-168.58 -163)" d="m763.71 658.7v-10.895h-54.476v50.39a10.623 10.623 0 0 0 10.623 10.623h33.23a10.623 10.623 0 0 0 10.623-10.623v-11.167a14.164 14.164 0 1 0 0-28.327zm0 22.88v-17.432a8.7161 8.7161 0 0 1 0 17.432z" fill="url(#f)"/>
</g>
<path d="m611.27 497.94a12.932 12.932 0 1 0 12.932 12.932 12.932 12.932 0 0 0-12.932-12.932zm0 20.89a7.9582 7.9582 0 1 1 7.9582-7.9582 7.9582 7.9582 0 0 1-7.9582 7.9582z" fill="#00b0ff"/>
<path d="m611.27 497.94a12.932 12.932 0 1 0 12.932 12.932 12.932 12.932 0 0 0-12.932-12.932zm0 20.89a7.9582 7.9582 0 1 1 7.9582-7.9582 7.9582 7.9582 0 0 1-7.9582 7.9582z" opacity=".1"/>
<path d="m561.53 487.99h49.739v45.957a9.75 9.75 0 0 1-9.75 9.75h-30.239a9.75 9.75 0 0 1-9.75-9.75z" fill="#00b0ff"/>
<rect y="543.16" width="645.61" height="21.885" fill="#e0e0e0"/>
<g transform="translate(-60.984 1.112)" opacity=".7">
<rect x="185.52" y="385.06" width="274.56" height="158.1" rx="14.5" fill="url(#e)"/>
</g>
<rect x="129.51" y="389.09" width="264.61" height="155.18" rx="26.835" fill="#535461"/>
<rect x="27.356" y="565.05" width="590.89" height="8.9529" fill="#e0e0e0"/>
<rect x="27.356" y="565.05" width="590.89" height="2.9843" opacity=".1"/>
<path d="m602.32 487.99v46.008a9.699 9.699 0 0 1-9.699 9.699h4.9738a9.699 9.699 0 0 0 9.699-9.699v-46.008z" opacity=".1"/>
<path d="m571.35 450.91a2.9042 2.9042 0 0 0-2.1965 1.1152c-0.65244 1.1828 0.52985 2.5163 1.6088 3.329 1.9932 1.5015 4.0941 2.9763 5.449 5.072s1.7805 5.0202 0.29944 7.0287c-1.9339 2.6225-6.5477 3.1866-6.9942 6.4143-0.28666 2.0722 1.5048 3.8403 3.3199 4.8801 4.4802 2.5664 10.256 3.2511 13.501 7.267 1.3425-2.7605 4.3452-4.3563 7.3383-5.0377s6.1029-0.63057 9.1375-1.0928a3.1594 3.1594 0 0 0 2.5212-1.3373c0.8483-1.7216-1.5694-3.7864-0.735-5.5147 0.63512-1.3155 2.5008-1.2133 3.8633-1.7401 2.2184-0.85777 3.1332-3.7129 2.5036-6.0065s-2.4082-4.0861-4.2784-5.5558c-5.0403-3.9606-11.101-6.2898-17.231-7.9652-2.851-0.7792-6.1978-2.0011-9.159-2.1192-2.8586-0.11407-6.1188 0.77911-8.9482 1.2631z" fill="#eee"/>
<rect x="363.49" width="499.36" height="297.67" ry="37.72" fill="#e7e8eb" stroke-width="1.0721"/>
<rect x="463.82" y="9.3301" width="323.22" height="278.27" rx="14.557" fill="#888" stroke-width="3.1268"/>
<rect x="446.54" y="8.2395" width="92.406" height="280.08" rx="24.677" fill="#fff" stroke-width="10.064"/>
<g transform="matrix(.5394 0 0 .5394 475.54 -52.341)" opacity=".5">
<rect x="638.43" y="202.96" width="72.986" height="59.948" fill="url(#c)"/>
</g>
<rect x="820.37" y="57.745" width="38.375" height="31.189" fill="#f2f2f2" stroke-width=".5394"/>
<rect x="820.37" y="57.745" width="38.375" height="6.9564" fill="#00b0ff" stroke-width=".5394"/>
<rect x="820.37" y="57.745" width="38.375" height="6.9564" opacity=".1" stroke-width=".5394"/>
<rect x="823.43" y="67.224" width="32.259" height="4.0515" fill="#e0e0e0" stroke-width=".5394"/>
<rect x="823.43" y="74.334" width="23.545" height="1.376" fill="#e0e0e0" stroke-width=".5394"/>
<rect x="823.43" y="76.703" width="15.289" height="1.376" fill="#e0e0e0" stroke-width=".5394"/>
<rect x="823.43" y="79.073" width="20.181" height="1.376" fill="#e0e0e0" stroke-width=".5394"/>
<rect x="823.43" y="81.443" width="23.545" height="1.376" fill="#e0e0e0" stroke-width=".5394"/>
<rect x="823.43" y="83.813" width="7.8737" height="1.376" fill="#e0e0e0" stroke-width=".5394"/>
<g transform="matrix(.5394 0 0 .5394 475.54 -52.341)" opacity=".5">
<rect x="592.73" y="180.97" width="90.464" height="74.304" fill="url(#a)"/>
</g>
<rect x="795.83" y="46.032" width="47.565" height="38.658" fill="#fff" stroke-width=".5394"/>
<rect x="795.83" y="46.032" width="47.565" height="8.6223" fill="#00b0ff" stroke-width=".5394"/>
<rect x="799.62" y="57.781" width="39.985" height="5.0218" fill="#f5f5f5" stroke-width=".5394"/>
<rect x="799.62" y="66.593" width="29.183" height="1.7055" fill="#e0e0e0" stroke-width=".5394"/>
<rect x="799.62" y="69.53" width="18.95" height="1.7055" fill="#e0e0e0" stroke-width=".5394"/>
<rect x="799.62" y="72.467" width="25.014" height="1.7055" fill="#e0e0e0" stroke-width=".5394"/>
<rect x="799.62" y="75.404" width="29.183" height="1.7055" fill="#e0e0e0" stroke-width=".5394"/>
<rect x="799.62" y="78.342" width="9.7593" height="1.7055" fill="#e0e0e0" stroke-width=".5394"/>
<rect x="801.7" y="59.486" width="11.37" height="1.516" fill="#69f0ae" stroke-width=".5394"/>
<circle cx="428.63" cy="367.79" r="12.214" fill="#fff"/>
<ellipse cx="449.55" cy="332.17" rx="17.189" ry="17.553" fill="#fff" stroke-width="1.4221"/>
<metadata>
<rdf:RDF>
<cc:Work rdf:about="">
<dc:title>Organizing projects</dc:title>
</cc:Work>
</rdf:RDF>
</metadata>
<path d="m249.9 456.02s-0.93419-1.075-0.433-3.4028c0.50122-2.3279 0.76841 0.51411 2.0294 0.92546 1.2609 0.41122 0.0725 2.1285 0.0725 2.1285s-0.72165 0.90505-1.669 0.34886" fill="#00b8b0"/>
<path d="m258.98 454.16s0.50565-1.3713-0.74791-3.3382c-1.2536-1.9668-0.54111 0.78369-1.5752 1.6671-1.0342 0.88339 0.65228 2.0093 0.65228 2.0093s0.97752 0.55551 1.6708-0.33816" fill="#00b8b0"/>
<path d="m262.26 463.42s-1.4068-3.7773-0.28029-5.6792c1.1265-1.9019 4.9068-3.1161 4.0847-1.6159-0.82191 1.5003-1.0427 1.2716-0.30581 2.3599 0.73684 1.0884-0.80559 1.0023-1.1044 1.0095-0.29874 8e-3 0.53214 1.977 0.0191 2.0946-0.51321 0.11774-1.7401-0.35763-1.7263 1.5592 0.0134 1.9169-0.68696 0.27176-0.68696 0.27176" fill="#00b8b0"/>
<path d="m258.98 454.16c-1.3458-1.2769-3.7398-2.5925-6.6521-0.73054-3.2489 2.0776-2.9791 5.48-3.0368 7.44-0.0819 2.7767-0.0696 4.5357 1.4699 5.3658 1.2032 0.64867 1.9422 0.58151 1.9422 0.58151s-1.7588 4.1903 0.16938 10.008c0.8596 2.5935 2.0644 2.052 2.0644 2.052s1.5869-0.74971 2.9442-0.81501c1.5606-0.0752 4.0421 0.29375 5.3228-0.70887 1.2808-1.0025 2.214-1.3738 4.3896-3.0283 2.6026-2.9789 1.4742-8.9676 1.1362-9.6011-0.5351-1.0068-1.0158 4.2597-2.4093 4.2164-1.7217-0.0536-2.4552-0.79471-2.7694-3.0639-0.31415-2.2694-1.6364-9.6416-4.571-11.716" fill="#8e2de2"/>
<path d="m254.88 458.85c0.4763 1.0597 1.296 1.2039 2.0336 0.77284 0.73752-0.431 1.1136-1.274 0.63728-2.3335-0.4763-1.0597-1.6246-1.9349-2.3622-1.5038-0.73752 0.43101-0.78505 2.0048-0.30871 3.0645" fill="#fff"/>
<path d="m249.65 459.33c-0.043 1.0644 0.44826 1.6046 1.079 1.6595 0.6307 0.055 1.1621-0.39607 1.2051-1.4604 0.0429-1.0644-0.41862-2.3388-1.0493-2.3937-0.63071-0.055-1.1917 1.1304-1.2347 2.1946" fill="#fff"/>
<path d="m255.87 458.06c0.18043 0.79456 0.70029 1.3354 1.1611 1.2078 0.46086-0.12749 0.68813-0.87519 0.50771-1.6698-0.18043-0.79458-0.7003-1.3354-1.1611-1.2078-0.46085 0.12748-0.68814 0.8752-0.50771 1.6698" fill="#093735"/>
<path d="m250.47 459.3c0.13593 0.74754 0.56019 1.286 0.94773 1.2028 0.38746-0.0832 0.59143-0.75665 0.45557-1.5042-0.13594-0.74756-0.56024-1.286-0.94773-1.2029-0.38754 0.0832-0.59149 0.75667-0.45557 1.5042" fill="#093735"/>
<g transform="matrix(.02657 -.015256 -.014662 -.031128 382.55 988.24)">
<path d="m3537.3 15181c23.736-14.124 51.335-26.698 86.365-3.527 35.035 23.168 81.494-12.893 55.503-63.748-25.991-50.854-94.115-66.146-150.73-54.112-61.405 13.056-129.68 59.473-96.777 124.78 32.641 64.783 81.906 10.735 105.64-3.392" fill="#e44555"/>
</g>
<path d="m259.48 463.57s0.15099-1.303 1.097-1.4377c0.94594-0.1347 2.3945 1.6253 1.9193 3.8332-0.47519 2.2079-0.77737 3.2661-2.9075 3.6015-2.1301 0.3354-3.8267-3.344-3.1028-4.4258 0.81011-1.2109 1.7702-1.363 2.5971-0.11871l0.39699-1.4524" fill="#811b83"/>
<path d="m250.31 469.29s0.0979-3.3222 1.7572-3.668c1.6593-0.34584 2.5819 1.342 2.4206 3.6794-0.16122 2.3373-2.158 2.2704-2.747 2.1029-0.58888-0.16745-1.6447-0.57945-1.4309-2.1142" fill="#811b83"/>
<path d="m264.21 476.88c-0.22326 0.4501-2.4212 3.5414-4.5736 6e-3 -2.4586-4.0386 0.27717-5.5465 1.4158-5.3109 1.1385 0.23564 1.08 0.52348 1.08 0.52348s0.81478-2.2135 2.2595-1.5857c1.4446 0.62768 3.0122 4.1512 0.11803 5.9415" fill="#811b83"/>
<path d="m253.07 474.25c-0.25467-0.0745-0.78935-0.64674-1.5014-0.44812-1.0474 0.29217-1.9726 0.82357-1.7471 2.6038 0.22553 1.78 1.9987 4.5519 4.0105 3.4944 2.0117-1.0577 1.5742-1.0804 1.912-1.1831 1.0025-0.30478-0.23182-7.3465-2.6739-4.4669" fill="#811b83"/>
<rect x="450.73" y="49.114" width="82.398" height="15.111" rx="6.6691" fill="#00b0ff" stroke-width="2.2074"/>
<rect x="458.74" y="53.647" width="61.875" height="6.0445" rx=".73599" fill="#e0e0e0" stroke-width="1.8203"/>
<rect x="485.13" y="23.745" width="40.358" height="5.0926" rx=".48006" fill="#e0e0e0" stroke-width="1.3494"/>
<rect x="450.82" y="42.157" width="82.398" height="1.719" rx=".98011" fill="#e0e0e0" stroke-width="1.1202"/>
<rect x="455.17" y="13.623" width="28.147" height="25.63" rx="14.073" fill="#00b0ff" stroke-width="1.6802"/>
<rect x="458.04" y="83.869" width="61.875" height="5.0926" rx=".73599" fill="#e0e0e0" stroke-width="1.6708"/>
<rect x="458.04" y="114.09" width="61.875" height="5.0926" rx=".73599" fill="#e0e0e0" stroke-width="1.6708"/>
<rect x="458.04" y="144.31" width="61.875" height="5.0926" rx=".73599" fill="#e0e0e0" stroke-width="1.6708"/>
<rect x="458.04" y="174.54" width="61.875" height="5.0925" rx=".73599" fill="#e0e0e0" stroke-width="1.6708"/>
<rect x="458.04" y="204.76" width="61.875" height="5.0925" rx=".73599" fill="#e0e0e0" stroke-width="1.6708"/>
<rect x="450.73" y="251.6" width="82.398" height="15.111" rx="5.7405" fill="#e22b2a" stroke-width="2.2074"/>
<rect x="555.88" y="42.418" width="205.24" height="233.46" ry="18.153" fill="#f5f5f5" stroke-width="8.3326"/>
<rect x="579.81" y="59.07" width="156.78" height="27.013" ry="8.0317" fill="#00b0ff" stroke-width="1.7334"/>
<rect x="722.85" y="92.008" width="11.829" height="11.829" ry="5.9146" fill="#00b0ff" stroke-width=".31507"/>
<rect x="586.02" y="95.34" width="129.62" height="5.0926" rx="1.5418" fill="#e0e0e0" stroke-width="2.4183"/>
<rect x="722.85" y="105.53" width="11.829" height="11.829" ry="5.9146" fill="#00b0ff" stroke-width=".31507"/>
<rect x="586.02" y="108.86" width="129.62" height="5.0926" rx="1.5418" fill="#e0e0e0" stroke-width="2.4183"/>
<rect x="722.85" y="119.05" width="11.829" height="11.829" ry="5.9146" fill="#00b0ff" stroke-width=".31507"/>
<rect x="586.02" y="122.38" width="129.62" height="5.0926" rx="1.5418" fill="#e0e0e0" stroke-width="2.4183"/>
<rect x="722.85" y="132.56" width="11.829" height="11.829" ry="5.9146" fill="#00b0ff" stroke-width=".31507"/>
<rect x="586.02" y="135.9" width="129.62" height="5.0926" rx="1.5418" fill="#e0e0e0" stroke-width="2.4183"/>
<rect x="722.85" y="146.08" width="11.829" height="11.829" ry="5.9146" fill="#00b0ff" stroke-width=".31507"/>
<rect x="586.02" y="149.42" width="129.62" height="5.0926" rx="1.5418" fill="#e0e0e0" stroke-width="2.4183"/>
<rect x="586.02" y="216.73" width="20.165" height="5.0926" rx=".23986" fill="#e0e0e0" stroke-width=".95384"/>
<rect x="612.78" y="216.73" width="118.29" height="5.0926" rx="1.4071" fill="#00b0ff" stroke-width="2.3102"/>
<rect x="724.84" y="215.5" width="7.5329" height="7.5485" ry="3.7743" fill="#00b0ff" stroke-width=".20085"/>
<rect x="586.52" y="241.48" width="20.165" height="5.0926" rx=".23986" fill="#e0e0e0" stroke-width=".95384"/>
<rect x="613.28" y="241.48" width="118.29" height="5.0926" rx="1.4071" fill="#b6bcbe" stroke-width="2.3102"/>
<rect x="586.52" y="248.24" width="20.165" height="5.0926" rx=".23986" fill="#e0e0e0" stroke-width=".95384"/>
<rect x="613.28" y="248.24" width="118.29" height="5.0926" rx="1.4071" fill="#b6bcbe" stroke-width="2.3102"/>
<rect x="613.28" y="241.48" width="50.978" height="5.0926" rx=".60637" fill="#00b0ff" stroke-width="1.5166"/>
<rect x="613.28" y="248.24" width="13.957" height="5.0926" rx=".16602" fill="#00b0ff" stroke-width=".79355"/>
<rect x="660.01" y="240.37" width="7.5329" height="7.5485" ry="3.7743" fill="#00b0ff" stroke-width=".20085"/>
<rect x="623.16" y="247.25" width="7.5329" height="7.5485" ry="3.7743" fill="#00b0ff" stroke-width=".20085"/>
<rect x="586.35" y="173.77" width="20.165" height="5.0926" rx=".23986" fill="#e0e0e0" stroke-width=".95384"/>
<rect x="613.1" y="173.77" width="33.798" height="5.0926" rx=".40202" fill="#00b0ff" stroke-width="1.2349"/>
<rect x="655.63" y="173.77" width="33.798" height="5.0926" rx=".40202" fill="#00b0ff" stroke-width="1.2349"/>
<rect x="699.57" y="173.77" width="33.798" height="5.0926" rx=".40202" fill="#00b0ff" stroke-width="1.2349"/>
<rect x="586.35" y="182.22" width="20.165" height="5.0926" rx=".23986" fill="#e0e0e0" stroke-width=".95384"/>
<rect x="613.1" y="182.22" width="33.798" height="5.0926" rx=".40202" fill="#00b0ff" stroke-width="1.2349"/>
<rect x="655.63" y="182.22" width="33.798" height="5.0926" rx=".40202" fill="#00b0ff" stroke-width="1.2349"/>
<rect x="699.57" y="182.22" width="33.798" height="5.0926" rx=".40202" fill="#00b0ff" stroke-width="1.2349"/>
<rect x="586.35" y="182.22" width="20.165" height="5.0926" rx=".23986" fill="#e0e0e0" stroke-width=".95384"/>
<rect x="613.1" y="182.22" width="33.798" height="5.0926" rx=".40202" fill="#00b0ff" stroke-width="1.2349"/>
<rect x="655.63" y="182.22" width="33.798" height="5.0926" rx=".40202" fill="#00b0ff" stroke-width="1.2349"/>
<rect x="699.57" y="182.22" width="33.798" height="5.0926" rx=".40202" fill="#00b0ff" stroke-width="1.2349"/>
<rect x="586.35" y="190.67" width="20.165" height="5.0926" rx=".23986" fill="#e0e0e0" stroke-width=".95384"/>
<rect x="613.1" y="190.67" width="33.798" height="5.0926" rx=".40202" fill="#00b0ff" stroke-width="1.2349"/>
<rect x="655.63" y="190.67" width="33.798" height="5.0926" rx=".40202" fill="#00b0ff" stroke-width="1.2349"/>
<rect x="699.57" y="190.67" width="33.798" height="5.0926" rx=".40202" fill="#00b0ff" stroke-width="1.2349"/>
<path d="m526.47 504.39c0 18.88-11.224 25.473-25.069 25.473-0.32233 0-0.64293-3e-3 -0.96178-0.0122-0.64119-0.0139-1.2772-0.0418-1.9044-0.0871-12.496-0.88338-22.205-7.8162-22.205-25.374 0-18.169 23.215-41.097 24.966-42.799l3e-3 -2e-3c0.0662-0.0662 0.101-0.0993 0.101-0.0993s25.069 24.018 25.069 42.9z" fill="#3f3d56"/>
<path d="m500.48 526.98 9.1701-12.812-9.1927 14.218-0.0244 1.4706c-0.64119-0.0139-1.2772-0.0418-1.9044-0.0871l0.98792-18.889-7e-3 -0.14637 0.0174-0.0279 0.0923-1.7842-9.2154-14.254 9.2432 12.916 0.0226 0.37811 0.74748-14.272-7.8894-14.728 7.9852 12.221 0.7771-29.587 3e-3 -0.101v0.0993l-0.12894 23.332 7.8528-9.2502-7.886 11.259-0.20733 12.779 7.3336-12.263-7.365 14.145-0.115 7.1036 10.646-17.07-10.686 19.549z" fill="#f2f2f2"/>
<rect x="466.27" y="513.78" width="71.055" height="30.236" rx="14.297" fill="#00b0ff"/>
<g transform="matrix(.43572 0 0 .43572 544.56 89.267)" opacity=".5">
<rect x="638.43" y="202.96" width="72.986" height="59.948" fill="url(#c)"/>
</g>
<rect x="823.11" y="178.19" width="30.999" height="25.194" fill="#f2f2f2" stroke-width=".43572"/>
<rect x="822.62" y="180.71" width="30.999" height="5.6193" fill="#00b0ff" stroke-width=".43572"/>
<rect x="825.58" y="188.32" width="26.059" height="3.2728" fill="#e0e0e0" stroke-width=".43572"/>
<rect x="825.58" y="191.59" width="19.019" height="1.1115" fill="#e0e0e0" stroke-width=".43572"/>
<rect x="829.5" y="198.5" width="12.35" height="1.1115" fill="#e0e0e0" stroke-width=".43572"/>
<rect x="829.5" y="200.41" width="16.302" height="1.1115" fill="#e0e0e0" stroke-width=".43572"/>
<rect x="825.58" y="197.34" width="19.019" height="1.1115" fill="#e0e0e0" stroke-width=".43572"/>
<rect x="829.5" y="204.24" width="6.3603" height="1.1115" fill="#e0e0e0" stroke-width=".43572"/>
<g transform="matrix(.43572 0 0 .43572 548.49 94.259)" opacity=".5">
<rect x="592.73" y="180.97" width="90.464" height="74.304" fill="url(#a)"/>
</g>
<rect x="807.21" y="173.72" width="38.422" height="31.228" fill="#fff" stroke-width=".43572"/>
<rect x="807.21" y="173.72" width="38.422" height="6.965" fill="#00b0ff" stroke-width=".43572"/>
<rect x="810.27" y="183.21" width="32.299" height="4.0565" fill="#f5f5f5" stroke-width=".43572"/>
<rect x="810.27" y="190.33" width="23.574" height="1.3777" fill="#e0e0e0" stroke-width=".43572"/>
<rect x="810.27" y="192.7" width="15.308" height="1.3777" fill="#e0e0e0" stroke-width=".43572"/>
<rect x="810.27" y="195.08" width="20.206" height="1.3777" fill="#e0e0e0" stroke-width=".43572"/>
<rect x="810.27" y="197.45" width="23.574" height="1.3777" fill="#e0e0e0" stroke-width=".43572"/>
<rect x="810.27" y="199.82" width="7.8834" height="1.3777" fill="#e0e0e0" stroke-width=".43572"/>
<rect x="811.96" y="184.59" width="9.1846" height="1.2246" fill="#69f0ae" stroke-width=".43572"/>
<g transform="matrix(.5394 0 0 .5394 55.113 32.862)" opacity=".5">
<rect x="638.43" y="202.96" width="72.986" height="59.948" fill="url(#c)"/>
</g>
<rect x="399.94" y="142.95" width="38.375" height="31.189" fill="#f2f2f2" stroke-width=".5394"/>
<rect x="399.94" y="142.95" width="38.375" height="6.9564" fill="#00b0ff" stroke-width=".5394"/>
<rect x="399.94" y="142.95" width="38.375" height="6.9564" opacity=".1" stroke-width=".5394"/>
<rect x="403" y="152.43" width="32.259" height="4.0515" fill="#e0e0e0" stroke-width=".5394"/>
<rect x="403" y="159.54" width="23.545" height="1.376" fill="#e0e0e0" stroke-width=".5394"/>
<rect x="403" y="161.91" width="15.289" height="1.376" fill="#e0e0e0" stroke-width=".5394"/>
<rect x="403" y="164.28" width="20.181" height="1.376" fill="#e0e0e0" stroke-width=".5394"/>
<rect x="403" y="166.65" width="23.545" height="1.376" fill="#e0e0e0" stroke-width=".5394"/>
<rect x="403" y="169.01" width="7.8737" height="1.376" fill="#e0e0e0" stroke-width=".5394"/>
<g transform="matrix(.5394 0 0 .5394 55.113 32.862)" opacity=".5">
<rect x="592.73" y="180.97" width="90.464" height="74.304" fill="url(#a)"/>
</g>
<rect x="375.4" y="131.23" width="47.565" height="38.658" fill="#fff" stroke-width=".5394"/>
<rect x="375.4" y="131.23" width="47.565" height="8.6223" fill="#00b0ff" stroke-width=".5394"/>
<rect x="379.19" y="142.98" width="39.985" height="5.0218" fill="#f5f5f5" stroke-width=".5394"/>
<rect x="379.19" y="151.79" width="29.183" height="1.7055" fill="#e0e0e0" stroke-width=".5394"/>
<rect x="379.19" y="154.73" width="18.95" height="1.7055" fill="#e0e0e0" stroke-width=".5394"/>
<rect x="379.19" y="157.67" width="25.014" height="1.7055" fill="#e0e0e0" stroke-width=".5394"/>
<rect x="379.19" y="160.61" width="29.183" height="1.7055" fill="#e0e0e0" stroke-width=".5394"/>
<rect x="379.19" y="163.54" width="9.7593" height="1.7055" fill="#e0e0e0" stroke-width=".5394"/>
<rect x="381.27" y="144.69" width="11.37" height="1.516" fill="#69f0ae" stroke-width=".5394"/>
<rect x="414.87" y="238.84" width="15.289" height="1.376" fill="#e0e0e0" stroke-width=".5394"/>
<rect x="414.87" y="241.21" width="20.181" height="1.376" fill="#e0e0e0" stroke-width=".5394"/>
<rect x="414.87" y="245.95" width="7.8737" height="1.376" fill="#e0e0e0" stroke-width=".5394"/>
<g transform="matrix(.5394 0 0 .5394 66.99 109.79)" opacity=".5">
<rect x="592.73" y="180.97" width="90.464" height="74.304" fill="url(#a)"/>
</g>
<rect x="387.28" y="208.17" width="47.565" height="38.658" fill="#fff" stroke-width=".5394"/>
<rect x="387.28" y="208.17" width="47.565" height="8.6223" fill="#00b0ff" stroke-width=".5394"/>
<rect x="391.07" y="219.91" width="39.985" height="5.0218" fill="#f5f5f5" stroke-width=".5394"/>
<rect x="391.07" y="228.73" width="29.183" height="1.7055" fill="#e0e0e0" stroke-width=".5394"/>
<rect x="391.07" y="231.66" width="18.95" height="1.7055" fill="#e0e0e0" stroke-width=".5394"/>
<rect x="391.07" y="234.6" width="25.014" height="1.7055" fill="#e0e0e0" stroke-width=".5394"/>
<rect x="391.07" y="237.54" width="29.183" height="1.7055" fill="#e0e0e0" stroke-width=".5394"/>
<rect x="391.07" y="240.48" width="9.7593" height="1.7055" fill="#e0e0e0" stroke-width=".5394"/>
<rect x="393.15" y="221.62" width="11.37" height="1.516" fill="#69f0ae" stroke-width=".5394"/>
<rect x="399.51" y="47.4" width="11.271" height=".90261" fill="#e0e0e0" stroke-width=".3751"/>
<rect x="399.51" y="48.955" width="14.878" height=".90261" fill="#e0e0e0" stroke-width=".3751"/>
<rect x="399.51" y="52.064" width="5.8046" height=".90261" fill="#e0e0e0" stroke-width=".3751"/>
<g transform="matrix(.39765 0 0 .35383 143.05 -37.249)" opacity=".5">
<rect x="592.73" y="180.97" width="90.464" height="74.304" fill="url(#a)"/>
</g>
<rect x="379.17" y="27.28" width="35.065" height="25.359" fill="#fff" stroke-width=".3751"/>
<rect x="379.17" y="27.28" width="35.065" height="5.656" fill="#00b0ff" stroke-width=".3751"/>
<rect x="381.96" y="34.987" width="29.477" height="3.2941" fill="#f5f5f5" stroke-width=".3751"/>
<rect x="381.96" y="40.768" width="21.514" height="1.1188" fill="#e0e0e0" stroke-width=".3751"/>
<rect x="381.96" y="42.694" width="13.97" height="1.1188" fill="#e0e0e0" stroke-width=".3751"/>
<rect x="381.96" y="44.621" width="18.441" height="1.1188" fill="#e0e0e0" stroke-width=".3751"/>
<rect x="381.96" y="46.548" width="21.514" height="1.1188" fill="#e0e0e0" stroke-width=".3751"/>
<rect x="381.96" y="48.475" width="7.1946" height="1.1188" fill="#e0e0e0" stroke-width=".3751"/>
<rect x="383.5" y="36.106" width="8.3821" height=".99446" fill="#69f0ae" stroke-width=".3751"/>
<rect transform="matrix(.72012 .69385 -.55293 .83323 0 0)" x="649.28" y="-521.76" width="19.431" height="1.8212" fill="#fff" stroke-width=".56444"/>
<rect transform="matrix(-.72012 .69385 .55293 .83323 0 0)" x="-642.54" y="554.03" width="19.431" height="1.8212" fill="#fff" stroke-width=".56444"/>
<circle cx="404.03" cy="390.15" r="7.8805" fill="#fff" stroke-width=".64519"/>
</svg>
