<svg data-name="Layer 1" viewBox="0 0 862.84 574" xmlns="http://www.w3.org/2000/svg" xmlns:xlink="http://www.w3.org/1999/xlink"><defs><linearGradient id="a" x1="491.81" x2="491.81" y1="649.09" y2="275.78" gradientUnits="userSpaceOnUse"><stop stop-color="gray" stop-opacity=".25" offset="0"/><stop stop-color="gray" stop-opacity=".12" offset=".535"/><stop stop-color="gray" stop-opacity=".1" offset="1"/></linearGradient><linearGradient id="c" x1="743.56" x2="743.56" y1="708.81" y2="647.8" xlink:href="#a"/><linearGradient id="d" x1="322.8" x2="322.8" y1="543.16" y2="385.06" xlink:href="#a"/><linearGradient id="e" x1="674.92" x2="674.92" y1="262.9" y2="202.96" xlink:href="#a"/><linearGradient id="f" x1="637.96" x2="637.96" y1="255.27" y2="180.97" xlink:href="#a"/><linearGradient id="b" x1="491.81" x2="491.81" y1="649.09" y2="275.78" gradientTransform="translate(-229.56 -161.89)" gradientUnits="userSpaceOnUse" xlink:href="#a"/></defs><path d="M105.42 505.62c0 18.88-11.224 25.473-25.069 25.473-.322 0-.643-.003-.962-.012a37.89 37.89 0 0 1-1.904-.087c-12.496-.884-22.205-7.817-22.205-25.374 0-18.17 23.215-41.097 24.966-42.8l.003-.001.101-.1s25.07 24.019 25.07 42.9z" fill="#3f3d56"/><path d="m79.44 528.21 9.17-12.812-9.193 14.218-.024 1.47a37.89 37.89 0 0 1-1.904-.087l.988-18.889-.007-.146.017-.028.092-1.784-9.215-14.254 9.243 12.916.023.378.747-14.272-7.89-14.728 7.986 12.221.777-29.587.004-.1v.098l-.13 23.332 7.853-9.25-7.886 11.26-.207 12.778 7.334-12.263-7.365 14.145-.115 7.104 10.646-17.07-10.686 19.549z" fill="#f2f2f2"/><path d="M362.95 397.56c-6.698-24.313-43.889-42.233-72.908-46.858v-11.679q.805-.3 1.6-.617a25.804 25.804 0 0 0-1.394-6.844 70.433 70.433 0 0 0 30.858-24.407 79.358 79.358 0 0 0-15.669-122.34 15.57 15.57 0 0 0-6.962-28.683 30.391 30.391 0 0 0-47.312-35.306 30.382 30.382 0 0 1 44.653 26.83c0 .266-.016.53-.022.794a30.386 30.386 0 1 0-58.904 11.367 15.194 15.194 0 0 0-10.057 22.256 79.361 79.361 0 0 0-19.353 126.22 70.445 70.445 0 0 0 28.622 22.681v19.467c-29.326 4.19-67.946 22.442-74.694 47.355-5.881 21.71-12.158 45.552-15.281 59.55 26.77 18.811 82.945 29.856 118.15 29.856 33.448 0 88.118-9.969 114.1-27.098-2.815-15.38-9.29-40.27-15.426-62.543zm-53.627-224.58c0 .277-.011.55-.026.824a15.197 15.197 0 0 0-12.619-14.113q.441-.748.842-1.521a15.197 15.197 0 0 1 11.803 14.81z" fill="url(#b)"/><path d="M264.22 481.88c32.495 0 85.608-9.685 110.85-26.326-2.734-14.943-9.025-39.123-14.987-60.762-7.592-27.559-55.511-46.665-84.097-46.665H248.44c-28.674 0-76.662 19.216-84.159 46.893-5.713 21.091-11.811 44.254-14.846 57.854 26.008 18.275 80.582 29.006 114.78 29.006z" fill="#00b0ff"/><circle cx="263.7" cy="253.71" r="77.092" fill="#974900"/><path d="M242.88 307.29h40.335a6.035 6.035 0 0 1 6.035 6.035v41.242a24.78 24.78 0 0 1-24.78 24.78h-2.845a24.78 24.78 0 0 1-24.78-24.78v-41.242a6.035 6.035 0 0 1 6.035-6.035z" fill="#fda57d"/><path d="M265.47 342.21a67.981 67.981 0 0 0 25.336-4.882 25.109 25.109 0 0 0-25.045-23.484h-2.148a25.122 25.122 0 0 0-25.014 22.86 67.968 67.968 0 0 0 26.871 5.506z" opacity=".05"/><circle cx="263.83" cy="267.46" r="68.203" fill="#fda57d"/><circle cx="240.73" cy="178.25" r="14.762" fill="#974900"/><circle cx="293.22" cy="178.25" r="14.762" fill="#974900"/><circle cx="265.34" cy="153.65" r="29.525" fill="#974900"/><path d="M296.5 160.21a14.693 14.693 0 0 0-8.238 2.512 14.755 14.755 0 0 1 13.196 26.14 14.754 14.754 0 0 0-4.958-28.652z" fill="#974900"/><path d="M270.26 119.21a29.403 29.403 0 0 0-18.777 6.74 29.522 29.522 0 0 1 32.633 48.85 29.521 29.521 0 0 0-13.856-55.59zm-55.77 86.93s8.201 54.128 111.54 24.604l-50.848-44.287z" fill="#974900"/><rect x="45.227" y="515.01" width="71.055" height="30.236" rx="14.297" fill="#00b0ff"/><path transform="translate(-150.692 -162.465)" d="M763.71 658.7v-10.895h-54.476v50.39a10.623 10.623 0 0 0 10.623 10.623h33.23a10.623 10.623 0 0 0 10.623-10.623v-11.167a14.164 14.164 0 1 0 0-28.327zm0 22.88v-17.432a8.716 8.716 0 0 1 0 17.432z" fill="url(#c)" opacity=".7"/><path d="M611.27 497.94a12.932 12.932 0 1 0 12.932 12.932 12.932 12.932 0 0 0-12.932-12.932zm0 20.89a7.958 7.958 0 1 1 7.958-7.958 7.958 7.958 0 0 1-7.958 7.958z" fill="#00b0ff"/><path d="M611.27 497.94a12.932 12.932 0 1 0 12.932 12.932 12.932 12.932 0 0 0-12.932-12.932zm0 20.89a7.958 7.958 0 1 1 7.958-7.958 7.958 7.958 0 0 1-7.958 7.958z" opacity=".1"/><path d="M561.53 487.99h49.739v45.957a9.75 9.75 0 0 1-9.75 9.75H571.28a9.75 9.75 0 0 1-9.75-9.75z" fill="#00b0ff"/><path fill="#e0e0e0" d="M0 543.16h645.61v21.885H0z"/><rect x="185.52" y="385.06" width="274.56" height="158.1" rx="14.5" fill="url(#d)" transform="translate(-60.984 1.112)" opacity=".7"/><rect x="129.51" y="389.09" width="264.61" height="155.18" rx="26.835" fill="#535461"/><path fill="#e0e0e0" d="M27.356 565.05h590.89v8.953H27.356z"/><path opacity=".1" d="M27.356 565.05h590.89v2.984H27.356zm574.964-77.06v46.008a9.699 9.699 0 0 1-9.699 9.699h4.974a9.699 9.699 0 0 0 9.699-9.699V487.99z"/><path d="M571.35 450.91a2.904 2.904 0 0 0-2.196 1.115c-.653 1.183.53 2.517 1.608 3.33 1.994 1.5 4.094 2.976 5.45 5.071s1.78 5.02.299 7.029c-1.934 2.622-6.548 3.187-6.994 6.414-.287 2.072 1.504 3.84 3.32 4.88 4.48 2.567 10.255 3.251 13.5 7.267 1.343-2.76 4.346-4.356 7.339-5.037s6.103-.631 9.137-1.093a3.16 3.16 0 0 0 2.521-1.337c.849-1.722-1.569-3.787-.735-5.515.636-1.316 2.501-1.213 3.864-1.74 2.218-.858 3.133-3.713 2.503-6.007s-2.408-4.086-4.278-5.556c-5.04-3.96-11.101-6.29-17.231-7.965-2.851-.779-6.198-2-9.16-2.119-2.858-.114-6.118.78-8.947 1.263z" fill="#eee"/><rect x="363.49" width="499.36" height="297.67" ry="37.72" fill="#e7e8eb"/><rect x="463.82" y="9.33" width="323.22" height="278.27" rx="14.557" fill="#888"/><rect x="446.54" y="8.239" width="92.406" height="280.08" rx="24.677" fill="#fff"/><path fill="url(#e)" d="M638.43 202.96h72.986v59.948H638.43z" transform="translate(475.54 -52.341) scale(.5394)" opacity=".5"/><path fill="#f2f2f2" d="M820.37 57.745h38.375v31.189H820.37z"/><path fill="#00b0ff" d="M820.37 57.745h38.375v6.956H820.37z"/><path opacity=".1" d="M820.37 57.745h38.375v6.956H820.37z"/><path fill="#e0e0e0" d="M823.43 67.224h32.259v4.051H823.43zm0 7.11h23.545v1.376H823.43zm0 2.369h15.289v1.376H823.43zm0 2.37h20.181v1.376H823.43zm0 2.37h23.545v1.376H823.43zm0 2.37h7.874v1.376h-7.874z"/><path fill="url(#f)" d="M592.73 180.97h90.464v74.304H592.73z" transform="translate(475.54 -52.341) scale(.5394)" opacity=".5"/><path fill="#fff" d="M795.83 46.032h47.565V84.69H795.83z"/><path fill="#00b0ff" d="M795.83 46.032h47.565v8.622H795.83z"/><path fill="#f5f5f5" d="M799.62 57.781h39.985v5.022H799.62z"/><path fill="#e0e0e0" d="M799.62 66.593h29.183v1.706H799.62zm0 2.937h18.95v1.706h-18.95zm0 2.937h25.014v1.706H799.62zm0 2.937h29.183v1.706H799.62zm0 2.938h9.759v1.706h-9.759z"/><path fill="#69f0ae" d="M801.7 59.486h11.37v1.516H801.7z"/><circle cx="428.63" cy="367.79" r="12.214" fill="#fff"/><ellipse cx="449.55" cy="332.17" rx="17.189" ry="17.553" fill="#fff"/><path d="M249.9 456.02s-.934-1.075-.433-3.403c.501-2.328.768.514 2.03.926 1.26.41.072 2.128.072 2.128s-.722.905-1.67.349m9.081-1.86s.506-1.371-.748-3.338-.541.783-1.575 1.667c-1.034.883.652 2.01.652 2.01s.978.555 1.671-.339m3.28 9.26s-1.407-3.777-.28-5.68c1.126-1.901 4.907-3.115 4.084-1.615-.822 1.5-1.042 1.272-.305 2.36.736 1.088-.806 1.002-1.105 1.01-.299.007.532 1.976.02 2.094-.514.118-1.74-.358-1.727 1.56.013 1.916-.687.27-.687.27" fill="#00b8b0"/><path d="M258.98 454.16c-1.346-1.277-3.74-2.592-6.652-.73-3.249 2.077-2.98 5.48-3.037 7.44-.082 2.776-.07 4.535 1.47 5.365 1.203.649 1.942.582 1.942.582s-1.759 4.19.17 10.008c.86 2.593 2.064 2.052 2.064 2.052s1.587-.75 2.944-.815c1.56-.075 4.042.294 5.323-.71 1.28-1.002 2.214-1.373 4.39-3.027 2.602-2.98 1.474-8.968 1.136-9.602-.535-1.006-1.016 4.26-2.41 4.217-1.721-.054-2.455-.795-2.769-3.064-.314-2.27-1.636-9.642-4.57-11.716" fill="#8e2de2"/><path d="M254.88 458.85c.476 1.06 1.296 1.204 2.034.773.737-.431 1.113-1.274.637-2.334s-1.625-1.935-2.362-1.503c-.738.43-.785 2.004-.309 3.064m-5.23.48c-.043 1.064.448 1.605 1.079 1.66.63.054 1.162-.397 1.205-1.46.043-1.065-.419-2.34-1.05-2.395-.63-.055-1.19 1.13-1.234 2.195" fill="#fff"/><path d="M255.87 458.06c.18.795.7 1.335 1.161 1.208.461-.128.688-.875.508-1.67-.18-.795-.7-1.335-1.161-1.208-.461.128-.688.875-.508 1.67m-5.4 1.24c.136.748.56 1.286.948 1.203.387-.083.591-.757.455-1.504-.136-.748-.56-1.286-.947-1.203-.388.083-.592.756-.456 1.504" fill="#093735"/><path d="M253.952 461.72c.838.078 1.756.049 2.347-1.207.59-1.256 2.354-.842 2.41 1.138.054 1.98-1.532 3.494-3.212 3.984-1.823.53-4.318.127-4.401-2.408-.083-2.515 2.019-1.584 2.856-1.506" fill="#e44555"/><path d="M259.48 463.57s.151-1.303 1.097-1.438c.946-.134 2.394 1.626 1.92 3.833-.476 2.208-.778 3.267-2.908 3.602-2.13.335-3.827-3.344-3.103-4.426.81-1.21 1.77-1.363 2.597-.119l.397-1.452m-9.17 5.72s.098-3.322 1.757-3.668c1.66-.346 2.582 1.342 2.42 3.68-.16 2.337-2.157 2.27-2.746 2.102-.59-.167-1.645-.58-1.431-2.114m13.9 7.59c-.223.45-2.421 3.541-4.574.006-2.458-4.039.278-5.547 1.416-5.31 1.139.235 1.08.523 1.08.523s.815-2.214 2.26-1.586c1.444.628 3.012 4.151.118 5.941m-11.44-2.204c-.255-.074-.79-.647-1.501-.448-1.048.292-1.973.823-1.747 2.604.225 1.78 1.998 4.552 4.01 3.494 2.012-1.058 1.574-1.08 1.912-1.183 1.003-.305-.232-7.347-2.674-4.467" fill="#811b83"/><rect x="450.73" y="49.114" width="82.398" height="15.111" rx="6.669" fill="#00b0ff"/><rect x="458.74" y="53.647" width="61.875" height="6.045" rx=".736" fill="#e0e0e0"/><rect x="485.13" y="23.745" width="40.358" height="5.093" rx=".48" fill="#e0e0e0"/><rect x="450.82" y="42.157" width="82.398" height="1.719" rx=".98" fill="#e0e0e0"/><rect x="455.17" y="13.623" width="28.147" height="25.63" rx="14.073" fill="#00b0ff"/><rect x="458.04" y="83.869" width="61.875" height="5.093" rx=".736" fill="#e0e0e0"/><rect x="458.04" y="114.09" width="61.875" height="5.093" rx=".736" fill="#e0e0e0"/><rect x="458.04" y="144.31" width="61.875" height="5.093" rx=".736" fill="#e0e0e0"/><rect x="458.04" y="174.54" width="61.875" height="5.093" rx=".736" fill="#e0e0e0"/><rect x="458.04" y="204.76" width="61.875" height="5.093" rx=".736" fill="#e0e0e0"/><rect x="450.73" y="251.6" width="82.398" height="15.111" rx="5.74" fill="#e22b2a"/><rect x="555.88" y="42.418" width="205.24" height="233.46" ry="18.153" fill="#f5f5f5"/><rect x="579.81" y="59.07" width="156.78" height="27.013" ry="8.032" fill="#00b0ff"/><rect x="722.85" y="92.008" width="11.829" height="11.829" ry="5.915" fill="#00b0ff"/><rect x="586.02" y="95.34" width="129.62" height="5.093" rx="1.542" fill="#e0e0e0"/><rect x="722.85" y="105.53" width="11.829" height="11.829" ry="5.915" fill="#00b0ff"/><rect x="586.02" y="108.86" width="129.62" height="5.093" rx="1.542" fill="#e0e0e0"/><rect x="722.85" y="119.05" width="11.829" height="11.829" ry="5.915" fill="#00b0ff"/><rect x="586.02" y="122.38" width="129.62" height="5.093" rx="1.542" fill="#e0e0e0"/><rect x="722.85" y="132.56" width="11.829" height="11.829" ry="5.915" fill="#00b0ff"/><rect x="586.02" y="135.9" width="129.62" height="5.093" rx="1.542" fill="#e0e0e0"/><rect x="722.85" y="146.08" width="11.829" height="11.829" ry="5.915" fill="#00b0ff"/><rect x="586.02" y="149.42" width="129.62" height="5.093" rx="1.542" fill="#e0e0e0"/><rect x="586.02" y="216.73" width="20.165" height="5.093" rx=".24" fill="#e0e0e0"/><rect x="612.78" y="216.73" width="118.29" height="5.093" rx="1.407" fill="#00b0ff"/><rect x="724.84" y="215.5" width="7.533" height="7.548" ry="3.774" fill="#00b0ff"/><rect x="586.52" y="241.48" width="20.165" height="5.093" rx=".24" fill="#e0e0e0"/><rect x="613.28" y="241.48" width="118.29" height="5.093" rx="1.407" fill="#b6bcbe"/><rect x="586.52" y="248.24" width="20.165" height="5.093" rx=".24" fill="#e0e0e0"/><rect x="613.28" y="248.24" width="118.29" height="5.093" rx="1.407" fill="#b6bcbe"/><rect x="613.28" y="241.48" width="50.978" height="5.093" rx=".606" fill="#00b0ff"/><rect x="613.28" y="248.24" width="13.957" height="5.093" rx=".166" fill="#00b0ff"/><rect x="660.01" y="240.37" width="7.533" height="7.548" ry="3.774" fill="#00b0ff"/><rect x="623.16" y="247.25" width="7.533" height="7.548" ry="3.774" fill="#00b0ff"/><rect x="586.35" y="173.77" width="20.165" height="5.093" rx=".24" fill="#e0e0e0"/><rect x="613.1" y="173.77" width="33.798" height="5.093" rx=".402" fill="#00b0ff"/><rect x="655.63" y="173.77" width="33.798" height="5.093" rx=".402" fill="#00b0ff"/><rect x="699.57" y="173.77" width="33.798" height="5.093" rx=".402" fill="#00b0ff"/><rect x="586.35" y="182.22" width="20.165" height="5.093" rx=".24" fill="#e0e0e0"/><rect x="613.1" y="182.22" width="33.798" height="5.093" rx=".402" fill="#00b0ff"/><rect x="655.63" y="182.22" width="33.798" height="5.093" rx=".402" fill="#00b0ff"/><rect x="699.57" y="182.22" width="33.798" height="5.093" rx=".402" fill="#00b0ff"/><rect x="586.35" y="182.22" width="20.165" height="5.093" rx=".24" fill="#e0e0e0"/><rect x="613.1" y="182.22" width="33.798" height="5.093" rx=".402" fill="#00b0ff"/><rect x="655.63" y="182.22" width="33.798" height="5.093" rx=".402" fill="#00b0ff"/><rect x="699.57" y="182.22" width="33.798" height="5.093" rx=".402" fill="#00b0ff"/><rect x="586.35" y="190.67" width="20.165" height="5.093" rx=".24" fill="#e0e0e0"/><rect x="613.1" y="190.67" width="33.798" height="5.093" rx=".402" fill="#00b0ff"/><rect x="655.63" y="190.67" width="33.798" height="5.093" rx=".402" fill="#00b0ff"/><rect x="699.57" y="190.67" width="33.798" height="5.093" rx=".402" fill="#00b0ff"/><path d="M526.47 504.39c0 18.88-11.224 25.473-25.069 25.473-.322 0-.643-.003-.962-.012a37.855 37.855 0 0 1-1.904-.087c-12.496-.884-22.205-7.817-22.205-25.374 0-18.17 23.215-41.097 24.966-42.8l.003-.001.1-.1s25.07 24.018 25.07 42.9z" fill="#3f3d56"/><path d="m500.48 526.98 9.17-12.812-9.193 14.218-.024 1.47a37.855 37.855 0 0 1-1.904-.087l.988-18.889-.007-.146.017-.028.092-1.784-9.215-14.254 9.243 12.916.023.378.747-14.272-7.89-14.728 7.986 12.221.777-29.587.003-.1v.098l-.129 23.332 7.853-9.25-7.886 11.26-.207 12.778 7.333-12.263-7.365 14.145-.115 7.104 10.646-17.07-10.686 19.549z" fill="#f2f2f2"/><rect x="466.27" y="513.78" width="71.055" height="30.236" rx="14.297" fill="#00b0ff"/><path fill="url(#e)" d="M638.43 202.96h72.986v59.948H638.43z" transform="translate(544.56 89.267) scale(.43572)" opacity=".5"/><path fill="#f2f2f2" d="M823.11 178.19h30.999v25.194H823.11z"/><path fill="#00b0ff" d="M822.62 180.71h30.999v5.619H822.62z"/><path fill="#e0e0e0" d="M825.58 188.32h26.059v3.273H825.58z"/><path fill="#e0e0e0" d="M825.58 191.59h19.019v1.111H825.58zm3.92 6.91h12.35v1.111H829.5zm0 1.91h16.302v1.111H829.5zm-3.92-3.07h19.019v1.111H825.58zm3.92 6.9h6.36v1.111h-6.36z"/><path fill="url(#f)" d="M592.73 180.97h90.464v74.304H592.73z" transform="translate(548.49 94.259) scale(.43572)" opacity=".5"/><path fill="#fff" d="M807.21 173.72h38.422v31.228H807.21z"/><path fill="#00b0ff" d="M807.21 173.72h38.422v6.965H807.21z"/><path fill="#f5f5f5" d="M810.27 183.21h32.299v4.056H810.27z"/><path fill="#e0e0e0" d="M810.27 190.33h23.574v1.378H810.27zm0 2.37h15.308v1.378H810.27zm0 2.38h20.206v1.378H810.27zm0 2.37h23.574v1.378H810.27zm0 2.37h7.883v1.378h-7.883z"/><path fill="#69f0ae" d="M811.96 184.59h9.185v1.225h-9.185z"/><path fill="url(#e)" d="M638.43 202.96h72.986v59.948H638.43z" transform="translate(55.113 32.862) scale(.5394)" opacity=".5"/><path fill="#f2f2f2" d="M399.94 142.95h38.375v31.189H399.94z"/><path fill="#00b0ff" d="M399.94 142.95h38.375v6.956H399.94z"/><path opacity=".1" d="M399.94 142.95h38.375v6.956H399.94z"/><path fill="#e0e0e0" d="M403 152.43h32.259v4.051H403zm0 7.11h23.545v1.376H403zm0 2.37h15.289v1.376H403zm0 2.37h20.181v1.376H403zm0 2.37h23.545v1.376H403zm0 2.36h7.874v1.376H403z"/><path fill="url(#f)" d="M592.73 180.97h90.464v74.304H592.73z" transform="translate(55.113 32.862) scale(.5394)" opacity=".5"/><path fill="#fff" d="M375.4 131.23h47.565v38.658H375.4z"/><path fill="#00b0ff" d="M375.4 131.23h47.565v8.622H375.4z"/><path fill="#f5f5f5" d="M379.19 142.98h39.985v5.022H379.19z"/><path fill="#e0e0e0" d="M379.19 151.79h29.183v1.706H379.19zm0 2.94h18.95v1.706h-18.95zm0 2.94h25.014v1.706H379.19zm0 2.94h29.183v1.706H379.19zm0 2.93h9.759v1.706h-9.759z"/><path fill="#69f0ae" d="M381.27 144.69h11.37v1.516h-11.37z"/><path fill="#e0e0e0" d="M414.87 238.84h15.289v1.376H414.87zm0 2.37h20.181v1.376H414.87zm0 4.74h7.874v1.376h-7.874z"/><path fill="url(#f)" d="M592.73 180.97h90.464v74.304H592.73z" transform="translate(66.99 109.79) scale(.5394)" opacity=".5"/><path fill="#fff" d="M387.28 208.17h47.565v38.658H387.28z"/><path fill="#00b0ff" d="M387.28 208.17h47.565v8.622H387.28z"/><path fill="#f5f5f5" d="M391.07 219.91h39.985v5.022H391.07z"/><path fill="#e0e0e0" d="M391.07 228.73h29.183v1.706H391.07zm0 2.93h18.95v1.706h-18.95zm0 2.94h25.014v1.706H391.07zm0 2.94h29.183v1.706H391.07zm0 2.94h9.759v1.706h-9.759z"/><path fill="#69f0ae" d="M393.15 221.62h11.37v1.516h-11.37z"/><path fill="#e0e0e0" d="M399.51 47.4h11.271v.903H399.51zm0 1.555h14.878v.903H399.51zm0 3.109h5.805v.903h-5.805z"/><path fill="url(#f)" d="M592.73 180.97h90.464v74.304H592.73z" transform="matrix(.39765 0 0 .35383 143.05 -37.249)" opacity=".5"/><path fill="#fff" d="M379.17 27.28h35.065v25.359H379.17z"/><path fill="#00b0ff" d="M379.17 27.28h35.065v5.656H379.17z"/><path fill="#f5f5f5" d="M381.96 34.987h29.477v3.294H381.96z"/><path fill="#e0e0e0" d="M381.96 40.768h21.514v1.119H381.96zm0 1.926h13.97v1.119h-13.97zm0 1.927h18.441v1.119H381.96zm0 1.927h21.514v1.119H381.96zm0 1.927h7.195v1.119h-7.195z"/><path fill="#69f0ae" d="M383.5 36.106h8.382v.994H383.5z"/><path fill="#fff" d="m756.056 15.757 13.993 13.482-1.007 1.517-13.993-13.482z"/><path fill="#fff" d="M769.046 15.808 755.053 29.29l1.007 1.518 13.993-13.483z"/><circle cx="404.03" cy="390.15" r="7.88" fill="#fff"/></svg>