<?xml version="1.0" encoding="UTF-8" standalone="no"?>
<svg
   id="a7471a9f-044c-4cda-a4d5-ec6d0a14b11c"
   data-name="Layer 1"
   width="1038"
   height="726.02215"
   viewBox="0 0 1038 726.02215"
   version="1.1"
   sodipodi:docname="os_large.svg"
   inkscape:version="1.1 (c4e8f9ed74, 2021-05-24)"
   xmlns:inkscape="http://www.inkscape.org/namespaces/inkscape"
   xmlns:sodipodi="http://sodipodi.sourceforge.net/DTD/sodipodi-0.dtd"
   xmlns="http://www.w3.org/2000/svg"
   xmlns:svg="http://www.w3.org/2000/svg"
   xmlns:rdf="http://www.w3.org/1999/02/22-rdf-syntax-ns#"
   xmlns:cc="http://creativecommons.org/ns#"
   xmlns:dc="http://purl.org/dc/elements/1.1/">
  <defs
     id="defs75" />
  <sodipodi:namedview
     id="namedview73"
     pagecolor="#ffffff"
     bordercolor="#666666"
     borderopacity="1.0"
     inkscape:pageshadow="2"
     inkscape:pageopacity="0.0"
     inkscape:pagecheckerboard="0"
     showgrid="false"
     inkscape:zoom="0.48510398"
     inkscape:cx="450.41889"
     inkscape:cy="474.12515"
     inkscape:window-width="1920"
     inkscape:window-height="1094"
     inkscape:window-x="0"
     inkscape:window-y="27"
     inkscape:window-maximized="0"
     inkscape:current-layer="a7471a9f-044c-4cda-a4d5-ec6d0a14b11c" />
  <title
     id="title2">os_upgrade</title>
  <path
     d="M234.46917,695.55273l-1.2865-.4823c-.28271-.10652-28.41966-10.88673-41.60022-35.33038-13.18114-24.44482-6.72695-53.87647-6.66022-54.1703l.30378-1.34035,1.28592.48229c.2827.10653,28.41906,10.88674,41.60021,35.33039,13.18114,24.44482,6.72695,53.87647,6.66022,54.17029Zm-40.77609-36.95052c11.14368,20.66724,33.37838,31.26132,39.012,33.67981,1.07112-6.038,4.4302-30.45476-6.70353-51.1021-11.13257-20.645-33.376-31.25547-39.012-33.67982C185.91784,613.54165,182.55993,637.956,193.69308,658.60221Z"
     transform="translate(-81 -86.98892)"
     fill="#3f3d56"
     id="path4" />
  <path
     d="M201.65545,652.36432c23.68723,14.251,32.80992,42.55746,32.80992,42.55746s-29.28187,5.201-52.96909-9.05-32.80992-42.55746-32.80992-42.55746S177.96823,638.1133,201.65545,652.36432Z"
     transform="translate(-81 -86.98892)"
     fill="#00b0ff"
     id="path6" />
  <ellipse
     cx="855.88011"
     cy="346.42767"
     rx="86.30724"
     ry="19.17939"
     fill="#3f3d56"
     id="ellipse8" />
  <rect
     x="676.00031"
     y="579.65992"
     width="244.85721"
     height="2.3964"
     transform="translate(-116.11694 1023.1009) rotate(-68.44806)"
     fill="#3f3d56"
     id="rect10" />
  <rect
     x="1071.73569"
     y="458.42952"
     width="2.3964"
     height="244.85721"
     transform="translate(-219.33283 347.5264) rotate(-21.54098)"
     fill="#3f3d56"
     id="rect12" />
  <rect
     x="853.48269"
     y="379.99159"
     width="2.39742"
     height="227.75521"
     fill="#3f3d56"
     id="rect14" />
  <rect
     x="873.34826"
     y="521.53953"
     width="2.3977"
     height="101.85523"
     transform="translate(-109.59242 1011.68184) rotate(-63.43495)"
     fill="#3f3d56"
     id="rect16" />
  <rect
     x="945.88808"
     y="571.26829"
     width="101.85523"
     height="2.3977"
     transform="translate(-231.77846 419.23757) rotate(-26.56505)"
     fill="#3f3d56"
     id="rect18" />
  <path
     d="m 736.60831,216.53761 c 0,0 -27.33674,-33.70297 -34.6265,-13.04631 -7.28976,20.65665 27.33674,31.52858 27.33674,31.52858 z"
     fill="#ffb8b8"
     id="path20"
     style="stroke-width:0.830326" />
  <path
     d="M896.72327,362.09325,849.97352,429.2211l-49.14718,68.32656L786.4418,695.33508l49.14718,5.99356s-7.19227-53.942,5.99356-86.30724,13.18583-91.10208,13.18583-91.10208l85.10852-103.0892,47.94847,82.7111L1039.37,701.32864l43.15362-3.59613s-15.58325-91.10209-13.18583-100.69178-25.17294-89.90337-25.17294-89.90337L1022.588,350.10613S924.29364,335.72159,896.72327,362.09325Z"
     transform="translate(-81 -86.98892)"
     fill="#2f2e41"
     id="path22" />
  <circle
     cx="836.0749"
     cy="63.48814"
     r="34.44769"
     fill="#ffb8b8"
     id="circle24" />
  <path
     d="M939.87689,161.9084l25.173,26.37166,7.19227,40.75619-63.53172,10.78841,4.79485-37.16006s-1.19871-17.98068-5.99356-21.57681S939.87689,161.9084,939.87689,161.9084Z"
     transform="translate(-81 -86.98892)"
     fill="#ffb8b8"
     id="path26" />
  <path
     d="M871.55033,236.22852"
     transform="translate(-81 -86.98892)"
     fill="none"
     stroke="lime"
     stroke-miterlimit="10"
     id="path28" />
  <path
     d="M907.51168,207.45944l5.84-6.59291,19.33291,17.38132,32.36522-29.96779L1014.197,353.70227s-31.16651-10.78841-61.1343,3.59613-69.52527,10.78841-69.52527,10.78841l1.19871-134.25571Z"
     transform="translate(-81 -86.98892)"
     fill="#575a89"
     id="path30" />
  <path
     d="M872.749,233.8311l40.16448-36.74378s13.77755,19.96182,7.784,58.32059-10.78841,113.87761-32.36522,134.2557S858.3645,417.234,858.3645,417.234l21.57681-86.30724S863.15935,243.42079,872.749,233.8311Z"
     transform="translate(-81 -86.98892)"
     fill="#d0cde1"
     id="path32" />
  <path
     d="M953.55278,176.23552s71.43264-7.13485,72.63135,1.25613-7.19227,104.28792-7.19227,104.28792,74.32012,99.49306,43.15362,118.67245c-14.534,8.944-27.09257-10.69907-44.95169-35.362-20.4378-28.224-45.43-63.64079-47.34911-80.913C966.24855,251.81178,953.55278,176.23552,953.55278,176.23552Z"
     transform="translate(-81 -86.98892)"
     fill="#d0cde1"
     id="path34" />
  <path
     d="M876.34518,267.395l-5.99356,46.74975-52.74331-22.77552-16.782,34.76264,86.30724,32.36521S902.71683,275.786,876.34518,267.395Z"
     transform="translate(-81 -86.98892)"
     fill="#d0cde1"
     id="path36" />
  <path
     d="M791.23665,689.34153,756.474,745.681s-65.92914,35.96135-43.15362,45.55105,77.91626-10.78841,83.90982-22.77553,8.391-14.38454,10.7884-11.98711,32.36522-7.19227,33.56393-10.78841,0-44.35233-10.78841-49.14717S791.23665,689.34153,791.23665,689.34153Z"
     transform="translate(-81 -86.98892)"
     fill="#2f2e41"
     id="path38" />
  <path
     d="M1040.56867,695.33508l7.19227,44.35234,8.391,31.1665s5.99356,45.551,34.76264,41.95491c14.38454-1.79807,19.47906-11.98712,20.97745-21.72665a43.49631,43.49631,0,0,0-4.80395-26.9441l-16.1735-30.44422L1076.53,692.93766Z"
     transform="translate(-81 -86.98892)"
     fill="#2f2e41"
     id="path40" />
  <path
     d="M882.6578,156.78069s-4.68107-5.05495-4.20728-11.38315a36.08331,36.08331,0,0,0-.68309-10.7574s1.4651-10.3576,3.62841-16.36129.33963-8.093,9.63892-11.37068,3.37922-15.13042,30.79632-5.683a7.50039,7.50039,0,0,0,8.15737,1.66907c5.06176-1.85377,8.11215,5.10016,8.11215,5.10016s3.15728-2.59039,4.92893.10274,10.3401-3.4451,13.4821,16.14745-7.6444,37.06447-7.6444,37.06447-1.51347-31.35274-19.31924-31.92112-37.94176-7.313-40.43923,5.88966A96.36271,96.36271,0,0,1,882.6578,156.78069Z"
     transform="translate(-81 -86.98892)"
     fill="#2f2e41"
     id="path42" />
  <path
     d="M1007.35707,337.01745s-43.24347,28.35649-22.66981,42.0463,40.88857-28.806,40.88857-28.806Z"
     transform="translate(-81 -86.98892)"
     fill="#ffb8b8"
     id="path44" />
  <path
     d="M1017.79315,177.49165s10.78841-5.99355,14.38454,5.99356,40.7562,104.28791,40.7562,104.28791l-46.74976,71.9227-33.56392-23.97423,40.75619-47.94847L1005.806,254.2092Z"
     transform="translate(-81 -86.98892)"
     fill="#d0cde1"
     id="path46" />
  <rect
     y="606.54809"
     width="672.47723"
     height="2.39742"
     fill="#3f3d56"
     id="rect64" />
  <path
     d="m 125.02491,246.60581 c -4.5654,-5.23617 -8.87562,-13.68349 -11.39947,-20.49165 -2.52619,6.80816 -6.8364,15.25548 -11.40179,20.49165 l 10.20308,-3.69052 v 53.92287 h 2.39743 v -53.92279 z"
     fill="#3f3d56"
     id="path66" />
  <path
     d="m 566.1227,432.57696 c -4.56541,-5.23617 -8.87562,-13.68348 -11.39947,-20.49165 -2.52619,6.80817 -6.8364,15.25548 -11.40181,20.49165 l 10.2031,-3.69051 v 53.92285 h 2.39742 v -53.92274 z"
     fill="#3f3d56"
     id="path68" />
  <path
     d="m 487.66288,83.90608 c -4.56541,-5.23617 -8.87562,-13.68348 -11.39947,-20.49165 -2.52619,6.80817 -6.8364,15.25548 -11.40181,20.49165 l 10.2031,-3.69051 v 53.92285 h 2.39742 V 80.21564 Z"
     fill="#3f3d56"
     id="path70" />
  <metadata
     id="metadata894">
    <rdf:RDF>
      <cc:Work
         rdf:about="">
        <dc:title>os_upgrade</dc:title>
      </cc:Work>
    </rdf:RDF>
  </metadata>
  <path
     d="m 362.64714,602.96901 -7.88271,-3.31914 -5.4075,-39.51609 h -72.01062 l -5.86133,39.35465 -7.05232,3.52612 a 1.6746942,1.6746942 0 0 0 0.74902,3.17256 h 96.81579 a 1.6746078,1.6746078 0 0 0 0.64967,-3.2181 z"
     fill="#e6e6e6"
     id="path14"
     style="stroke-width:0.540196" />
  <path
     d="M 490.61496,565.39124 H 136.8788 a 7.0082011,7.0082011 0 0 1 -6.99247,-7.00814 V 508.50164 H 497.6074 v 49.88146 a 7.008266,7.008266 0 0 1 -6.99244,7.00814 z"
     fill="#cccccc"
     id="path16"
     style="stroke-width:0.540196" />
  <path
     d="M 497.97716,532.07682 H 129.56346 V 318.64468 a 8.4579578,8.4579578 0 0 1 8.44847,-8.44818 H 489.5286 a 8.4580387,8.4580387 0 0 1 8.44856,8.44818 z"
     fill="#3f3d56"
     id="path18"
     style="stroke-width:0.540196" />
  <path
     d="m 436.28555,321.03461 c -85.48276,-0.15537 -171.03675,-0.62384 -243.17938,0 -53.77479,1.51035 -48.9842,-5.52497 -49.37315,13.86168 v 175.68485 c 0,18.78041 -7.11915,13.86168 49.37315,13.86168 h 243.17938 c 51.51715,0 49.37315,4.06553 49.37315,-13.86168 V 334.89629 c 0.18644,-15.90698 6.28723,-15.58418 -49.37315,-13.86168 z"
     fill="#00b0ff"
     id="path50-3"
     style="stroke-width:1.76072"
     sodipodi:nodetypes="cccsssscc" />
  <polygon
     points="685.663,208.916 654.393,208.916 623.122,208.916 638.757,181.835 654.393,154.754 670.028,181.835 "
     fill="#3f3d56"
     id="polygon52-6"
     transform="matrix(3.3229693,0,0,1.8556429,-1861.2462,96.953286)" />
  <polygon
     points="668.504,198.93 654.319,198.93 640.134,198.93 647.227,186.645 654.319,174.36 661.412,186.645 "
     fill="#d0cde1"
     id="polygon54-7"
     transform="matrix(3.3229693,0,0,1.8556429,-1861.2462,96.953286)" />
  <polygon
     points="668.504,158.982 654.319,158.982 640.134,158.982 647.227,146.698 654.319,134.413 661.412,146.698 "
     fill="#d0cde1"
     id="polygon56-5"
     transform="matrix(3.3229693,0,0,1.8556429,-1861.2462,96.953286)" />
  <polygon
     points="654.393,154.754 670.028,181.835 685.663,208.916 654.393,208.916 623.122,208.916 638.757,181.835 "
     fill="#3f3d56"
     id="polygon52-6-7"
     transform="matrix(4.5768633,0,0,3.5738311,-2681.8762,-442.13223)" />
  <polygon
     points="654.319,174.36 661.412,186.645 668.504,198.93 654.319,198.93 640.134,198.93 647.227,186.645 "
     fill="#d0cde1"
     id="polygon54-7-5"
     transform="matrix(4.5768633,0,0,3.5738311,-2681.8762,-442.13223)" />
  <polygon
     points="654.319,134.413 661.412,146.698 668.504,158.982 654.319,158.982 640.134,158.982 647.227,146.698 "
     fill="#d0cde1"
     id="polygon56-5-3"
     transform="matrix(4.5768633,0,0,3.5738311,-2681.8762,-442.13223)" />
  <path
     d="m 501.7914,608.69699 1.09762,-0.4406 c 0.24119,-0.0973 24.24706,-9.94551 35.49245,-32.27593 11.24588,-22.33147 5.7393,-49.21866 5.68237,-49.48708 l -0.25919,-1.22447 -1.09711,0.4406 c -0.2412,0.0973 -24.24656,9.94553 -35.49246,32.27594 -11.24586,22.33148 -5.73929,49.21866 -5.68236,49.48707 z m 34.78932,-33.756 c -9.50756,18.88047 -28.47775,28.55865 -33.28424,30.76807 -0.91385,-5.516 -3.77976,-27.82183 5.71932,-46.68413 9.49808,-18.86017 28.47572,-28.55332 33.28424,-30.76809 0.91435,5.51925 3.77925,27.82287 -5.71932,46.68415 z"
     fill="#3f3d56"
     id="path4-3"
     style="stroke-width:0.882849" />
  <path
     d="m 529.78739,569.24239 c -20.20947,13.01895 -27.99275,38.87821 -27.99275,38.87821 0,0 24.9827,4.75136 45.19214,-8.26759 20.20944,-13.01895 27.99275,-38.87823 27.99275,-38.87823 0,0 -24.98269,-4.75136 -45.19214,8.26761 z"
     fill="#00b0ff"
     id="path6-6"
     style="stroke-width:0.882849" />
</svg>
