<svg data-name="Layer 1" width="1038" height="726.022" xmlns="http://www.w3.org/2000/svg"><path d="m153.47 608.564-1.287-.482c-.283-.107-28.42-10.887-41.6-35.33-13.182-24.446-6.728-53.877-6.66-54.171l.303-1.34 1.286.482c.283.106 28.419 10.887 41.6 35.33 13.181 24.445 6.727 53.877 6.66 54.17zm-40.777-36.95c11.144 20.667 33.378 31.26 39.012 33.68 1.071-6.039 4.43-30.456-6.703-51.103-11.133-20.645-33.376-31.255-39.012-33.68-1.072 6.042-4.43 30.456 6.703 51.102z" fill="#3f3d56"/><path d="M120.655 565.375c23.688 14.251 32.81 42.558 32.81 42.558s-29.281 5.2-52.969-9.05-32.81-42.558-32.81-42.558 29.282-5.2 52.97 9.05z" fill="#00b0ff"/><ellipse cx="855.88" cy="346.428" rx="86.307" ry="19.179" fill="#3f3d56"/><path fill="#3f3d56" d="m671.341 607.298 89.947-227.737 2.228.88-89.947 227.738zm274.527-226.866 2.229-.88L1038 607.307l-2.229.88zm-92.385-.44h2.397v227.755h-2.397zM747.46 463.775l1.073-2.144 91.102 45.55-1.073 2.145zm122.268 43.406 91.102-45.55 1.073 2.144-91.102 45.551z"/><path d="M736.608 216.538s-27.336-33.703-34.626-13.047c-7.29 20.657 27.337 31.529 27.337 31.529z" fill="#ffb8b8" style="stroke-width:.830326"/><path d="m815.723 275.104-46.75 67.128-49.147 68.327-14.384 197.787 49.147 5.994s-7.192-53.942 5.994-86.308 13.185-91.102 13.185-91.102l85.109-103.089 47.948 82.711L958.37 614.34l43.154-3.596s-15.584-91.103-13.186-100.692-25.173-89.904-25.173-89.904l-21.577-157.03s-98.294-14.385-125.865 11.986z" fill="#2f2e41"/><circle cx="836.075" cy="63.488" r="34.448" fill="#ffb8b8"/><path d="m858.877 74.92 25.173 26.371 7.192 40.756-63.532 10.789 4.795-37.16s-1.198-17.981-5.993-21.577 32.365-19.18 32.365-19.18z" fill="#ffb8b8"/><path d="m826.512 120.47 5.84-6.592 19.333 17.38 32.365-29.967 49.147 165.422s-31.167-10.788-61.134 3.596-69.526 10.789-69.526 10.789l1.2-134.256z" fill="#575a89"/><path d="m791.749 146.842 40.164-36.744s13.778 19.962 7.784 58.321-10.788 113.878-32.365 134.256-29.967 27.57-29.967 27.57l21.576-86.307s-16.782-87.506-7.192-97.096zm80.804-57.595s71.432-7.135 72.631 1.256-7.192 104.288-7.192 104.288 74.32 99.493 43.153 118.672c-14.534 8.944-27.092-10.699-44.951-35.362-20.438-28.224-45.43-63.64-47.35-80.913-3.595-32.365-16.291-107.941-16.291-107.941z" fill="#d0cde1"/><path d="m795.345 180.406-5.993 46.75-52.744-22.776-16.782 34.763 86.308 32.365s15.583-82.71-10.789-91.102z" fill="#d0cde1"/><path d="m710.237 602.353-34.763 56.34s-65.93 35.96-43.154 45.55 77.917-10.788 83.91-22.775 8.391-14.385 10.789-11.988 32.365-7.192 33.564-10.788 0-44.352-10.789-49.147-39.557-7.192-39.557-7.192zm249.332 5.993 7.192 44.352 8.39 31.167s5.995 45.551 34.764 41.955c14.384-1.798 19.479-11.987 20.977-21.727a43.496 43.496 0 0 0-4.804-26.944l-16.173-30.444-14.385-40.756zM801.658 69.792s-4.681-5.055-4.207-11.383a36.083 36.083 0 0 0-.684-10.758s1.466-10.357 3.629-16.361.34-8.093 9.639-11.37 3.379-15.131 30.796-5.684a7.5 7.5 0 0 0 8.157 1.67c5.062-1.854 8.113 5.1 8.113 5.1s3.157-2.59 4.929.102 10.34-3.445 13.482 16.148-7.645 37.064-7.645 37.064-1.513-31.353-19.319-31.921-37.942-7.313-40.44 5.89a96.363 96.363 0 0 1-6.45 21.503z" fill="#2f2e41"/><path d="M926.357 250.029s-43.243 28.356-22.67 42.046 40.889-28.806 40.889-28.806z" fill="#ffb8b8"/><path d="M936.793 90.503s10.789-5.994 14.385 5.993 40.756 104.288 40.756 104.288l-46.75 71.923-33.564-23.974 40.756-47.949-27.57-33.564z" fill="#d0cde1"/><path fill="#3f3d56" d="M0 606.548h672.477v2.397H0zm125.025-359.942c-4.565-5.236-8.876-13.684-11.4-20.492-2.526 6.808-6.836 15.256-11.401 20.492l10.203-3.69v53.922h2.397v-53.923zm441.098 185.971c-4.566-5.236-8.876-13.684-11.4-20.492-2.526 6.808-6.836 15.256-11.402 20.492l10.204-3.69v53.922h2.397v-53.922zm-78.46-348.671c-4.566-5.236-8.876-13.683-11.4-20.492-2.526 6.809-6.836 15.256-11.401 20.492l10.203-3.69v53.922h2.397V80.216z"/><path d="m362.647 602.969-7.883-3.32-5.407-39.515h-72.01l-5.862 39.354-7.052 3.527a1.675 1.675 0 0 0 .749 3.172h96.815a1.675 1.675 0 0 0 .65-3.218z" fill="#e6e6e6" style="stroke-width:.540196"/><path d="M490.615 565.391H136.879a7.008 7.008 0 0 1-6.993-7.008v-49.881h367.721v49.881a7.008 7.008 0 0 1-6.992 7.008z" fill="#ccc" style="stroke-width:.540196"/><path d="M497.977 532.077H129.563V318.645a8.458 8.458 0 0 1 8.449-8.448h351.517a8.458 8.458 0 0 1 8.448 8.448z" fill="#3f3d56" style="stroke-width:.540196"/><path d="M436.286 321.035c-85.483-.156-171.037-.624-243.18 0-53.775 1.51-48.984-5.525-49.373 13.861v175.685c0 18.78-7.12 13.862 49.373 13.862h243.18c51.517 0 49.373 4.065 49.373-13.862V334.896c.186-15.907 6.287-15.584-49.373-13.861z" fill="#00b0ff" style="stroke-width:1.76072"/><path fill="#3f3d56" d="M417.19 484.627H209.37l51.955-50.253 51.958-50.253 51.954 50.253z"/><path fill="#d0cde1" d="M360.172 466.096H265.9l23.57-22.796 23.567-22.797 23.57 22.797zm0-74.129H265.9l23.57-22.795 23.567-22.796 23.57 22.796z"/><path fill="#3f3d56" d="m313.191 110.932 71.56 96.783 71.559 96.783H170.068l71.56-96.783z"/><path fill="#d0cde1" d="m312.852 181.001 32.464 43.904 32.46 43.905H247.93l32.463-43.905zm0-142.764 32.464 43.905 32.46 43.9H247.93l32.463-43.9z"/><path d="m501.791 608.697 1.098-.44c.241-.098 24.247-9.946 35.492-32.277 11.246-22.331 5.74-49.218 5.683-49.487l-.26-1.224-1.096.44c-.242.098-24.247 9.946-35.493 32.276-11.246 22.332-5.74 49.22-5.682 49.488zm34.79-33.756c-9.508 18.88-28.478 28.559-33.285 30.768-.913-5.516-3.78-27.822 5.72-46.684 9.498-18.86 28.476-28.553 33.284-30.768.914 5.52 3.78 27.823-5.72 46.684z" fill="#3f3d56" style="stroke-width:.882849"/><path d="M529.787 569.242c-20.21 13.02-27.992 38.879-27.992 38.879s24.982 4.751 45.192-8.268c20.21-13.019 27.993-38.878 27.993-38.878s-24.983-4.752-45.193 8.267z" fill="#00b0ff" style="stroke-width:.882849"/></svg>