<svg xmlns="http://www.w3.org/2000/svg" width="512" height="512" viewBox="0 0 135.467 135.467"><g transform="translate(0 -170)"><path style="fill:#8ab4ff;fill-opacity:.94117647;stroke-width:2.20012879" d="M33.067 269.01H102.4c16.727 0 30.333-14.03 30.333-31.277s-13.606-31.277-30.333-31.277H33.067c-16.727 0-30.334 14.03-30.334 31.277 0 17.248 13.607 31.278 30.334 31.278zm69.333-53.618c11.947 0 21.667 10.022 21.667 22.341 0 12.32-9.72 22.341-21.667 22.341-11.947 0-21.667-10.022-21.667-22.34 0-12.32 9.72-22.342 21.667-22.342z"/><ellipse ry="22.329" rx="21.774" cy="237.714" cx="102.372" style="opacity:1;fill:#fff;fill-opacity:1;stroke-width:.59941393"/></g></svg>