<svg xmlns="http://www.w3.org/2000/svg" width="512" height="512" viewBox="0 0 135.467 135.467"><g transform="translate(0 -170)"><ellipse ry="22.235" rx="21.682" cy="237.583" cx="32.932" style="opacity:.95;fill:#fff;fill-opacity:1;stroke-width:.59687734"/><path style="opacity:.95;fill:#fff;fill-opacity:1;stroke-width:2.2001276" d="M102.4 206.456H33.067c-16.727 0-30.334 14.03-30.334 31.277 0 17.248 13.607 31.278 30.334 31.278H102.4c16.727 0 30.333-14.03 30.333-31.278 0-17.247-13.606-31.277-30.333-31.277zm0 58.087H33.067c-14.337 0-26-12.027-26-26.81s11.663-26.809 26-26.809H102.4c14.337 0 26 12.026 26 26.81 0 14.782-11.663 26.809-26 26.809z"/></g></svg>