<svg xmlns="http://www.w3.org/2000/svg" width="240" height="240"><path d="m142.4 120.1 23.2 23.2c2.8-7.25 4.4-15.1 4.4-23.3 0-8.15-1.55-15.95-4.3-23.15zm52.9-52.95L182.65 79.8c6.25 12.05 9.85 25.7 9.85 40.25s-3.6 28.15-9.85 40.25l12 12c9.65-15.5 15.35-33.65 15.35-53.15 0-19.1-5.45-36.85-14.7-52zm-38.25 9.9L100 20H90v75.85L44.15 50 30 64.15 85.85 120 30 175.85 44.15 190 90 144.15V220h10l57.05-57.05-42.9-42.95zM110 58.3l18.8 18.8L110 95.85zm18.8 104.65L110 181.7v-37.6z" style="fill:#fff;fill-opacity:1;stroke-width:5"/></svg>