<svg xmlns="http://www.w3.org/2000/svg" width="240" height="240"><path d="M120 47.273V20L83.636 56.364 120 92.727V65.455c30.136 0 54.545 24.409 54.545 54.545 0 9.227-2.318 17.864-6.318 25.5l13.273 13.273c7.045-11.273 11.227-24.5 11.227-38.773 0-40.182-32.545-72.727-72.727-72.727zm0 127.272c-30.136 0-54.545-24.409-54.545-54.545 0-9.227 2.318-17.864 6.318-25.5L58.5 81.227C51.455 92.5 47.273 105.727 47.273 120c0 40.182 32.545 72.727 72.727 72.727V220l36.364-36.364L120 147.273z" style="fill:#fff;fill-opacity:1;stroke-width:4.5454545"/></svg>