<svg xmlns="http://www.w3.org/2000/svg" viewBox="0 0 332 332" style="enable-background:new 0 0 332 332" xml:space="preserve" width="512" height="512"><path d="M312.4 150.6c-12-12-29.2-19.6-47.6-19.6-9.6 0-19.2 2-27.6 6-8.8 4-16.4 9.6-22.8 16.8-3.6 4.4-10.4 4.8-14.4.8-4.4-3.6-4.8-10.4-.8-14.4 8.4-9.6 18.4-16.8 29.6-22 2.4-1.2 4.8-2 7.2-2.8-6.8-13.2-16.8-24.4-28.8-32.4-14.8-10.4-32.8-16.4-52-16.4-22.4 0-43.2 8-59.2 22-16 13.6-27.2 33.2-30.4 55.2-.4 2.8-2 5.6-4.4 7.2h-.4c-1.2.8-2.8 1.2-4.4 1.2-15.6 0-30 6.4-40 16.4C6 179 0 193 0 208.6c0 15.6 6.4 30 16.4 40 8.8 10.4 23.2 16.8 38.8 16.8h209.6c18.8 0 35.6-7.6 47.6-19.6s19.6-29.2 19.6-47.6c0-18.8-7.6-35.6-19.6-47.6z" data-original="#000000" class="active-path" data-old_color="#000000" fill="#FFF"/></svg>