<svg xmlns="http://www.w3.org/2000/svg" viewBox="0 0 428.4 428.4" style="enable-background:new 0 0 428.4 428.4" xml:space="preserve" width="512" height="512"><path d="M277.2 119.335c5.6-.4 10.4-4.8 10.4-10.4v-30.8c0-5.6-4.8-10.4-10.4-10.4-5.6 0-10.4 4.8-10.4 10.4v30.8c0 5.6 4.8 10.4 10.4 10.4zm84.8 28.8 22-22c4-4 4-10.4 0-14.4s-10.4-4-14.4 0l-22 22c-4 4-4 10.4 0 14.4s10.4 4 14.4 0zm56 60.4h-30.8c-5.6 0-10.4 4.8-10.4 10.4 0 5.6 4.8 10.4 10.4 10.4H418c5.6 0 10.4-4.8 10.4-10.4 0-6-4.8-10.4-10.4-10.4zm-56 80.8c-4-4-10.4-4-14.4 0s-4 10.4 0 14.4l22 22c4 4 10.4 4 14.4 0s4-10.4 0-14.4l-22-22zm-169.6-141.2c4 4 10.4 4 14.4 0s4-10.4 0-14.4l-22-22c-4-4-10.4-4-14.4 0s-4 10.4 0 14.4l22 22zm62 84.4c-9.2 0-18.4 2-26.4 5.6-8.4 3.6-15.6 9.2-21.6 16-3.6 4.4-10.4 4.8-14.4.8-4.4-3.6-4.8-10.4-.8-14.4 8-9.2 18-16.4 28.8-21.2 2-.8 4.4-2 6.4-2.8-6.4-12.4-16-22.8-27.2-30.8-14.4-10-31.2-15.6-49.6-15.6-21.6 0-41.2 8-56.4 20.8-15.2 13.2-26 31.6-29.2 52.8-.4 3.2-2 5.6-4.8 7.2-1.6 1.2-3.6 1.6-5.6 1.6-14.8 0-28.4 6-38 16-9.6 9.6-15.6 23.2-15.6 38s6 28.4 16 38c9.6 9.6 23.2 16 38 16h201.2c17.2 1.2 33.2-6 44.8-18 11.6-11.6 18.8-27.6 18.8-45.6s-7.2-34-18.8-45.6c-11.6-11.6-27.6-18.8-45.6-18.8zm98.4-13.6c0-20.8-8.4-40-22.4-53.6-13.6-13.6-32.8-22.4-53.6-22.4-14 0-27.6 4-39.2 10.8-8.4 5.2-16 12-22 20 5.6 4.4 10.4 9.2 14.8 14.4 6.4 7.2 11.6 15.6 16 24.8 2.4-.4 5.2-.4 7.6-.4 23.6 0 44.8 9.6 60 24.8 3.2 3.2 6.4 7.2 9.2 10.8 4.4 6 8 12.8 10.4 20 6-5.6 10.4-12.4 13.2-19.6 4-9.2 6-19.6 6-29.6z" data-original="#000000" class="active-path" data-old_color="#000000" fill="#FFF"/></svg>