<svg xmlns="http://www.w3.org/2000/svg" width="512" height="512" viewBox="0 0 28.219 28.219" style="enable-background:new 0 0 28.219 28.219" xml:space="preserve"><path d="M18.08 13.773c-2.167-3.753-2.012-8.2.005-11.703a11.631 11.631 0 0 0-5.861 1.56C8.238 5.933 6.13 10.221 6.402 14.523a4.182 4.182 0 0 1 2.559.969 4.535 4.535 0 0 1 2.221-.574 4.663 4.663 0 0 1 4.468 3.379 3.56 3.56 0 0 1 2.517 3.414c0 1.672-1.157 3.07-2.71 3.467 2.785.641 5.809.281 8.48-1.26a11.635 11.635 0 0 0 4.281-4.297c-4.042-.007-7.971-2.096-10.138-5.848z" data-original="#000000" class="active-path" data-old_color="#000000" fill="#FFF"/><path d="M17.186 21.709a2.597 2.597 0 0 0-2.364-2.582c-.229-1.818-1.762-3.229-3.64-3.229a3.66 3.66 0 0 0-2.348.862 3.265 3.265 0 0 0-2.576-1.271 3.282 3.282 0 0 0-3.202 2.57A3.273 3.273 0 0 0 0 21.321a3.282 3.282 0 0 0 3.283 3.281c.385 0 .751-.078 1.094-.2a3.266 3.266 0 0 0 4.458.814 3.275 3.275 0 0 0 2.287.932 3.274 3.274 0 0 0 2.959-1.887c.161.031.326.052.497.052a2.606 2.606 0 0 0 2.608-2.604zm7.157-6.483.468-1.03 1.113-.197-.834-.765.155-1.121-.983.559-1.017-.494.227 1.109-.784.814 1.123.128zM1.868 12.458l.8-.411.792.425-.144-.887.649-.622-.888-.138-.392-.809-.404.804-.891.119.639.634zm18.171-2.004.365.683.321-.707.763-.134-.572-.524.107-.768-.675.382-.698-.339.156.761-.538.557zm3.676-2.03.224.42.197-.433.469-.084-.351-.322.064-.47-.414.236-.425-.209.093.466-.33.342zM6.838 5.599l.224.42.197-.434.469-.084-.351-.322.065-.47-.414.235-.427-.208.095.465-.331.343z" data-original="#000000" class="active-path" data-old_color="#000000" fill="#FFF"/></svg>