<svg xmlns="http://www.w3.org/2000/svg" viewBox="0 0 369.2 369.2" style="enable-background:new 0 0 369.2 369.2" xml:space="preserve" width="512" height="512"><path d="M334.188 234.4c-1.2-40-18.4-76.4-45.2-102.4-28.4-25.2-64.8-41.2-105.2-41.2-41.2 0-78.4 16.8-105.2 43.6-26.8 26.8-43.6 64-43.6 104.8v.4c0 6 4.8 10.4 10.4 10.4 6 0 10.4-4.8 10.4-10.4 0-6.8 2.8-12.8 7.2-17.2 4.4-4.4 10.4-7.2 17.2-7.2 6.8 0 12.8 2.8 17.2 7.2 4.4 4.4 7.2 10.4 7.2 17.2 0 6 4.8 10.4 10.4 10.4 6 0 10.4-4.8 10.4-10.4 0-6.8 2.8-12.8 7.2-17.2 4.4-4.4 10.4-7.2 17.2-7.2 6.8 0 12.8 2.8 17.2 7.2 4.4 4.4 7.2 10.4 7.2 17.2v99.6c0 8.4 3.2 15.6 8.8 21.2 5.6 5.6 12.8 8.8 21.2 8.8 8.4 0 15.6-3.2 21.2-8.8 5.6-5.6 8.8-12.8 8.8-21.2 0-6-4.8-10.4-10.4-10.4-6 0-10.4 4.8-10.4 10.4 0 2.4-1.2 4.8-2.8 6.4-1.6 1.6-4 2.4-6.4 2.4-2.4 0-4.8-1.2-6.4-2.8-1.6-1.6-2.4-4-2.4-6.4v-99.6c0-6.8 2.8-12.8 7.2-17.2 4.4-4.4 10.4-7.2 17.2-7.2 6.8 0 12.8 2.8 17.2 7.2 4.4 4.4 7.2 10.4 7.2 17.2 0 6 4.8 10.4 10.4 10.4 5.6 0 10.4-4.8 10.4-10.4 0-6.8 2.8-12.8 7.2-17.2 4.4-4.4 10.4-7.2 17.2-7.2 6 0 11.6 2.4 16 6 4.4 4 7.2 9.2 8 15.2.8 5.2 5.2 9.6 10.8 9.2 5.6 0 10.4-4.8 10-10.8zm-185.6-151.6c5.6 0 10.4-4.8 10.4-10.4v-62c0-5.6-4.8-10.4-10.4-10.4-6 0-10.4 4.8-10.4 10.4v62c0 5.6 4.8 10.4 10.4 10.4zm-70.4 35.6c5.6 0 10.4-4.8 10.4-10.4V16.4c0-5.6-4.8-10.4-10.4-10.4-6 0-10.4 4.8-10.4 10.4V108c0 5.6 4.8 10.4 10.4 10.4zm36-27.2c5.6 0 10.4-4.8 10.4-10.4V51.6c0-5.6-4.8-10.4-10.4-10.4-5.6 0-10.4 4.4-10.4 10.4v29.2c0 5.6 4.8 10.4 10.4 10.4zm68.8-14.4c5.6 0 10.4-4.8 10.4-10.4V37.2c0-6-4.8-10.4-10.4-10.4-5.6 0-10.4 4.8-10.4 10.4v29.2c0 5.6 4.8 10.4 10.4 10.4zm35.6 6c5.6 0 10.4-4.8 10.4-10.4v-62c.8-5.6-4-10.4-10-10.4s-10.8 4.8-10.8 10.4v62c0 5.6 4.8 10.4 10.4 10.4zm70.8 35.6c5.6 0 10.4-4.8 10.4-10.4V16.4c0-5.6-4.4-10.4-10.4-10.4-5.6 0-10.4 4.8-10.4 10.4V108c0 5.6 4.8 10.4 10.4 10.4zm-36-27.2c5.6 0 10.4-4.8 10.4-10.4V51.6c0-6-4.4-10.4-10.4-10.4-5.6 0-10.4 4.8-10.4 10.4v29.2c0 5.6 4.8 10.4 10.4 10.4z" data-original="#000000" class="active-path" data-old_color="#000000" fill="#FFF"/></svg>