<svg xmlns="http://www.w3.org/2000/svg" viewBox="0 0 335.223 335.223" style="enable-background:new 0 0 335.223 335.223" xml:space="preserve" width="512" height="512"><path d="M172.812 242.8c-5.6 0-10.4 4.8-10.4 10.4v30c0 5.6 4.8 10.4 10.4 10.4 5.6 0 10.4-4.8 10.4-10.4v-30c0-5.6-4.8-10.4-10.4-10.4zm-85.2-33.6c-5.6 0-10.4 4.4-10.4 10.4v64c0 5.6 4.4 10.4 10.4 10.4 5.6 0 10.4-4.4 10.4-10.4v-64c0-6-4.8-10.4-10.4-10.4zm-36.8-.4c-5.6.4-10.4 4.8-10.4 10.4v102.4c0 5.6 4.4 10.4 10.4 10.4 5.6 0 10.4-4.4 10.4-10.4V219.2c0-5.6-4.4-10.4-10.4-10.4zm132.4 116V310c-.4-5.2-4.8-10-10.4-10-5.6 0-10.4 4.8-10 10.4v14.8c0 5.6 4.8 10.4 10.4 10 5.6 0 10.4-4.8 10-10.4zm63.4-82c-5.6 0-10.4 4.8-10.4 10.4v30c0 5.6 4.8 10.4 10.4 10.4 5.6 0 10.4-4.8 10.4-10.4v-30c0-5.6-4.8-10.4-10.4-10.4zm10.4 82V310c-.4-5.2-4.8-10-10.4-10-5.6 0-10.4 4.8-10 10.4v14.8c0 5.6 4.8 10.4 10.4 10 5.6 0 10.4-4.8 10-10.4zM87.612 300c-5.6 0-10.4 4.4-10.4 10v14.8c0 5.6 4.4 10.4 10 10.4s10.4-4.4 10.4-10v-14.8c.4-5.6-4-10.4-10-10.4zm122-91.2c-5.6 0-10.4 4.4-10.4 10.4v102.4c.4 5.6 4.8 10.4 10.4 10.4 5.6 0 10.4-4.4 10.4-10.4V219.2c0-5.6-4.4-10.4-10.4-10.4zm-77.6 75.2c-6 .4-10.4 4.8-10.4 10.4v27.2c0 5.6 4.4 10.4 10.4 10.4 5.6 0 10.4-4.4 10.4-10.4v-27.2c0-5.6-4.4-10.4-10.4-10.4zm151.6-74.8c-5.6 0-10.4 4.4-10.4 10.4V322c0 5.6 4.4 10.4 10.4 10.4 5.6 0 10.4-4.4 10.4-10.4V219.6c0-6-4.8-10.4-10.4-10.4zm30.8-125.2c-12-12-29.2-19.6-47.6-19.6-9.6 0-19.2 2-27.6 6-8.8 4-16.4 9.6-22.8 16.8-3.6 4.4-10.4 4.8-14.4.8-4.4-3.6-4.8-10.4-.8-14.4 8.4-9.6 18.4-16.8 29.6-22 2.4-1.2 4.8-2 7.2-2.8-6.8-13.2-16.8-24.4-28.8-32.4-14.8-10.4-32.8-16.4-52-16.4-22.4 0-43.2 8-59.2 22-16 13.6-27.2 33.2-30.4 55.2-.4 3.2-2.4 5.6-4.8 7.2-1.6.8-3.2 1.6-5.2 1.6-15.6 0-30 6.4-40 16.4-10.4 10.4-16.4 24.4-16.4 40 0 15.6 6.4 30 16.4 40 9.6 10.8 24 17.2 39.6 17.2h56.4c-.4-3.2.4-6.8 1.6-10l31.2-64.8c3.2-6.8 9.6-11.2 17.2-11.2h36.4c3.2 0 6.4.8 9.6 2.8 8.8 5.2 12 16.8 6.8 25.6l-9.2 15.2c2.8.8 5.6 2 8 4 7.6 6.8 8.4 18.8 1.6 26.4l-10 11.2h60c18.8 0 35.6-7.6 47.6-19.6s19.6-29.2 19.6-47.6c0-18.8-7.6-35.6-19.6-47.6z" data-original="#000000" class="active-path" data-old_color="#000000" fill="#000000FFF"/><path d="M204.412 174c-.4-.4-1.2-.8-2-.8h-23.2l22.8-38.8c.8-1.2.4-3.2-1.2-4-.4-.4-.8-.4-1.6-.4h-36.4c-1.2 0-2.4.8-2.8 2l-31.2 64.8c-.8 1.6 0 3.2 1.2 4 .4 0 .8.4 1.2.4h18.8l-20.8 53.6c-.4 1.6 0 3.2 1.6 3.6 1.2.4 2.4 0 3.2-.8l69.6-79.2c2-1.6 2-3.6.8-4.4z" data-original="#000000" class="active-path" data-old_color="#000000" fill="#000000FFF"/></svg>