<svg xmlns="http://www.w3.org/2000/svg" viewBox="0 0 302.4 302.4" style="enable-background:new 0 0 302.4 302.4" xml:space="preserve" width="512" height="512"><path d="M204.8 97.6C191.2 84 172 75.2 151.2 75.2s-40 8.4-53.6 22.4c-13.6 13.6-22.4 32.8-22.4 53.6s8.8 40 22.4 53.6c13.6 13.6 32.8 22.4 53.6 22.4s40-8.4 53.6-22.4c13.6-13.6 22.4-32.8 22.4-53.6s-8.4-40-22.4-53.6zm-53.6-46c5.6 0 10.4-4.8 10.4-10.4V10.4c0-5.6-4.8-10.4-10.4-10.4-5.6 0-10.4 4.8-10.4 10.4v30.8c0 5.6 4.8 10.4 10.4 10.4zm85.2 29.2 22-22c4-4 4-10.4 0-14.4s-10.4-4-14.4 0l-22 22c-4 4-4 10.4 0 14.4 3.6 4 10 4 14.4 0zm55.6 60h-30.8c-5.6 0-10.4 4.8-10.4 10.4 0 5.6 4.8 10.4 10.4 10.4H292c5.6 0 10.4-4.8 10.4-10.4 0-5.6-4.8-10.4-10.4-10.4zm-56 80.8c-4-4-10.4-4-14.4 0s-4 10.4 0 14.4l22 22c4 4 10.4 4 14.4 0s4-10.4 0-14.4l-22-22zm-84.8 29.2c-5.6 0-10.4 4.8-10.4 10.4V292c0 5.6 4.8 10.4 10.4 10.4 5.6 0 10.4-4.8 10.4-10.4v-30.8c0-5.6-4.8-10.4-10.4-10.4zM66 221.6l-22 22c-4 4-4 10.4 0 14.4s10.4 4 14.4 0l22-22c4-4 4-10.4 0-14.4-3.6-4-10-4-14.4 0zm-14.4-70.4c0-5.6-4.8-10.4-10.4-10.4H10.4c-5.6 0-10.4 4.8-10.4 10.4s4.8 10.4 10.4 10.4h30.8c5.6 0 10.4-4.8 10.4-10.4zM66 80.8c4 4 10.4 4 14.4 0s4-10.4 0-14.4l-22-22c-4-4-10.4-4-14.4 0s-4 10.4 0 14.4l22 22z" data-original="#000000" class="active-path" data-old_color="#000000" fill="#000000FFF"/></svg>