<svg xmlns="http://www.w3.org/2000/svg" xmlns:xlink="http://www.w3.org/1999/xlink" width="240" height="240"><defs><linearGradient id="a" x1="46.168" x2="46.168" y1="57" y2="27.346" gradientTransform="translate(0 280.07) scale(.26458)" gradientUnits="userSpaceOnUse"><stop offset="0"/><stop stop-opacity="0" offset="1"/></linearGradient><linearGradient xlink:href="#a" id="b" gradientUnits="userSpaceOnUse" gradientTransform="translate(-.339 46.229) scale(.27516)" x1="46.168" y1="57" x2="46.168" y2="27.346"/></defs><g transform="translate(-3.071 -679.986) scale(14.53683)"><rect x="1.587" y="48.153" width="13.758" height="13.758" rx=".794" ry=".794" style="fill:#ee4f84;fill-opacity:1;stroke-width:1.00048006;paint-order:markers stroke fill"/><path d="M15.345 53.75a12.382 12.382 0 0 1-5.961 8.16h5.135a.824.824 0 0 0 .826-.826z" style="opacity:.25;fill:url(#b);stroke-width:1.00048006;paint-order:markers stroke fill"/><g style="fill:#fff;fill-rule:evenodd;stroke:none;stroke-width:1"><path d="M3.99 2.99a1 1 0 0 0-.697 1.717L6.586 8l-3.293 3.293a1 1 0 1 0 1.414 1.414L8 9.414l3.293 3.293a1 1 0 1 0 1.414-1.414L9.414 8l3.293-3.293a1 1 0 0 0-.727-1.715 1 1 0 0 0-.687.301L8 6.586 4.707 3.293a1 1 0 0 0-.717-.303z" transform="translate(1.608 48.172) scale(.8569)" style="fill:#fff"/></g></g></svg>