<svg xmlns="http://www.w3.org/2000/svg" xmlns:xlink="http://www.w3.org/1999/xlink" width="240" height="240" viewBox="0 0 63.499 63.499"><defs><linearGradient id="a"><stop offset="0"/><stop offset="1" stop-opacity="0"/></linearGradient><linearGradient xlink:href="#a" id="c" x1="-197.102" y1="217.681" x2="-196.914" y2="219.365" gradientUnits="userSpaceOnUse"/><clipPath clipPathUnits="userSpaceOnUse" id="b"><rect ry=".529" y="285.358" x=".529" height="9.525" width="15.875" transform="rotate(45)" style="fill:#5677fc;stroke-width:.25099999;stroke-opacity:.19599998;paint-order:markers stroke fill"/></clipPath></defs><g transform="translate(3.528 -930.388) scale(3.33306)"><path d="M3.44 282.448c-.294 0-.395.269-.53.53h-.793a.528.528 0 0 0-.53.528v5.292c0 .293.237.53.53.53h12.7a.529.529 0 0 0 .529-.53v-5.292a.528.528 0 0 0-.53-.529H7.674c-.155-.249-.236-.53-.53-.53z" style="fill:#5677fc;paint-order:markers stroke fill"/><path d="M3.44 282.448c-.294 0-.395.269-.53.53h-.793a.528.528 0 0 0-.53.528v5.292c0 .293.237.53.53.53h12.7a.529.529 0 0 0 .529-.53v-5.292a.528.528 0 0 0-.53-.529H7.674c-.155-.249-.236-.53-.53-.53z" style="opacity:.18000004;paint-order:markers stroke fill"/><rect width="12.171" height="5.027" x="2.381" y="283.771" ry=".265" style="fill:#fff;paint-order:markers stroke fill"/><rect width="15.875" height="9.525" x=".529" y="285.358" ry=".529" style="fill:#5677fc;paint-order:markers stroke fill"/><path d="M8.467 284.3h7.408c.293 0 .53.236.53.53v3.968a.529.529 0 0 1-.53.529H6.152c-.294 0-.677-.276-.53-.53l2.316-3.968c.147-.253.236-.529.529-.529z" style="fill:#5677fc;paint-order:markers stroke fill"/><rect width="3.175" height=".529" x="3.704" y="282.712" ry=".265" style="opacity:.25;paint-order:stroke markers fill"/><rect width="5.292" height="4.762" x="-199.587" y="217.868" ry=".132" transform="rotate(-45)" clip-path="url(#b)" style="opacity:.1;fill:url(#c);paint-order:stroke markers fill"/></g></svg>