<svg xmlns="http://www.w3.org/2000/svg" width="240" height="240" viewBox="0 0 63.499 63.499"><g transform="translate(.392 -172.067) scale(3.70358)"><g style="stroke-width:.96313"><path style="isolation:isolate;fill:#46a926" d="M13.323 3.603c-.048.049 2.02 4.86 2.02 4.86l-2.02 4.858s-4.86-2.568-4.86-4.859c0-2.29 4.86-4.859 4.86-4.859z" transform="matrix(1.0382 0 0 1.0384 -.322 46.244)"/><path style="isolation:isolate;fill:#f22c42" d="M3.604 13.321c.049-.049-2.02-4.859-2.02-4.859l2.02-4.859s4.86 2.569 4.86 4.86c0 2.29-4.86 4.858-4.86 4.858z" transform="matrix(1.0382 0 0 1.0384 -.322 46.244)"/><path style="isolation:isolate;fill:#ffda64" d="M13.323 3.603c-.048.049-4.86-2.019-4.86-2.019l-4.86 2.019 4.86 4.86z" transform="matrix(1.0382 0 0 1.0384 -.322 46.244)"/><path style="isolation:isolate;fill:#2f5fdd" d="m3.604 13.321 4.86 2.013s4.81-2.062 4.86-2.013l-4.86-4.859z" transform="matrix(1.0382 0 0 1.0384 -.322 46.244)"/><path style="isolation:isolate;fill:#a6d74f" d="M8.464 1.587a6.846 6.846 0 0 0 2.019 4.862l2.845-2.844a6.88 6.88 0 0 0-4.861-2.018z" transform="matrix(1.0382 0 0 1.0384 -.322 46.244)"/><path style="isolation:isolate;fill:#76c22b" d="m13.328 3.605-2.845 2.844a6.84 6.84 0 0 0 4.863 2.012 6.88 6.88 0 0 0-2.018-4.856z" transform="matrix(1.0382 0 0 1.0384 -.322 46.244)"/><path style="isolation:isolate;fill:#1463a5" d="M10.476 10.481a6.85 6.85 0 0 0-2.019 4.862h.069a6.88 6.88 0 0 0 4.8-2.013z" transform="matrix(1.0382 0 0 1.0384 -.322 46.244)"/><path style="isolation:isolate;fill:#2b898f" d="M15.346 8.469a6.84 6.84 0 0 0-4.87 2.012l2.85 2.85a6.88 6.88 0 0 0 2.02-4.862z" transform="matrix(1.0382 0 0 1.0384 -.322 46.244)"/><path style="isolation:isolate;fill:#9b33ae" d="M1.587 8.463a6.88 6.88 0 0 0 0 .003 6.88 6.88 0 0 0 2.014 4.857l2.85-2.848a6.839 6.839 0 0 0-4.864-2.011z" transform="matrix(1.0382 0 0 1.0384 -.322 46.244)"/><path style="isolation:isolate;fill:#7839b7" d="M6.45 10.475 3.6 13.323a6.88 6.88 0 0 0 4.826 2.02h.043a6.85 6.85 0 0 0-2.019-4.868z" transform="matrix(1.0382 0 0 1.0384 -.322 46.244)"/><path style="isolation:isolate;fill:#fdc92b" d="M8.467 1.587a6.88 6.88 0 0 0-4.858 2.015l2.848 2.847a6.85 6.85 0 0 0 2.019-4.861 6.88 6.88 0 0 0-.01 0z" transform="matrix(1.0382 0 0 1.0384 -.322 46.244)"/><path style="isolation:isolate;fill:#f34f17" d="M3.609 3.602a6.88 6.88 0 0 0-2.021 4.859 6.84 6.84 0 0 0 4.869-2.012z" transform="matrix(1.0382 0 0 1.0384 -.322 46.244)"/></g><circle style="opacity:.35;fill:#fff;paint-order:fill markers stroke" r="5.292" cy="55.032" cx="8.467"/><g style="fill:#fff"><path style="color:#000;overflow:visible;opacity:.5;isolation:auto;mix-blend-mode:normal;paint-order:fill markers stroke" overflow="visible" d="M9.59 9.589a1.588 1.588 0 0 1-2.246 0 1.588 1.588 0 0 1 0-2.245 1.588 1.588 0 0 1 2.245 0 1.588 1.588 0 0 1 0 2.245z" transform="translate(0 46.566)"/><path style="color:#000;overflow:visible;isolation:auto;mix-blend-mode:normal;paint-order:fill markers stroke" overflow="visible" d="M8.467 4.031a.126.126 0 0 0-.088.038L6.277 6.171a3.175 3.175 0 0 0-.056.05 3.175 3.175 0 0 0 0 4.49 3.175 3.175 0 0 0 4.49 0 3.175 3.175 0 0 0 .001-4.49 3.175 3.175 0 0 0-.076-.07c-.004-.005-.005-.01-.01-.015L8.559 4.069a.126.126 0 0 0-.092-.038zm.023 2.848a1.588 1.588 0 0 1 1.1.465 1.588 1.588 0 0 1 0 2.245 1.588 1.588 0 0 1-2.246 0 1.588 1.588 0 0 1 0-2.245 1.588 1.588 0 0 1 1.146-.465z" transform="translate(0 46.566)"/><path style="color:#000;overflow:visible;isolation:auto;mix-blend-mode:normal;paint-order:fill markers stroke" overflow="visible" d="m9.022 7.718-.561.561-.561-.561-.188.187.562.561-.55.573.176.176.56-.562.562.562.199-.176-.573-.573.561-.56z" transform="translate(0 46.566)"/></g></g></svg>