<svg xmlns="http://www.w3.org/2000/svg" xmlns:xlink="http://www.w3.org/1999/xlink" width="240" height="240" viewBox="0 0 63.5 63.5" version="1.1" id="svg8"><defs id="defs2"><linearGradient id="linearGradient818"><stop style="stop-color:#4986ff;stop-opacity:1" offset="0" id="stop814"/><stop style="stop-color:#6ee6ff;stop-opacity:1" offset="1" id="stop816"/></linearGradient><linearGradient xlink:href="#linearGradient818" id="linearGradient820" x1="8.386" y1="296.683" x2="8.386" y2="280.713" gradientUnits="userSpaceOnUse" gradientTransform="translate(.29 14.736) scale(.94925)"/><style type="text/css" id="current-color-scheme"></style></defs><g id="layer1" transform="translate(0 -233.5)"><g id="g874" transform="matrix(3.39836 0 0 3.39836 3.446 -715.601)"><circle r="7.786" cy="288.624" cx="8.329" id="path815" style="opacity:1;fill:url(#linearGradient820);fill-opacity:1;stroke:none;stroke-width:.17561164;stroke-linecap:round;stroke-linejoin:round;stroke-miterlimit:4;stroke-dasharray:none;stroke-opacity:1"/><path style="fill:#fff;fill-opacity:.80632402;stroke-width:.03253478" d="m4.527 285.002.002.01c.282 2.67 1.392 4.796 2.928 5.447l.008.562c0 .03.01.06.027.085.723 1.04 1.593 1.698 2.458 2.175.05.028.117.024.164-.01a.159.159 0 0 0 .06-.154l-.334-1.65.29.082c.05.013.104 0 .142-.032l.476-.415.001-.001c.006-.004.01-.01.015-.014l.418-.477a.155.155 0 0 0 .033-.142l-.081-.29 1.649.333a.157.157 0 0 0 .153-.06.155.155 0 0 0 .011-.164c-.477-.864-1.133-1.734-2.174-2.456a.156.156 0 0 0-.085-.028l-.563-.01c-.647-1.528-2.74-2.654-5.394-2.942a.154.154 0 0 0-.203.151zm1.88 2.462v-.036a.69.69 0 1 1 0 .036z" id="path4556-6"/><path style="fill:#fff;stroke-width:.03253478" d="M3.776 292.883c-.24.24-.392.534-.458.843a7.173 7.173 0 0 0 10.11-.033 7.173 7.173 0 0 0 .495-9.594 1.21 1.21 0 0 0-.725.35c-.434.434-.478 1.115-.102 1.57-.27.03-.525.154-.721.35-.464.463-.478 1.201-.03 1.648.088.087.19.16.303.213a1.628 1.628 0 0 0-.527.352c-.615.615-.633 1.594-.04 2.187.144.144.314.254.5.326a1.696 1.696 0 0 0-.511.35 1.696 1.696 0 0 0-.486 1.38c-.029-.017-.058-.035-.088-.051a1.242 1.242 0 0 0-.351-1.022 1.256 1.256 0 0 0-1.305-.285 1.854 1.854 0 0 0-.34-.469c-.758-.757-2.016-.726-2.81.069a2.068 2.068 0 0 0-.597 1.74 1.696 1.696 0 0 0-2.317.076z" id="path4560-7"/></g></g></svg>