<svg xmlns="http://www.w3.org/2000/svg" height="240" width="240"><linearGradient id="a" gradientUnits="userSpaceOnUse" x1="394.276" x2="394.276" y1="544.805" y2="498.956" gradientTransform="matrix(1.08333 0 0 1.08333 -410.893 -359.174)"><stop offset="0" stop-color="#3889e9"/><stop offset="1" stop-color="#5ea5fb"/></linearGradient><linearGradient id="b" gradientUnits="userSpaceOnUse" x1="408.697" x2="408.263" y1="546.473" y2="501.123" gradientTransform="matrix(1.08333 0 0 1.08333 -410.893 -359.174)"><stop offset="0" stop-color="#4d4d4d"/><stop offset="1" stop-color="gray"/></linearGradient><g transform="matrix(4.01338 0 0 4.01338 -7.33 -715.881)"><circle cx="31.726" cy="208.274" r="24.917" style="fill:url(#b);stroke-width:1.08333337"/><path d="m19.525 210.264 4.336-4.336 3.876-.766c4.934-6.71 14.372-10.066 17.788-10.066 0 3.417-3.355 12.855-10.066 17.788l-.766 3.876-4.336 4.336-1.087-5.408c-2.16 0-2.16 0-3.249-1.088-1.087-1.088-1.087-1.088-1.087-3.248zm4.336 4.336 2.16 2.16-4.075 4.09H19.77v-2.175zm-2.175-2.16 1.9.26-3.77 3.754v-2.176zm6.235 4.596.26 1.9-1.838 1.869h-2.175zm7.217-13.85a2.298 2.298 0 0 0-2.299 2.298 2.298 2.298 0 0 0 2.299 2.298 2.298 2.298 0 0 0 2.298-2.298 2.298 2.298 0 0 0-2.298-2.298z" style="fill:#fff;stroke-width:1.08333337"/></g></svg>