<svg xmlns="http://www.w3.org/2000/svg" width="240" height="240" viewBox="0 0 63.499 63.499"><g style="fill-rule:evenodd;stroke-width:.015243"><path d="m8.466 15.671 6.615-3.739-.045-7.033-6.57 3.6z" style="fill:#3585f3" transform="translate(.722 .722) scale(3.66477)"/><path d="m8.467 15.686-6.615-3.739.045-7.033 6.57 3.6z" style="fill:#1c69d0" transform="translate(.722 .722) scale(3.66477)"/><path d="m1.878 4.933 6.62-3.686 6.562 3.688-6.597 3.614z" style="fill:#5997f3" transform="translate(.722 .722) scale(3.66477)"/></g><path d="M9.483 5.29a.19.19 0 0 1-.209.011l-.703-.425c-.058-.035-.072-.094-.033-.139l.602-.705-2.12 1.47a.192.192 0 0 1-.188.007l-.01-.005c-.052-.031-.07-.082-.042-.126l.709-1.166-.939.272a.19.19 0 0 1-.165-.027c-.043-.033-.053-.08-.028-.12l.405-.615-.866-.524c-.063-.038-.073-.106-.022-.15.052-.045.146-.05.209-.012l.955.578c.053.032.07.085.041.129l-.289.439.924-.267a.189.189 0 0 1 .163.026c.042.031.054.078.031.118l-.553.91 2.427-1.681a.191.191 0 0 1 .196-.004c.06.043.073.094.034.14l-1.154 1.35.604.365c.063.039.072.106.02.15zm.702.286-.364-.22c-.063-.038-.157-.033-.208.012-.052.045-.042.113.021.15l.364.22c.063.039.157.034.208-.011.052-.045.042-.113-.021-.15zm.783.474-.387-.234c-.063-.038-.157-.033-.209.011-.051.045-.041.113.022.151l.387.234c.063.038.156.033.208-.012.052-.044.042-.112-.021-.15z" style="fill:#fff;stroke-width:.044893" transform="translate(.722 .722) scale(3.66477)"/></svg>