<svg xmlns="http://www.w3.org/2000/svg" width="240" height="240" viewBox="0 0 63.499 63.499"><defs><linearGradient id="a" x1="47" x2="59.998" y1="41" y2="53.978" gradientTransform="translate(-.004 46.836) scale(.26458)" gradientUnits="userSpaceOnUse"><stop offset="0"/><stop stop-color="#242424" stop-opacity="0" offset="1"/></linearGradient></defs><g transform="matrix(3.57152 0 0 3.57152 1.513 -164.8)"><rect style="fill:#72787e" ry="1.323" rx="1.372" height="12.171" width="14.816" y="48.947" x="1.058"/><rect style="fill:#fff;paint-order:stroke markers fill" ry=".265" height=".529" width="4.233" y="55.556" x="5.292"/><path style="fill:#fff;paint-order:stroke markers fill" d="M3.973 50.756a.264.264 0 0 0-.262.13.264.264 0 0 0 .097.362l2.842 1.64-2.842 1.64a.264.264 0 0 0-.097.363c.074.127.235.17.362.097l3.207-1.852a.26.26 0 0 0 .127-.225c.002-.008.001-.015.002-.022 0-.008 0-.015-.002-.023a.26.26 0 0 0-.127-.224l-3.207-1.853a.266.266 0 0 0-.1-.033z"/><path style="opacity:.15;fill:url(#a)" d="m15.872 55.78-5.337 5.338h4.767c.316 0 .57-.238.57-.535z"/></g></svg>