<svg xmlns="http://www.w3.org/2000/svg" width="240" height="240" viewBox="0 0 63.499 63.499"><path style="fill:#aa55b9;paint-order:fill markers stroke" d="M2.381 48.154h12.171c.147 0 .265.118.265.264v13.23a.264.264 0 0 1-.265.264H2.382a.264.264 0 0 1-.265-.265v-13.23c0-.145.118-.263.264-.263z" transform="translate(-.814 -179.899) scale(3.84589)"/><path style="fill:#fff;fill-opacity:.3;fill-rule:evenodd" d="M3.704 60.854v-1.06H2.91v-.263h.794v-1.06H2.91v-.263h.794v-1.06H2.91v-.263h.794v-1.06H2.91v-.263h.794v-1.058H2.91v-.265h.794V53.18H2.91v-.265h.794v-1.058H2.91v-.265h.794v-1.057H2.91v-.265h.794v-1.06H2.91v-.265h.794v-.793h.265v.793h9.79v.265h-9.79v1.058h9.79v.265h-9.79v1.058h9.79v.265h-9.79v1.059h9.79v.265h-9.79v1.058h9.79v.265h-9.79v1.058h9.79v.264h-9.79v1.059h9.79v.264h-9.79v1.059h9.79v.264h-9.79v1.059h9.79v.264h-9.79v1.059h9.79v.264h-9.79v.794h-.265v-.794H2.91v-.264z" transform="translate(-.814 -179.899) scale(3.84589)"/><path style="fill:#aa55b9;fill-rule:evenodd;stroke:#aa55b9;stroke-width:.52899998;paint-order:stroke markers fill" d="M12.17 57.095c0 .388-.08.697-.24.928-.16.23-.407.38-.74.45v-.42a.463.463 0 0 0 .246-.334h-.245v-1.146h.98zm-1.309 0c0 .388-.08.697-.24.928-.161.23-.408.38-.74.45v-.42a.537.537 0 0 0 .177-.137.422.422 0 0 0 .068-.197h-.245v-1.146h.98zm-6.099-5.51v-1.05h1.984v2.309H6.25a.933.933 0 0 0 .496.672v.844c-.672-.138-1.171-.44-1.496-.905-.325-.465-.488-1.088-.488-1.868zm2.651 0v-1.05h1.984v2.309H8.9a.848.848 0 0 0 .137.396c.068.092.188.184.359.276v.844c-.673-.138-1.172-.44-1.497-.905-.325-.465-.487-1.088-.487-1.868z" transform="translate(-.814 -179.899) scale(3.84589)"/><path style="fill:#fff;fill-rule:evenodd;paint-order:stroke markers fill" d="M12.17 57.095c0 .388-.08.697-.24.928-.16.23-.407.38-.74.45v-.42a.463.463 0 0 0 .246-.334h-.245v-1.146h.98zm-1.309 0c0 .388-.08.697-.24.928-.161.23-.408.38-.74.45v-.42a.537.537 0 0 0 .177-.137.422.422 0 0 0 .068-.197h-.245v-1.146h.98zm-6.099-5.51v-1.05h1.984v2.309H6.25a.933.933 0 0 0 .496.672v.844c-.672-.138-1.171-.44-1.496-.905-.325-.465-.488-1.088-.488-1.868zm2.651 0v-1.05h1.984v2.309H8.9a.848.848 0 0 0 .137.396c.068.092.188.184.359.276v.844c-.673-.138-1.172-.44-1.497-.905-.325-.465-.487-1.088-.487-1.868z" transform="translate(-.814 -179.899) scale(3.84589)"/></svg>