<svg xmlns="http://www.w3.org/2000/svg" xml:space="preserve" width="240" height="240"><path d="M431.666 239.934c0-8.284-6.717-15-15-15-8.285 0-15 6.716-15 15 0 80.32-65.346 145.666-145.666 145.666s-145.666-65.346-145.666-145.666c0-8.284-6.717-15-15-15-8.285 0-15 6.716-15 15 0 91.809 70.799 167.383 160.666 175.02V482h-33.199c-8.285 0-15 6.716-15 15 0 8.284 6.715 15 15 15h96.4c8.283 0 15-6.716 15-15 0-8.284-6.717-15-15-15H271v-67.047c89.867-7.637 160.666-83.211 160.666-175.019z" data-original="#000000" class="active-path" data-old_color="#000000" style="fill:#fff" transform="translate(20 20) scale(.39063)"/><path d="M256 0c-43.707 0-79.266 35.559-79.266 79.266v160.668c0 43.707 35.559 79.265 79.266 79.265 43.709 0 79.268-35.559 79.268-79.266V79.266C335.268 35.559 299.709 0 256 0z" data-original="#000000" class="active-path" data-old_color="#000000" style="fill:#fff" transform="translate(20 20) scale(.39063)"/></svg>