<svg xmlns="http://www.w3.org/2000/svg" width="240mm" height="240mm" viewBox="0 0 240 240"><path style="fill:#fff;fill-opacity:1;fill-rule:evenodd;stroke-width:.97626179" d="M453.543 75.59A377.953 377.953 0 0 0 75.59 453.543a377.953 377.953 0 0 0 377.953 377.953 377.953 377.953 0 0 0 377.953-377.953A377.953 377.953 0 0 0 453.543 75.59zm0 103.937c150.887 0 274.016 123.129 274.016 274.016S604.43 727.559 453.543 727.559 179.527 604.43 179.527 453.543s123.129-274.016 274.016-274.016zm0 75.59c-110.035 0-198.426 88.391-198.426 198.426 0 110.035 88.391 198.426 198.426 198.426 110.035 0 198.426-88.391 198.426-198.426 0-110.035-88.391-198.426-198.426-198.426z" transform="scale(.26458)"/></svg>