<svg xmlns="http://www.w3.org/2000/svg" viewBox="0 0 426.667 426.667" style="enable-background:new 0 0 426.667 426.667" xml:space="preserve" width="512" height="512"><path style="fill:#000" data-old_color="#000000" class="active-path" data-original="#000000" d="M213.333 0C95.513 0 0 95.513 0 213.333s95.513 213.333 213.333 213.333 213.333-95.513 213.333-213.333S331.154 0 213.333 0zm0 387.413c-96.142 0-174.08-77.938-174.08-174.08 0-96.142 77.938-174.08 174.08-174.08 96.093.118 173.962 77.987 174.08 174.08 0 96.142-77.938 174.08-174.08 174.08z"/><circle style="fill:#ee4f84;fill-opacity:1" data-old_color="#000000" class="active-path" data-original="#000000" r="64" cy="213.333" cx="213.333"/><path style="fill:#ee4f84;fill-opacity:1" data-old_color="#000000" class="active-path" data-original="#000000" d="M213.333 128C166.205 128 128 166.205 128 213.333s38.205 85.333 85.333 85.333 85.333-38.205 85.333-85.333S260.462 128 213.333 128zm0 128c-23.564 0-42.667-19.103-42.667-42.667s19.103-42.667 42.667-42.667S256 189.769 256 213.333 236.897 256 213.333 256z"/></svg>