<svg xmlns="http://www.w3.org/2000/svg" width="240mm" height="240mm" viewBox="0 0 240 240"><path style="fill:#fff;fill-opacity:1;fill-rule:evenodd;stroke-width:.2583026" d="M120 77A100 100 0 0 0 20 177a100 100 0 0 0 100 100 100 100 0 0 0 100-100A100 100 0 0 0 120 77zm0 25c41.273 0 75 33.727 75 75s-33.727 75-75 75-75-33.727-75-75 33.727-75 75-75z" transform="translate(0 -57)"/><path style="fill:#53e2ae;fill-opacity:1;fill-rule:evenodd;stroke-width:.2583026" d="M120 127c-27.762 0-50 22.238-50 50s22.238 50 50 50 50-22.238 50-50-22.238-50-50-50z" transform="translate(0 -57)"/></svg>