<svg xmlns="http://www.w3.org/2000/svg" width="240mm" height="240mm" viewBox="0 0 240 240"><path transform="scale(.26458)" d="M453.543 75.59A377.953 377.953 0 0 0 75.59 453.543a377.953 377.953 0 0 0 377.953 377.953 377.953 377.953 0 0 0 377.953-377.953A377.953 377.953 0 0 0 453.543 75.59zm0 94.488c155.994 0 283.465 127.471 283.465 283.465 0 155.994-127.471 283.465-283.465 283.465-155.994 0-283.465-127.471-283.465-283.465 0-155.994 127.471-283.465 283.465-283.465z" style="fill:#fff;fill-opacity:1;fill-rule:evenodd;stroke-width:.97626179"/><path d="M120 127c-27.762 0-50 22.238-50 50s22.238 50 50 50 50-22.238 50-50-22.238-50-50-50z" style="fill:#ee4f84;fill-opacity:1;fill-rule:evenodd;stroke-width:.2583026" transform="translate(0 -57)"/></svg>