<svg xmlns="http://www.w3.org/2000/svg" width="240" height="240"><path d="M194.275 129.75c.4-3.2.7-6.45.7-9.75s-.3-6.55-.7-9.75l21.15-16.55c1.9-1.5 2.45-4.2 1.2-6.4l-20-34.65c-1.25-2.15-3.85-3.05-6.1-2.15l-24.9 10.05c-5.15-3.95-10.8-7.3-16.9-9.85l-3.75-26.5c-.45-2.35-2.5-4.2-5-4.2h-40c-2.5 0-4.55 1.85-4.95 4.2l-3.75 26.5a74 74 0 0 0-16.9 9.85l-24.9-10.05c-2.25-.85-4.85 0-6.1 2.15l-20 34.65c-1.25 2.15-.7 4.85 1.2 6.4l21.1 16.55c-.4 3.2-.7 6.45-.7 9.75s.3 6.55.7 9.75l-21.1 16.55c-1.9 1.5-2.45 4.2-1.2 6.4l20 34.65c1.25 2.15 3.85 3.05 6.1 2.15l24.9-10.05c5.15 3.95 10.8 7.3 16.9 9.85l3.75 26.5c.4 2.35 2.45 4.2 4.95 4.2h40c2.5 0 4.55-1.85 4.95-4.2l3.75-26.5a74 74 0 0 0 16.9-9.85l24.9 10.05c2.25.85 4.85 0 6.1-2.15l20-34.65c1.25-2.15.7-4.85-1.2-6.4zm-74.3 25.25c-19.35 0-35-15.65-35-35s15.65-35 35-35 35 15.65 35 35-15.65 35-35 35z" style="stroke-width:5;fill:#fff;fill-opacity:1"/></svg>