<svg xmlns="http://www.w3.org/2000/svg" viewBox="0 0 426.667 426.667" style="enable-background:new 0 0 426.667 426.667" xml:space="preserve" width="512" height="512"><path d="M213.333 0C95.513 0 0 95.513 0 213.333s95.513 213.333 213.333 213.333 213.333-95.513 213.333-213.333S331.154 0 213.333 0zm0 387.413c-96.142 0-174.08-77.938-174.08-174.08s77.938-174.08 174.08-174.08c96.093.118 173.962 77.987 174.08 174.08 0 96.142-77.938 174.08-174.08 174.08z" data-original="#000000" class="active-path" data-old_color="#000000" fill="#FFF"/><circle cx="213.333" cy="213.333" r="64" data-original="#000000" class="active-path" data-old_color="#000000" fill="#FFF"/><path d="M213.333 128C166.205 128 128 166.205 128 213.333s38.205 85.333 85.333 85.333 85.333-38.205 85.333-85.333S260.462 128 213.333 128zm0 128c-23.564 0-42.667-19.103-42.667-42.667s19.103-42.667 42.667-42.667S256 189.769 256 213.333 236.897 256 213.333 256z" data-original="#000000" class="active-path" data-old_color="#000000" fill="#FFF"/></svg>