<svg height="512pt" viewBox="-17 0 511 512" width="512pt" xmlns="http://www.w3.org/2000/svg"><path d="M227.148 446.129c0 35.34-27.968 64.27-62.937 65.8-.973.051-1.95.071-2.93.071-36.332 0-65.883-29.55-65.883-65.871zm0 0" fill="#ff9a00"/><path d="M227.148 446.129c0 35.34-27.968 64.27-62.937 65.8v-65.8zm0 0" fill="#e67500"/><path d="M372.617 150.86H288.29l42.715-76.325h-35.387v-30h86.555l-42.715 76.324h33.16zM468.285 90.816h-76.43L425.891 30h-22.274V0h73.442l-34.036 60.816h25.262zm0 0" fill="#6d76e7"/><path d="m327.91 450.922-163.7.238-163.589.238-.11-72.949-.011-7.168 2.34-3.68c.11-.18 4.5-7.23 10.172-19.152 9.238-19.379 21.879-51.64 25.008-88.078 7.058-82.152 52.902-129.32 125.77-129.43h.42c38.74.04 69.642 13.188 91.868 39.079 18.871 22 30.582 53.109 33.863 89.968 3.27 36.711 16.168 69.14 25.48 88.461 5.61 11.63 9.919 18.512 10.028 18.68l2.332 3.672.008 4.36.012 3.288zm0 0" fill="#ffdb2d"/><path d="m327.91 450.922-163.7.238V130.941c38.74.04 69.642 13.188 91.868 39.079 18.871 22 30.582 53.109 33.863 89.968 3.27 36.711 16.168 69.14 25.48 88.461 5.61 11.63 9.919 18.512 10.028 18.68l2.332 3.672.008 4.36.012 3.288zm0 0" fill="#ffaa20"/><path d="M327.8 378.45H.513L.5 371.28l2.34-3.68c.11-.18 4.5-7.23 10.172-19.152h302.41c5.61 11.63 9.918 18.512 10.027 18.68l2.332 3.672.008 4.36zm0 0" fill="#fff5cb"/><path d="M327.8 378.45H164.21v-30h151.212c5.61 11.628 9.918 18.51 10.027 18.679l2.332 3.672.008 4.36zm0 0" fill="#ffdba9"/></svg>