<svg style="clip-rule:evenodd;fill-rule:evenodd;stroke-linejoin:round;stroke-miterlimit:2" viewBox="0 0 48 48" xmlns="http://www.w3.org/2000/svg"><path d="m17.387 45.391 3.91-5.484H38.75s4.968.082 4.968-7.006V10.609c-.313-4.851-4.714-5.223-4.714-5.223H9.706s-5.424.318-5.502 5.605v21.91c.009 6.902 5.502 7.006 5.502 7.006h2.578l3.523 5.463c.767.894.778.777 1.58.021z" style="fill-opacity:.67"/><path d="m17.387 44.002 3.91-5.484H38.75s4.968.081 4.968-7.006V9.219c-.313-4.851-4.714-5.223-4.714-5.223H9.706s-5.424.318-5.502 5.606v21.91c.009 6.902 5.502 7.006 5.502 7.006h2.578l3.523 5.462c.767.895.778.778 1.58.022z" style="fill:url(#a)"/><circle cx="32.84" cy="6.821" r="5.728" style="fill:url(#b)"/><defs><linearGradient id="a" x2="1" gradientTransform="rotate(-88.844 276.38 -227.378) scale(39.61296)" gradientUnits="userSpaceOnUse"><stop style="stop-color:#888" offset="0"/><stop style="stop-color:#fefeff" offset="1"/></linearGradient><linearGradient id="b" x2="1" gradientTransform="rotate(-90 50.06 -37.51) scale(11.4556)" gradientUnits="userSpaceOnUse"><stop style="stop-color:#05f" offset="0"/><stop style="stop-color:#00a0ff" offset="1"/></linearGradient></defs></svg>