<svg xmlns="http://www.w3.org/2000/svg" width="240" height="240" viewBox="0 0 63.499 63.499"><defs><linearGradient id="a" x1="-197.1" x2="-196.91" y1="217.68" y2="219.37" gradientTransform="rotate(-45 -338.07 -140.03)" gradientUnits="userSpaceOnUse"><stop offset="0"/><stop stop-opacity="0" offset="1"/></linearGradient></defs><g transform="translate(3.528 -930.393) scale(3.33306)"><path d="M3.44 282.448c-.294 0-.395.269-.53.53h-.793a.528.528 0 0 0-.53.528v5.292c0 .293.237.53.53.53h12.7a.529.529 0 0 0 .529-.53v-5.292a.528.528 0 0 0-.53-.529H7.674c-.155-.249-.236-.53-.53-.53z" style="fill:#5294e2;paint-order:markers stroke fill"/><path d="M3.44 282.448c-.294 0-.395.269-.53.53h-.793a.528.528 0 0 0-.53.528v5.292c0 .293.237.53.53.53h12.7a.529.529 0 0 0 .529-.53v-5.292a.528.528 0 0 0-.53-.529H7.674c-.155-.249-.236-.53-.53-.53z" style="opacity:.18000004;paint-order:markers stroke fill"/><rect ry=".265" height="5.027" width="12.171" y="283.77" x="2.381" style="fill:#000;paint-order:markers stroke fill"/><rect ry=".529" height="9.525" width="15.875" y="285.36" x=".529" style="fill:#5294e2;paint-order:markers stroke fill"/><path d="M8.467 284.3h7.408c.293 0 .53.236.53.53v3.968a.529.529 0 0 1-.53.529H6.152c-.294 0-.677-.276-.53-.53l2.316-3.968c.147-.253.236-.529.529-.529z" style="fill:#5294e2;paint-order:markers stroke fill"/><rect ry=".265" height=".529" width="3.175" y="282.71" x="3.704" style="opacity:.25;paint-order:stroke markers fill"/><path d="M6.615 287.74a.264.264 0 0 0-.265.264v4.233c0 .147.118.265.265.265h2.38l1.588-1.587v-2.91a.264.264 0 0 0-.264-.265zm.264.529h.85v.989h-.212a.4.4 0 0 0 .212.288v.361c-.288-.059-.502-.188-.641-.387-.14-.2-.209-.467-.209-.801zm1.136 0h.85v.989h-.212c.01.074.029.13.058.17.03.04.08.078.154.118v.361c-.288-.059-.502-.188-.641-.387-.14-.2-.209-.467-.209-.801z" style="fill:#000;paint-order:stroke markers fill"/></g><path style="opacity:.1;fill:url(#a);paint-order:stroke markers fill" d="m16.404 11.641-3.174 3.175h2.645a.527.527 0 0 0 .529-.529z" transform="translate(3.528 3.097) scale(3.33306)"/></svg>