<svg xmlns="http://www.w3.org/2000/svg" width="240" height="240"><rect style="opacity:1;fill:#e6e6e6;fill-opacity:1;stroke:#fff;stroke-width:0;stroke-miterlimit:4;stroke-dasharray:none;stroke-opacity:1" width="200" height="200" x="20" y="20" ry="29.698"/><path style="color:#aaa;fill:#ee4f84;fill-opacity:1;stroke-width:15.6059494" d="M166.848 57.5a15.606 15.606 0 0 0-11.034 4.572L120.03 97.856 84.4 62.224a15.606 15.606 0 0 0-.153-.152 15.606 15.606 0 0 0-10.942-4.512l-.152.214A15.606 15.606 0 0 0 57.546 73.38a15.606 15.606 0 0 0 4.572 11.034l35.784 35.784-35.784 35.784a15.606 15.606 0 0 0-4.511 10.912A15.606 15.606 0 0 0 73.213 182.5a15.606 15.606 0 0 0 11.034-4.572l35.783-35.784 35.632 35.632a15.606 15.606 0 0 0 11.186 4.724 15.606 15.606 0 0 0 15.606-15.606 15.606 15.606 0 0 0-4.572-11.034l-35.906-35.875 35.632-35.632a15.606 15.606 0 0 0 4.846-11.247A15.606 15.606 0 0 0 166.848 57.5z"/></svg>