<svg xmlns="http://www.w3.org/2000/svg" width="240" height="240" viewBox="0 0 63.499 63.499"><defs><linearGradient id="a" x1="-197.1" x2="-196.91" y1="217.68" y2="219.37" gradientTransform="rotate(-45 -1112.945 -459.242) scale(3.33306)" gradientUnits="userSpaceOnUse"><stop offset="0"/><stop stop-opacity="0" offset="1"/></linearGradient></defs><g transform="translate(3.528 -930.396) scale(3.33306)"><path style="fill:#5294e2;paint-order:markers stroke fill" d="M3.44 282.448c-.294 0-.395.269-.53.53h-.793a.528.528 0 0 0-.53.528v5.292c0 .293.237.53.53.53h12.7a.529.529 0 0 0 .529-.53v-5.292a.528.528 0 0 0-.53-.529H7.674c-.155-.249-.236-.53-.53-.53z"/><path style="opacity:.18000004;paint-order:markers stroke fill" d="M3.44 282.448c-.294 0-.395.269-.53.53h-.793a.528.528 0 0 0-.53.528v5.292c0 .293.237.53.53.53h12.7a.529.529 0 0 0 .529-.53v-5.292a.528.528 0 0 0-.53-.529H7.674c-.155-.249-.236-.53-.53-.53z"/><path style="fill:#000;stroke:#000;stroke-width:.26458001;stroke-opacity:.03900003;paint-order:stroke markers fill" d="m8.467 283.506-2.382 2.381h1.323v2.382c0 .146.118.264.265.264H9.26a.264.264 0 0 0 .265-.264v-2.382h1.323l-2.381-2.38z"/><rect style="fill:#5294e2;paint-order:markers stroke fill" ry=".529" height="7.408" width="15.875" y="287.48" x=".529"/><path style="fill:#5294e2;paint-order:markers stroke fill" d="M8.467 286.681h7.408c.293 0 .53.236.53.53v3.968a.53.53 0 0 1-.53.53H6.152c-.294 0-.677-.277-.53-.53l2.316-3.969c.147-.253.236-.529.529-.529z"/></g><path style="opacity:.1;fill:url(#a);stroke-width:3.33305764;paint-order:stroke markers fill" d="m53.441 50.795-10.58 10.582h8.818c.977 0 1.762-.785 1.762-1.762z" transform="translate(4.763 -8.901)"/></svg>