<svg xmlns="http://www.w3.org/2000/svg" width="240" height="240" viewBox="0 0 63.499 63.499"><defs><linearGradient id="a" x1="-197.1" x2="-196.91" y1="217.68" y2="219.37" gradientTransform="rotate(-45 -281.86 -116.747)" gradientUnits="userSpaceOnUse"><stop offset="0"/><stop stop-opacity="0" offset="1"/></linearGradient></defs><g transform="translate(3.528 -930.393) scale(3.33306)"><path style="fill:#5294e2;paint-order:markers stroke fill" d="M3.44 282.448c-.294 0-.395.269-.53.53h-.793a.528.528 0 0 0-.53.528v5.292c0 .293.237.53.53.53h12.7a.529.529 0 0 0 .529-.53v-5.292a.528.528 0 0 0-.53-.529H7.674c-.155-.249-.236-.53-.53-.53z"/><path style="opacity:.18000004;paint-order:markers stroke fill" d="M3.44 282.448c-.294 0-.395.269-.53.53h-.793a.528.528 0 0 0-.53.528v5.292c0 .293.237.53.53.53h12.7a.529.529 0 0 0 .529-.53v-5.292a.528.528 0 0 0-.53-.529H7.674c-.155-.249-.236-.53-.53-.53z"/><rect style="fill:#000;paint-order:markers stroke fill" ry=".265" height="5.027" width="12.171" y="283.77" x="2.381"/><rect style="fill:#5294e2;paint-order:markers stroke fill" ry=".529" height="9.525" width="15.875" y="285.36" x=".529"/><path style="fill:#5294e2;paint-order:markers stroke fill" d="M8.467 284.3h7.408c.293 0 .53.236.53.53v3.968a.529.529 0 0 1-.53.529H6.152c-.294 0-.677-.276-.53-.53l2.316-3.968c.147-.253.236-.529.529-.529z"/><rect style="opacity:.25;paint-order:stroke markers fill" ry=".265" height=".529" width="3.175" y="282.71" x="3.704"/><path style="fill:#000;paint-order:stroke markers fill" d="m8.467 288.004-2.117 2.117h.794v1.587c0 .147.118.265.264.265h.53v-1.058h1.058v1.058h.529a.264.264 0 0 0 .265-.265v-1.587h.793zm0 1.323a.53.53 0 1 1 0 1.058.53.53 0 0 1 0-1.058z"/></g><path style="opacity:.1;fill:url(#a);paint-order:stroke markers fill" d="m16.404 58.207-3.174 3.175h2.645a.527.527 0 0 0 .529-.529z" transform="translate(3.528 -152.11) scale(3.33306)"/></svg>