<svg xmlns="http://www.w3.org/2000/svg" xmlns:xlink="http://www.w3.org/1999/xlink" width="240" height="240"><defs><linearGradient id="b"><stop offset="0"/><stop offset="1" stop-opacity="0"/></linearGradient><linearGradient id="d"><stop offset="0" stop-color="#fff"/><stop offset="1" stop-color="#aeaea3"/></linearGradient><linearGradient x1="22.009" y1="36.51" x2="23.585" y2="14.412" id="L" xlink:href="#a" gradientUnits="userSpaceOnUse" gradientTransform="matrix(-1 0 0 1 -164.713 28.24)"/><linearGradient id="a"><stop offset="0" stop-color="#babdb6"/><stop offset="1" stop-color="#fff"/></linearGradient><linearGradient x1="24.366" y1="20.246" x2="32.601" y2="28.555" id="M" xlink:href="#a" gradientUnits="userSpaceOnUse" gradientTransform="matrix(-1 0 0 1 -164.713 28.24)"/><linearGradient x1="25.633" y1="10.612" x2="38.714" y2="18.39" id="N" xlink:href="#b" gradientUnits="userSpaceOnUse" gradientTransform="matrix(-1 0 0 1 -164.713 28.24)"/><linearGradient x1="22.009" y1="36.51" x2="23.585" y2="14.412" id="l" xlink:href="#a" gradientUnits="userSpaceOnUse" gradientTransform="translate(116.969 34.748) scale(.50094)"/><linearGradient x1="24.366" y1="20.246" x2="32.601" y2="28.555" id="m" xlink:href="#a" gradientUnits="userSpaceOnUse" gradientTransform="translate(122.338 34.748) scale(.50094)"/><linearGradient x1="73.374" y1="82.789" x2="89.456" y2="82.789" id="n" xlink:href="#c" gradientUnits="userSpaceOnUse" gradientTransform="matrix(.51208 0 0 .49005 90.554 .024)"/><linearGradient id="c"><stop offset="0" stop-color="#555753"/><stop offset="1" stop-color="#d3d7cf" stop-opacity="0"/></linearGradient><linearGradient x1="22.009" y1="36.51" x2="23.585" y2="14.412" id="v" xlink:href="#a" gradientUnits="userSpaceOnUse" gradientTransform="matrix(-.50094 0 0 .50094 127.797 34.543)"/><linearGradient x1="24.366" y1="20.246" x2="32.601" y2="28.555" id="w" xlink:href="#a" gradientUnits="userSpaceOnUse" gradientTransform="matrix(-.50094 0 0 .50094 127.797 34.543)"/><linearGradient x1="25.633" y1="10.612" x2="38.714" y2="18.39" id="x" xlink:href="#b" gradientUnits="userSpaceOnUse" gradientTransform="matrix(-.50094 0 0 .50094 127.797 34.543)"/><linearGradient xlink:href="#a" id="g" gradientUnits="userSpaceOnUse" gradientTransform="matrix(-1 0 0 1 -164.713 28.24)" x1="22.009" y1="36.51" x2="23.585" y2="14.412"/><linearGradient xlink:href="#a" id="h" gradientUnits="userSpaceOnUse" gradientTransform="matrix(-1 0 0 1 -164.713 28.24)" x1="24.366" y1="20.246" x2="32.601" y2="28.555"/><linearGradient xlink:href="#b" id="i" gradientUnits="userSpaceOnUse" gradientTransform="matrix(-1 0 0 1 -164.713 28.24)" x1="25.633" y1="10.612" x2="38.714" y2="18.39"/><linearGradient xlink:href="#a" id="q" gradientUnits="userSpaceOnUse" gradientTransform="matrix(-1 0 0 1 -164.713 28.24)" x1="22.009" y1="36.51" x2="23.585" y2="14.412"/><linearGradient xlink:href="#a" id="r" gradientUnits="userSpaceOnUse" gradientTransform="matrix(-1 0 0 1 -164.713 28.24)" x1="24.366" y1="20.246" x2="32.601" y2="28.555"/><linearGradient xlink:href="#b" id="s" gradientUnits="userSpaceOnUse" gradientTransform="matrix(-1 0 0 1 -164.713 28.24)" x1="25.633" y1="10.612" x2="38.714" y2="18.39"/><linearGradient xlink:href="#a" id="z" gradientUnits="userSpaceOnUse" gradientTransform="matrix(-1 0 0 1 -164.713 28.24)" x1="22.009" y1="36.51" x2="23.585" y2="14.412"/><linearGradient xlink:href="#a" id="A" gradientUnits="userSpaceOnUse" gradientTransform="matrix(-1 0 0 1 -164.713 28.24)" x1="24.366" y1="20.246" x2="32.601" y2="28.555"/><linearGradient xlink:href="#b" id="B" gradientUnits="userSpaceOnUse" gradientTransform="matrix(-1 0 0 1 -164.713 28.24)" x1="25.633" y1="10.612" x2="38.714" y2="18.39"/><linearGradient xlink:href="#a" id="D" gradientUnits="userSpaceOnUse" gradientTransform="matrix(-1 0 0 1 -164.713 28.24)" x1="22.009" y1="36.51" x2="23.585" y2="14.412"/><linearGradient xlink:href="#a" id="E" gradientUnits="userSpaceOnUse" gradientTransform="matrix(-1 0 0 1 -164.713 28.24)" x1="24.366" y1="20.246" x2="32.601" y2="28.555"/><linearGradient xlink:href="#b" id="F" gradientUnits="userSpaceOnUse" gradientTransform="matrix(-1 0 0 1 -164.713 28.24)" x1="25.633" y1="10.612" x2="38.714" y2="18.39"/><linearGradient xlink:href="#a" id="H" gradientUnits="userSpaceOnUse" gradientTransform="matrix(-1 0 0 1 -164.713 28.24)" x1="22.009" y1="36.51" x2="23.585" y2="14.412"/><linearGradient xlink:href="#a" id="I" gradientUnits="userSpaceOnUse" gradientTransform="matrix(-1 0 0 1 -164.713 28.24)" x1="24.366" y1="20.246" x2="32.601" y2="28.555"/><linearGradient xlink:href="#b" id="J" gradientUnits="userSpaceOnUse" gradientTransform="matrix(-1 0 0 1 -164.713 28.24)" x1="25.633" y1="10.612" x2="38.714" y2="18.39"/><radialGradient cx="23.688" cy="14.211" r="22.597" fx="23.688" fy="14.211" id="f" xlink:href="#d" gradientUnits="userSpaceOnUse" gradientTransform="matrix(-2.13567 0 0 2.1106 -137.811 12.57)"/><radialGradient cx="24.837" cy="40.664" r="21.478" fx="24.837" fy="40.664" id="j" xlink:href="#b" gradientUnits="userSpaceOnUse" gradientTransform="matrix(1 0 0 .3251 0 27.444)"/><radialGradient cx="23.688" cy="14.211" r="22.597" fx="23.688" fy="14.211" id="k" xlink:href="#d" gradientUnits="userSpaceOnUse" gradientTransform="matrix(1.79463 0 0 1.29198 86.35 19.966)"/><radialGradient cx="24.837" cy="40.664" r="21.478" fx="24.837" fy="40.664" id="o" xlink:href="#b" gradientUnits="userSpaceOnUse" gradientTransform="matrix(1 0 0 .3251 0 27.444)"/><radialGradient cx="23.688" cy="14.211" r="22.597" fx="23.688" fy="14.211" id="p" xlink:href="#d" gradientUnits="userSpaceOnUse" gradientTransform="matrix(-2.13567 0 0 2.1106 -137.811 12.57)"/><radialGradient cx="24.837" cy="40.664" r="21.478" fx="24.837" fy="40.664" id="t" xlink:href="#b" gradientUnits="userSpaceOnUse" gradientTransform="matrix(1 0 0 .3251 0 27.444)"/><radialGradient cx="23.688" cy="14.211" r="22.597" fx="23.688" fy="14.211" id="u" xlink:href="#d" gradientUnits="userSpaceOnUse" gradientTransform="matrix(-1.06985 0 0 1.0573 141.274 26.694)"/><radialGradient cx="23.688" cy="14.211" r="22.597" fx="23.688" fy="14.211" id="y" xlink:href="#d" gradientUnits="userSpaceOnUse" gradientTransform="matrix(-2.13567 0 0 2.1106 -137.811 12.57)"/><radialGradient cx="23.688" cy="14.211" r="22.597" fx="23.688" fy="14.211" id="C" xlink:href="#d" gradientUnits="userSpaceOnUse" gradientTransform="matrix(-2.13567 0 0 2.1106 -137.811 12.57)"/><radialGradient cx="23.688" cy="14.211" r="22.597" fx="23.688" fy="14.211" id="G" xlink:href="#d" gradientUnits="userSpaceOnUse" gradientTransform="matrix(-2.13567 0 0 2.1106 -137.811 12.57)"/><radialGradient cx="23.688" cy="14.211" r="22.597" fx="23.688" fy="14.211" id="K" xlink:href="#d" gradientUnits="userSpaceOnUse" gradientTransform="matrix(-2.13567 0 0 2.1106 -137.811 12.57)"/><filter id="e" x="-.012" width="1.024" y="-.012" height="1.024" style="color-interpolation-filters:sRGB"><feGaussianBlur stdDeviation=".244"/></filter></defs><path style="fill:#fff;stroke:#000;stroke-opacity:.03900003;paint-order:markers stroke fill;enable-background:new" d="m53.828 232.682 2.728-51.842H7.444l2.728 51.84c.08 1.51 1.217 2.73 2.729 2.73h38.198a2.722 2.722 0 0 0 2.729-2.73z" transform="translate(4.83 -629.055) scale(3.59906)"/><g style="color:#000;opacity:.25;fill-rule:evenodd;filter:url(#e)" transform="translate(-220.81 49.422) scale(2.68155)"><path transform="matrix(-.50094 0 0 .50094 18.809 -1.829)" overflow="visible" d="m-173.729 65.81 1.768 2.828-3.712 1.591-2.652-2.121-11.844.884-3.712 4.95-3.359-5.48-4.243 2.297-5.656-.707 1.414-3.005-3.89-3.889 5.48-6.187-5.303.707-2.298-2.121 3.006.53 3.182-5.48 4.596-1.06-3.713-1.238-.176-3.182 7.248-6.364 2.651-8.485 12.021 3.535 3.005 7.071 1.06-2.298 3.006.177v2.828l3.536-4.066 4.773 5.127V49.9l-8.309 7.248 5.303 3.005-.176 3.005z" style="overflow:visible;fill:url(#f);stroke:url(#m);marker:none"/><path transform="matrix(-.50094 0 0 .50094 18.809 -1.829)" overflow="visible" d="m-184.158 50.96.883 6.541-2.12 3.359 4.595 1.414 2.652 5.303-12.02.884-2.83 4.066-2.297-6.187 4.419-2.828 6.718 1.944-2.652-3.535 1.414-6.188z" style="overflow:visible;opacity:.76999996;fill:url(#g);marker:none"/><path transform="matrix(-.50094 0 0 .50094 18.809 -1.829)" overflow="visible" d="m-185.22 52.021-4.419 6.894-7.247-4.95-4.42 2.475-3.535-3.005-3.182 2.829 3.005-4.95 6.894-1.591 8.662-4.243s12.375 3.713 11.667 3.713c-.707 0-10.253.176-10.253.176l-1.59-2.298-4.243 1.945z" style="overflow:visible;opacity:.61799999;fill:url(#h);marker:none"/><path overflow="visible" d="m116.11 14.047-5.225 1.771-.709 1.948 3.01 2.126 2.835-2.745z" style="overflow:visible;fill:#fff;marker:none"/><path transform="matrix(-.50094 0 0 .50094 18.809 -1.829)" overflow="visible" d="m-194.412 32.045-2.298 7.425-4.242 3.712 8.662-1.944s2.475 2.828 1.414 2.828c-1.06 0-12.551 1.414-12.551 1.414l.177 2.298 16.263-3.005-7.071-6.54z" style="overflow:visible;opacity:.13500001;fill:url(#i);marker:none"/><path overflow="visible" d="m105.04 19.449-.443 4.428.974-3.011 2.568.797.62-1.328 3.1.442.708-.62-4.516-.177-.443 1.24-1.948-.974zm7.527 6.553 1.505 1.771 3.454-2.302 2.125 1.151 3.454 3.277-3.808-2.923-1.86-.531-3.63 2.48z" style="overflow:visible;fill:#fff;marker:none"/><path overflow="visible" d="M46.315 40.664a21.478 6.983 0 1 1-42.956 0 21.478 6.983 0 1 1 42.956 0z" transform="translate(115.284 32.037) scale(.55454)" style="overflow:visible;opacity:.3260002;fill:url(#j);marker:none"/><path overflow="visible" d="m116.532 52.556-1.486 1.731 3.12.974 2.228-1.299 9.953.541 3.12 3.03 2.821-3.354 3.566 1.407 4.753-.433-1.188-1.84 3.268-2.38-4.605-3.788 4.456.433 1.931-1.299-2.525.325-2.674-3.355-3.862-.649 3.12-.757.148-1.948-6.09-3.896-2.229-5.194-10.1 2.164-2.526 4.329-.892-1.407-2.525.108v1.732l-2.97-2.49-4.012 3.139v4.437l6.982 4.436-4.456 1.84.148 1.84z" style="overflow:visible;fill:url(#k);stroke:url(#s);stroke-width:.71700001;marker:none"/><path overflow="visible" d="m126.71 46.13-.443 3.276 1.063 1.682-2.303.709-1.328 2.657 6.022.442 1.417 2.037 1.151-3.1-2.214-1.416-3.365.974 1.328-1.771-.708-3.1z" style="overflow:visible;opacity:.76999996;fill:url(#l);marker:none"/><path overflow="visible" d="m132.61 46.66 2.214 3.454 3.63-2.48 2.214 1.24 1.772-1.505 1.594 1.417-1.506-2.48-3.454-.796-4.339-2.126s-6.199 1.86-5.844 1.86c.354 0 5.136.088 5.136.088l.797-1.15 2.125.973-4.339 1.506z" style="overflow:visible;opacity:.61799999;fill:url(#m);marker:none"/><path overflow="visible" d="m131.758 36.477-5.225 1.771-.709 1.948 3.011 2.126 2.834-2.746.089-3.1z" style="overflow:visible;fill:#fff;marker:none"/><path overflow="visible" d="m131.846 36.654 1.151 3.72 2.126 1.859-4.34-.974s-1.24 1.417-.708 1.417c.531 0 6.287.708 6.287.708l-.088 1.151-8.147-1.505 3.542-3.277z" style="overflow:visible;opacity:.13500001;fill:url(#n);marker:none"/><path overflow="visible" d="m120.688 41.879-.442 4.428.974-3.011 2.568.797.62-1.329 3.099.443.708-.62-4.516-.177-.443 1.24-1.948-.974zm12.896 6.553 1.506 1.77 3.453-2.301 2.125 1.15 3.454 3.277-3.808-2.922-1.86-.531-3.63 2.48z" style="overflow:visible;fill:#fff;marker:none"/><path overflow="visible" d="M46.315 40.664a21.478 6.983 0 1 1-42.956 0 21.478 6.983 0 1 1 42.956 0z" transform="matrix(-.55454 0 0 .55454 134.443 32.718)" style="overflow:visible;opacity:.3260002;fill:url(#o);marker:none"/><path transform="matrix(-.50094 0 0 .50094 18.542 6.402)" overflow="visible" d="m-173.729 65.81 1.768 2.828-3.712 1.591-2.652-2.121-11.844.884-3.712 4.95-3.359-5.48-4.243 2.297-5.656-.707 1.414-3.005-3.89-3.889 5.48-6.187-5.303.707-2.298-2.121 3.006.53 3.182-5.48 4.596-1.06-3.713-1.238-.176-3.182 7.248-6.364 2.651-8.485 12.021 3.535 3.005 7.071 1.06-2.298 3.006.177v2.828l3.536-4.066 4.773 5.127V49.9l-8.309 7.248 5.303 3.005-.176 3.005z" style="overflow:visible;fill:url(#p);stroke:url(#y);marker:none"/><path transform="matrix(-.50094 0 0 .50094 18.542 6.402)" overflow="visible" d="m-184.158 50.96.883 6.541-2.12 3.359 4.595 1.414 2.652 5.303-12.02.884-2.83 4.066-2.297-6.187 4.419-2.828 6.718 1.944-2.652-3.535 1.414-6.188z" style="overflow:visible;opacity:.76999996;fill:url(#q);marker:none"/><path transform="matrix(-.50094 0 0 .50094 18.542 6.402)" overflow="visible" d="m-185.22 52.021-4.419 6.894-7.247-4.95-4.42 2.475-3.535-3.005-3.182 2.829 3.005-4.95 6.894-1.591 8.662-4.243s12.375 3.713 11.667 3.713c-.707 0-10.253.176-10.253.176l-1.59-2.298-4.243 1.945z" style="overflow:visible;opacity:.61799999;fill:url(#r);marker:none"/><path overflow="visible" d="m115.842 22.277-5.225 1.771-.708 1.949 3.01 2.125 2.835-2.745z" style="overflow:visible;fill:#fff;marker:none"/><path transform="matrix(-.50094 0 0 .50094 18.542 6.402)" overflow="visible" d="m-194.412 32.045-2.298 7.425-4.242 3.712 8.662-1.944s2.475 2.828 1.414 2.828c-1.06 0-12.551 1.414-12.551 1.414l.177 2.298 16.263-3.005-7.071-6.54z" style="overflow:visible;opacity:.13500001;fill:url(#s);marker:none"/><path overflow="visible" d="m104.773 27.68-.443 4.427.974-3.011 2.568.797.62-1.328 3.1.442.708-.62-4.516-.177-.443 1.24-1.948-.974zm7.527 6.552 1.505 1.771 3.454-2.302 2.125 1.151 3.454 3.277-3.808-2.923-1.86-.531-3.63 2.48z" style="overflow:visible;fill:#fff;marker:none"/><path overflow="visible" d="M46.315 40.664a21.478 6.983 0 1 1-42.956 0 21.478 6.983 0 1 1 42.956 0z" transform="matrix(-.55454 0 0 .55454 129.483 31.832)" style="overflow:visible;opacity:.3260002;fill:url(#t);marker:none"/><path overflow="visible" d="m123.281 53.363.886 1.417-1.86.797-1.328-1.062-5.933.442-1.86 2.48-1.683-2.745-2.125 1.151-2.834-.354.709-1.506-1.948-1.948 2.745-3.1-2.657.355-1.151-1.063 1.505.266 1.594-2.745 2.303-.532-1.86-.62-.089-1.593 3.631-3.188 1.329-4.251 6.021 1.771 1.506 3.542.531-1.151 1.505.089v1.416l1.772-2.036 2.39 2.568v3.63l-4.162 3.631 2.657 1.506-.088 1.505z" style="overflow:visible;fill:url(#u);stroke:url(#E);stroke-width:.50099999;marker:none"/><path overflow="visible" d="m118.056 45.925.443 3.276-1.062 1.683 2.302.708 1.328 2.657-6.021.443-1.417 2.037-1.152-3.1 2.214-1.417 3.365.974-1.328-1.77.709-3.1z" style="overflow:visible;opacity:.76999996;fill:url(#v);marker:none"/><path overflow="visible" d="m117.525 46.456-2.214 3.454-3.63-2.48-2.214 1.24-1.771-1.505-1.594 1.416 1.505-2.48 3.454-.796 4.339-2.125s6.199 1.86 5.844 1.86c-.354 0-5.136.088-5.136.088l-.797-1.151-2.125.974 4.34 1.505z" style="overflow:visible;opacity:.61799999;fill:url(#w);marker:none"/><path overflow="visible" d="m113.009 36.272 5.225 1.771.708 1.949-3.01 2.125-2.835-2.745z" style="overflow:visible;fill:#fff;marker:none"/><path overflow="visible" d="m112.92 36.45-1.15 3.719-2.126 1.86 4.339-.975s1.24 1.417.708 1.417c-.531 0-6.287.709-6.287.709l.088 1.15 8.148-1.505-3.543-3.276-.177-3.1z" style="overflow:visible;opacity:.13500001;fill:url(#x);marker:none"/><path overflow="visible" d="m124.078 41.674.443 4.428-.974-3.01-2.568.796-.62-1.328-3.1.443-.708-.62 4.516-.177.443 1.24 1.948-.975zm-7.527 6.553-1.505 1.771-3.454-2.302-2.125 1.151-3.454 3.277 3.808-2.923 1.86-.531 3.63 2.48z" style="overflow:visible;fill:#fff;marker:none"/><path transform="translate(235.648 -4.513) scale(.50094)" overflow="visible" d="m-173.729 65.81 1.768 2.828-3.712 1.591-2.652-2.121-11.844.884-3.712 4.95-3.359-5.48-4.243 2.297-5.656-.707 1.414-3.005-3.89-3.889 5.48-6.187-5.303.707-2.298-2.121 3.006.53 3.182-5.48 4.596-1.06-3.713-1.238-.176-3.182 7.248-6.364 2.651-8.485 12.021 3.535 3.005 7.071 1.06-2.298 3.006.177v2.828l3.536-4.066 4.773 5.127V49.9l-8.309 7.248 5.303 3.005-.176 3.005z" style="overflow:visible;fill:url(#y);stroke:url(#J);marker:none"/><path transform="translate(235.648 -4.513) scale(.50094)" overflow="visible" d="m-184.158 50.96.883 6.541-2.12 3.359 4.595 1.414 2.652 5.303-12.02.884-2.83 4.066-2.297-6.187 4.419-2.828 6.718 1.944-2.652-3.535 1.414-6.188z" style="overflow:visible;opacity:.76999996;fill:url(#z);marker:none"/><path transform="translate(235.648 -4.513) scale(.50094)" overflow="visible" d="m-185.22 52.021-4.419 6.894-7.247-4.95-4.42 2.475-3.535-3.005-3.182 2.829 3.005-4.95 6.894-1.591 8.662-4.243s12.375 3.713 11.667 3.713c-.707 0-10.253.176-10.253.176l-1.59-2.298-4.243 1.945z" style="overflow:visible;opacity:.61799999;fill:url(#A);marker:none"/><path overflow="visible" d="m138.348 11.363 5.224 1.771.709 1.948-3.011 2.125-2.834-2.745z" style="overflow:visible;fill:#fff;marker:none"/><path transform="translate(235.648 -4.513) scale(.50094)" overflow="visible" d="m-194.412 32.045-2.298 7.425-4.242 3.712 8.662-1.944s2.475 2.828 1.414 2.828c-1.06 0-12.551 1.414-12.551 1.414l.177 2.298 16.263-3.005-7.071-6.54z" style="overflow:visible;opacity:.13500001;fill:url(#B);marker:none"/><path overflow="visible" d="m149.417 16.765.443 4.427-.974-3.01-2.568.797-.62-1.329-3.1.443-.708-.62 4.516-.177.443 1.24 1.948-.974zm-7.527 6.553-1.506 1.77-3.453-2.302-2.126 1.152-3.453 3.276 3.808-2.922 1.86-.531 3.63 2.48z" style="overflow:visible;fill:#fff;marker:none"/><path transform="matrix(0 -.50094 -.50094 0 151.613 -70.805)" overflow="visible" d="m-173.729 65.81 1.768 2.828-3.712 1.591-2.652-2.121-11.844.884-3.712 4.95-3.359-5.48-4.243 2.297-5.656-.707 1.414-3.005-3.89-3.889 5.48-6.187-5.303.707-2.298-2.121 3.006.53 3.182-5.48 4.596-1.06-3.713-1.238-.176-3.182 7.248-6.364 2.651-8.485 12.021 3.535 3.005 7.071 1.06-2.298 3.006.177v2.828l3.536-4.066 4.773 5.127V49.9l-8.309 7.248 5.303 3.005-.176 3.005z" style="overflow:visible;fill:url(#C);stroke:url(#O);marker:none"/><path transform="matrix(0 -.50094 -.50094 0 151.613 -70.805)" overflow="visible" d="m-184.158 50.96.883 6.541-2.12 3.359 4.595 1.414 2.652 5.303-12.02.884-2.83 4.066-2.297-6.187 4.419-2.828 6.718 1.944-2.652-3.535 1.414-6.188z" style="overflow:visible;opacity:.76999996;fill:url(#D);marker:none"/><path transform="matrix(0 -.50094 -.50094 0 151.613 -70.805)" overflow="visible" d="m-185.22 52.021-4.419 6.894-7.247-4.95-4.42 2.475-3.535-3.005-3.182 2.829 3.005-4.95 6.894-1.591 8.662-4.243s12.375 3.713 11.667 3.713c-.707 0-10.253.176-10.253.176l-1.59-2.298-4.243 1.945z" style="overflow:visible;opacity:.61799999;fill:url(#E);marker:none"/><path overflow="visible" d="m135.738 26.495-1.772-5.224-1.948-.709-2.125 3.011 2.745 2.834z" style="overflow:visible;fill:#fff;marker:none"/><path transform="matrix(0 -.50094 -.50094 0 151.613 -70.805)" overflow="visible" d="m-194.412 32.045-2.298 7.425-4.242 3.712 8.662-1.944s2.475 2.828 1.414 2.828c-1.06 0-12.551 1.414-12.551 1.414l.177 2.298 16.263-3.005-7.071-6.54z" style="overflow:visible;opacity:.13500001;fill:url(#F);marker:none"/><path overflow="visible" d="m130.336 15.426-4.428-.443 3.01.974-.796 2.568 1.328.62-.443 3.1.62.708.177-4.516-1.24-.443.975-1.948zm-6.553 7.527-1.771 1.506 2.302 3.453-1.151 2.126-3.277 3.453 2.923-3.808.53-1.86-2.479-3.63z" style="overflow:visible;fill:#fff;marker:none"/><g><path transform="translate(231.622 8.909) scale(.50094)" overflow="visible" d="m-173.729 65.81 1.768 2.828-3.712 1.591-2.652-2.121-11.844.884-3.712 4.95-3.359-5.48-4.243 2.297-5.656-.707 1.414-3.005-3.89-3.889 5.48-6.187-5.303.707-2.298-2.121 3.006.53 3.182-5.48 4.596-1.06-3.713-1.238-.176-3.182 7.248-6.364 2.651-8.485 12.021 3.535 3.005 7.071 1.06-2.298 3.006.177v2.828l3.536-4.066 4.773 5.127V49.9l-8.309 7.248 5.303 3.005-.176 3.005z" style="overflow:visible;fill:url(#G);stroke:url(#T);marker:none"/><path transform="translate(231.622 8.909) scale(.50094)" overflow="visible" d="m-184.158 50.96.883 6.541-2.12 3.359 4.595 1.414 2.652 5.303-12.02.884-2.83 4.066-2.297-6.187 4.419-2.828 6.718 1.944-2.652-3.535 1.414-6.188z" style="overflow:visible;opacity:.76999996;fill:url(#H);marker:none"/><path transform="translate(231.622 8.909) scale(.50094)" overflow="visible" d="m-185.22 52.021-4.419 6.894-7.247-4.95-4.42 2.475-3.535-3.005-3.182 2.829 3.005-4.95 6.894-1.591 8.662-4.243s12.375 3.713 11.667 3.713c-.707 0-10.253.176-10.253.176l-1.59-2.298-4.243 1.945z" style="overflow:visible;opacity:.61799999;fill:url(#I);marker:none"/><path overflow="visible" d="m134.321 24.784 5.225 1.772.708 1.948-3.01 2.125-2.834-2.745z" style="overflow:visible;fill:#fff;marker:none"/><path transform="translate(231.622 8.909) scale(.50094)" overflow="visible" d="m-194.412 32.045-2.298 7.425-4.242 3.712 8.662-1.944s2.475 2.828 1.414 2.828c-1.06 0-12.551 1.414-12.551 1.414l.177 2.298 16.263-3.005-7.071-6.54z" style="overflow:visible;opacity:.13500001;fill:url(#J);marker:none"/><path overflow="visible" d="m145.39 30.186.443 4.428-.974-3.01-2.568.796-.62-1.328-3.1.443-.708-.62 4.517-.177.442 1.24 1.949-.975zm-7.527 6.554-1.505 1.77-3.454-2.302-2.125 1.151-3.454 3.277 3.808-2.923 1.86-.53 3.63 2.479z" style="overflow:visible;fill:#fff;marker:none"/></g><g><path transform="matrix(0 .50094 .50094 0 97.571 143.104)" overflow="visible" d="m-173.729 65.81 1.768 2.828-3.712 1.591-2.652-2.121-11.844.884-3.712 4.95-3.359-5.48-4.243 2.297-5.656-.707 1.414-3.005-3.89-3.889 5.48-6.187-5.303.707-2.298-2.121 3.006.53 3.182-5.48 4.596-1.06-3.713-1.238-.176-3.182 7.248-6.364 2.651-8.485 12.021 3.535 3.005 7.071 1.06-2.298 3.006.177v2.828l3.536-4.066 4.773 5.127V49.9l-8.309 7.248 5.303 3.005-.176 3.005z" style="overflow:visible;fill:url(#K);stroke:url(#Y);marker:none"/><path transform="matrix(0 .50094 .50094 0 97.571 143.104)" overflow="visible" d="m-184.158 50.96.883 6.541-2.12 3.359 4.595 1.414 2.652 5.303-12.02.884-2.83 4.066-2.297-6.187 4.419-2.828 6.718 1.944-2.652-3.535 1.414-6.188z" style="overflow:visible;opacity:.76999996;fill:url(#L);marker:none"/><path transform="matrix(0 .50094 .50094 0 97.571 143.104)" overflow="visible" d="m-185.22 52.021-4.419 6.894-7.247-4.95-4.42 2.475-3.535-3.005-3.182 2.829 3.005-4.95 6.894-1.591 8.662-4.243s12.375 3.713 11.667 3.713c-.707 0-10.253.176-10.253.176l-1.59-2.298-4.243 1.945z" style="overflow:visible;opacity:.61799999;fill:url(#M);marker:none"/><path overflow="visible" d="m113.447 45.804 1.77 5.225 1.95.708 2.124-3.01-2.745-2.834z" style="overflow:visible;fill:#fff;marker:none"/><path transform="matrix(0 .50094 .50094 0 97.571 143.104)" overflow="visible" d="m-194.412 32.045-2.298 7.425-4.242 3.712 8.662-1.944s2.475 2.828 1.414 2.828c-1.06 0-12.551 1.414-12.551 1.414l.177 2.298 16.263-3.005-7.071-6.54z" style="overflow:visible;opacity:.13500001;fill:url(#N);marker:none"/><path overflow="visible" d="m118.849 56.873 4.427.443-3.01-.974.797-2.568-1.329-.62.443-3.1-.62-.708-.177 4.516 1.24.443-.974 1.948zm6.553-7.527 1.77-1.505-2.302-3.454 1.152-2.125 3.276-3.454-2.922 3.808-.531 1.86 2.48 3.63z" style="overflow:visible;fill:#fff;marker:none"/></g></g><path style="fill:none" d="m33.755 188.34-8.774 5.582h5.264z" transform="translate(4.83 -629.055) scale(3.59906)"/><path style="fill:#df5656" d="m29.599 219.43-.009-8.103h-5.554l-6.63-1.2 4.37 7.839c.215.38 1.499 1.465 3.667 1.465z" transform="translate(4.83 -629.055) scale(3.59906)"/><path style="fill:#ff9292" d="m24.036 211.327 1.424-2.558 1.821 1.085-1.291-3.734-1.292-3.725-3.774.704-3.767.703 1.523.911-1.241 2.218c-.588 1.06-.696 2.012-.033 3.196l4.37 7.839c.108.19.489.554 1.11.877-2.12-1.531-.895-3.915 1.15-7.516z" transform="translate(4.83 -629.055) scale(3.59906)"/><path style="fill:#df5656" d="m21.644 199.266 6.788 4.056a1452.98 1452.98 0 0 0 2.773-4.991L35.534 193h-8.75c-.43 0-1.978.604-3.062 2.541z" transform="translate(4.83 -629.055) scale(3.59906)"/><path style="fill:#ff9292" d="m31.205 198.34 1.432 2.557-1.821 1.093 3.774.703 3.767.704 1.3-3.725 1.29-3.733-1.523.91-1.241-2.227c-.588-1.06-1.333-1.622-2.65-1.622h-8.749c-.215 0-.712.149-1.291.546 2.334-1.125 3.725 1.16 5.712 4.793z" transform="translate(4.83 -629.055) scale(3.59906)"/><path style="fill:#df5656" d="m44.2 202.346-7.027 4.056a910.902 910.902 0 0 0 2.79 4.81l2.268 6.34 4.602-7.707c.224-.372.522-2.028-.555-3.907z" transform="translate(4.83 -629.055) scale(3.59906)"/><path style="fill:#ff9292" d="m39.963 211.211-2.94.041.034-2.119-5.165 5.977 2.491 2.905 2.5 2.914.025-1.771 2.55-.042c1.208-.016 2.077-.397 2.773-1.564l4.602-7.707c.116-.19.248-.695.207-1.399-.265 2.6-2.939 2.732-7.077 2.765z" transform="translate(4.83 -629.055) scale(3.59906)"/></svg>