<svg xmlns="http://www.w3.org/2000/svg" width="512" height="512" viewBox="0 0 431.985 431.985" style="enable-background:new 0 0 431.985 431.985" xml:space="preserve"><path d="M423.257 51.829a6 6 0 0 0-10.465-1.279c-7.581 10.629-17.529 14.172-29.053 18.275-9.292 3.31-18.901 6.73-29.286 14.186-14.687 10.544-21.405 24.917-18.055 38.54l-.358.459c-6.133-8.897-12.806-17.126-19.848-24.474-32.947-34.378-78.984-55.046-126.311-56.703-2.085-.073-4.204-.11-6.298-.11-52.846 0-103.428 23.624-138.775 64.813C9.646 146.512-5.939 199.853 2.051 251.882a187.257 187.257 0 0 0 2.487 13.063c12.996 57.202 46.189 100.717 91.069 119.383 11.063 4.602 22.222 6.934 33.163 6.934 27.183 0 50.926-14.539 65.143-39.889 5.404-9.646 8.891-19.621 10.36-29.651.866-5.92.274-11.835-.3-17.567-.591-5.9-1.149-11.476-.256-17.09 2.047-12.869 11.036-20.553 24.047-20.553 3.701 0 7.483.609 11.26 1.812-4.422 8.11-8.438 15.854-11.947 23.032-7.437 15.212-12.567 27.81-15.252 37.44-1.655 5.939-6.052 21.722 4.67 29.164 3.405 2.363 7.722 3.197 12.215 2.361 4.049-.752 16.369-3.041 51.378-42.896 9.396-10.695 19.521-23.072 30.104-36.794 27.168-9.15 48.31-31.921 53.903-58.087 1.4-6.541 1.984-13.541 1.735-20.812 10.172-15.72 19.094-30.388 28.072-46.156.172-.304.342-.628.51-.96 13.031-3.569 24.254-13.71 30.842-27.891 9.618-20.697 8.909-47.297-1.997-74.896zm-146.872 98.005c-4.713 7.485-12.814 11.954-21.673 11.954-4.81 0-9.515-1.361-13.605-3.937-5.782-3.642-9.803-9.317-11.316-15.98s-.345-13.518 3.298-19.301c4.714-7.485 12.816-11.954 21.675-11.954 4.811 0 9.515 1.361 13.604 3.938 5.782 3.64 9.802 9.315 11.316 15.979 1.513 6.664.342 13.518-3.299 19.301zm33.207 46.353c12.934-19.057 26.612-38 39.604-54.85a70.137 70.137 0 0 0 7.012 5.53c4.227 2.933 8.648 5.201 13.164 6.754-10.969 18.758-22.763 37.342-37.043 58.375-23.463 34.571-47.859 66.684-68.695 90.424-11.638 13.26-21.823 23.498-29.671 29.839 3.029-9.69 8.818-22.989 16.875-38.746 14.407-28.177 35.273-62.741 58.754-97.326zm-227.086-.164a25.5 25.5 0 0 1-13.607-3.938c-5.782-3.641-9.801-9.314-11.315-15.979-1.514-6.664-.342-13.519 3.301-19.302 4.711-7.484 12.813-11.953 21.671-11.953 4.812 0 9.517 1.361 13.607 3.938 11.936 7.518 15.532 23.345 8.019 35.279-4.716 7.486-12.819 11.955-21.676 11.955zm-26.818 56.335c4.713-7.486 12.814-11.955 21.673-11.955a25.51 25.51 0 0 1 13.606 3.938c5.782 3.641 9.801 9.315 11.315 15.979 1.515 6.662.343 13.516-3.301 19.301-4.711 7.483-12.813 11.953-21.671 11.953a25.51 25.51 0 0 1-13.609-3.938c-5.782-3.642-9.8-9.315-11.313-15.979-1.512-6.662-.339-13.517 3.3-19.299zm81.932-151.944c4.713-7.485 12.815-11.954 21.673-11.954a25.5 25.5 0 0 1 13.604 3.937c11.937 7.516 15.533 23.344 8.019 35.28-4.715 7.486-12.817 11.955-21.675 11.955-4.81 0-9.515-1.361-13.605-3.938-5.781-3.64-9.799-9.314-11.313-15.979-1.516-6.663-.344-13.517 3.297-19.301z" data-original="#000000" class="active-path" data-old_color="#000000" fill="#FFF"/></svg>