<svg xmlns="http://www.w3.org/2000/svg" style="enable-background:new 0 0 512 512" xml:space="preserve" width="512" height="512"><path d="M434.712 110.536H77.288c-6.886 0-12.468 5.583-12.468 12.469v62.074h382.36v-62.074c0-6.886-5.582-12.469-12.468-12.469zm-129.211 53.896c-9.167 0-16.625-7.458-16.625-16.624 0-9.167 7.458-16.625 16.625-16.625s16.624 7.458 16.624 16.625c0 9.166-7.457 16.624-16.624 16.624zm45.287 0c-9.167 0-16.624-7.458-16.624-16.624 0-9.167 7.457-16.625 16.624-16.625s16.625 7.458 16.625 16.625c0 9.166-7.458 16.624-16.625 16.624zm45.288 0c-9.167 0-16.625-7.458-16.625-16.624 0-9.167 7.458-16.625 16.625-16.625s16.624 7.458 16.624 16.625c0 9.166-7.457 16.624-16.624 16.624zM64.82 210.015v178.98c0 6.886 5.582 12.469 12.468 12.469h357.425c6.885 0 12.468-5.583 12.468-12.469v-178.98H64.82zm175.833 105.22-40.814 34.73c-5.245 4.462-13.114 3.828-17.576-1.416-4.463-5.244-3.83-13.113 1.416-17.576l29.654-25.234-29.654-25.233c-5.245-4.463-5.879-12.332-1.416-17.576 4.462-5.246 12.331-5.878 17.576-1.416l40.814 34.729c5.848 4.976 5.848 14.017 0 18.992zm79.588 37.702h-49.254c-6.886 0-12.469-5.583-12.469-12.469S264.101 328 270.987 328h49.254c6.886 0 12.469 5.582 12.469 12.468s-5.583 12.469-12.469 12.469z" data-original="#000000" class="active-path" data-old_color="#000000" fill="#FFF"/></svg>