<svg xmlns="http://www.w3.org/2000/svg" width="64" height="64" version="1"><path style="opacity:.2" d="M46.489 60.653a3.473 3.473 0 0 1-3.978-.68c1.29 1.298 3.498.378 3.498-1.458V7.485c0-1.836-2.208-2.755-3.498-1.457a3.473 3.473 0 0 1 3.978-.681l11.529 5.577A3.52 3.52 0 0 1 60 14.094v37.812a3.52 3.52 0 0 1-1.982 3.17z"/><path style="opacity:.2" d="M58.02 10.932 46.487 5.348a3.471 3.471 0 0 0-3.977.68L4.76 40.025a2.355 2.355 0 0 0 .003 3.47l3.083 2.818c.831.76 2.083.816 2.978.134l45.46-34.066c1.524-1.164 3.715-.07 3.715 1.856v-.135a3.52 3.52 0 0 0-1.98-3.17z"/><path style="fill:#007c64" d="M58.02 9.932 46.487 4.348a3.471 3.471 0 0 0-3.977.68L4.76 39.025a2.355 2.355 0 0 0 .003 3.47l3.083 2.818c.831.76 2.083.816 2.978.134l45.46-34.066c1.524-1.164 3.715-.07 3.715 1.856v-.135a3.52 3.52 0 0 0-1.98-3.17z"/><path style="opacity:.1;fill:#000" d="M44.652 4.014a3.474 3.474 0 0 0-2.14 1.013L4.762 39.023a2.337 2.337 0 0 0-.698 2.221c.1-.452.328-.882.698-1.22l37.75-33.997a3.47 3.47 0 0 1 3.976-.68l11.532 5.587c.026.012.05.03.076.043C59.123 11.162 60 12.02 60 13.238v-.136c0-1.352-.77-2.582-1.98-3.168L46.488 4.348a3.481 3.481 0 0 0-1.836-.334z"/><path style="opacity:.2" d="M9.313 17.016c-.529.024-1.05.23-1.465.61l-3.086 2.82a2.355 2.355 0 0 0 0 3.468l37.75 36.059c.16.16.35.267.531.39h.004c1.285.654 2.961-.247 2.961-1.847V45.453l-35.184-27.96a2.317 2.317 0 0 0-1.511-.477z"/><path style="fill:#00a388" d="m58.02 54.068-11.532 5.584a3.472 3.472 0 0 1-3.977-.68L4.76 22.913a2.355 2.355 0 0 1 .003-3.468l3.083-2.82a2.322 2.322 0 0 1 2.978-.132l45.46 36.127c1.524 1.164 3.715.07 3.715-1.856v.135a3.52 3.52 0 0 1-1.98 3.17z"/><path style="opacity:.1;fill:#000" d="M9.313 16.016c-.53.023-1.05.229-1.465.609l-3.086 2.82a2.329 2.329 0 0 0-.698 2.22c.1-.452.328-.882.698-1.22l3.086-2.82a2.317 2.317 0 0 1 2.977-.133l45.46 36.13c.542.413 1.166.53 1.748.437A3.517 3.517 0 0 0 60 50.899v-.137c0 1.925-2.19 3.023-3.715 1.86l-45.46-36.13a2.317 2.317 0 0 0-1.512-.476z"/><path style="fill:#24bfa5" d="M46.489 59.653a3.473 3.473 0 0 1-3.978-.68c1.29 1.298 3.498.378 3.498-1.458V6.485c0-1.836-2.208-2.755-3.498-1.457a3.473 3.473 0 0 1 3.978-.681l11.529 5.577A3.52 3.52 0 0 1 60 13.094v37.812a3.52 3.52 0 0 1-1.982 3.17z"/><path style="opacity:.2;fill:#000" d="M44.818 4.01a3.572 3.572 0 0 0-1.771.627c.797-.406 1.725-.198 2.322.392.027.003.053-.001.08.002a3.48 3.48 0 0 1 1.04.317l11.53 5.574A3.52 3.52 0 0 1 60 14.094v-1a3.52 3.52 0 0 0-1.98-3.172L46.488 4.348a3.483 3.483 0 0 0-1.039-.317 3.138 3.138 0 0 0-.63-.021zm-1.771.627c-.19.096-.37.224-.535.39.16-.16.352-.266.535-.39zm2.96 52.879c0 1.6-1.675 2.501-2.96 1.847.72.49 1.574.664 2.42.54.325-.353.54-.824.54-1.387v-1zm-2.96 1.847c-.183-.124-.375-.23-.535-.39.165.166.346.294.535.39z"/></svg>