<svg height="48" width="48" xmlns="http://www.w3.org/2000/svg"><linearGradient id="a" gradientUnits="userSpaceOnUse" x1="400.556" x2="400.556" y1="546.927" y2="516.475"><stop offset="0" stop-color="#981fe7"/><stop offset="1" stop-color="#db50c8"/></linearGradient><circle cx="400.571" cy="531.798" fill="url(#a)" r="14" stroke="url(#a)" stroke-width="1.427" transform="matrix(1.56215 0 0 1.56317 -601.754 -807.292)"/><path d="m25.736 16.065 4.945 3.751.54-.71-4.946-3.752zm-.487.641L14.679 30.64a.813.813 0 0 0-.15.337l-.96 5.068a.806.806 0 0 0 1.15.872l4.622-2.29a.807.807 0 0 0 .284-.235l10.57-13.933zm1.513-1.993 4.945 3.752.538-.71-4.946-3.752zm7.364-.77-3.661-2.78a.807.807 0 0 0-1.129.156l-1.55 2.043 4.946 3.751 1.549-2.042a.805.805 0 0 0-.155-1.128z" fill-opacity=".839"/></svg>