<?xml version="1.0" encoding="UTF-8" standalone="no"?>
<!-- Created with Inkscape (http://www.inkscape.org/) -->

<svg
   xmlns:dc="http://purl.org/dc/elements/1.1/"
   xmlns:cc="http://creativecommons.org/ns#"
   xmlns:rdf="http://www.w3.org/1999/02/22-rdf-syntax-ns#"
   xmlns:svg="http://www.w3.org/2000/svg"
   xmlns="http://www.w3.org/2000/svg"
   xmlns:sodipodi="http://sodipodi.sourceforge.net/DTD/sodipodi-0.dtd"
   xmlns:inkscape="http://www.inkscape.org/namespaces/inkscape"
   version="1.1"
   id="svg834"
   xml:space="preserve"
   width="666.66669"
   height="666.66669"
   viewBox="0 0 666.66669 666.66669"
   sodipodi:docname="code.svg"
   inkscape:version="0.92.4 5da689c313, 2019-01-14"><metadata
     id="metadata840"><rdf:RDF><cc:Work
         rdf:about=""><dc:format>image/svg+xml</dc:format><dc:type
           rdf:resource="http://purl.org/dc/dcmitype/StillImage" /></cc:Work></rdf:RDF></metadata><defs
     id="defs838"><clipPath
       clipPathUnits="userSpaceOnUse"
       id="clipPath854"><path
         d="M 0,500 H 500 V 0 H 0 Z"
         id="path852"
         inkscape:connector-curvature="0" /></clipPath><clipPath
       clipPathUnits="userSpaceOnUse"
       id="clipPath862"><path
         d="m 129.047,275.588 h 32.29 v -6.476 h -32.29 z"
         id="path860"
         inkscape:connector-curvature="0" /></clipPath><clipPath
       clipPathUnits="userSpaceOnUse"
       id="clipPath878"><path
         d="m 122.883,306.313 h 35.167 v -16.56 h -35.167 z"
         id="path876"
         inkscape:connector-curvature="0" /></clipPath><clipPath
       clipPathUnits="userSpaceOnUse"
       id="clipPath898"><path
         d="M 0,500 H 500 V 0 H 0 Z"
         id="path896"
         inkscape:connector-curvature="0" /></clipPath><clipPath
       clipPathUnits="userSpaceOnUse"
       id="clipPath1046"><path
         d="m 118.845,195.674 h 5.448 v -45.919 h -5.448 z"
         id="path1044"
         inkscape:connector-curvature="0" /></clipPath><clipPath
       clipPathUnits="userSpaceOnUse"
       id="clipPath1062"><path
         d="m 127.507,220.424 h 5.834 V 168.06 h -5.834 z"
         id="path1060"
         inkscape:connector-curvature="0" /></clipPath><clipPath
       clipPathUnits="userSpaceOnUse"
       id="clipPath1086"><path
         d="m 374.578,345.073 h 32.29 v -6.477 h -32.29 z"
         id="path1084"
         inkscape:connector-curvature="0" /></clipPath><clipPath
       clipPathUnits="userSpaceOnUse"
       id="clipPath1102"><path
         d="m 382.783,307.651 h 32.29 v -6.476 h -32.29 z"
         id="path1100"
         inkscape:connector-curvature="0" /></clipPath><clipPath
       clipPathUnits="userSpaceOnUse"
       id="clipPath1118"><path
         d="m 325.712,329.194 h 21.923 v -6.476 h -21.923 z"
         id="path1116"
         inkscape:connector-curvature="0" /></clipPath><clipPath
       clipPathUnits="userSpaceOnUse"
       id="clipPath1134"><path
         d="m 90.7456,275.588 h 21.9224 v -6.476 H 90.7456 Z"
         id="path1132"
         inkscape:connector-curvature="0" /></clipPath><clipPath
       clipPathUnits="userSpaceOnUse"
       id="clipPath1150"><path
         d="m 355.247,329.186 h 35.167 v -16.56 h -35.167 z"
         id="path1148"
         inkscape:connector-curvature="0" /></clipPath><clipPath
       clipPathUnits="userSpaceOnUse"
       id="clipPath1178"><path
         d="m 137.701,359.604 h 41.471 v -29.5 h -41.471 z"
         id="path1176"
         inkscape:connector-curvature="0" /></clipPath><clipPath
       clipPathUnits="userSpaceOnUse"
       id="clipPath1202"><path
         d="m 249.381,352.736 h 41.472 v -29.5 h -41.472 z"
         id="path1200"
         inkscape:connector-curvature="0" /></clipPath><clipPath
       clipPathUnits="userSpaceOnUse"
       id="clipPath1222"><path
         d="M 78.9986,255.031 H 120.47 v -29.5 H 78.9986 Z"
         id="path1220"
         inkscape:connector-curvature="0" /></clipPath><clipPath
       clipPathUnits="userSpaceOnUse"
       id="clipPath1414"><path
         d="m 382.543,289.183 h 41.471 v -29.5 h -41.471 z"
         id="path1412"
         inkscape:connector-curvature="0" /></clipPath><clipPath
       clipPathUnits="userSpaceOnUse"
       id="clipPath1498"><path
         d="m 385.044,225.767 h 41.472 v -29.5 h -41.472 z"
         id="path1496"
         inkscape:connector-curvature="0" /></clipPath><clipPath
       clipPathUnits="userSpaceOnUse"
       id="clipPath1808"><path
         d="m 152.474,301.757 h 91.27 v -91.26 h -91.27 z"
         id="path1806"
         inkscape:connector-curvature="0" /></clipPath><clipPath
       clipPathUnits="userSpaceOnUse"
       id="clipPath1824"><path
         d="m 170.814,301.757 h 157.84 v -108.17 h -157.84 z"
         id="path1822"
         inkscape:connector-curvature="0" /></clipPath><clipPath
       clipPathUnits="userSpaceOnUse"
       id="clipPath1876"><path
         d="M 0,500 H 500 V 0 H 0 Z"
         id="path1874"
         inkscape:connector-curvature="0" /></clipPath><clipPath
       clipPathUnits="userSpaceOnUse"
       id="clipPath1884"><path
         d="M 175.507,30.8834 H 324.493 V 16.4648 H 175.507 Z"
         id="path1882"
         inkscape:connector-curvature="0" /></clipPath></defs><sodipodi:namedview
     pagecolor="#ffffff"
     bordercolor="#666666"
     borderopacity="1"
     objecttolerance="10"
     gridtolerance="10"
     guidetolerance="10"
     inkscape:pageopacity="0"
     inkscape:pageshadow="2"
     inkscape:window-width="1875"
     inkscape:window-height="1054"
     id="namedview836"
     showgrid="false"
     inkscape:zoom="1.3035"
     inkscape:cx="259.78183"
     inkscape:cy="387.05351"
     inkscape:window-x="45"
     inkscape:window-y="26"
     inkscape:window-maximized="0"
     inkscape:current-layer="g894" /><g
     id="g842"
     inkscape:groupmode="layer"
     inkscape:label="326252-P9NGJT-715"
     transform="matrix(1.3333333,0,0,-1.3333333,0,666.66667)"><g
       id="g848"
       transform="matrix(2.0861344,0,0,2.3375973,-261.30183,-280.83249)"><g
         id="g850"
         clip-path="url(#clipPath854)"><g
           id="g856"><g
             id="g858" /><g
             id="g870"><g
               clip-path="url(#clipPath862)"
               id="g868"
               style="opacity:0.30000299"><g
                 transform="translate(158.0991,269.1118)"
                 id="g866"><path
                   d="m 0,0 h -25.814 c -1.789,0 -3.238,1.45 -3.238,3.238 0,1.789 1.449,3.239 3.238,3.239 H 0 c 1.788,0 3.238,-1.45 3.238,-3.239 C 3.238,1.45 1.788,0 0,0"
                   style="fill:#ffffff;fill-opacity:1;fill-rule:nonzero;stroke:none"
                   id="path864"
                   inkscape:connector-curvature="0" /></g></g></g></g><g
           id="g872"><g
             id="g874" /><g
             id="g886"><g
               clip-path="url(#clipPath878)"
               id="g884"
               style="opacity:0.30000299"><g
                 transform="translate(158.0493,303.0747)"
                 id="g882"><path
                   d="m 0,0 v 0 c 0,1.789 -1.45,3.238 -3.238,3.238 h -25.814 c -1.788,0 -3.238,-1.449 -3.238,-3.238 0,-1.788 1.45,-3.238 3.238,-3.238 h 2.008 c 0.983,0 1.779,-0.797 1.779,-1.78 v -0.047 c 0,-0.983 -0.796,-1.78 -1.779,-1.78 h -4.884 c -1.789,0 -3.239,-1.45 -3.239,-3.238 0,-1.789 1.45,-3.238 3.239,-3.238 h 25.814 c 1.788,0 3.238,1.449 3.238,3.238 0,1.788 -1.45,3.238 -3.238,3.238 h -3.009 c -0.982,0 -1.779,0.797 -1.779,1.78 v 0.047 c 0,0.983 0.797,1.78 1.779,1.78 h 5.885 C -1.45,-3.238 0,-1.788 0,0"
                   style="fill:#ffffff;fill-opacity:1;fill-rule:nonzero;stroke:none"
                   id="path880"
                   inkscape:connector-curvature="0" /></g></g></g></g></g></g><text
       transform="matrix(1,0,0,-1,127.1001,441.1772)"
       style="font-variant:normal;font-weight:normal;font-stretch:normal;font-size:28px;font-family:Milkshake;-inkscape-font-specification:Milkshake;writing-mode:lr-tb;fill:#ffffff;fill-opacity:1;fill-rule:nonzero;stroke:none"
       id="text890"><tspan
         x="0 24.191999 35.195999 47.655998 60.535999 71.540001 84.839996 103.992 123.144 133.14 144.144 152.76801 158.64799 177.10001 189.56 203.252 213.612 223.608 236.62801"
         y="0"
         sodipodi:role="line"
         id="tspan888">Programmers Concept</tspan></text>
<g
       id="g892"><g
         id="g894"
         clip-path="url(#clipPath898)"><g
           id="g1040"
           transform="matrix(2.0861344,0,0,2.3375973,-261.30183,-280.83249)"><g
             id="g1042" /><g
             id="g1054"><g
               clip-path="url(#clipPath1046)"
               id="g1052"
               style="opacity:0.46000701"><g
                 transform="translate(120.2773,151.1875)"
                 id="g1050"><path
                   d="M 0,0 C 0,5.381 2.583,5.381 2.583,10.763 2.583,16.142 0,16.142 0,21.521 0,26.904 2.583,26.904 2.583,32.288 2.583,37.671 0,37.671 0,43.054"
                   style="fill:none;stroke:#ffffff;stroke-width:2.86400008;stroke-linecap:round;stroke-linejoin:round;stroke-miterlimit:10;stroke-dasharray:none;stroke-opacity:1"
                   id="path1048"
                   inkscape:connector-curvature="0" /></g></g></g></g><g
           id="g1056"
           transform="matrix(2.0861344,0,0,2.3375973,-261.30183,-280.83249)"><g
             id="g1058" /><g
             id="g1070"><g
               clip-path="url(#clipPath1062)"
               id="g1068"
               style="opacity:0.46000701"><g
                 transform="translate(128.9385,169.4912)"
                 id="g1066"><path
                   d="M 0,0 C 0,6.187 2.97,6.187 2.97,12.374 2.97,18.559 0,18.559 0,24.744 0,30.933 2.97,30.933 2.97,37.122 2.97,43.312 0,43.312 0,49.5"
                   style="fill:none;stroke:#ffffff;stroke-width:2.86400008;stroke-linecap:round;stroke-linejoin:round;stroke-miterlimit:10;stroke-dasharray:none;stroke-opacity:1"
                   id="path1064"
                   inkscape:connector-curvature="0" /></g></g></g></g><g
           id="g1128"
           transform="matrix(2.0861344,0,0,2.3375973,-261.30183,-280.83249)"><g
             id="g1130" /><g
             id="g1142"><g
               clip-path="url(#clipPath1134)"
               id="g1140"
               style="opacity:0.30000299"><g
                 transform="translate(109.4302,269.1118)"
                 id="g1138"><path
                   d="m 0,0 h -15.446 c -1.789,0 -3.239,1.45 -3.239,3.238 0,1.789 1.45,3.239 3.239,3.239 H 0 c 1.788,0 3.238,-1.45 3.238,-3.239 C 3.238,1.45 1.788,0 0,0"
                   style="fill:#ffffff;fill-opacity:1;fill-rule:nonzero;stroke:none"
                   id="path1136"
                   inkscape:connector-curvature="0" /></g></g></g></g><g
           id="g1144"
           transform="matrix(2.0861344,0,0,2.3375973,-261.30183,-280.83249)"><g
             id="g1146" /><g
             id="g1158"><g
               clip-path="url(#clipPath1150)"
               id="g1156"
               style="opacity:0.30000299"><g
                 transform="translate(390.4141,325.9478)"
                 id="g1154"><path
                   d="m 0,0 v 0 c 0,1.788 -1.45,3.238 -3.238,3.238 h -25.814 c -1.789,0 -3.238,-1.45 -3.238,-3.238 0,-1.789 1.449,-3.238 3.238,-3.238 h 2.008 c 0.982,0 1.779,-0.797 1.779,-1.78 v -0.048 c 0,-0.983 -0.797,-1.779 -1.779,-1.779 h -4.885 c -1.788,0 -3.238,-1.45 -3.238,-3.238 0,-1.789 1.45,-3.239 3.238,-3.239 h 25.814 c 1.789,0 3.238,1.45 3.238,3.239 0,1.788 -1.449,3.238 -3.238,3.238 h -3.008 c -0.982,0 -1.779,0.796 -1.779,1.779 v 0.048 c 0,0.983 0.797,1.78 1.779,1.78 h 5.885 C -1.45,-3.238 0,-1.789 0,0"
                   style="fill:#ffffff;fill-opacity:1;fill-rule:nonzero;stroke:none"
                   id="path1152"
                   inkscape:connector-curvature="0" /></g></g></g></g><g
           id="g1536"
           transform="translate(445.99486,40.760497)"><path
             d="m 0,0 v 24.756 c 0,3.226 -2.616,5.843 -5.843,5.843 h -0.068 c -3.228,0 -5.843,-2.617 -5.843,-5.843 v -1.489 c 0,-3.227 -2.616,-5.843 -5.844,-5.843 -3.226,0 -5.842,2.616 -5.842,5.843 v 20.041 c 0,3.421 -2.775,6.196 -6.197,6.196 -3.422,0 -6.196,-2.775 -6.196,-6.196 V 1.44 c 0,-3.619 -2.935,-6.553 -6.554,-6.553 -3.619,0 -6.553,2.934 -6.553,6.553 v 36.228 c 0,3.228 -2.617,5.844 -5.843,5.844 h -10.492"
             style="fill:none;stroke:#ffffff;stroke-width:1;stroke-linecap:butt;stroke-linejoin:miter;stroke-miterlimit:10;stroke-dasharray:none;stroke-opacity:1"
             id="path1538"
             inkscape:connector-curvature="0" /></g><g
           id="g1552"
           transform="matrix(2.0861344,0,0,2.3375973,215.06821,95.125853)"><path
             d="m 0,0 -1.282,-16.872 h 44.33 L 41.767,0 Z"
             style="fill:#f1f1f1;fill-opacity:1;fill-rule:nonzero;stroke:none"
             id="path1554"
             inkscape:connector-curvature="0" /></g><g
           id="g1556"
           transform="matrix(2.0861344,0,0,2.3375973,300.7301,116.77808)"><path
             d="m 0,0 h -40.359 l -0.704,-9.263 H 0.704 Z"
             style="fill:#808080;fill-opacity:1;fill-rule:nonzero;stroke:none"
             id="path1558"
             inkscape:connector-curvature="0" /></g><g
           id="g1560"
           transform="matrix(2.0861344,0,0,2.3375973,328.1636,42.153093)"><path
             d="m 0,0 h -66.66 v 4.265 c 0,1.664 1.349,3.013 3.014,3.013 H -3.014 C -1.35,7.278 0,5.929 0,4.265 Z"
             style="fill:#a4cde7;fill-opacity:1;fill-rule:nonzero;stroke:none"
             id="path1562"
             inkscape:connector-curvature="0" /></g><g
           id="g1564"
           transform="matrix(2.0861344,0,0,2.3375973,463.19387,441.57063)"><path
             d="m 0,0 h -196.115 c -3.305,0 -5.984,-2.679 -5.984,-5.984 V -123.725 H -78.705 5.984 v 84.689 33.052 C 5.984,-2.679 3.305,0 0,0"
             style="fill:#a4cde7;fill-opacity:1;fill-rule:nonzero;stroke:none"
             id="path1566"
             inkscape:connector-curvature="0" /></g><g
           id="g1568"
           transform="matrix(2.0861344,0,0,2.3375973,256.90793,105.17916)"><path
             d="m 0,0 h 98.884 c 3.305,0 5.985,2.679 5.985,5.983 V 20.18 h -84.69 z"
             style="fill:#e5e5e5;fill-opacity:1;fill-rule:nonzero;stroke:none"
             id="path1570"
             inkscape:connector-curvature="0" /></g><g
           id="g1572"
           transform="matrix(2.0861344,0,0,2.3375973,41.587984,152.35117)"><path
             d="m 0,0 v -14.196 c 0,-3.305 2.679,-5.984 5.984,-5.984 h 97.231 L 123.394,0 Z"
             style="fill:#f1f1f1;fill-opacity:1;fill-rule:nonzero;stroke:none"
             id="path1574"
             inkscape:connector-curvature="0" /></g><path
           d="M 457.73445,171.69596 H 56.779423 v 252.8579 H 457.73445 Z"
           style="fill:#2c528f;fill-opacity:1;fill-rule:nonzero;stroke:none;stroke-width:2.20828938"
           id="path1576"
           inkscape:connector-curvature="0" /><g
           id="g1578"
           transform="matrix(3.9410555,0,0,4.0743821,185.31908,397.91044)"><path
             d="m 0,0 h -29.5 c -1.15,0 -2.083,0.933 -2.083,2.083 0,1.151 0.933,2.084 2.083,2.084 H 0 C 1.15,4.167 2.083,3.234 2.083,2.083 2.083,0.933 1.15,0 0,0"
             style="fill:#c2ffc2;fill-opacity:1;fill-rule:nonzero;stroke:none"
             id="path1580"
             inkscape:connector-curvature="0" /></g><g
           id="g1586"
           transform="matrix(3.9410555,0,0,4.0743821,536.72921,397.91044)"><path
             d="m 0,0 h -6.771 c -1.15,0 -2.083,0.933 -2.083,2.083 0,1.151 0.933,2.084 2.083,2.084 H 0 C 1.15,4.167 2.084,3.234 2.084,2.083 2.084,0.933 1.15,0 0,0"
             style="fill:#ffffff;fill-opacity:1;fill-rule:nonzero;stroke:none"
             id="path1588"
             inkscape:connector-curvature="0" /></g><g
           id="g1590"
           transform="matrix(3.9410555,0,0,4.0743821,331.83294,397.91044)"><path
             d="m 0,0 h -10.676 c -1.151,0 -2.084,0.933 -2.084,2.083 0,1.151 0.933,2.084 2.084,2.084 H 0 C 1.151,4.167 2.083,3.234 2.083,2.083 2.083,0.933 1.151,0 0,0"
             style="fill:#fe168d;fill-opacity:1;fill-rule:nonzero;stroke:none"
             id="path1592"
             inkscape:connector-curvature="0" /></g><g
           id="g1594"
           transform="matrix(3.9410555,0,0,4.0743821,146.79961,366.67217)"><path
             d="m 0,0 h -19.726 c -1.15,0 -2.084,0.933 -2.084,2.083 0,1.151 0.934,2.084 2.084,2.084 H 0 C 1.15,4.167 2.083,3.234 2.083,2.083 2.083,0.933 1.15,0 0,0"
             style="fill:#00ffff;fill-opacity:1;fill-rule:nonzero;stroke:none"
             id="path1596"
             inkscape:connector-curvature="0" /></g><g
           id="g1598"
           transform="matrix(3.9410555,0,0,4.0743821,355.63495,366.67217)"><path
             d="m 0,0 h -19.726 c -1.15,0 -2.083,0.933 -2.083,2.083 0,1.151 0.933,2.084 2.083,2.084 H 0 C 1.151,4.167 2.083,3.234 2.083,2.083 2.083,0.933 1.151,0 0,0"
             style="fill:#00ffff;fill-opacity:1;fill-rule:nonzero;stroke:none"
             id="path1600"
             inkscape:connector-curvature="0" /></g><g
           id="g1602"
           transform="matrix(3.9410555,0,0,4.0743821,396.19039,366.67217)"><path
             d="m 0,0 h -3.595 c -1.151,0 -2.083,0.933 -2.083,2.083 0,1.151 0.932,2.084 2.083,2.084 H 0 C 1.15,4.167 2.083,3.234 2.083,2.083 2.083,0.933 1.15,0 0,0"
             style="fill:#ffffff;fill-opacity:1;fill-rule:nonzero;stroke:none"
             id="path1604"
             inkscape:connector-curvature="0" /></g><g
           id="g1606"
           transform="matrix(3.9410555,0,0,4.0743821,199.03594,366.67217)"><path
             d="m 0,0 h -6.367 c -1.151,0 -2.084,0.933 -2.084,2.083 0,1.151 0.933,2.084 2.084,2.084 H 0 C 1.15,4.167 2.083,3.234 2.083,2.083 2.083,0.933 1.15,0 0,0"
             style="fill:#00ffff;fill-opacity:1;fill-rule:nonzero;stroke:none"
             id="path1608"
             inkscape:connector-curvature="0" /></g><g
           id="g1610"
           transform="matrix(3.9410555,0,0,4.0743821,250.77963,366.67217)"><path
             d="m 0,0 h -6.368 c -1.15,0 -2.083,0.933 -2.083,2.083 0,1.151 0.933,2.084 2.083,2.084 H 0 C 1.15,4.167 2.083,3.234 2.083,2.083 2.083,0.933 1.15,0 0,0"
             style="fill:#00ffff;fill-opacity:1;fill-rule:nonzero;stroke:none"
             id="path1612"
             inkscape:connector-curvature="0" /></g><g
           id="g1614"
           transform="matrix(3.9410555,0,0,4.0743821,146.79961,335.43591)"><path
             d="m 0,0 h -19.726 c -1.15,0 -2.084,0.933 -2.084,2.083 0,1.151 0.934,2.084 2.084,2.084 H 0 C 1.15,4.167 2.083,3.234 2.083,2.083 2.083,0.933 1.15,0 0,0"
             style="fill:#ffffff;fill-opacity:1;fill-rule:nonzero;stroke:none"
             id="path1616"
             inkscape:connector-curvature="0" /></g><g
           id="g1618"
           transform="matrix(3.9410555,0,0,4.0743821,199.03594,335.43591)"><path
             d="m 0,0 h -6.367 c -1.151,0 -2.084,0.933 -2.084,2.083 0,1.151 0.933,2.084 2.084,2.084 H 0 C 1.15,4.167 2.083,3.234 2.083,2.083 2.083,0.933 1.15,0 0,0"
             style="fill:#ffffff;fill-opacity:1;fill-rule:nonzero;stroke:none"
             id="path1620"
             inkscape:connector-curvature="0" /></g><g
           id="g1622"
           transform="matrix(3.9410555,0,0,4.0743821,250.77963,335.43591)"><path
             d="m 0,0 h -6.368 c -1.15,0 -2.083,0.933 -2.083,2.083 0,1.151 0.933,2.084 2.083,2.084 H 0 C 1.15,4.167 2.083,3.234 2.083,2.083 2.083,0.933 1.15,0 0,0"
             style="fill:#ffffff;fill-opacity:1;fill-rule:nonzero;stroke:none"
             id="path1624"
             inkscape:connector-curvature="0" /></g><g
           id="g1626"
           transform="matrix(3.9410555,0,0,4.0743821,390.54442,335.43591)"><path
             d="m 0,0 h -2.01 c -1.151,0 -2.083,0.933 -2.083,2.083 0,1.151 0.932,2.084 2.083,2.084 H 0 C 1.151,4.167 2.083,3.234 2.083,2.083 2.083,0.933 1.151,0 0,0"
             style="fill:#fe168d;fill-opacity:1;fill-rule:nonzero;stroke:none"
             id="path1628"
             inkscape:connector-curvature="0" /></g><g
           id="g1630"
           transform="matrix(3.9410555,0,0,4.0743821,425.45586,335.43591)"><path
             d="m 0,0 h -2.011 c -1.15,0 -2.083,0.933 -2.083,2.083 0,1.151 0.933,2.084 2.083,2.084 H 0 C 1.15,4.167 2.083,3.234 2.083,2.083 2.083,0.933 1.15,0 0,0"
             style="fill:#fe168d;fill-opacity:1;fill-rule:nonzero;stroke:none"
             id="path1632"
             inkscape:connector-curvature="0" /></g><g
           id="g1638"
           transform="matrix(3.9410555,0,0,4.0743821,495.27481,335.43591)"><path
             d="m 0,0 h -2.011 c -1.15,0 -2.083,0.933 -2.083,2.083 0,1.151 0.933,2.084 2.083,2.084 H 0 C 1.15,4.167 2.083,3.234 2.083,2.083 2.083,0.933 1.15,0 0,0"
             style="fill:#ffffff;fill-opacity:1;fill-rule:nonzero;stroke:none"
             id="path1640"
             inkscape:connector-curvature="0" /></g><g
           id="g1642"
           transform="matrix(3.9410555,0,0,4.0743821,110.21951,304.19966)"><path
             d="m 0,0 h -10.444 c -1.151,0 -2.084,0.933 -2.084,2.083 0,1.151 0.933,2.084 2.084,2.084 H 0 C 1.151,4.167 2.083,3.234 2.083,2.083 2.083,0.933 1.151,0 0,0"
             style="fill:#ffffff;fill-opacity:1;fill-rule:nonzero;stroke:none"
             id="path1644"
             inkscape:connector-curvature="0" /></g><g
           id="g1646"
           transform="matrix(3.9410555,0,0,4.0743821,237.92863,304.19966)"><path
             d="m 0,0 h -10.444 c -1.151,0 -2.084,0.933 -2.084,2.083 0,1.151 0.933,2.084 2.084,2.084 H 0 C 1.15,4.167 2.083,3.234 2.083,2.083 2.083,0.933 1.15,0 0,0"
             style="fill:#fe168d;fill-opacity:1;fill-rule:nonzero;stroke:none"
             id="path1648"
             inkscape:connector-curvature="0" /></g><g
           id="g1650"
           transform="matrix(3.9410555,0,0,4.0743821,262.72968,304.19966)"><path
             d="m 0,0 h -0.58 c -1.15,0 -2.083,0.933 -2.083,2.083 0,1.151 0.933,2.084 2.083,2.084 H 0 C 1.15,4.167 2.083,3.234 2.083,2.083 2.083,0.933 1.15,0 0,0"
             style="fill:#ffffff;fill-opacity:1;fill-rule:nonzero;stroke:none"
             id="path1652"
             inkscape:connector-curvature="0" /></g><g
           id="g1654"
           transform="matrix(3.9410555,0,0,4.0743821,142.16375,304.19966)"><path
             d="m 0,0 h -2.275 c -1.151,0 -2.083,0.933 -2.083,2.083 0,1.151 0.932,2.084 2.083,2.084 H 0 C 1.15,4.167 2.083,3.234 2.083,2.083 2.083,0.933 1.15,0 0,0"
             style="fill:#ffffff;fill-opacity:1;fill-rule:nonzero;stroke:none"
             id="path1656"
             inkscape:connector-curvature="0" /></g><g
           id="g1658"
           transform="matrix(3.9410555,0,0,4.0743821,173.80568,304.19966)"><path
             d="m 0,0 h -2.275 c -1.151,0 -2.083,0.933 -2.083,2.083 0,1.151 0.932,2.084 2.083,2.084 H 0 C 1.151,4.167 2.083,3.234 2.083,2.083 2.083,0.933 1.151,0 0,0"
             style="fill:#ffffff;fill-opacity:1;fill-rule:nonzero;stroke:none"
             id="path1660"
             inkscape:connector-curvature="0" /></g><g
           id="g1662"
           transform="matrix(3.9410555,0,0,4.0743821,164.38813,272.96137)"><path
             d="m 0,0 h -24.189 c -1.15,0 -2.083,0.933 -2.083,2.083 0,1.151 0.933,2.084 2.083,2.084 H 0 C 1.151,4.167 2.083,3.234 2.083,2.083 2.083,0.933 1.151,0 0,0"
             style="fill:#00ffff;fill-opacity:1;fill-rule:nonzero;stroke:none"
             id="path1664"
             inkscape:connector-curvature="0" /></g><g
           id="g1666"
           transform="matrix(3.9410555,0,0,4.0743821,336.1413,272.96137)"><path
             d="m 0,0 h -4.881 c -1.151,0 -2.084,0.933 -2.084,2.083 0,1.151 0.933,2.084 2.084,2.084 H 0 C 1.151,4.167 2.083,3.234 2.083,2.083 2.083,0.933 1.151,0 0,0"
             style="fill:#ffffff;fill-opacity:1;fill-rule:nonzero;stroke:none"
             id="path1668"
             inkscape:connector-curvature="0" /></g><g
           id="g1670"
           transform="matrix(3.9410555,0,0,4.0743821,374.48186,272.96137)"><path
             d="m 0,0 h -2.458 c -1.151,0 -2.084,0.933 -2.084,2.083 0,1.151 0.933,2.084 2.084,2.084 H 0 C 1.15,4.167 2.083,3.234 2.083,2.083 2.083,0.933 1.15,0 0,0"
             style="fill:#ffffff;fill-opacity:1;fill-rule:nonzero;stroke:none"
             id="path1672"
             inkscape:connector-curvature="0" /></g><g
           id="g1674"
           transform="matrix(3.9410555,0,0,4.0743821,412.50517,272.96137)"><path
             d="m 0,0 h -2.458 c -1.151,0 -2.084,0.933 -2.084,2.083 0,1.151 0.933,2.084 2.084,2.084 H 0 C 1.15,4.167 2.083,3.234 2.083,2.083 2.083,0.933 1.15,0 0,0"
             style="fill:#ffffff;fill-opacity:1;fill-rule:nonzero;stroke:none"
             id="path1676"
             inkscape:connector-curvature="0" /></g><g
           id="g1678"
           transform="matrix(3.9410555,0,0,4.0743821,226.38251,272.96137)"><path
             d="m 0,0 h -8.335 c -1.151,0 -2.083,0.933 -2.083,2.083 0,1.151 0.932,2.084 2.083,2.084 H 0 C 1.15,4.167 2.083,3.234 2.083,2.083 2.083,0.933 1.15,0 0,0"
             style="fill:#00ffff;fill-opacity:1;fill-rule:nonzero;stroke:none"
             id="path1680"
             inkscape:connector-curvature="0" /></g><g
           id="g1682"
           transform="matrix(3.9410555,0,0,4.0743821,287.79046,272.96137)"><path
             d="m 0,0 h -8.335 c -1.15,0 -2.083,0.933 -2.083,2.083 0,1.151 0.933,2.084 2.083,2.084 H 0 C 1.15,4.167 2.083,3.234 2.083,2.083 2.083,0.933 1.15,0 0,0"
             style="fill:#00ffff;fill-opacity:1;fill-rule:nonzero;stroke:none"
             id="path1684"
             inkscape:connector-curvature="0" /></g><g
           id="g1686"
           transform="matrix(3.9410555,0,0,4.0743821,177.9371,241.72512)"><path
             d="m 0,0 h -27.627 c -1.15,0 -2.083,0.933 -2.083,2.083 0,1.151 0.933,2.084 2.083,2.084 H 0 C 1.151,4.167 2.083,3.234 2.083,2.083 2.083,0.933 1.151,0 0,0"
             style="fill:#ffffff;fill-opacity:1;fill-rule:nonzero;stroke:none"
             id="path1688"
             inkscape:connector-curvature="0" /></g><g
           id="g1694"
           transform="matrix(3.9410555,0,0,4.0743821,509.79997,241.72512)"><path
             d="m 0,0 h -6.162 c -1.15,0 -2.083,0.933 -2.083,2.083 0,1.151 0.933,2.084 2.083,2.084 H 0 C 1.15,4.167 2.083,3.234 2.083,2.083 2.083,0.933 1.15,0 0,0"
             style="fill:#ffffff;fill-opacity:1;fill-rule:nonzero;stroke:none"
             id="path1696"
             inkscape:connector-curvature="0" /></g><g
           id="g1698"
           transform="matrix(3.9410555,0,0,4.0743821,118.34795,210.48887)"><path
             d="m 0,0 h -12.507 c -1.15,0 -2.083,0.933 -2.083,2.083 0,1.15 0.933,2.083 2.083,2.083 H 0 C 1.15,4.166 2.083,3.233 2.083,2.083 2.083,0.933 1.15,0 0,0"
             style="fill:#ffffff;fill-opacity:1;fill-rule:nonzero;stroke:none"
             id="path1700"
             inkscape:connector-curvature="0" /></g><g
           id="g1702"
           transform="matrix(3.9410555,0,0,4.0743821,264.08227,210.48887)"><path
             d="m 0,0 h -12.506 c -1.151,0 -2.084,0.933 -2.084,2.083 0,1.15 0.933,2.083 2.084,2.083 H 0 C 1.151,4.166 2.083,3.233 2.083,2.083 2.083,0.933 1.151,0 0,0"
             style="fill:#fe168d;fill-opacity:1;fill-rule:nonzero;stroke:none"
             id="path1704"
             inkscape:connector-curvature="0" /></g><g
           id="g1706"
           transform="matrix(3.9410555,0,0,4.0743821,292.38376,210.48887)"><path
             d="m 0,0 h -1.25 c -1.15,0 -2.083,0.933 -2.083,2.083 0,1.15 0.933,2.083 2.083,2.083 H 0 C 1.151,4.166 2.083,3.233 2.083,2.083 2.083,0.933 1.151,0 0,0"
             style="fill:#fe168d;fill-opacity:1;fill-rule:nonzero;stroke:none"
             id="path1708"
             inkscape:connector-curvature="0" /></g><g
           id="g1710"
           transform="matrix(3.9410555,0,0,4.0743821,154.80074,210.48887)"><path
             d="m 0,0 h -3.185 c -1.15,0 -2.083,0.933 -2.083,2.083 0,1.15 0.933,2.083 2.083,2.083 H 0 C 1.15,4.166 2.083,3.233 2.083,2.083 2.083,0.933 1.15,0 0,0"
             style="fill:#ffffff;fill-opacity:1;fill-rule:nonzero;stroke:none"
             id="path1712"
             inkscape:connector-curvature="0" /></g><g
           id="g1714"
           transform="matrix(3.9410555,0,0,4.0743821,190.90948,210.48887)"><path
             d="m 0,0 h -3.185 c -1.15,0 -2.083,0.933 -2.083,2.083 0,1.15 0.933,2.083 2.083,2.083 H 0 C 1.15,4.166 2.083,3.233 2.083,2.083 2.083,0.933 1.15,0 0,0"
             style="fill:#c2ffc2;fill-opacity:1;fill-rule:nonzero;stroke:none"
             id="path1716"
             inkscape:connector-curvature="0" /></g><g
           id="g1718"
           transform="matrix(3.9410555,0,0,4.0743821,129.16101,179.25058)"><path
             d="m 0,0 h -15.25 c -1.151,0 -2.084,0.933 -2.084,2.083 0,1.151 0.933,2.084 2.084,2.084 H 0 C 1.15,4.167 2.083,3.234 2.083,2.083 2.083,0.933 1.15,0 0,0"
             style="fill:#ffffff;fill-opacity:1;fill-rule:nonzero;stroke:none"
             id="path1720"
             inkscape:connector-curvature="0" /></g><g
           id="g1722"
           transform="matrix(3.9410555,0,0,4.0743821,298.87469,179.25058)"><path
             d="m 0,0 h -15.25 c -1.151,0 -2.083,0.933 -2.083,2.083 0,1.151 0.932,2.084 2.083,2.084 H 0 C 1.151,4.167 2.083,3.234 2.083,2.083 2.083,0.933 1.151,0 0,0"
             style="fill:#00ffff;fill-opacity:1;fill-rule:nonzero;stroke:none"
             id="path1724"
             inkscape:connector-curvature="0" /></g><g
           id="g1726"
           transform="matrix(3.9410555,0,0,4.0743821,331.83294,179.25058)"><path
             d="m 0,0 h -2.141 c -1.151,0 -2.083,0.933 -2.083,2.083 0,1.151 0.932,2.084 2.083,2.084 H 0 C 1.151,4.167 2.083,3.234 2.083,2.083 2.083,0.933 1.151,0 0,0"
             style="fill:#00ffff;fill-opacity:1;fill-rule:nonzero;stroke:none"
             id="path1728"
             inkscape:connector-curvature="0" /></g><g
           id="g1730"
           transform="matrix(3.9410555,0,0,4.0743821,171.6121,179.25058)"><path
             d="m 0,0 h -4.394 c -1.151,0 -2.084,0.933 -2.084,2.083 0,1.151 0.933,2.084 2.084,2.084 H 0 C 1.15,4.167 2.083,3.234 2.083,2.083 2.083,0.933 1.15,0 0,0"
             style="fill:#00ffff;fill-opacity:1;fill-rule:nonzero;stroke:none"
             id="path1732"
             inkscape:connector-curvature="0" /></g><g
           id="g1734"
           transform="matrix(3.9410555,0,0,4.0743821,213.66079,179.25058)"><path
             d="m 0,0 h -4.394 c -1.15,0 -2.083,0.933 -2.083,2.083 0,1.151 0.933,2.084 2.083,2.084 H 0 C 1.151,4.167 2.083,3.234 2.083,2.083 2.083,0.933 1.151,0 0,0"
             style="fill:#00ffff;fill-opacity:1;fill-rule:nonzero;stroke:none"
             id="path1736"
             inkscape:connector-curvature="0" /></g><g
           id="g1746"
           transform="matrix(3.9410555,0,0,4.0743821,258.92343,397.91044)"><path
             d="m 0,0 h -10.676 c -1.151,0 -2.084,0.933 -2.084,2.083 0,1.151 0.933,2.084 2.084,2.084 H 0 C 1.151,4.167 2.083,3.234 2.083,2.083 2.083,0.933 1.151,0 0,0"
             style="fill:#ffe068;fill-opacity:1;fill-rule:nonzero;stroke:none"
             id="path1748"
             inkscape:connector-curvature="0" /></g><g
           id="g1750"
           transform="matrix(3.9410555,0,0,4.0743821,285.816,335.43591)"><path
             d="m 0,0 h -2.01 c -1.151,0 -2.083,0.933 -2.083,2.083 0,1.151 0.932,2.084 2.083,2.084 H 0 C 1.15,4.167 2.083,3.234 2.083,2.083 2.083,0.933 1.15,0 0,0"
             style="fill:#ffe068;fill-opacity:1;fill-rule:nonzero;stroke:none"
             id="path1752"
             inkscape:connector-curvature="0" /></g><g
           id="g1754"
           transform="matrix(3.9410555,0,0,4.0743821,320.72547,335.43591)"><path
             d="m 0,0 h -2.01 c -1.151,0 -2.083,0.933 -2.083,2.083 0,1.151 0.932,2.084 2.083,2.084 H 0 C 1.151,4.167 2.083,3.234 2.083,2.083 2.083,0.933 1.151,0 0,0"
             style="fill:#ffe068;fill-opacity:1;fill-rule:nonzero;stroke:none"
             id="path1756"
             inkscape:connector-curvature="0" /></g><g
           id="g1758"
           transform="matrix(3.9410555,0,0,4.0743821,355.63495,335.43591)"><path
             d="m 0,0 h -2.01 c -1.151,0 -2.083,0.933 -2.083,2.083 0,1.151 0.932,2.084 2.083,2.084 H 0 C 1.151,4.167 2.083,3.234 2.083,2.083 2.083,0.933 1.151,0 0,0"
             style="fill:#ffe068;fill-opacity:1;fill-rule:nonzero;stroke:none"
             id="path1760"
             inkscape:connector-curvature="0" /></g><g
           id="g1762"
           transform="matrix(3.9410555,0,0,4.0743821,247.44825,241.72512)"><path
             d="m 0,0 h -9.851 c -1.15,0 -2.083,0.933 -2.083,2.083 0,1.151 0.933,2.084 2.083,2.084 H 0 C 1.15,4.167 2.083,3.234 2.083,2.083 2.083,0.933 1.15,0 0,0"
             style="fill:#ffe068;fill-opacity:1;fill-rule:nonzero;stroke:none"
             id="path1764"
             inkscape:connector-curvature="0" /></g><g
           id="g1766"
           transform="matrix(3.9410555,0,0,4.0743821,316.30125,241.72512)"><path
             d="m 0,0 h -9.851 c -1.15,0 -2.083,0.933 -2.083,2.083 0,1.151 0.933,2.084 2.083,2.084 H 0 C 1.15,4.167 2.083,3.234 2.083,2.083 2.083,0.933 1.15,0 0,0"
             style="fill:#ffe068;fill-opacity:1;fill-rule:nonzero;stroke:none"
             id="path1768"
             inkscape:connector-curvature="0" /></g></g></g></g></svg>