<svg xmlns="http://www.w3.org/2000/svg" xml:space="preserve" width="666.667" height="666.667"><defs><clipPath clipPathUnits="userSpaceOnUse" id="a"><path d="M0 500h500V0H0z"/></clipPath><clipPath clipPathUnits="userSpaceOnUse" id="b"><path d="M129.047 275.588h32.29v-6.476h-32.29z"/></clipPath><clipPath clipPathUnits="userSpaceOnUse" id="c"><path d="M122.883 306.313h35.167v-16.56h-35.167z"/></clipPath><clipPath clipPathUnits="userSpaceOnUse" id="d"><path d="M0 500h500V0H0z"/></clipPath><clipPath clipPathUnits="userSpaceOnUse" id="e"><path d="M118.845 195.674h5.448v-45.919h-5.448z"/></clipPath><clipPath clipPathUnits="userSpaceOnUse" id="f"><path d="M127.507 220.424h5.834V168.06h-5.834z"/></clipPath><clipPath clipPathUnits="userSpaceOnUse" id="g"><path d="M90.746 275.588h21.922v-6.476H90.746z"/></clipPath><clipPath clipPathUnits="userSpaceOnUse" id="h"><path d="M355.247 329.186h35.167v-16.56h-35.167z"/></clipPath></defs><g clip-path="url(#a)" transform="matrix(2.78151 0 0 -3.1168 -348.402 1041.11)"><g clip-path="url(#b)" style="opacity:.30000299"><path d="M0 0h-25.814a3.238 3.238 0 1 0 0 6.477H0A3.239 3.239 0 0 0 0 0" style="fill:#000;fill-opacity:1;fill-rule:nonzero;stroke:none" transform="translate(158.1 269.112)"/></g><g clip-path="url(#c)" style="opacity:.30000299"><path d="M0 0a3.238 3.238 0 0 1-3.238 3.238h-25.814a3.238 3.238 0 1 1 0-6.476h2.008a1.78 1.78 0 0 0 1.779-1.78v-.047a1.78 1.78 0 0 0-1.779-1.78h-4.884a3.239 3.239 0 1 1 0-6.476h25.814a3.238 3.238 0 1 1 0 6.476h-3.009a1.78 1.78 0 0 0-1.779 1.78v.047c0 .983.797 1.78 1.779 1.78h5.885A3.238 3.238 0 0 1 0 0" style="fill:#000;fill-opacity:1;fill-rule:nonzero;stroke:none" transform="translate(158.05 303.075)"/></g></g><text transform="translate(169.467 78.43) scale(1.33333)" style="font-variant:normal;font-weight:400;font-stretch:normal;font-size:28px;font-family:Milkshake;-inkscape-font-specification:Milkshake;writing-mode:lr-tb;fill:#000;fill-opacity:1;fill-rule:nonzero;stroke:none"><tspan x="0 24.191999 35.195999 47.655998 60.535999 71.540001 84.839996 103.992 123.144 133.14 144.144 152.76801 158.64799 177.10001 189.56 203.252 213.612 223.608 236.62801" y="0">Programmers Concept</tspan></text><g clip-path="url(#d)" transform="matrix(1.33333 0 0 -1.33333 0 666.667)"><g clip-path="url(#e)" style="opacity:.46000701" transform="matrix(2.08613 0 0 2.3376 -261.302 -280.832)"><path d="M0 0c0 5.381 2.583 5.381 2.583 10.763C2.583 16.142 0 16.142 0 21.521c0 5.383 2.583 5.383 2.583 10.767C2.583 37.671 0 37.671 0 43.054" style="fill:none;stroke:#000;stroke-width:2.86400008;stroke-linecap:round;stroke-linejoin:round;stroke-miterlimit:10;stroke-dasharray:none;stroke-opacity:1" transform="translate(120.277 151.188)"/></g><g clip-path="url(#f)" style="opacity:.46000701" transform="matrix(2.08613 0 0 2.3376 -261.302 -280.832)"><path d="M0 0c0 6.187 2.97 6.187 2.97 12.374 0 6.185-2.97 6.185-2.97 12.37 0 6.189 2.97 6.189 2.97 12.378C2.97 43.312 0 43.312 0 49.5" style="fill:none;stroke:#000;stroke-width:2.86400008;stroke-linecap:round;stroke-linejoin:round;stroke-miterlimit:10;stroke-dasharray:none;stroke-opacity:1" transform="translate(128.939 169.491)"/></g><g clip-path="url(#g)" style="opacity:.30000299" transform="matrix(2.08613 0 0 2.3376 -261.302 -280.832)"><path d="M0 0h-15.446a3.239 3.239 0 1 0 0 6.477H0A3.239 3.239 0 0 0 0 0" style="fill:#000;fill-opacity:1;fill-rule:nonzero;stroke:none" transform="translate(109.43 269.112)"/></g><g clip-path="url(#h)" style="opacity:.30000299" transform="matrix(2.08613 0 0 2.3376 -261.302 -280.832)"><path d="M0 0a3.238 3.238 0 0 1-3.238 3.238h-25.814a3.238 3.238 0 1 1 0-6.476h2.008a1.78 1.78 0 0 0 1.779-1.78v-.048c0-.983-.797-1.779-1.779-1.779h-4.885a3.238 3.238 0 0 1 0-6.477h25.814a3.238 3.238 0 1 1 0 6.477h-3.008c-.982 0-1.779.796-1.779 1.779v.048c0 .983.797 1.78 1.779 1.78h5.885A3.238 3.238 0 0 1 0 0" style="fill:#000;fill-opacity:1;fill-rule:nonzero;stroke:none" transform="translate(390.414 325.948)"/></g><path d="M0 0v24.756a5.844 5.844 0 0 1-5.843 5.843h-.068a5.843 5.843 0 0 1-5.843-5.843v-1.489a5.843 5.843 0 0 0-11.686 0v20.041a6.197 6.197 0 0 1-12.393 0V1.44a6.554 6.554 0 0 0-13.107 0v36.228a5.844 5.844 0 0 1-5.843 5.844h-10.492" style="fill:none;stroke:#000;stroke-width:1;stroke-linecap:butt;stroke-linejoin:miter;stroke-miterlimit:10;stroke-dasharray:none;stroke-opacity:1" transform="translate(445.995 40.76)"/><path d="m0 0-1.282-16.872h44.33L41.767 0z" style="fill:#f1f1f1;fill-opacity:1;fill-rule:nonzero;stroke:none" transform="matrix(2.08613 0 0 2.3376 215.068 95.126)"/><path d="M0 0h-40.359l-.704-9.263H.704z" style="fill:gray;fill-opacity:1;fill-rule:nonzero;stroke:none" transform="matrix(2.08613 0 0 2.3376 300.73 116.778)"/><path d="M0 0h-66.66v4.265a3.013 3.013 0 0 0 3.014 3.013h60.632A3.014 3.014 0 0 0 0 4.265z" style="fill:#a4cde7;fill-opacity:1;fill-rule:nonzero;stroke:none" transform="matrix(2.08613 0 0 2.3376 328.164 42.153)"/><path d="M0 0h-196.115a5.984 5.984 0 0 1-5.984-5.984v-117.741H5.984V-5.984A5.984 5.984 0 0 1 0 0" style="fill:#a4cde7;fill-opacity:1;fill-rule:nonzero;stroke:none" transform="matrix(2.08613 0 0 2.3376 463.194 441.57)"/><path d="M0 0h98.884a5.984 5.984 0 0 1 5.985 5.983V20.18h-84.69z" style="fill:#e5e5e5;fill-opacity:1;fill-rule:nonzero;stroke:none" transform="matrix(2.08613 0 0 2.3376 256.908 105.18)"/><path d="M0 0v-14.196a5.984 5.984 0 0 1 5.984-5.984h97.231L123.394 0z" style="fill:#f1f1f1;fill-opacity:1;fill-rule:nonzero;stroke:none" transform="matrix(2.08613 0 0 2.3376 41.588 152.351)"/><path d="M457.734 171.696H56.78v252.858h400.955z" style="fill:#2c528f;fill-opacity:1;fill-rule:nonzero;stroke:none;stroke-width:2.20828938"/><path d="M0 0h-29.5a2.084 2.084 0 0 0 0 4.167H0A2.084 2.084 0 0 0 0 0" style="fill:#c2ffc2;fill-opacity:1;fill-rule:nonzero;stroke:none" transform="matrix(3.94106 0 0 4.07438 185.32 397.91)"/><path d="M0 0h-6.771a2.084 2.084 0 0 0 0 4.167H0A2.085 2.085 0 0 0 0 0" style="fill:#000;fill-opacity:1;fill-rule:nonzero;stroke:none" transform="matrix(3.94106 0 0 4.07438 536.73 397.91)"/><path d="M0 0h-10.676a2.084 2.084 0 1 0 0 4.167H0A2.083 2.083 0 0 0 0 0" style="fill:#fe168d;fill-opacity:1;fill-rule:nonzero;stroke:none" transform="matrix(3.94106 0 0 4.07438 331.833 397.91)"/><path d="M0 0h-19.726a2.084 2.084 0 0 0 0 4.167H0A2.084 2.084 0 0 0 0 0" style="fill:#0ff;fill-opacity:1;fill-rule:nonzero;stroke:none" transform="matrix(3.94106 0 0 4.07438 146.8 366.672)"/><path d="M0 0h-19.726a2.084 2.084 0 0 0 0 4.167H0A2.083 2.083 0 0 0 0 0" style="fill:#0ff;fill-opacity:1;fill-rule:nonzero;stroke:none" transform="matrix(3.94106 0 0 4.07438 355.635 366.672)"/><path d="M0 0h-3.595a2.083 2.083 0 1 0 0 4.167H0A2.084 2.084 0 0 0 0 0" style="fill:#000;fill-opacity:1;fill-rule:nonzero;stroke:none" transform="matrix(3.94106 0 0 4.07438 396.19 366.672)"/><path d="M0 0h-6.367a2.084 2.084 0 1 0 0 4.167H0A2.084 2.084 0 0 0 0 0" style="fill:#0ff;fill-opacity:1;fill-rule:nonzero;stroke:none" transform="matrix(3.94106 0 0 4.07438 199.036 366.672)"/><path d="M0 0h-6.368a2.084 2.084 0 0 0 0 4.167H0A2.084 2.084 0 0 0 0 0" style="fill:#0ff;fill-opacity:1;fill-rule:nonzero;stroke:none" transform="matrix(3.94106 0 0 4.07438 250.78 366.672)"/><path d="M0 0h-19.726a2.084 2.084 0 0 0 0 4.167H0A2.084 2.084 0 0 0 0 0" style="fill:#000;fill-opacity:1;fill-rule:nonzero;stroke:none" transform="matrix(3.94106 0 0 4.07438 146.8 335.436)"/><path d="M0 0h-6.367a2.084 2.084 0 1 0 0 4.167H0A2.084 2.084 0 0 0 0 0" style="fill:#000;fill-opacity:1;fill-rule:nonzero;stroke:none" transform="matrix(3.94106 0 0 4.07438 199.036 335.436)"/><path d="M0 0h-6.368a2.084 2.084 0 0 0 0 4.167H0A2.084 2.084 0 0 0 0 0" style="fill:#000;fill-opacity:1;fill-rule:nonzero;stroke:none" transform="matrix(3.94106 0 0 4.07438 250.78 335.436)"/><path d="M0 0h-2.01a2.083 2.083 0 1 0 0 4.167H0A2.083 2.083 0 0 0 0 0" style="fill:#fe168d;fill-opacity:1;fill-rule:nonzero;stroke:none" transform="matrix(3.94106 0 0 4.07438 390.544 335.436)"/><path d="M0 0h-2.011a2.084 2.084 0 0 0 0 4.167H0A2.084 2.084 0 0 0 0 0" style="fill:#fe168d;fill-opacity:1;fill-rule:nonzero;stroke:none" transform="matrix(3.94106 0 0 4.07438 425.456 335.436)"/><path d="M0 0h-2.011a2.084 2.084 0 0 0 0 4.167H0A2.084 2.084 0 0 0 0 0" style="fill:#000;fill-opacity:1;fill-rule:nonzero;stroke:none" transform="matrix(3.94106 0 0 4.07438 495.275 335.436)"/><path d="M0 0h-10.444a2.084 2.084 0 1 0 0 4.167H0A2.083 2.083 0 0 0 0 0" style="fill:#000;fill-opacity:1;fill-rule:nonzero;stroke:none" transform="matrix(3.94106 0 0 4.07438 110.22 304.2)"/><path d="M0 0h-10.444a2.084 2.084 0 1 0 0 4.167H0A2.084 2.084 0 0 0 0 0" style="fill:#fe168d;fill-opacity:1;fill-rule:nonzero;stroke:none" transform="matrix(3.94106 0 0 4.07438 237.929 304.2)"/><path d="M0 0h-.58a2.084 2.084 0 0 0 0 4.167H0A2.084 2.084 0 0 0 0 0" style="fill:#000;fill-opacity:1;fill-rule:nonzero;stroke:none" transform="matrix(3.94106 0 0 4.07438 262.73 304.2)"/><path d="M0 0h-2.275a2.083 2.083 0 1 0 0 4.167H0A2.084 2.084 0 0 0 0 0" style="fill:#000;fill-opacity:1;fill-rule:nonzero;stroke:none" transform="matrix(3.94106 0 0 4.07438 142.164 304.2)"/><path d="M0 0h-2.275a2.083 2.083 0 1 0 0 4.167H0A2.083 2.083 0 0 0 0 0" style="fill:#000;fill-opacity:1;fill-rule:nonzero;stroke:none" transform="matrix(3.94106 0 0 4.07438 173.806 304.2)"/><path d="M0 0h-24.189a2.084 2.084 0 0 0 0 4.167H0A2.083 2.083 0 0 0 0 0" style="fill:#0ff;fill-opacity:1;fill-rule:nonzero;stroke:none" transform="matrix(3.94106 0 0 4.07438 164.388 272.961)"/><path d="M0 0h-4.881a2.084 2.084 0 1 0 0 4.167H0A2.083 2.083 0 0 0 0 0" style="fill:#000;fill-opacity:1;fill-rule:nonzero;stroke:none" transform="matrix(3.94106 0 0 4.07438 336.141 272.961)"/><path d="M0 0h-2.458a2.084 2.084 0 1 0 0 4.167H0A2.084 2.084 0 0 0 0 0" style="fill:#000;fill-opacity:1;fill-rule:nonzero;stroke:none" transform="matrix(3.94106 0 0 4.07438 374.482 272.961)"/><path d="M0 0h-2.458a2.084 2.084 0 1 0 0 4.167H0A2.084 2.084 0 0 0 0 0" style="fill:#000;fill-opacity:1;fill-rule:nonzero;stroke:none" transform="matrix(3.94106 0 0 4.07438 412.505 272.961)"/><path d="M0 0h-8.335a2.083 2.083 0 1 0 0 4.167H0A2.084 2.084 0 0 0 0 0" style="fill:#0ff;fill-opacity:1;fill-rule:nonzero;stroke:none" transform="matrix(3.94106 0 0 4.07438 226.383 272.961)"/><path d="M0 0h-8.335a2.084 2.084 0 0 0 0 4.167H0A2.084 2.084 0 0 0 0 0" style="fill:#0ff;fill-opacity:1;fill-rule:nonzero;stroke:none" transform="matrix(3.94106 0 0 4.07438 287.79 272.961)"/><path d="M0 0h-27.627a2.084 2.084 0 0 0 0 4.167H0A2.083 2.083 0 0 0 0 0" style="fill:#000;fill-opacity:1;fill-rule:nonzero;stroke:none" transform="matrix(3.94106 0 0 4.07438 177.937 241.725)"/><path d="M0 0h-6.162a2.084 2.084 0 0 0 0 4.167H0A2.084 2.084 0 0 0 0 0" style="fill:#000;fill-opacity:1;fill-rule:nonzero;stroke:none" transform="matrix(3.94106 0 0 4.07438 509.8 241.725)"/><path d="M0 0h-12.507a2.084 2.084 0 0 0 0 4.166H0A2.084 2.084 0 0 0 0 0" style="fill:#000;fill-opacity:1;fill-rule:nonzero;stroke:none" transform="matrix(3.94106 0 0 4.07438 118.348 210.489)"/><path d="M0 0h-12.506a2.084 2.084 0 1 0 0 4.166H0A2.083 2.083 0 1 0 0 0" style="fill:#fe168d;fill-opacity:1;fill-rule:nonzero;stroke:none" transform="matrix(3.94106 0 0 4.07438 264.082 210.489)"/><path d="M0 0h-1.25a2.084 2.084 0 0 0 0 4.166H0A2.083 2.083 0 1 0 0 0" style="fill:#fe168d;fill-opacity:1;fill-rule:nonzero;stroke:none" transform="matrix(3.94106 0 0 4.07438 292.384 210.489)"/><path d="M0 0h-3.185a2.084 2.084 0 0 0 0 4.166H0A2.084 2.084 0 0 0 0 0" style="fill:#000;fill-opacity:1;fill-rule:nonzero;stroke:none" transform="matrix(3.94106 0 0 4.07438 154.8 210.489)"/><path d="M0 0h-3.185a2.084 2.084 0 0 0 0 4.166H0A2.084 2.084 0 0 0 0 0" style="fill:#c2ffc2;fill-opacity:1;fill-rule:nonzero;stroke:none" transform="matrix(3.94106 0 0 4.07438 190.91 210.489)"/><path d="M0 0h-15.25a2.084 2.084 0 1 0 0 4.167H0A2.084 2.084 0 0 0 0 0" style="fill:#000;fill-opacity:1;fill-rule:nonzero;stroke:none" transform="matrix(3.94106 0 0 4.07438 129.161 179.25)"/><path d="M0 0h-15.25a2.083 2.083 0 1 0 0 4.167H0A2.083 2.083 0 0 0 0 0" style="fill:#0ff;fill-opacity:1;fill-rule:nonzero;stroke:none" transform="matrix(3.94106 0 0 4.07438 298.875 179.25)"/><path d="M0 0h-2.141a2.083 2.083 0 1 0 0 4.167H0A2.083 2.083 0 0 0 0 0" style="fill:#0ff;fill-opacity:1;fill-rule:nonzero;stroke:none" transform="matrix(3.94106 0 0 4.07438 331.833 179.25)"/><path d="M0 0h-4.394a2.084 2.084 0 1 0 0 4.167H0A2.084 2.084 0 0 0 0 0" style="fill:#0ff;fill-opacity:1;fill-rule:nonzero;stroke:none" transform="matrix(3.94106 0 0 4.07438 171.612 179.25)"/><path d="M0 0h-4.394a2.084 2.084 0 0 0 0 4.167H0A2.083 2.083 0 0 0 0 0" style="fill:#0ff;fill-opacity:1;fill-rule:nonzero;stroke:none" transform="matrix(3.94106 0 0 4.07438 213.66 179.25)"/><path d="M0 0h-10.676a2.084 2.084 0 1 0 0 4.167H0A2.083 2.083 0 0 0 0 0" style="fill:#ffe068;fill-opacity:1;fill-rule:nonzero;stroke:none" transform="matrix(3.94106 0 0 4.07438 258.923 397.91)"/><path d="M0 0h-2.01a2.083 2.083 0 1 0 0 4.167H0A2.084 2.084 0 0 0 0 0" style="fill:#ffe068;fill-opacity:1;fill-rule:nonzero;stroke:none" transform="matrix(3.94106 0 0 4.07438 285.816 335.436)"/><path d="M0 0h-2.01a2.083 2.083 0 1 0 0 4.167H0A2.083 2.083 0 0 0 0 0" style="fill:#ffe068;fill-opacity:1;fill-rule:nonzero;stroke:none" transform="matrix(3.94106 0 0 4.07438 320.725 335.436)"/><path d="M0 0h-2.01a2.083 2.083 0 1 0 0 4.167H0A2.083 2.083 0 0 0 0 0" style="fill:#ffe068;fill-opacity:1;fill-rule:nonzero;stroke:none" transform="matrix(3.94106 0 0 4.07438 355.635 335.436)"/><path d="M0 0h-9.851a2.084 2.084 0 0 0 0 4.167H0A2.084 2.084 0 0 0 0 0" style="fill:#ffe068;fill-opacity:1;fill-rule:nonzero;stroke:none" transform="matrix(3.94106 0 0 4.07438 247.448 241.725)"/><path d="M0 0h-9.851a2.084 2.084 0 0 0 0 4.167H0A2.084 2.084 0 0 0 0 0" style="fill:#ffe068;fill-opacity:1;fill-rule:nonzero;stroke:none" transform="matrix(3.94106 0 0 4.07438 316.301 241.725)"/></g></svg>