<svg height="48" width="48" xmlns="http://www.w3.org/2000/svg" xmlns:xlink="http://www.w3.org/1999/xlink"><linearGradient id="g" gradientTransform="matrix(.60698 -.79241 1.15735 .88651 -21.748 25.614)" gradientUnits="userSpaceOnUse" x1="5.752" x2="43.945" y1="43.663" y2="9.626"><stop offset="0" stop-color="#fb9400"/><stop offset="1" stop-color="#ffb000"/></linearGradient><linearGradient id="e" gradientTransform="translate(2.565 .09)" gradientUnits="userSpaceOnUse" x1="9.069" x2="15.63" xlink:href="#a" y1="13.31" y2="13.31"/><linearGradient id="c" gradientTransform="matrix(.07938 0 0 .07926 .687 6.702)" gradientUnits="userSpaceOnUse" x1="268.828" x2="436.702" xlink:href="#a" y1="221.905" y2="-22.281"/><radialGradient id="f" cx="25.477" cy="30.837" gradientTransform="matrix(.60698 -.79241 1.15735 .88651 -21.748 25.614)" gradientUnits="userSpaceOnUse" r="9.229"><stop offset="0" stop-color="#f24d00"/><stop offset="1" stop-color="#ffb000"/></radialGradient><linearGradient id="h" gradientUnits="userSpaceOnUse" x1="10.041" x2="25.513" y1="26.202" y2="26.202"><stop offset="0" stop-color="#de4000"/><stop offset="1" stop-color="#fab600"/></linearGradient><linearGradient id="b" gradientTransform="matrix(.07938 0 0 .07926 .567 9.413)" gradientUnits="userSpaceOnUse" x1="276.075" x2="263.68" xlink:href="#a" y1="521.298" y2="24.896"/><linearGradient id="d" gradientUnits="userSpaceOnUse" x1="23.901" x2="24.005" y1="37.535" y2="15.289"><stop offset="0" stop-color="#5043e2"/><stop offset="1" stop-color="#418dff"/></linearGradient><linearGradient id="a" gradientTransform="matrix(.91439 0 0 .913 -584.906 246.981)" gradientUnits="userSpaceOnUse" x1="276.075" x2="263.68" y1="521.298" y2="24.896"><stop offset="0" stop-color="#fc5500"/><stop offset="1" stop-color="#ffc200"/></linearGradient><g stroke-width=".087"><path d="M29.052 5.372c-3.072 6.925-3.126 10.71-2.137 13.412-.235-.02-.471-.031-.707-.035C14.819 21.046 3.918 3.253 5.294 30.104c1.364 10.27 10.24 16.475 19.67 16.338 9.037-.131 14.154-5.438 16.699-10.207 2.542-4.764 2.234-10.447.646-14.998.02.125.029.249.043.373-1.206-3.686-3.954-6.642-7.404-12.123-.63.461-.984 1.596-.984 1.596-3.714-2.94-3.352-3.64-4.912-5.711zm13.257 15.865c0-.007 0-.013-.002-.02l-.002-.033c-.003-.005 0 .004 0 .02v.02l.004.013z" fill="url(#b)"/><path d="M35.07 6.776c-.631.461-.985 1.595-.985 1.595-3.714-2.94-3.351-3.64-4.912-5.71-9.81 22.118 11.16 12.185-1.437 37.357 8.288-3.02 14.607-6.773 15.326-15.058.653-7.52-2.911-10.112-7.993-18.184z" fill="url(#c)"/></g><circle cx="24.492" cy="26.884" fill="url(#d)" r="11.445"/><path d="M17.639 16.324c.218.14.398.26.556.37a12.492 12.492 0 0 1-.076-6.586 19.957 19.957 0 0 0-6.486 5.012c.132-.003 4.04-.073 6.006 1.204z" fill="url(#e)"/><path d="M17.867 20.192a10.726 10.726 0 0 0-2.263 6.57 10.726 10.726 0 0 0 .129 1.61 8.518 8.518 0 0 0 1.777 2.638l6.12 6.12a10.726 10.726 0 0 0 2.698.359 10.726 10.726 0 0 0 9.819-6.424L25.512 20.43a10.36 10.36 0 0 1-7.645-.238z" fill-opacity=".078"/><path d="M34.256 22.346a4.03 4.03 0 0 0-.29-.237c-.04-.03-.078-.06-.12-.089a6.672 6.672 0 0 0-4.66-1.131c6.951 3.476 4.214 13.619-2.068 13.55-4.446-.049-4.926-.314-6.768-.852 8.978 5.032 14.756.903 16.577-2.533 1.496-4.132-.839-6.91-2.671-8.708z" fill="url(#f)"/><path d="M25.084 43.73c9.034-.278 14.154-5.437 16.7-10.206s2.233-10.46.641-15.013v-.02c0-.015-.003-.024 0-.02l.004.036c.733 4.781-1.7 9.414-5.502 12.547l-.012.026c-4.583 3.791-12.586 3.406-13.81 3.049-1.376-.402-7.27-3.72-6.95-7.1.357-3.765 2.035-5.338 6.945-5.098l2.413-1.5c-.008-.168-3.703-.886-5.104-2.266-.748-.738-1.103-1.093-1.418-1.36a6.172 6.172 0 0 0-.533-.404c-.122-.083-.26-.174-.426-.282-1.506-.98-4.5-.926-4.6-.923h-.01c-.818-1.037-.76-4.457-.713-5.171a3.69 3.69 0 0 0-.69.366 15.035 15.035 0 0 0-2.017 1.728 18.029 18.029 0 0 0-1.938 2.31v.004-.004C5.83 17.93 5.043 20.862 5.415 27.394c1.365 10.27 8.613 16.677 19.67 16.336z" fill="url(#g)"/><path d="M16.451 26.874s.638-4.14 6.558-4.14c.64 0 2.471-1.785 2.504-2.303a10.368 10.368 0 0 1-7.817-.307 7.853 7.853 0 0 0-7.655.307 5.347 5.347 0 0 0 4.932 3.102c-.386 3.404 1.194 8.023 6.059 9.596.097.047-.1-.044 0 0-2.543-1.313-4.319-3.24-4.58-6.255z" fill="url(#h)"/></svg>