<svg xmlns="http://www.w3.org/2000/svg" width="64" height="64" version="1"><rect style="fill:#5895dc" width="48" height="34" x="8" y="3" rx="2.5" ry="2.5"/><rect style="opacity:.1" width="48" height="34" x="8" y="8" rx="2.5" ry="2.5"/><rect style="fill:#89e058" width="48" height="34" x="8" y="9" rx="2.5" ry="2.5"/><rect style="opacity:.1" width="48" height="34" x="8" y="14" rx="2.5" ry="2.5"/><rect style="fill:#ffcd54" width="48" height="34" x="8" y="15" rx="2.5" ry="2.5"/><rect style="opacity:.2" width="56" height="40" x="4" y="22" rx="3" ry="3"/><rect style="fill:#8e8e8e" width="56" height="40" x="4" y="21" rx="3" ry="3"/><rect style="opacity:.2" width="20" height="6" x="22" y="38" rx="2" ry="2"/><rect style="fill:#ececec" width="20" height="6" x="22" y="37" rx="2" ry="2"/><path style="fill:#000;opacity:.1" d="M10.5 3A2.495 2.495 0 0 0 8 5.5v1C8 5.115 9.115 4 10.5 4h43C54.885 4 56 5.115 56 6.5v-1C56 4.115 54.885 3 53.5 3h-43zm0 6A2.495 2.495 0 0 0 8 11.5v1c0-1.385 1.115-2.5 2.5-2.5h43c1.385 0 2.5 1.115 2.5 2.5v-1c0-1.385-1.115-2.5-2.5-2.5zm0 6A2.495 2.495 0 0 0 8 17.5v1c0-1.385 1.115-2.5 2.5-2.5h43c1.385 0 2.5 1.115 2.5 2.5v-1c0-1.385-1.115-2.5-2.5-2.5z"/><circle style="opacity:.2" cx="48" cy="47" r="16"/><circle style="fill:#6ec149" cx="48" cy="46" r="16"/><path style="fill:#000" d="m46 38-.176 2.107a6.286 6.286 0 0 0-1.837 1.063l-1.916-.902-2 3.464 1.74 1.208a6.286 6.286 0 0 0-.097 1.06 6.286 6.286 0 0 0 .092 1.065l-1.735 1.203 2 3.464 1.91-.9a6.286 6.286 0 0 0 1.842 1.056L46 54h4l.176-2.107a6.286 6.286 0 0 0 1.837-1.063l1.915.902 2-3.464-1.738-1.208a6.286 6.286 0 0 0 .096-1.06 6.286 6.286 0 0 0-.092-1.065l1.735-1.203-2-3.464-1.911.9a6.286 6.286 0 0 0-1.842-1.057L50 38h-4zm2 5.714A2.286 2.286 0 0 1 50.286 46 2.286 2.286 0 0 1 48 48.286 2.286 2.286 0 0 1 45.714 46 2.286 2.286 0 0 1 48 43.714z"/></svg>