<svg xmlns="http://www.w3.org/2000/svg" xmlns:xlink="http://www.w3.org/1999/xlink" width="210mm" height="297mm" viewBox="0 0 210 297"><defs><linearGradient gradientTransform="matrix(.08724 -.02187 -.0232 -.09257 128.385 437.374)" xlink:href="#a" id="o" gradientUnits="userSpaceOnUse" x1="828.758" y1="2642.7" x2="981.024" y2="2325.004"/><linearGradient id="a"><stop style="stop-color:#f79399;stop-opacity:1" offset="0"/><stop style="stop-color:#e37723;stop-opacity:1" offset="1"/></linearGradient><linearGradient gradientTransform="matrix(.08724 -.02187 -.0232 -.09257 127.629 436.335)" xlink:href="#a" id="n" gradientUnits="userSpaceOnUse" x1="196.219" y1="2667.79" x2="336.815" y2="2302.315"/><linearGradient gradientTransform="matrix(.08724 -.02187 -.0232 -.09257 127.629 436.335)" xlink:href="#b" id="m" gradientUnits="userSpaceOnUse" x1="252.499" y1="2312.327" x2="577.789" y2="2656.186"/><linearGradient id="b"><stop style="stop-color:#8e2de2;stop-opacity:1" offset="0"/><stop style="stop-color:#cc5333;stop-opacity:1" offset="1"/></linearGradient><linearGradient gradientTransform="matrix(.08724 -.02187 -.0232 -.09257 128.385 437.374)" xlink:href="#b" id="l" gradientUnits="userSpaceOnUse" x1="816.701" y1="2298.842" x2="1281.667" y2="2687.551"/><linearGradient gradientTransform="matrix(.08724 -.02187 -.0232 -.09257 127.629 436.335)" xlink:href="#b" id="k" gradientUnits="userSpaceOnUse" x1="269.065" y1="2879.405" x2="582.917" y2="3163.462"/><linearGradient gradientTransform="matrix(.08724 -.02187 -.0232 -.09257 127.629 436.335)" xlink:href="#b" id="j" gradientUnits="userSpaceOnUse" x1="767.136" y1="2826.105" x2="1129.323" y2="3143.8"/><linearGradient gradientTransform="matrix(.08724 -.02187 -.0232 -.09257 127.629 436.335)" xlink:href="#c" id="i" gradientUnits="userSpaceOnUse" x1="537.648" y1="3624.37" x2="1627.576" y2="2581.582"/><linearGradient id="c"><stop style="stop-color:#8e2de2;stop-opacity:1" offset="0"/><stop style="stop-color:#4a00e0;stop-opacity:1" offset="1"/></linearGradient><linearGradient gradientTransform="matrix(.08724 -.02187 -.0232 -.09257 127.629 436.335)" xlink:href="#d" id="g" gradientUnits="userSpaceOnUse" x1="1108.688" y1="3248.174" x2="1433.979" y2="3442.529"/><linearGradient id="d"><stop style="stop-color:#2193b0;stop-opacity:1" offset="0"/><stop style="stop-color:#6dd5ed;stop-opacity:1" offset="1"/></linearGradient><linearGradient gradientTransform="matrix(.08724 -.02187 -.0232 -.09257 127.629 436.335)" xlink:href="#d" id="f" gradientUnits="userSpaceOnUse" x1="939.633" y1="3780.427" x2="1147.922" y2="3877.605"/><linearGradient gradientTransform="matrix(.08724 -.02187 -.0232 -.09257 127.629 436.335)" xlink:href="#d" id="e" gradientUnits="userSpaceOnUse" x1="492.753" y1="3746.205" x2="637.753" y2="3910.659"/><filter style="color-interpolation-filters:sRGB" id="h"><feGaussianBlur stdDeviation="1 1" result="blur"/></filter></defs><path d="M79.4 75.232s-6.07-6.327-2.814-20.027c3.257-13.702 4.993 3.025 13.188 5.446 8.193 2.42.471 12.528.471 12.528s-4.69 5.326-10.845 2.053" style="fill:url(#e);fill-opacity:1;fill-rule:nonzero;stroke:none;stroke-width:.09264379"/><path d="M138.41 64.304s3.285-8.07-4.86-19.647c-8.147-11.576-3.517 4.612-10.237 9.812-6.72 5.199 4.239 11.825 4.239 11.825s6.352 3.27 10.858-1.99" style="fill:url(#f);fill-opacity:1;fill-rule:nonzero;stroke:none;stroke-width:.09264379"/><path d="M159.735 118.774s-9.142-22.232-1.822-33.425c7.32-11.194 31.886-18.34 26.544-9.51-5.34 8.83-6.775 7.483-1.987 13.889 4.788 6.405-5.235 5.899-7.177 5.941-1.941.042 3.458 11.636.124 12.328-3.335.693-11.308-2.105-11.218 9.177.09 11.282-4.464 1.6-4.464 1.6" style="opacity:1;fill:url(#g);fill-opacity:1;fill-rule:nonzero;stroke:none;stroke-width:.09264379"/><path d="M143.668 248.189c-30.364 0-54.979-5.104-54.979-11.4 0-6.295 24.615-11.399 54.98-11.399 30.364 0 54.979 5.104 54.979 11.4 0 6.295-24.615 11.399-54.98 11.399" style="fill:#6a6a68;fill-opacity:.51999996;fill-rule:nonzero;stroke:none;stroke-width:.06111827;filter:url(#h)"/><path d="M138.41 64.304c-8.746-7.515-24.303-15.258-43.227-4.3-21.113 12.228-19.36 32.253-19.734 43.789-.532 16.342-.453 26.695 9.551 31.58 7.819 3.818 12.62 3.423 12.62 3.423s-11.429 24.662 1.102 58.9c5.585 15.265 13.415 12.078 13.415 12.078s10.312-4.412 19.131-4.797c10.141-.443 26.267 1.729 34.59-4.172 8.323-5.9 14.387-8.086 28.525-17.823 16.912-17.533 9.58-52.78 7.383-56.508-3.478-5.926-6.601 25.07-15.657 24.816-11.188-.316-15.954-4.678-17.996-18.033-2.041-13.357-10.634-56.746-29.703-68.953" style="fill:url(#i);fill-opacity:1;fill-rule:nonzero;stroke:none;stroke-width:.09264379"/><path d="M111.779 91.904c3.095 6.236 8.422 7.085 13.215 4.548 4.792-2.536 7.236-7.498 4.141-13.734-3.095-6.237-10.557-11.387-15.35-8.85-4.793 2.536-5.101 11.799-2.006 18.036M77.77 94.733c-.28 6.264 2.912 9.444 7.01 9.767 4.1.323 7.552-2.331 7.832-8.596.279-6.264-2.72-13.764-6.82-14.088-4.098-.323-7.743 6.654-8.023 12.917" style="fill:#000;fill-opacity:1;fill-rule:nonzero;stroke:none;stroke-width:.09264379"/><path d="M118.18 87.222c1.172 4.676 4.55 7.86 7.545 7.108 2.994-.75 4.472-5.15 3.299-9.827-1.172-4.677-4.55-7.86-7.545-7.109-2.995.751-4.472 5.151-3.3 9.828m-35.096 7.325c.883 4.4 3.64 7.57 6.159 7.08 2.518-.49 3.843-4.454 2.96-8.854-.883-4.4-3.64-7.569-6.158-7.079-2.519.49-3.844 4.453-2.96 8.853" style="fill:#093735;fill-opacity:1;fill-rule:nonzero;stroke:none;stroke-width:.09264379"/><path d="M139.495 179.03s-4.919-9.855-2.294-11.672c2.624-1.816 5.457 4.12 5.457 4.12l-3.163 7.552m5.81-5.746s-3.241-10.557-.345-11.857c2.897-1.299 4.721 5.037 4.721 5.037l-4.376 6.82m6.421-.721s-.111-11.009 3.047-11.32c3.158-.312 4.147 8.628 4.147 8.628l-7.194 2.692" style="fill:#fde0bc;fill-opacity:1;fill-rule:nonzero;stroke:none;stroke-width:.09264379"/><path style="fill:#e44555;fill-opacity:1;fill-rule:nonzero;stroke:none;stroke-width:.99999994" d="M666.48 3400.82c51.36-30.56 111.08-57.77 186.88-7.63 75.81 50.13 176.34-27.9 120.1-137.94-56.24-110.04-203.65-143.13-326.15-117.09-132.87 28.25-280.6 128.69-209.41 270 70.63 140.18 177.23 23.23 228.58-7.34" transform="matrix(.0798 -.0415 -.04403 -.08467 202.398 424.478)"/><path style="fill:#6b1b25;fill-opacity:1;fill-rule:nonzero;stroke:none;stroke-width:.99999994" d="M853.36 3393.19c-75.8-50.14-135.52-22.93-186.88 7.63-51.35 30.57-157.95 147.52-228.58 7.34-21.43-42.53-22.92-81.32-11.06-115.6 41.52 65.79 120.89 94.72 200.2 57.24-125.79-67.17 16.045-133.773 156.12-216 80.52 11.94 154.2 50.82 190.3 121.45 56.24 110.04-44.29 188.07-120.1 137.94" transform="matrix(.0798 -.0415 -.04403 -.08467 202.398 424.478)"/><path style="fill:#000;fill-opacity:1;fill-rule:nonzero;stroke:none;stroke-width:.99999994" d="M563.454 3467.04s-16.82-73.63 0-79.03c16.82-5.39 47.37 52.35 47.37 52.35l-47.37 26.68m165.74-96.311s16.76-73.64 34.26-71.22c17.5 2.42 20 67.71 20 67.71l-54.26 3.51" transform="matrix(.0798 -.0415 -.04403 -.08467 202.398 424.478)"/><path d="M122.695 136.126s-5.291-6.181-4.648-7.792c.643-1.61 5.172.786 5.172.786l-.524 7.006m1.54-6.49s-5.294-6.329-2.9-6.638c2.394-.31 5.68 2.877 5.68 2.877l-2.78 3.761" style="fill:#fde0bc;fill-opacity:1;fill-rule:nonzero;stroke:none;stroke-width:.09264379"/><path d="M126.788 126.888s-2.333-6.511-.852-7.174c1.482-.663 5.113 5.057 5.113 5.057l-4.26 2.117" style="fill:#fde0bc;fill-opacity:1;fill-rule:nonzero;stroke:none;stroke-width:.09264379"/><path d="M141.63 119.695s.981-7.669 7.128-8.461c6.147-.794 15.56 9.565 12.473 22.56-3.088 12.995-5.052 19.223-18.894 21.197-13.842 1.974-24.867-19.681-20.164-26.048 5.265-7.127 11.504-8.022 16.877-.7l2.58-8.548" style="fill:url(#j);fill-opacity:1;fill-rule:nonzero;stroke:none;stroke-width:.09264379"/><path d="M88.585 136.821s.213-8.75 2.612-8.845c2.399-.096 2.183 5.118 2.183 5.118l-4.795 3.727m5.977-4.572s.426-4.704 3.21-4.52c2.785.184 2.504 6.131 2.504 6.131l-5.714-1.611m5.908 2.307s1.705-5.15 3.508-4.605c1.803.544 1.93 7.895 1.93 7.895l-5.437-3.29" style="fill:#fde0bc;fill-opacity:1;fill-rule:nonzero;stroke:none;stroke-width:.09264379"/><path d="M82.04 153.345s.637-19.554 11.419-21.589 16.777 7.899 15.73 21.655c-1.048 13.757-14.024 13.363-17.85 12.377-3.828-.986-10.689-3.41-9.299-12.443" style="fill:url(#k);fill-opacity:1;fill-rule:nonzero;stroke:none;stroke-width:.09264379"/><path d="M172.422 198.015c-1.45 2.65-15.733 20.843-29.72.033-15.977-23.77 1.8-32.645 9.2-31.258 7.398 1.387 7.018 3.081 7.018 3.081s5.294-13.028 14.682-9.333c9.387 3.695 19.574 24.433.768 34.97" style="fill:url(#l);fill-opacity:1;fill-rule:nonzero;stroke:none;stroke-width:.09264379"/><path d="M79.669 192.646s-4.92-9.855-2.295-11.672c2.624-1.816 5.457 4.121 5.457 4.121l-3.162 7.551m5.81-5.746s-3.242-10.558-.345-11.857c2.897-1.3 4.72 5.038 4.72 5.038l-4.375 6.82m6.421-.721s-.111-11.01 3.046-11.321c3.158-.312 3.108 6.256 3.108 6.256l-6.155 5.064" style="fill:#fde0bc;fill-opacity:1;fill-rule:nonzero;stroke:none;stroke-width:.09264379"/><path d="M100.028 182.512c-1.655-.438-5.13-3.806-9.757-2.637-6.806 1.72-12.818 4.847-11.353 15.324 1.466 10.477 12.988 26.79 26.061 20.567 13.073-6.226 10.23-6.359 12.425-6.963 6.514-1.794-1.507-43.239-17.376-26.29" style="fill:url(#m);fill-opacity:1;fill-rule:nonzero;stroke:none;stroke-width:.09264379"/><path d="M82.729 202.06c3.237 8.349 10.412 13.27 16.026 10.993 5.615-2.277 7.542-10.89 4.305-19.239s-10.413-13.27-16.027-10.993c-5.614 2.277-7.54 10.89-4.304 19.239" style="fill:url(#n);fill-opacity:1;fill-rule:nonzero;stroke:none;stroke-width:.09264379"/><path d="M141.59 191.08c3.236 8.348 10.411 13.27 16.025 10.993 5.615-2.278 7.542-10.891 4.305-19.24-3.237-8.348-10.412-13.27-16.027-10.993-5.614 2.278-7.54 10.891-4.304 19.24" style="fill:url(#o);fill-opacity:1;fill-rule:nonzero;stroke:none;stroke-width:.09264379"/><path d="M103.866 102.867c.252 1.699-.35 3.126-1.652 3.174-.914.034-1.546-.482-1.739-2.188-.193-1.705.735-3.207 1.652-3.175 1.293.045 1.611 1.328 1.739 2.189m8.578-3.629c1.136 1.044 1.664 2.56 1.013 3.614-.458.742-1.094.86-2.203-.236-1.108-1.095-1.512-2.919-1.013-3.615.703-.98 1.628-.292 2.203.237" style="fill:#4f171e;fill-opacity:1;fill-rule:nonzero;stroke:none;stroke-width:.09264379"/></svg>