<svg xmlns="http://www.w3.org/2000/svg" xmlns:xlink="http://www.w3.org/1999/xlink" width="48" height="48"><defs><linearGradient id="b"><stop offset="0" style="stop-color:#bbb9b9;stop-opacity:1"/><stop offset="1" style="stop-color:#f3f9f9;stop-opacity:1"/></linearGradient><linearGradient id="a"><stop style="stop-color:#016ed4;stop-opacity:1" offset="0"/><stop style="stop-color:#00b1ff;stop-opacity:1" offset="1"/></linearGradient><linearGradient xlink:href="#a" id="d" x1="-324.944" y1="649.741" x2="-328.21" y2="307.753" gradientUnits="userSpaceOnUse"/><linearGradient xlink:href="#b" id="e" gradientUnits="userSpaceOnUse" x1="-326.596" y1="651.76" x2="-326.596" y2="304.866"/><linearGradient id="c"><stop style="stop-color:#787777;stop-opacity:1" offset="0"/><stop style="stop-color:#cde2e9;stop-opacity:1" offset="1"/></linearGradient><linearGradient xlink:href="#c" id="f" gradientUnits="userSpaceOnUse" gradientTransform="translate(-32.452 47.674) scale(.90042)" x1="-326.596" y1="651.76" x2="-326.596" y2="304.866"/></defs><g transform="translate(69.191 -42.184) scale(.13837)" style="fill:url(#d);fill-opacity:1;stroke:none;stroke-width:15.27018261;stroke-miterlimit:4;stroke-dasharray:none"><circle r="173.447" cy="478.747" cx="-325.887" style="opacity:1;fill:url(#e);fill-opacity:1;stroke:none;stroke-width:15.44461155;stroke-linecap:round;stroke-linejoin:round;stroke-miterlimit:4;stroke-dasharray:none;stroke-opacity:1"/><circle style="opacity:1;fill:url(#f);fill-opacity:1;stroke:none;stroke-width:15.4446106;stroke-linecap:round;stroke-linejoin:round;stroke-miterlimit:4;stroke-dasharray:none;stroke-opacity:1" cx="-325.887" cy="478.747" r="156.175"/></g><path style="fill:#484d4f;fill-opacity:1" d="m-284.09 495.58-10.996 39.612c-.13.475-.406.894-.778 1.21l-33.812 28.175a2.408 2.408 0 0 1-1.537.556c-.242 0-.467-.035-.7-.108a2.404 2.404 0 0 1-1.605-1.628l-11.614-39.998c-8.463.342-15.931-1.598-22.077-5.83l-15.39 12.669c-.977.8-2.398.718-3.272-.2l-11.427-12.05a2.438 2.438 0 0 1-.658-1.743c0-.646.303-1.257.779-1.693l15.236-14.002c-1.3-3.556-3.634-12.417-1.16-25.898l-39.157-14.327a2.402 2.402 0 0 1-1.515-1.713c-.19-.791 0-1.62.606-2.21l30.319-31.92c.354-.372.813-.62 1.318-.713l39.937-7.155c7.516-8.707 16.26-17.516 25.997-26.201 56.074-50 99.906-57.462 121.041-57.462 6.957 0 10.792.846 10.953.88a2.41 2.41 0 0 1 1.844 1.945c.423 2.488 9.546 61.762-67.433 138.898-.104.099-10.42 10.121-24.893 20.905zm-3.638-43.119c13.394 0 24.249-10.877 24.249-24.298 0-13.421-10.855-24.299-24.249-24.299-13.393 0-24.249 10.878-24.249 24.299 0 13.42 10.856 24.298 24.25 24.298zm-91.271 86.924a2.115 2.115 0 0 1 1.987-.543c.71.176 1.284.7 1.514 1.394l5.516 16.417c.268.786.086 1.654-.545 2.227l-26.156 25.05a2.135 2.135 0 0 1-1.476.595h-22.048c-.87 0-1.65-.53-1.98-1.334a2.155 2.155 0 0 1 .494-2.338L-379 539.385zM-408.21 526c.406-.423.963-1.313 1.544-1.313h.086c.606 0 1.165.932 1.557 1.39l9.482 11.642a2.147 2.147 0 0 1-.086 2.894l-42.263 43.276c-.398.41-.951.641-1.522.641h-9.119a2.136 2.136 0 0 1-2.133-2.137V572.16c0-.548.217-1.402.589-1.8l41.899-44.362zm-41.844 5.265 30.536-29.825a2.119 2.119 0 0 1 2.628-.273l12.502 7.933c.553.35.908.927.976 1.573a2.074 2.074 0 0 1-.622 1.748l-43.039 42.776a2.137 2.137 0 0 1-2.327.453 2.135 2.135 0 0 1-1.305-1.97v-20.89c0-.573.233-1.129.64-1.526z" transform="translate(59.308 -25.21) scale(.10954)"/></svg>