<svg xmlns="http://www.w3.org/2000/svg" width="64" height="64" version="1"><path style="opacity:.2" d="M54.723 7.14a4.818 4.818 0 0 0-.711.098l-29.95 6.907C19.841 14.677 20 19 20 19v28.022c4.731 1.341 7.998-3.94 8 .978V21.316l22-5.234v24.94c4.731 1.341 7.998-3.94 8 .978V11s.047-4.054-3.277-3.86zM58 42c-.004.367-.026.733-.066 1.098.005-.033.012-.065.015-.098H58zm-30 6c-.004.334-.024.668-.059 1H28z"/><path style="fill:#378006" d="M54.723 6.14a4.818 4.818 0 0 0-.711.098l-29.95 6.907C19.841 13.677 20 18 20 18v28.022c4.731 1.341 7.998-3.94 8 .978V20.316l22-5.234v24.94c4.731 1.341 7.998-3.94 8 .978V10s.047-4.054-3.277-3.86zM58 41c-.004.367-.026.733-.066 1.098.005-.033.012-.065.015-.098H58zm-30 6c-.004.334-.024.668-.059 1H28z"/><path style="opacity:.2" d="M47 31a11 11 0 0 0-11 11 11 11 0 0 0 11 11 11 11 0 0 0 11-11 11 11 0 0 0-11-11zm-30 6A11 11 0 0 0 6 48a11 11 0 0 0 11 11 11 11 0 0 0 11-11 11 11 0 0 0-11-11z"/><path style="fill:#20bb63" d="M47 30a11 11 0 0 0-11 11 11 11 0 0 0 11 11 11 11 0 0 0 11-11 11 11 0 0 0-11-11zm-30 6A11 11 0 0 0 6 47a11 11 0 0 0 11 11 11 11 0 0 0 11-11 11 11 0 0 0-11-11z"/><path style="opacity:.1;fill:#fff" d="M54.723 6.14a4.818 4.818 0 0 0-.711.098l-29.95 6.907C19.841 13.677 20 18 20 18v1s-.159-4.323 4.063-4.855l29.949-6.907a4.83 4.83 0 0 1 .71-.097C58.048 6.946 58 11 58 11v-1s.047-4.054-3.277-3.86z"/><path style="opacity:.2;fill:#fff" d="M47 30a11 11 0 0 0-11 11 11 11 0 0 0 .021.416A11 11 0 0 1 47 31a11 11 0 0 1 10.975 10.488A11 11 0 0 0 58 41a11 11 0 0 0-11-11zm-30 6A11 11 0 0 0 6 47a11 11 0 0 0 .021.416A11 11 0 0 1 17 37a11 11 0 0 1 10.975 10.488A11 11 0 0 0 28 47a11 11 0 0 0-11-11z"/></svg>