<svg height="48" width="48" xmlns="http://www.w3.org/2000/svg"><linearGradient id="a" gradientTransform="matrix(1 0 0 .97651 0 11.327)" gradientUnits="userSpaceOnUse" x1="409.571" x2="409.571" y1="542.798" y2="507.798"><stop offset="0" stop-color="#2a2c2f"/><stop offset="1" stop-color="#424649"/></linearGradient><g transform="translate(-384.571 -500.298)"><rect fill-opacity=".667" height="33.201" ry="1.562" width="44" x="386.571" y="508.198"/><rect fill="url(#a)" height="33.201" ry="1.562" width="44" x="386.571" y="507.197"/></g><path d="M19.75 20.983a.258.258 0 0 0-.185-.07h-7.736a.258.258 0 0 0-.186.07.233.233 0 0 0-.072.176v.49c0 .072.024.131.072.177a.26.26 0 0 0 .186.069h7.736a.258.258 0 0 0 .185-.069.233.233 0 0 0 .072-.176v-.491a.232.232 0 0 0-.072-.176zM7.373 13.73a.262.262 0 0 0-.371 0l-.403.383a.237.237 0 0 0-.08.176c0 .067.026.125.08.177l3.167 3.013-3.167 3.013a.237.237 0 0 0-.08.176c0 .067.026.125.08.177l.403.383a.26.26 0 0 0 .37 0l3.756-3.573a.237.237 0 0 0 .08-.176.237.237 0 0 0-.08-.177z"/></svg>