<svg xmlns="http://www.w3.org/2000/svg" width="512" height="512" viewBox="0 0 475.071 475.071" style="enable-background:new 0 0 475.071 475.071" xml:space="preserve"><path d="M448.808 7.994C443.483 2.664 437.009 0 429.397 0c-3.046 0-5.715.383-7.994 1.143L183.861 74.232c-5.708 1.903-10.373 5.282-13.99 10.135-3.615 4.856-5.424 10.232-5.424 16.134v276.087c-16.562-7.426-34.833-11.139-54.818-11.139-8.564 0-17.749.999-27.55 2.994-9.806 1.995-19.657 5.041-29.552 9.134-9.9 4.093-18.083 9.853-24.556 17.271-6.471 7.423-9.705 15.899-9.705 25.413 0 9.521 3.234 17.987 9.705 25.413 6.473 7.419 14.655 13.179 24.556 17.271 9.899 4.093 19.75 7.136 29.552 9.134 9.801 1.995 18.986 2.991 27.55 2.991s17.746-.996 27.55-2.991c9.806-1.998 19.653-5.041 29.552-9.134 9.896-4.093 18.079-9.853 24.55-17.271 6.477-7.426 9.71-15.893 9.71-25.413v-202.42l219.271-67.665v153.317c-16.566-7.422-34.834-11.139-54.819-11.139-8.565 0-17.751.996-27.552 2.994-9.805 1.995-19.65 5.041-29.551 9.134-9.896 4.093-18.082 9.853-24.558 17.278-6.468 7.416-9.712 15.89-9.712 25.406 0 9.521 3.244 17.987 9.712 25.413 6.476 7.423 14.661 13.183 24.558 17.271 9.897 4.093 19.746 7.139 29.551 9.138 9.801 1.998 18.986 2.99 27.552 2.99 8.562 0 17.747-.992 27.548-2.99 9.802-1.999 19.65-5.045 29.554-9.138 9.897-4.089 18.076-9.849 24.551-17.271 6.479-7.426 9.709-15.893 9.709-25.413V27.401c-.003-7.612-2.659-14.08-7.997-19.407z" data-original="#000000" class="active-path" data-old_color="#000000" fill="#000000FFF"/></svg>