<svg xmlns="http://www.w3.org/2000/svg" width="512" height="512" viewBox="0 0 956.199 956.199" style="enable-background:new 0 0 956.199 956.199" xml:space="preserve"><path d="M152.2 773.5c17.6 17.6 40.6 26.4 63.6 26.4s46.1-8.801 63.6-26.4l234.2-234.199C530.5 522.4 540 499.5 540 475.7c0-23.899-9.5-46.8-26.4-63.6L284.4 182.7c-35.1-35.1-92.1-35.1-127.3 0-35.1 35.1-35.1 92.1 0 127.3l165.6 165.6-170.5 170.599C117 681.4 117 738.301 152.2 773.5zm588.199 182.699c49.7 0 90-40.299 90-90V90c0-49.7-40.3-90-90-90s-90 40.3-90 90v776.199c0 49.701 40.3 90 90 90z" data-original="#000000" class="active-path" data-old_color="#000000"/></svg>