<svg xmlns="http://www.w3.org/2000/svg" width="512" height="512" viewBox="0 0 956.199 956.199" style="enable-background:new 0 0 956.199 956.199" xml:space="preserve"><path d="M803.999 773.5c-17.6 17.6-40.6 26.4-63.6 26.4s-46.1-8.801-63.6-26.4l-234.2-234.199c-16.9-16.901-26.4-39.801-26.4-63.601 0-23.899 9.5-46.8 26.4-63.6l229.2-229.4c35.1-35.1 92.1-35.1 127.3 0 35.1 35.1 35.1 92.1 0 127.3l-165.6 165.6 170.5 170.599c35.2 35.201 35.2 92.102 0 127.301zM215.8 956.199c-49.7 0-90-40.299-90-90V90c0-49.7 40.3-90 90-90s90 40.3 90 90v776.199c0 49.701-40.3 90-90 90z" data-original="#000000" class="active-path" data-old_color="#000000" fill="#FFF"/></svg>